<?xml version="1.0" encoding="UTF-8" standalone="no"?>
<svg xmlns:rdf="http://www.w3.org/1999/02/22-rdf-syntax-ns#" xmlns="http://www.w3.org/2000/svg" height="182.86137" width="385.3555" version="1.1" xmlns:cc="http://creativecommons.org/ns#" xmlns:dc="http://purl.org/dc/elements/1.1/" viewBox="0 0 385.3555 182.86137"><g><g><path d="M385.3555,58.93984,352.3331,153.396l-6.20337-2.1012-2.16357,6.562L328.80954,152.953A454.82593,454.82593,0,0,0,261.618,136.51532c-11.21913-1.833-22.6599-3.22333-34.00082-4.13356-11.4222-.91663-23.17439-1.38121-34.93329-1.38121a418.14366,418.14366,0,0,0-68.613,5.51476A456.78966,456.78966,0,0,0,57.20033,152.953l-8.77839,2.84-6.37824,2.06372-2.16024-6.562L33.68924,153.396,0,58.943l7.46916-2.53756L5.51458,50.47625l6.36867-2.05749L20.665,45.58193a559.49807,559.49807,0,0,1,344.03162,0l8.766,2.83377,6.372,2.05431-1.94836,5.93851Z" fill="#b1b0b5"/></g><path d="M330.43945,147.90956a460.05667,460.05667,0,0,0-67.96786-16.628c-11.35916-1.85426-22.94363-3.26257-34.431-4.185-11.56285-.92819-23.45782-1.39885-35.35526-1.39885a423.6113,423.6113,0,0,0-69.47372,5.58475,461.74424,461.74424,0,0,0-67.64046,16.62706L45.43033,151.1873l-2.18368-6.63046-6.31723,2.141L6.80354,62.23134l7.34936-2.49541-1.9322-5.85509L22.29579,50.626a554.2152,554.2152,0,0,1,340.77-.00028l8.76483,2.83377,1.30566.42072L371.212,59.744l7.37207,2.498L349.0614,146.6897l-6.2962-2.13377-2.1843,6.63231Z" fill="#b1b0b5"/><path d="M340.647,151.3773l-8.83759-2.89116c-46.05594-15.02393-90.68834-22.64958-139.12553-22.64958-48.44435,0-92.42515,7.62566-138.46877,22.64958l-8.84657,2.89116-2.20223-6.76045L36.823,146.78223,7.30615,63.53717l7.41651-2.53984-1.9418-5.94,8.839-2.88387c34.72065-11.33057,92.03529-27.21264,171.064-27.21264A550.23487,550.23487,0,0,1,363.73367,52.17343L372.56824,55.05l-1.93494,5.94733,7.41711,2.53984L375.042,72.33155l-25.85275,74.45068-6.33884-2.16537Z" fill="#00853e"/><g><path d="M366.69183,70.41484q-9.801,28.622-19.60193,57.244-3.24532-1.11284-6.4935-2.17271-1.12244,3.42253-2.23511,6.85514a469.18192,469.18192,0,0,0-291.152,0q-1.1222-3.43259-2.23512-6.85514-3.24994,1.06123-6.4967,2.17271-9.80093-28.622-19.59566-57.244c2.42842-.8323,4.87558-1.64908,7.3165-2.44716q-.96331-2.93641-1.92036-5.87625a543.07454,543.07454,0,0,1,337.0051,0c-.6326,1.96085-1.278,3.91865-1.92,5.87625Q363.04269,69.1648,366.69183,70.41484Z" fill="#e4e4e6"/></g><g id="LYON"><path d="M80.64035,135.188c-.20412-.79121-1.79279-6.923-1.94835-7.54744.29668-.08339,1.61348-.42468,1.92977-.50077.12756.50077,1.32778,5.12354,1.48031,5.715.22863-.0621,1.90162-.49348,2.19858-.56624-.1227-.47948-.40292-1.54922-.49971-1.92279.31844-.08342,1.59659-.42162,1.87939-.49438.15967.628.81905,3.17184.9757,3.76334-.49.1236-5.45036,1.412-6.01569,1.55322" fill="#fff"/><path d="M90.66948,132.65125c-.10624-.43108-.73719-3.04765-.81756-3.39624-.28889-.23164-3.92575-3.1822-4.23764-3.41052.31189-.07276,2.148-.51508,2.37667-.57325.24353.19577,2.15154,1.79616,2.43877,2.03847.1568-.3373,1.13263-2.5904,1.26979-2.924.34537-.08,2.06188-.49775,2.32278-.55863-.1703.33365-2.12657,4.73174-2.22477,4.96009.06182.27579.74068,3.10243.8127,3.40381-.35513.07581-1.70847.40582-1.94074.46031" fill="#fff"/><path d="M96.28575,127.32463a4.08777,4.08777,0,1,1,4.86909,3.11636l-.00295.00064a4.07712,4.07712,0,0,1-4.86223-3.09912l-.00391-.01788m1.942-.4244a2.089,2.089,0,1,0-.01593-.06908q.00738.03468.01593.06908" fill="#fff"/><path d="M107.99152,128.816c-.10122-.52634-1.41849-7.4022-1.50144-7.805.37.21769,4.47039,2.68872,4.91286,2.93562-.10487-.53366-.6029-3.13865-.68906-3.58892.21737-.04321,1.68319-.32268,1.915-.37019.09785.5081,1.3938,7.25366,1.499,7.80892-.43927-.25724-4.51727-2.71793-4.89812-2.94291.10138.54067.61284,3.20412.68894,3.59258-.3233.06181-1.68789.323-1.92718.36987" fill="#fff"/></g><g id="villeurbanne"><path d="M228.184,122.0924c-.18205-.66581-2.0881-7.373-2.27408-8.075.351.02557,1.90237.15313,2.14651.17535.13181.48648,1.2101,4.66265,1.35745,5.22218.23044-.51175,1.94894-4.41392,2.16479-4.92963.34.03288,1.89783.161,2.14655.17931-.24113.48983-3.39014,7.179-3.5941,7.59216-.29013-.02952-1.71213-.14215-1.94713-.16438" fill="#fff"/><path d="M233.85976,122.59348c.02924-.34035.72151-7.39155.75742-7.81927.26273.02527,1.74072.161,2.02992.19027-.03712.38784-.72028,7.49717-.75681,7.826-.28191-.0289-1.74072-.16775-2.03055-.197" fill="#fff"/><path d="M237.4158,122.93293c.08649-.81831.78969-7.1675.85088-7.81107.31813.03257,1.67923.179,2.008.21919-.05479.51936-.5845,5.30651-.643,5.91324.22588.02192,1.963.21981,2.26711.25634.05054-.49379.175-1.60862.2149-1.99311.33337.03289,1.654.17931,1.94653.21553-.06578.63656-.362,3.28055-.42409,3.88788-.505-.05845-5.64288-.62163-6.22041-.688" fill="#fff"/><path d="M244.72516,123.74881c.099-.81588.90721-7.1532.99155-7.78976.31841.03714,1.67191.21219,1.99734.25237-.067.5154-.66882,5.29922-.75742,5.90321.24141.02862,1.96693.24811,2.275.28829.0621-.49045.20151-1.60192.2478-1.98551.3251.04049,1.6497.20855,1.94225.24811-.081.64052-.41676,3.26624-.49713,3.87722-.49744-.06606-5.61732-.71328-6.1994-.79393" fill="#fff"/><path d="M252.02171,124.69586c.07307-.43867,1.07555-7.27372,1.14011-7.77512.42892.06606,5.783.84175,6.1805.90385-.02863.20458-.25815,1.73311-.277,1.92308-.36258-.0548-3.82487-.56318-4.224-.61434-.01826.10624-.13548.88527-.1434,1.0171.39516.0548,2.92252.424,3.248.47187-.02164.172-.24811,1.72549-.27673,1.90845-.4-.05449-2.87537-.41614-3.24829-.47521-.03712.19028-.12511.86641-.154,1.00248.38054.05817,3.93172.57752,4.224.6177-.04352.326-.23807,1.64971-.28159,1.92369-.30688-.04049-5.95312-.867-6.18755-.90357" fill="#fff"/><path d="M260.51013,118.003c.2338.04079,1.74744.28555,1.9852.32239-.07214.42773-.6871,4.202-.80826,4.94089a1.05781,1.05781,0,0,0,.89258,1.19915,1.04408,1.04408,0,0,0,1.22086-.83049l.00388-.02161c.1358-.82289.74649-4.54573.80826-4.93693.23074.03654,1.72214.27763,1.95322.31448-.05875.36255-.69836,4.25258-.78662,4.80207a3.06859,3.06859,0,0,1-6.07724-.85568q.00934-.06618.02151-.1319c.2886-1.72976.72058-4.39566.78662-4.80238" fill="#fff"/><path d="M266.75641,126.99248c.12424-.68345,1.27588-6.99214,1.40707-7.731.33.0621,2.56754.46823,4.12137.75378a2.58082,2.58082,0,0,1,2.14761,2.95113q-.00984.06237-.02271.12421a2.53206,2.53206,0,0,1-1.93768,2.02965c.12085.351,1.03537,2.84122,1.15228,3.12312-.3111-.05814-2.15109-.38724-2.43909-.4393-.10687-.2627-.87006-2.486-.99609-2.819-.25513-.04779-.83292-.15038-1.00159-.17931-.06912.333-.36838,2.015-.471,2.54532-.24567-.04018-1.63171-.29652-1.96024-.35862M269.528,122.922c.20456.04049,1.21405.21949,1.96753.35529a.73619.73619,0,0,0,.91571-.49543q.00783-.02631.0137-.05316a.7278.7278,0,0,0-.677-.84845c-.74554-.13944-1.7261-.31844-1.96725-.35831-.0481.25572-.21979,1.20676-.25266,1.40007" fill="#fff"/><path d="M281.0704,125.40185a1.79616,1.79616,0,0,1,.8439,2.09172,2.35262,2.35262,0,0,1-2.75494,1.86544q-.04362-.0084-.08691-.01845c-1.604-.32941-4.12076-.8372-4.3765-.88133.06573-.30382,1.49173-7.4022,1.55807-7.70939.22925.05116,2.746.5562,4.3844.885a2.04409,2.04409,0,0,1,1.60129,2.34837,1.8479,1.8479,0,0,1-1.16931,1.41865m-4.1004,1.55775c.15405.02525,1.48138.29253,2.17667.43166a.58213.58213,0,1,0,.245-1.13818l-.01547-.00311c-.72061-.14583-2.04791-.41311-2.17941-.435-.02588.16073-.19757,1.01314-.22681,1.14466m.61435-3.02057c.147.0332,1.40829.285,2.04089.41342a.46278.46278,0,0,0,.5918-.35862.45712.45712,0,0,0-.40518-.55925c-.65451-.1391-1.88715-.38449-2.04483-.417-.03564.18629-.16379.7973-.18268.92149" fill="#fff"/><path d="M283.94025,130.35736c-.09436-.01889-1.95932-.42409-2.0954-.46121.08829-.1498,4.36737-6.93369,4.45078-7.06917.1254.02893,1.86615.40947,1.99768.4393.0213.13486,1.17355,8.11121,1.19885,8.30547-.186-.03685-1.96359-.42833-2.114-.45724-.02161-.17566-.16776-1.25851-.183-1.397-.127-.02586-2.43607-.53029-2.52249-.55283-.06271.09953-.66608,1.09383-.73245,1.19276m2.72858-4.45474c-.07608.12451-.87036,1.42292-.92487,1.5179.09772.02587,1.08316.23411,1.15866.25968-.014-.09863-.21188-1.64179-.2338-1.77758" fill="#fff"/><path d="M290.32657,131.77629c.13214-.527,1.77057-7.38727,1.86493-7.79309.24112.35466,2.99164,4.32565,3.28726,4.736.13211-.53793.75742-3.13441.85971-3.588.22009.0472,1.68958.40641,1.91608.46152-.12115.49987-1.73007,7.24025-1.86465,7.78853-.2962-.42014-3.02481-4.3701-3.28052-4.7281-.1282.53731-.75711,3.19255-.84845,3.58771-.32513-.077-1.68625-.40276-1.93436-.46458" fill="#fff"/><path d="M297.90686,133.60133c.13516-.53061,1.88715-7.36567,1.99036-7.7678.2338.3513,2.91824,4.37768,3.21356,4.7902.13608-.53339.80554-3.13017.91815-3.57614.2128.05845,1.67557.43169,1.90146.49014-.1236.5041-1.84634,7.21893-1.9852,7.76749-.29987-.432-2.95874-4.42181-3.20016-4.78714-.14584.53366-.82318,3.18161-.92517,3.56914-.3111-.08-1.675-.43108-1.913-.48587" fill="#fff"/><path d="M305.4744,135.55792c.10928-.43533,1.9447-7.09869,2.07986-7.58884.4183.1169,5.632,1.54683,6.02344,1.6564-.05084.19759-.467,1.6899-.51846,1.87285-.35165-.09558-3.72745-1.02045-4.1153-1.13-.02069.10655-.2338.86307-.26273.99092.37631.10628,2.84216.77905,3.1673.86613-.04446.17593-.46152,1.69017-.51569,1.86188-.38086-.09831-2.80927-.76746-3.17126-.86276-.04718.176-.2338.83751-.267.98.37659.10228,3.83307,1.04572,4.115,1.123-.085.31813-.443,1.605-.516,1.88319-.28952-.08766-5.80731-1.59824-6.01916-1.65273" fill="#fff"/></g><path d="M171.69479,153.964,144.765,169.10818l15.82713-30.17384L145.82388,118.863l23.43378,4.01391c.64433-1.20068,1.487-2.77277,2.01381-3.76184q.73746-1.38412,1.469-2.77c1.02667-1.93982,2.08791-3.946,3.16135-5.91324a1.65335,1.65335,0,0,0,.19072-1.06579c-.12984-1.46248-.23032-2.93746-.32742-4.364-.09315-1.36659-.18935-2.77944-.30991-4.15394-.162-1.84117-.392-3.8087-.7034-6.01491-.5052-3.57446-.92271-6.29226-1.35381-8.81171-1.08591-6.34386-2.48871-12.96656-4.2888-20.2464-2.017-8.15763-4.44679-16.6669-7.22227-25.29138-2.99422-9.306-6.209-18.35725-9.55455-26.90228q-.76762-1.95973-1.52151-3.92762l-1.71667-4.44467,2.66023-.86672c2.55936-.834,16.65157-2.54975,19.28046-2.54975a5.31388,5.31388,0,0,1,.551.02453l1.67175.17108.55852,1.585A509.37633,509.37633,0,0,1,190.01726,61.1931q1.40346-2.31861,2.80257-4.63311c4.58168-7.57724,9.31918-15.41235,14.061-23.049,8.31549-13.39034,15.079-23.39525,21.93109-32.44049L229.62271,0l1.34315.02054c5.29919.08143,10.45441.49011,15.91222.923,1.84122.146,3.69519.293,5.56619.42742l4.95428.35588-3.05342,3.91787-.80585,1.03169c-.435.55592-.82532,1.0547-1.21194,1.5564q-3.25406,4.22513-6.5218,8.44062c-4.8459,6.26122-9.85681,12.73566-14.70181,19.15624-10.01056,13.26567-19.37421,26.68843-27.83125,39.89565a284.8603,284.8603,0,0,0-16.46661,28.69735c-.46729.96261-.89349,1.93922-1.34483,2.97337-.377.864-.767,1.75747-1.183,2.64184a4.46622,4.46622,0,0,0-.34811,2.6038c.34019,2.521,1.21954,9.58648,1.64774,13.04176L213.304,130.4986l-25.20892,14.24577,5.03528,38.117Z" fill="#fff"/><path d="M49.23052,119.18936c1.24236-19.85066,3.36987-39.58834,6.504-60.341l.26392-1.7474,19.805-4.95111,1.05925,1.37435C89.333,69.704,101.105,86.542,111.85228,103.5703l2.063,3.26864L94.04013,110.7536l-.98713-1.4363c-1.31652-1.91515-3.55239-5.26145-4.83618-7.18851-2.30575.46732-6.47111,1.3395-9.68146,2.16906-3.181.822-7.015,1.86159-9.199,2.45829l-1.04375,10.40723-19.30038,5.83256ZM72.50993,80.3181c-.13972.89867-.268,1.80511-.36376,2.63392-.18907,1.63814-.41542,3.75741-.604,5.56149,2.572-.64829,4.4678-1.12443,5.87229-1.47407-.92807-1.35424-2.084-3-3.27553-4.5981C73.59477,81.71162,73.04225,80.99454,72.50993,80.3181Z" fill="#fff"/><path d="M131.54523,105.02729a25.90805,25.90805,0,0,1-3.64585-.25148c-8.62539-1.23232-15.33152-5.36435-19.93208-12.28143a4.32891,4.32891,0,0,1-.43135-.86794c-.01948-.05022-.04065-.10608-.06774-.16865l-1.11377-2.57229,3.99094-1.4704c3.8081-1.40434,7.74573-2.85662,11.68293-4.15426l1.841-.6067,1.13643,1.5704a9.46552,9.46552,0,0,0,3.39832,3.03378,10.05211,10.05211,0,0,0,4.68062,1.1576,11.68772,11.68772,0,0,0,2.9624-.40155,7.16567,7.16567,0,0,0,5.51962-5.5114c-5.45309-1.22032-11.0444-2.14424-16.47269-3.04111l-.04383-.00729c-4.41546-.72943-8.83076-1.46142-13.28731-2.20026L104.4157,76.0366,103.895,74.558a26.0127,26.0127,0,0,1-1.26521-5.57337c-.80019-6.78238,1.32425-12.94861,6.3143-18.32786a29.43928,29.43928,0,0,1,13.51837-8.16421,37.13489,37.13489,0,0,1,10.72094-1.63022c.478,0,.96245.01019,1.43935.03,7.46265.31083,13.54393,2.53513,18.59164,6.80036a22.03737,22.03737,0,0,1,5.3502,6.53685c.14767.27994.27431.54067.387.7958.06985.15814.13211.321.21977.56028l.11417.30734,1.038,2.75247L141.476,63.59319l-1.01331-1.746a8.32371,8.32371,0,0,0-3.16029-3.28632A9.23254,9.23254,0,0,0,132.695,57.383a11.99912,11.99912,0,0,0-1.24055.06668,11.80823,11.80823,0,0,0-6.18587,2.30544,6.24154,6.24154,0,0,0-2.108,2.98752c11.59329,1.86724,23.166,4.44588,34.38033,6.94467l2.63406.58678.397,1.589a30.33792,30.33792,0,0,1,.93521,6.79852c.19421,9.36274-4.17326,16.74789-12.98134,21.95029a32.35641,32.35641,0,0,1-11.5703,3.95608A34.19692,34.19692,0,0,1,131.54523,105.02729Z" fill="#fff"/><path d="M277.77679,108.31878c-.14673-.018-.23532-.03532-1.14679-.21828-3.22543-.64691-13.04117-2.616-22.93634-3.95973-11.23892-1.5267-22.57161-2.22567-22.68488-2.23268l-2.83119-.1723.36317-2.81323c.71693-5.5537,7.01131-54.30034,7.25516-55.67316l.42075-2.36848,2.398.18919a433.9944,433.9944,0,0,1,51.23155,7.51227l2.53619.55542-.50262,2.54716c-.01489.07566-1.502,7.61287-2.31152,11.36193l-.53577,2.48217-5.1814-.88817c-9.73325-1.67178-21.59473-3.70888-29.18021-4.50449l-.593,4.67192c3.31282.50458,6.57875,1.003,9.8477,1.50188,4.23462.64617,8.47531,1.29339,12.83261,1.95611l2.69907.41053-.48953,2.6857c-.35678,1.95823-.70172,3.9285-1.03473,5.83392-.334,1.90832-.67917,3.88164-1.0372,5.84626l-.46393,2.54579-2.5563-.4023q-3.10341-.48838-6.16257-.99409c-5.41763-.88483-10.5759-1.72751-15.90735-2.38051-.09164.81207-.17931,1.61654-.26547,2.408-.084.77416-.16986,1.561-.25935,2.35386,10.81819,1.39446,20.9959,3.149,29.63286,4.70512l2.56146.46149-.41434,2.5697c-.37109,2.30117-.86246,4.61637-1.33765,6.85545-.34888,1.64422-.71,3.34446-1.014,5.00149l-.45148,2.45826Z" fill="#fff"/><path d="M330.27139,121.98949c-14.89389-4.52991-29.43954-8.40073-44.468-11.83378l-2.47778-.566.46121-2.49934c.07034-.38116.1373-.75986.204-1.13706.14368-.811.29257-1.64939.46851-2.48507q.97179-4.61212,1.95383-9.22177,1.06993-5.03568,2.13315-10.07266l1.36169-6.47722c4.10767-19.545,5.32785-25.31087,5.43958-25.70649l.68466-2.4205,20.32217,4.60951L305.67288,97.513l13.98825,3.72743,2.10391-7.21376,18.49353,5.63774-7.49811,23.08214Z" fill="#fff"/><g><path d="M158.85744,78.71634c.18385,8.96864-4.2334,15.216-11.68082,19.61137a29.86179,29.86179,0,0,1-10.63953,3.6224,27.52186,27.52186,0,0,1-8.26421.20244c-7.62487-1.09108-13.77863-4.63221-18.09923-11.12567a4.26822,4.26822,0,0,1-.27124-.62347c4.33933-1.59615,8.607-3.19227,12.95574-4.62629a12.148,12.148,0,0,0,4.33631,3.84068,12.97813,12.97813,0,0,0,9.52666.96018,9.75786,9.75786,0,0,0,6.43414-4.82885,9.498,9.498,0,0,0,1.17847-5.32448c-6.23169-1.5025-12.54114-2.54367-18.85076-3.585-6.32191-1.04435-12.644-2.09477-19.08756-3.161a23.35857,23.35857,0,0,1-1.13157-5.00635c-.74511-6.30336,1.3809-11.64031,5.62372-16.21348a27.03814,27.03814,0,0,1,12.34159-7.42867,33.955,33.955,0,0,1,11.2849-1.49c6.30016.2618,12.086,2.03557,16.98961,6.17854a19.26821,19.26821,0,0,1,4.71651,5.74536c.109.20883.212.41766.3055.62971.07793.17763.13716.35846.28053.73566-4.76021,1.24694-9.39575,2.46586-14.05,3.68784a11.00651,11.00651,0,0,0-4.1646-4.27387,12.18566,12.18566,0,0,0-7.41315-1.43084,14.39082,14.39082,0,0,0-7.5316,2.84612c-2.16024,1.67087-3.73762,4.5669-3.20153,7.34132,12.6253,1.92659,25.07616,4.726,37.55489,7.50663A27.79919,27.79919,0,0,1,158.85744,78.71634Z" fill="#00853e"/><path d="M109.6094,104.98648c-4.81638.94771-9.52665,1.87653-14.37106,2.83028C93.31191,105.01114,89.44,99.18193,89.44,99.18193s-6.76776,1.309-11.56846,2.54991c-4.79768,1.24086-10.99175,2.949-10.99175,2.949s-.70141,7.01406-1.04756,10.45562c-4.676,1.41225-9.23349,2.79314-13.95642,4.21788,1.26568-20.23179,3.46975-40.1797,6.481-60.109,5.49282-1.37482,10.91394-2.73074,16.40675-4.10251C87.14266,71.20668,98.73291,87.75045,109.6094,104.98648ZM68.5164,92.01184s13.152-3.32,13.2051-3.28875c0-.025-2.6592-4.11177-5.45859-7.8651-2.59982-3.48829-5.35553-6.65862-5.35553-6.65862s-.98194,4.86613-1.39352,8.44792c-.41461,3.58192-.99743,9.36456-.99743,9.36456Z" fill="#00853e"/><path d="M336.90216,101.414c-1.9794,6.10045-3.92163,12.07032-5.86057,18.03988-14.795-4.50129-29.5994-8.44486-44.64673-11.88309.22134-1.20343.41159-2.3849.6579-3.557,1.35593-6.43108,2.73376-12.86229,4.08664-19.29337,1.41833-6.73674,6.60583-31.4698,6.75833-32.00911,5.08154,1.15349,10.10342,2.29129,15.23456,3.45709-3.56,14.449-7.092,28.77958-10.655,43.23783,6.372,1.699,12.64722,3.36974,19.00339,5.06268.692-2.37546,1.36234-4.676,2.07623-7.12335C328.04266,98.711,332.41034,100.04226,336.90216,101.414Z" fill="#00853e"/><path d="M289.27844,51.17142s-1.48715,7.54709-2.30057,11.316c-11.34427-1.94211-26.62238-4.63237-34.61516-5.22158-.41158,3.24826-.81982,6.4717-1.24086,9.773,8.52283,1.29685,16.65289,2.5438,25.23813,3.85-.71692,3.9279-1.359,7.76219-2.07285,11.6776-8.33286-1.30935-16.36951-2.77442-24.8019-3.69089-.4332,3.41659-.72638,6.67112-1.14709,10.00036,10.88582,1.32806,21.329,3.07063,32.10579,5.01271-.63293,3.91865-1.61807,7.85581-2.3414,11.79939-.3364-.04078-12.23865-2.56877-24.05325-4.17433C242.58354,99.955,231.17076,99.263,231.17076,99.263s6.99551-54.19837,7.2354-55.5514A427.26089,427.26089,0,0,1,289.27844,51.17142Z" fill="#00853e"/><path d="M252.2534,4.01509c-.79181,1.0162-1.412,1.805-2.02628,2.59985-7.0856,9.20244-14.243,18.34887-21.23854,27.61678Q214.26865,53.74,201.04164,74.296a283.48146,283.48146,0,0,0-16.62184,28.96952c-.901,1.85489-1.66158,3.77525-2.54077,5.6423a7.13059,7.13059,0,0,0-.57658,4.087c.45831,3.398,1.88594,14.96333,1.88594,14.96333l22.35153,3.88117L185.2334,143.31754l3.9279,29.7458-16.73087-22.55428L151.27287,162.405l12.43521-23.70746-11.85541-16.11042,18.83826,3.22634s1.97011-3.67234,2.921-5.45232c1.53676-2.88661,3.04871-5.78874,4.61665-8.65981a4.30456,4.30456,0,0,0,.50507-2.5688c-.25238-2.837-.38966-5.68-.639-8.51672-.18085-2.05428-.43016-4.10859-.71693-6.15373-.42087-2.96757-.86047-5.93227-1.36552-8.88753-1.17525-6.86748-2.656-13.67267-4.33006-20.43423-2.11974-8.579-4.56674-17.06131-7.27264-25.46889q-4.39542-13.66806-9.60767-27.05556c-.75131-1.914-1.48393-3.83429-2.226-5.75143,2.254-.73582,17.11137-2.57806,18.73857-2.40972C178.6402,25.24116,184.14854,46.57634,188.859,68.214c6.79884-11.18505,13.44212-22.30464,20.27534-33.30583,6.82076-10.98564,13.89384-21.81222,21.79015-32.23664C237.951,2.78065,244.97449,3.49135,252.2534,4.01509ZM181.8947,141.6526l14.83258-8.52892s-10.9202-1.90483-16.29765-2.83362c-.79823-4.42063-1.00385-8.82849-1.92354-13.14589-2.26009,3.85286-4.22078,7.818-6.50278,11.6837-4.5856-.77934-9.04337-1.53676-13.49809-2.29752,2.77124,4.0964,5.686,7.95872,8.46042,11.93334-2.88356,5.41794-8.75662,16.43462-8.75662,16.43462s9.88817-5.54578,14.79193-8.289c3.96216,5.03465,11.59969,15.46837,11.59969,15.46837Z" fill="#00853e"/><path d="M196.72728,133.1237l-14.83258,8.52892,2.70593,20.42509s-7.63753-10.43372-11.59969-15.46837c-4.90376,2.74321-14.79193,8.289-14.79193,8.289s5.87308-11.01668,8.75662-16.43462c-2.77441-3.97462-5.68918-7.83694-8.46042-11.93334,4.45474.76076,8.91251,1.5182,13.49811,2.29752,2.282-3.86565,4.24269-7.83084,6.50278-11.6837.91968,4.31741,1.12531,8.72526,1.92354,13.14589C185.80707,131.21887,196.72728,133.1237,196.72728,133.1237Z" fill="#f49a37"/></g></g></svg>