<?xml version="1.0" encoding="UTF-8" standalone="no"?>
<svg
   xmlns:svg="http://www.w3.org/2000/svg"
   xmlns="http://www.w3.org/2000/svg"
   version="1.1"
   width="330.13788"
   height="489.43842"
   id="svg3275">
  <defs
     id="defs3277" />
  <g
     transform="translate(-228.07391,-303.92869)"
     id="layer1">
    <path
       d="m 526.13501,420.27979 0.17355,0 0,191.48952 c 28.01316,22.88596 37.4256,59.22859 26.41451,94.10942 -16.69564,52.89544 -74.16788,88.48239 -128.56974,86.40175 -32.46105,-1.23965 -63.90654,-16.14423 -80.77078,-44.28731 -39.95249,-9.61376 -74.98209,-35.11982 -95.59402,-70.88925 -13.8593,-24.05022 -20.32532,-51.33249 -18.37362,-79.04814 2.74013,-38.95382 21.37258,-74.34142 51.10738,-99.12752 l 0,-78.70996 0.17058,0 c -0.11209,-0.88264 -0.17058,-1.80196 -0.17058,-2.74905 l 0,-34.64777 c 0,-2.72725 0.73883,-5.19861 2.04293,-7.23065 -1.33187,-2.6935 -2.04293,-5.90868 -2.04293,-9.56417 l 0,-47.54809 c 0,-7.87922 5.6776,-13.54988 13.55187,-13.54988 l 8.47031,0 c 7.91889,0 13.54988,5.63397 13.54988,13.54988 l 0,4.39731 10.71951,0.0396 c 3.38971,0 6.40058,0.60495 8.96417,1.7484 1.98742,-1.11272 4.35167,-1.73154 6.97777,-1.74246 4.53115,-0.0496 9.06631,-0.0793 13.59748,-0.0793 4.13251,0 8.26501,0.0297 12.39751,0.0793 3.41846,0.009 6.41744,0.57917 8.94831,1.68098 2.5041,-1.09585 5.42272,-1.68098 8.69738,-1.68692 4.39928,-0.0297 8.80155,-0.0793 13.20083,-0.0793 4.44787,0 8.90367,0.0396 13.35353,0.0793 4.08192,0.009 7.62136,0.90545 10.48845,2.56956 2.86508,-1.67006 6.41841,-2.56063 10.56479,-2.56956 4.17713,-0.0396 8.35724,-0.0793 12.53437,-0.0793 4.57679,0 9.15656,0.0396 13.73535,0.0793 3.66341,0.009 6.94701,0.92824 9.67126,2.5646 2.86707,-1.66214 6.3976,-2.55567 10.47655,-2.5646 4.42507,-0.0297 8.85309,-0.0793 13.27717,-0.0793 4.60258,0 9.20713,0.0396 13.80873,0.0793 11.57637,0.0199 18.56502,7.17708 18.71973,18.73362 0,0.0396 0,1.26246 0.0496,5.24919 0.0198,0.3233 0.0297,0.65155 0.0297,0.98973 0,0.31438 -0.008,0.62379 -0.0198,0.92726 -0.0197,1.82676 -0.0396,3.6545 -0.0496,5.48125 -0.006,1.76626 -0.24992,3.41648 -0.71404,4.93083 0.46709,1.43701 0.71404,3.00889 0.71404,4.68392 l 0,2.11632 c 0,8.82433 -4.14342,15.13268 -11.24713,17.64669 6.66736,1.98939 11.1063,7.91591 11.1063,15.45498 l 0,2.15105 c 0,1.44197 -0.20232,2.80856 -0.58115,4.07599 0.5276,1.76029 0.8033,3.69713 0.8033,5.77974 0,1.0294 0,2.05486 0,3.08425 0,1.08197 0,2.16691 0,3.24988 0,0.97188 -0.0594,1.90808 -0.17355,2.81054 z M 391.98187,751.72701 c 10.09275,5.51496 21.77027,8.32054 33.3883,8.76483 40.15281,1.53517 84.6702,-25.08659 97.01416,-64.18818 4.76225,-15.09005 3.97481,-30.52618 -2.8026,-43.5584 -5.94041,18.0414 -15.50359,34.73505 -28.17383,49.1755 -25.56459,29.14074 -61.39847,46.60992 -99.42603,49.80625"
       id="path46"
       style="fill:#ffffff;fill-opacity:1;fill-rule:evenodd;stroke:none" />
    <path
       d="m 513.75933,627.80447 c -10.08284,67.92894 -72.60097,117.67568 -144.28657,112.6774 -2.39203,-0.16562 -4.77018,-0.39371 -7.12849,-0.67735 12.32116,18.689 34.77074,31.0518 62.58755,32.11492 47.19404,1.80494 94.98411,-29.80421 108.36044,-72.17154 8.88583,-28.15398 0.80628,-55.06831 -19.53293,-71.94343 z M 350.87699,737.94306 c -65.97525,-13.44873 -114.75507,-72.2469 -110.05232,-139.08299 2.7193,-38.62259 22.22844,-72.18244 51.13614,-94.44461 l 0,-72.75566 222.90923,0.0594 0,185.71177 c 26.22013,18.62452 37.70328,50.92984 26.94509,85.00738 -14.70824,46.59206 -66.41659,80.36018 -117.22347,78.4174 -33.54299,-1.2813 -60.90955,-17.9571 -73.71467,-42.9098 z M 391.3442,417.46925 c 0,3.91234 -1.54015,5.34637 -5.39794,5.39991 -3.6902,0.0496 -6.66537,0.0496 -9.583,0.0496 -2.81154,0 -9.25674,-0.0496 -9.25674,-0.0496 -3.80127,0 -5.01315,-1.6502 -5.01315,-4.18604 l 0,-2.755 c 0,-1.15834 0.3352,-1.54015 1.5441,-1.54015 0,0 3.91234,0 2.97417,0 -1.04625,0 3.14277,0 3.14277,0 1.20892,0 1.48461,0.38776 1.48461,1.54015 0,1.20889 0.55337,1.54113 1.71171,1.54113 0,0 4.73349,0.0595 3.90739,0.0595 -0.71404,0 3.68821,-0.0595 3.68821,-0.0595 1.27039,0 1.70973,-0.49488 1.76526,-1.76032 0,0 0.0594,-1.15831 0.0594,-1.48956 0,-0.32627 -0.0594,-1.54112 -0.0594,-1.54112 -0.0595,-1.15736 -0.38776,-1.54312 -1.5461,-1.54312 l -13.43484,0 c -3.85681,0 -5.34638,-1.54015 -5.4029,-5.45349 0,0 -0.0496,-2.80558 -0.0496,-3.03068 0,-0.8767 0.0496,-2.86113 0.0496,-2.86113 0.0594,-4.02342 1.54609,-5.40092 5.4029,-5.40092 0,0 6.22107,-0.0594 9.08912,-0.0594 2.91765,0 9.97078,0.0594 9.97078,0.0594 3.30045,0 4.73446,1.98444 4.73446,4.73944 l 0,2.15104 c 0,1.15238 -0.33221,1.54015 -1.54113,1.54015 0,0 -1.92791,0.0595 -3.08622,0.0595 -1.15834,0 -2.69848,-0.0595 -2.69848,-0.0595 -1.26543,0 -1.48759,-0.33123 -1.48759,-1.54015 0,-1.10476 -0.21917,-1.437 -1.43304,-1.48956 0,0 -2.755,-0.1131 -4.40325,-0.1131 -1.15733,0 -4.30306,0.1131 -4.30306,0.1131 -1.20891,0.0496 -1.48461,0.33123 -1.54115,1.48956 0,0 -0.0496,0.82116 -0.0496,1.37157 0,0.5008 0.0496,1.27038 0.0496,1.27038 0.0595,1.20891 0.60793,1.6532 1.76328,1.6532 l 13.55189,0.10707 c 3.85779,0.0595 5.39794,1.59666 5.39794,5.45347 0,3.25284 0,1.81882 0,3.08424 0,1.21387 0,3.24988 0,3.24988 z m 72.57912,-16.11945 c -0.76461,0 -1.02939,-0.64957 -1.02939,-1.01552 0,0 0,-1.70873 0,-3.02674 0,-1.3775 0,-2.04096 0,-2.04096 0,-0.67238 0.70908,-0.92824 0.98379,-0.92824 l 0.0793,0 2.06576,0 c 0.58809,0 0.99271,-0.55041 0.99271,-1.02049 l 0,-10.40415 -0.0198,-0.0496 c 0,-1.1613 0.43835,-1.54312 1.54015,-1.54312 0,0 1.64725,0 2.96625,0 1.3775,0 3.18738,0 3.18738,0 1.15834,0 1.54115,0.38182 1.54115,1.54312 l 0,10.48052 c 0,0.58709 0.47503,1.00063 1.01749,1.00063 0.38776,0 2.93749,0.0496 2.93749,0.0496 1.15535,0 1.54014,0.43834 1.54014,1.54015 0,0 0,-0.1934 0,1.12163 0,1.37453 0,2.74707 0,2.74707 0,1.15237 -0.38479,1.53418 -1.54014,1.53418 l -0.60197,0 c -1.15834,0 -2.33552,0.009 -2.33552,0.009 -0.51172,0 -1.01749,0.35107 -1.01749,0.97782 0,0 -0.18843,4.14939 -0.18843,5.79961 0,1.86641 0.21618,5.27398 0.21618,5.27398 0,0.43039 0.45223,0.93916 1.0909,0.93916 l -0.92229,-0.003 4.31496,0 c 0.55638,0 0.97588,0.44133 0.97588,0.93917 0.005,0 0,0.719 0,2.03501 0.005,1.37156 0,4.59365 0,4.59365 0.005,0.66347 -0.52563,1.01751 -1.00066,1.01751 l -3.1378,-0.009 c -2.36427,0 -6.57215,-0.006 -6.57215,-0.006 -1.98443,0 -4.01152,-1.49849 -4.01152,-3.84292 l 0.005,-7.77608 0,-8.99493 c 0,-0.41949 -0.41255,-0.93915 -1.01155,-0.93915 l -2.07171,0 z m 50.94971,16.11945 c 0,3.91234 -1.5461,5.34637 -5.39993,5.39991 -3.69416,0.0496 -6.66834,0.0496 -9.58895,0.0496 -2.80559,0 -9.25177,-0.0496 -9.25177,-0.0496 -3.80128,0 -5.01515,-1.6502 -5.01515,-4.18604 l 0,-2.755 c 0,-1.15834 0.33125,-1.54015 1.54611,-1.54015 0,0 3.90737,0 2.97417,0 -1.05122,0 3.13979,0 3.13979,0 1.20891,0 1.48459,0.38776 1.48459,1.54015 0,1.20889 0.55041,1.54113 1.70875,1.54113 0,0 4.73746,0.0595 3.91036,0.0595 -0.71702,0 3.69417,-0.0595 3.69417,-0.0595 1.26543,0 1.70377,-0.49488 1.76029,-1.76032 0,0 0.0595,-1.15831 0.0595,-1.48956 0,-0.32627 -0.0595,-1.54112 -0.0595,-1.54112 -0.0594,-1.15736 -0.38279,-1.54312 -1.54113,-1.54312 l -13.44278,0 c -3.8568,0 -5.34141,-1.54015 -5.39795,-5.45349 0,0 -0.0594,-2.80558 -0.0594,-3.03068 0,-0.8767 0.0594,-2.86113 0.0594,-2.86113 0.0594,-4.02342 1.54115,-5.40092 5.39795,-5.40092 0,0 6.22701,-0.0594 9.08813,-0.0594 2.92063,0 9.97176,0.0594 9.97176,0.0594 3.30243,0 4.73647,1.98444 4.73647,4.73944 l 0,2.15104 c 0,1.15238 -0.32627,1.54015 -1.54014,1.54015 0,0 -1.92892,0.0595 -3.09021,0.0595 -1.15238,0 -2.69254,-0.0595 -2.69254,-0.0595 -1.26543,0 -1.48956,-0.33123 -1.48956,-1.54015 0,-1.10476 -0.22015,-1.437 -1.43402,-1.48956 0.006,0 -2.75202,-0.1131 -4.40522,-0.1131 -1.15834,0 -4.29516,0.1131 -4.29516,0.1131 -1.21485,0.0496 -1.48459,0.33123 -1.54113,1.48956 0,0 -0.0594,0.82116 -0.0594,1.37157 0,0.5008 0.0594,1.27038 0.0594,1.27038 0.0594,1.20891 0.60196,1.6532 1.7603,1.6532 l 13.55287,0.10707 c 3.85383,0.0595 5.39993,1.59666 5.39993,5.45347 0,3.25284 0,1.81882 0,3.08424 0,1.21387 0,3.24988 0,3.24988 z M 313.55058,401.27939 c 0,-1.15833 -0.3828,-1.48956 -1.54113,-1.48956 0,0 -3.02971,-0.0595 -4.40721,-0.0595 -1.15536,0 -4.84357,0.0595 -4.84357,0.0595 -1.15834,0 -1.5461,0.3848 -1.5461,1.48956 0,0 -0.0496,5.12224 -0.0496,6.76949 0,1.87238 0.0496,7.87924 0.0496,7.87924 0,1.20889 0.38776,1.54113 1.5461,1.54113 0,0 3.63167,0.0595 4.40424,0.0595 0.71998,0 3.35696,-0.0595 4.84654,-0.0595 1.15833,0 1.54113,-0.38282 1.54113,-1.54113 0,0 0.0595,-6.33314 0.0595,-7.87924 0,-1.32196 0,-4.67795 -0.0595,-6.76949 z m 9.2012,16.18986 c 0,3.8568 -1.54114,5.39991 -5.40092,5.39991 0,0 -7.5956,0.0496 -10.2435,0.0496 -2.3702,0 -9.75258,-0.0496 -9.75258,-0.0496 -3.85383,0 -5.39397,-1.54311 -5.39397,-5.39991 l 0,-34.64777 c 0,-1.15338 0.43833,-1.54115 1.54014,-1.54115 l 2.97418,0 3.1963,0 c 1.15834,0 1.54114,0.38777 1.54114,1.54115 l 0,9.97077 c 0,1.15831 0.38776,1.54113 1.5461,1.54113 l 14.59219,0.0594 c 3.91631,0 5.40092,1.5461 5.40092,5.40092 0,0 0.0595,5.78471 0.0595,8.25905 0,2.48229 -0.0595,9.42037 -0.0595,9.42037 z m 20.23211,0.0396 -0.15271,0.009 c 0.75075,-0.009 3.76756,-0.0595 3.76756,-0.0595 1.26445,0 1.70378,-0.49487 1.75933,-1.76029 0,0 0.0595,-1.15834 0.0595,-1.48957 0,-0.32629 -0.0595,-1.54115 -0.0595,-1.54115 -0.0496,-1.13254 -0.36794,-1.52625 -1.46479,-1.54311 l -8.67459,0 c -1.15832,0 -1.49055,0.38578 -1.54608,1.54311 0,0 -0.0496,1.21486 -0.0496,1.54115 0,0.33123 0.0496,1.48957 0.0496,1.48957 0.0595,1.26542 0.49983,1.76029 1.76526,1.76029 0,0 3.10904,0.0396 3.67928,0.0595 -0.1121,0 -0.12305,0 0.009,0 l 0.85486,-0.009 z m 14.14293,-14.85996 10e-4,9.704 0,6.32819 c 0,2.53581 -1.21387,4.18604 -5.01512,4.18604 0,0 -6.67926,0.0496 -9.4898,0.0496 -2.9216,0 -5.89578,0 -9.584,-0.0496 -3.85977,-0.0496 -5.39992,-1.48758 -5.39992,-5.39991 l 0,-3.24988 0,-3.08424 c 0,-3.85683 1.54015,-5.39696 5.39992,-5.45349 l 13.55288,-0.10706 c 1.15238,0 1.70377,-0.44428 1.7603,-1.65319 0,0 0.0595,-0.76959 0.0595,-1.27041 0,-0.55041 -0.0595,-1.37154 -0.0595,-1.37154 -0.0594,-1.15834 -0.33223,-1.43701 -1.54114,-1.48957 0,0 -3.13681,-0.1131 -4.29513,-0.1131 -1.65619,0 -4.41119,0.1131 -4.41119,0.1131 -1.2089,0.0496 -1.43303,0.38478 -1.43303,1.48957 0,1.2089 -0.21917,1.54014 -1.48461,1.54014 0,0 -1.54014,0.0595 -2.69848,0.0595 -1.15535,0 -3.08424,-0.0595 -3.08424,-0.0595 -1.21387,0 -1.54611,-0.38776 -1.54611,-1.54014 l 0,-2.15104 c 0,-2.755 1.43404,-4.73945 4.74241,-4.73945 0,0 7.04519,-0.0595 9.96879,-0.0595 2.86409,0 9.08813,0.0595 9.08813,0.0595 3.85979,0 5.3444,1.3775 5.40092,5.40092 0,0 0.0693,1.98443 0.0693,2.86111 z m 57.08945,-7.067 c 1.11865,-1.20594 3.2826,-1.23669 3.44624,-1.23669 0,0 2.56656,0 3.88259,0 1.3765,0 3.09714,0 3.09714,0 0.98974,0 1.14742,1.2109 0.70908,1.66114 -0.62776,0.64661 -10.08978,9.69805 -10.08978,9.69805 -0.24694,0.38281 -0.2757,0.73686 -0.0693,1.1276 0,0 11.28678,14.02789 11.61902,14.48308 0.26973,0.37687 0.24197,0.79041 0,1.16429 -0.22513,0.34015 -0.63868,0.41355 -0.87173,0.41355 l -3.61185,0 c -0.34313,0 -0.96991,0 -1.30214,0 -1.37451,0 -1.86344,0 -1.86344,0 -0.13776,0 -2.03599,-0.0297 -3.37384,-1.44493 -0.0496,-0.0595 -6.83097,-8.35824 -6.83097,-8.35824 -0.38777,-0.44924 -1.00659,-0.59901 -1.59668,-0.009 -0.8747,0.94411 -1.61352,1.56593 -1.72658,1.75138 -0.16263,0.25884 -0.18842,0.43833 -0.18842,0.60098 l -0.0198,5.91463 c 0,1.15833 -0.44332,1.54114 -1.54014,1.54114 0,0 -1.65321,0 -2.96824,0 -1.37253,0 -3.19135,0 -3.19135,0 -1.15733,0 -1.54015,-0.38281 -1.54015,-1.54114 l 0.009,-3.94407 0,-5.68654 -0.009,-0.48891 0.009,-28.43861 c 0,-1.15237 0.43933,-1.53419 1.54113,-1.53419 0,0 1.64726,0 2.96822,0 1.37453,0 3.19037,0 3.19037,0 1.15338,0 1.53519,0.38182 1.53519,1.53419 l 0,18.40834 0,0.54545 c 0,0.5504 0.43041,1.00362 0.98676,1.00362 0.17158,0 0.45222,-0.0595 0.7081,-0.3124 0,0 7.04221,-6.79428 7.08782,-6.85082 z m 35.15951,4.20788 c 0,0 -3.03072,-0.0594 -5.12226,-0.0594 -2.26311,0 -4.68687,0.0594 -4.68687,0.0594 -1.15237,0 -1.54013,0.33221 -1.54013,1.48758 l 0,1.54312 0,1.54311 c 0,1.15834 0.38776,1.54115 1.54013,1.54115 0,0 4.13547,0.0595 4.68687,0.0595 1.70379,0 3.41251,0 5.12226,-0.0595 1.15237,0 1.4836,-0.38281 1.54013,-1.54115 0,0 0.0595,-0.82611 0.0595,-1.54311 0,-0.82313 -0.0595,-1.54312 -0.0595,-1.54312 -0.0594,-1.15834 -0.27569,-1.48758 -1.54013,-1.48758 z m 10.02133,9.08912 c 0,2.04096 -0.87667,2.42278 -2.31071,2.42278 l -17.51975,0 c -1.15237,0 -1.54013,0.33222 -1.54013,1.54609 l 0,1.43105 0,1.43403 c 0,1.20891 0.6575,1.75932 1.87235,1.75932 l 4.90506,0 4.02044,0 c 1.26544,0 1.54015,-0.2747 1.54015,-1.42807 0,-1.15834 0.16363,-1.65817 1.54113,-1.65817 l 2.97715,0 2.97418,0 c 1.2089,0 1.54013,0.38776 1.54013,1.5461 l 0,1.54014 c 0,3.8568 -1.54013,5.40092 -5.34141,5.40092 0,0 -6.99163,0.0496 -10.18994,0.0496 -2.64294,0 -9.47689,-0.0496 -9.47689,-0.0496 -3.85383,0 -5.39496,-1.48758 -5.39496,-5.40092 0,0 -0.0594,-8.53673 -0.0594,-9.14466 0,-1.15239 0.0594,-8.53773 0.0594,-8.53773 0,-3.8568 1.54113,-5.39696 5.39496,-5.39696 0,0 7.05313,-0.0595 9.63953,-0.0595 2.81154,0 10.0273,0.0595 10.0273,0.0595 3.80128,0 5.29084,1.48957 5.34141,5.39696 0,0 0.0297,3.37978 0.0496,4.54307 0.003,-0.50577 0.009,-0.6575 0.009,-0.0793 0,0.65749 -0.006,0.55634 -0.009,0.0793 -0.0197,1.2228 -0.0496,4.54605 -0.0496,4.54605"
       id="path48"
       style="fill:#373934;fill-opacity:1;fill-rule:evenodd;stroke:none" />
    <path
       d="m 349.5699,463.78067 c 50.94176,-16.15911 109.82126,-7.77014 116.61951,28.35331 7.02139,37.32146 -46.08429,81.87257 -103.68249,98.65249 -7.81477,2.277 -15.5145,3.94407 -22.98414,5.02903 l -47.56197,-6.51364 0,-3.78638 c 16.84438,5.61115 40.46124,5.69843 68.3058,-2.41486 58.03654,-16.90587 103.69837,-59.50726 98.05646,-89.485 -5.0905,-27.04624 -54.29178,-38.71285 -106.33238,-22.20565 -23.6704,7.50834 -44.56895,19.63312 -60.02988,33.425 l 0,-10.47754 c 15.96473,-12.88942 36.04213,-23.73488 57.60909,-30.57676"
       id="path50"
       style="fill:#ffffff;fill-opacity:1;fill-rule:evenodd;stroke:none" />
    <path
       d="m 422.44978,722.49558 c -60.21024,20.72193 -125.85471,-11.25616 -146.62108,-71.428 -20.76311,-60.17185 11.21139,-125.74671 71.42163,-146.46848 60.21302,-20.72422 125.85421,11.25615 146.62042,71.42801 20.76638,60.17184 -11.20796,125.74718 -71.42097,146.46847 z"
       id="path54"
       style="fill:#ffffff;fill-opacity:1;fill-rule:evenodd;stroke:#ffffff;stroke-width:6.26912546;stroke-linecap:butt;stroke-linejoin:miter;stroke-miterlimit:3.863693;stroke-opacity:1;stroke-dasharray:none" />
    <path
       d="m 467.02147,366.02666 c 0,5.36424 -2.11733,7.33478 -7.40816,7.41115 -5.06275,0.0693 -9.14467,0.0693 -13.15023,0.0693 -3.85979,0 -12.70097,-0.0693 -12.70097,-0.0693 -5.21746,0 -6.87859,-2.27204 -6.87859,-5.74605 l 0,-3.78143 c 0,-1.58874 0.45222,-2.11732 2.11634,-2.11732 0,0 5.36918,0 4.08193,0 -1.439,0 4.30703,0 4.30703,0 1.66412,0 2.04096,0.52858 2.04096,2.11732 0,1.6641 0.75571,2.11633 2.34445,2.11633 0.001,0 6.49875,0.0793 5.36621,0.0793 -0.97785,0 5.06868,-0.0793 5.06868,-0.0793 1.73452,0 2.34144,-0.6823 2.41781,-2.41682 0,0 0.0693,-1.58874 0.0693,-2.04691 0,-0.44925 -0.0693,-2.11435 -0.0693,-2.11435 -0.0794,-1.58477 -0.53156,-2.11633 -2.11733,-2.11633 l -18.44699,0 c -5.29283,0 -7.32883,-2.11733 -7.40421,-7.48056 0,0 -0.0793,-3.8568 -0.0793,-4.15829 0,-1.21089 0.0793,-3.9292 0.0793,-3.9292 0.0794,-5.5219 2.11138,-7.41013 7.40421,-7.41013 0,0 8.54068,-0.0794 12.47584,-0.0794 4.00656,0 13.68279,0.0794 13.68279,0.0794 4.52819,0 6.4938,2.72622 6.4938,6.50171 l 0,2.94939 c 0,1.58476 -0.44729,2.11632 -2.11139,2.11632 0,0 -2.64789,0.0693 -4.23662,0.0693 -1.58577,0 -3.70508,-0.0693 -3.70508,-0.0693 -1.73452,0 -2.03502,-0.45222 -2.03502,-2.11632 0,-1.51041 -0.30149,-1.9656 -1.97056,-2.04097 0,0 -3.77547,-0.15475 -6.0475,-0.15475 -1.58576,0 -5.89182,0.15475 -5.89182,0.15475 -1.66411,0.0794 -2.04096,0.44925 -2.1203,2.04097 0,0 -0.0793,1.13253 -0.0793,1.88823 0,0.67834 0.0793,1.74047 0.0793,1.74047 0.0794,1.65916 0.83303,2.26609 2.42079,2.26609 l 18.59577,0.15177 c 5.29083,0.0693 7.40816,2.19567 7.40816,7.48054 0,4.46078 0,2.49617 0,4.23068 0,1.66709 0,4.46375 0,4.46375 z m -94.26511,-20.0992 c 0,0 -2.64493,0.0693 -4.00557,0.0693 -1.20592,0 -3.7001,-0.0693 -3.7001,-0.0693 -1.81884,0 -2.11932,-0.60793 -2.11932,-2.34246 0,-1.5094 -0.53156,-1.81583 -2.04096,-1.81583 0,0 -1.89221,0 -2.7183,0 -1.06215,0 -2.64791,0 -2.64791,0 -1.58874,0 -2.11931,0.37685 -2.11931,2.04096 l 0,27.51332 c 0,1.66411 -0.5266,2.1193 -2.11137,2.1193 0,0 -3.25285,0.0693 -4.4677,0.0693 -1.12661,0 -3.99962,-0.0693 -3.99962,-0.0693 -1.66411,0 -2.11733,-0.53055 -2.11733,-2.1193 l 0,-34.84711 c 0,-1.66212 0.52563,-2.11733 2.11733,-2.11733 0,0 7.78106,-0.0794 13.52708,-0.0794 5.51793,0 12.32413,0.0794 12.32413,0.0794 5.5943,0 6.95196,1.74049 6.95196,6.65446 l 0,2.57153 c 0,1.88924 -1.05717,2.34246 -2.87301,2.34246 z m 34.85307,-2.12229 c 0,-1.59172 -0.53158,-2.04097 -2.11337,-2.04097 0,0 -3.55632,-0.0793 -5.59729,-0.0793 -1.96558,0 -6.04751,0.0793 -6.04751,0.0793 -1.58774,0 -2.11336,0.53056 -2.11336,2.04097 0,0 -0.0794,6.57213 -0.0794,9.29639 0,3.02177 0.0794,10.80877 0.0794,10.80877 0,1.6641 0.52562,2.11633 2.11336,2.11633 0,0 3.85186,0.0793 5.66769,0.0793 1.9646,0 5.97711,-0.0793 5.97711,-0.0793 1.58179,0 2.11337,-0.53057 2.11337,-2.11633 l 0.0793,-10.80877 c 0,-1.66213 -0.0793,-6.42338 -0.0793,-9.29639 z m 12.70096,22.22149 c 0,5.29382 -2.11931,7.41115 -7.41013,7.41115 0,0 -9.14466,0.0693 -13.30295,0.0693 -4.08393,0 -13.15025,-0.0693 -13.15025,-0.0693 -5.21447,0 -7.33477,-2.11733 -7.33477,-7.41115 0,0 -0.0595,-10.78001 -0.0693,-12.85766 -0.006,0.33123 -0.006,0.35107 -0.006,-0.0693 0,-0.40762 0,-0.33719 0.006,0.0693 0.0101,-1.68394 0.0693,-11.4048 0.0693,-11.4048 0,-5.29083 2.1203,-7.41013 7.33477,-7.41013 0,0 10.12351,-0.0794 13.15025,-0.0794 3.17449,0 13.30295,0.0794 13.30295,0.0794 5.29082,0 7.41013,2.1193 7.41013,7.41013 0,0 0.0794,8.68947 0.0794,11.33736 0,2.79666 -0.0794,12.9251 -0.0794,12.9251 z m -98.7229,-22.22149 c 0,-1.59172 -0.52562,-2.04097 -2.11138,-2.04097 0,0 -4.16027,-0.0793 -6.05246,-0.0793 -1.58775,0 -6.64851,0.0793 -6.64851,0.0793 -1.58775,0 -2.11931,0.53056 -2.11931,2.04097 0,0 -0.0693,7.03031 -0.0693,9.29639 0,2.56658 0.0693,10.80877 0.0693,10.80877 0,1.6641 0.53156,2.11633 2.11931,2.11633 0,0 4.99033,0.0793 6.04751,0.0793 0.98379,0 4.60755,-0.0793 6.65346,-0.0793 1.58576,0 2.11138,-0.53057 2.11138,-2.11633 0,0 0.0794,-8.69541 0.0794,-10.80877 0,-1.81583 0,-6.42338 -0.0794,-9.29639 z m 12.62463,22.22149 c 0,5.29382 -2.11635,7.41115 -7.41016,7.41115 0,0 -10.42894,0.0693 -14.05864,0.0693 -3.24987,0 -13.37832,-0.0693 -13.37832,-0.0693 -5.29084,0 -7.40419,-2.11733 -7.40419,-7.41115 l 0,-47.54809 c 0,-1.58278 0.60098,-2.11136 2.11335,-2.11136 l 4.08192,0 4.38839,0 c 1.58575,0 2.11136,0.52858 2.11136,2.11136 l 0,13.68775 c 0,1.58576 0.53156,2.11138 2.11931,2.11138 l 20.02682,0.0794 c 5.36919,0 7.41016,2.1193 7.41016,7.41014 0,0 0.0793,7.93575 0.0793,11.33735 0,3.39864 -0.0793,12.9251 -0.0793,12.9251 z M 501.03355,341.7642 c 0,0 -4.15531,-0.0793 -7.02832,-0.0793 -3.09716,0 -6.42338,0.0793 -6.42338,0.0793 -1.58776,0 -2.11932,0.44925 -2.11932,2.04097 l 0,2.11632 0,2.11436 c 0,1.58477 0.53156,2.11634 2.11932,2.11634 0,0 5.67066,0.0793 6.42338,0.0793 2.34243,0 4.68686,0 7.02832,-0.0793 1.58577,0 2.04096,-0.53157 2.11632,-2.11634 0,0 0.0794,-1.13354 0.0794,-2.11436 0,-1.13848 -0.0794,-2.11632 -0.0794,-2.11632 -0.0793,-1.59172 -0.37586,-2.04097 -2.11632,-2.04097 z m 13.75816,12.46991 c 0,2.79765 -1.21189,3.32326 -3.17153,3.32326 l -24.03833,0 c -1.58776,0 -2.11932,0.45817 -2.11932,2.12227 l 0,1.95965 0,1.97055 c 0,1.66412 0.9104,2.41682 2.57253,2.41682 l 6.72683,0 5.51497,0 c 1.74049,0 2.11733,-0.37586 2.11733,-1.96459 0,-1.59072 0.22513,-2.26906 2.11932,-2.26906 l 4.08192,0 4.08193,0 c 1.65814,0 2.11435,0.52858 2.11435,2.11732 l 0,2.11633 c 0,5.29382 -2.11435,7.41115 -7.33478,7.41115 0,0 -9.59193,0.0693 -13.98228,0.0693 -3.62673,0 -13.00246,-0.0693 -13.00246,-0.0693 -5.28488,0 -7.4042,-2.04691 -7.4042,-7.41115 0,0 -0.0793,-11.7162 -0.0793,-12.54627 0,-1.58774 0.0793,-11.71619 0.0793,-11.71619 0,-5.29083 2.11932,-7.41013 7.4042,-7.41013 0,0 9.67622,-0.0794 13.22659,-0.0794 3.85978,0 13.75815,0.0794 13.75815,0.0794 5.22043,0 7.26139,2.03997 7.33478,7.41013 0,0 0.0396,4.63234 0.0594,6.22405 0.0101,-0.68926 0.0199,-0.89752 0.0199,-0.10116 0,0.89949 -0.005,0.76165 -0.0199,0.10116 -0.0198,1.68394 -0.0594,6.24586 -0.0594,6.24586"
       id="path56"
       style="fill:#b21d33;fill-opacity:1;fill-rule:evenodd;stroke:none" />
    <path
       d="m 385.07751,502.06308 c 0.6694,0 1.33583,0.009 2.00229,0.0297 14.01103,9.2855 25.53087,19.4794 34.81933,30.49049 -28.04489,5.70339 -68.69753,0.78941 -104.75356,-7.49444 18.82982,-14.43551 42.37923,-23.02083 67.93194,-23.02083 z m 44.13853,40.01399 c 6.46307,9.20714 11.5258,18.92204 15.32706,29.10405 -66.43641,12.33008 -116.91106,45.94349 -162.48662,86.08936 -5.63893,-13.35254 -8.7569,-28.02703 -8.7569,-43.43244 0,-30.80783 12.47089,-58.70891 32.64053,-78.92914 54.14403,12.46197 95.23501,14.85104 123.27593,7.16817 z m 18.63247,39.14621 c 2.97716,10.41508 4.74043,21.27443 5.42274,32.52749 -37.1469,13.09767 -71.39007,58.89438 -102.92781,106.3552 -26.59994,-8.69145 -48.81351,-27.09681 -62.44473,-51.02012 35.67024,-33.83257 93.19604,-75.94602 159.9498,-87.86257 z m 5.74901,43.92733 c -0.0594,27.19202 -5.92553,56.5073 -15.92208,87.32603 -15.67813,8.38005 -33.58267,13.13933 -52.59793,13.13933 -8.23328,0 -16.25929,-0.89651 -23.98777,-2.58641 33.03722,-52.64455 65.27908,-86.14489 92.50778,-97.87895 z M 409.50757,504.74768 c 13.777,3.07236 26.59302,8.69441 37.93632,16.33563 -3.69912,3.43235 -8.42765,6.14571 -13.96838,8.23428 -6.89646,-8.71228 -14.8798,-16.9039 -23.96794,-24.56991 z m 47.12859,23.24 c 12.51057,10.43787 22.70349,23.55438 29.6981,38.47086 -10.43787,0.46414 -20.51078,1.41718 -30.24354,2.81947 -4.073,-10.92083 -9.40548,-21.24069 -16.00341,-30.96254 6.41445,-2.74608 11.93041,-6.18933 16.54885,-10.32779 z m 34.36712,50.08096 c 3.79533,11.23123 5.85315,23.25983 5.85315,35.7694 0,0.28166 -0.006,0.55934 -0.006,0.84098 -10.7473,-4.42505 -21.2754,-5.52984 -31.58038,-3.95795 -0.95106,-10.88515 -2.87896,-21.30119 -5.78868,-31.24916 10.32581,-1.26544 20.84798,-1.77717 31.52187,-1.40327 z m 4.97545,49.79432 c -3.76654,30.07693 -19.48731,56.43988 -42.25724,74.18474 8.82137,-29.19429 12.87254,-56.11953 12.1585,-80.77373 11.24713,-2.16789 21.40136,-0.0496 30.09874,6.589"
       id="path58"
       style="fill:#b21d33;fill-opacity:1;fill-rule:evenodd;stroke:none" />
  </g>
</svg>
