<?xml version="1.0" encoding="UTF-8" standalone="no"?>
<svg xmlns:rdf="http://www.w3.org/1999/02/22-rdf-syntax-ns#" xmlns="http://www.w3.org/2000/svg" height="288.71722" width="331.72978" version="1.1" xmlns:cc="http://creativecommons.org/ns#" xmlns:dc="http://purl.org/dc/elements/1.1/" viewBox="0 0 331.72978 288.71722"><path d="M225.6281,18.8483A104.25,104.25,0,0,0,106.02538,189.63308c2.212,1.52551,4.50035,2.97477,6.78867,4.34778L237.22225,180.251A101.80025,101.80025,0,0,0,251.181,164.08019,104.2975,104.2975,0,0,0,225.6281,18.8483" fill="#009ee0" fill-rule="evenodd"/><path d="M223.18724,22.357A99.97578,99.97578,0,1,0,247.7485,161.563,99.96517,99.96517,0,0,0,223.18724,22.357" fill="#00407b" fill-rule="evenodd"/><path d="M220.74636,25.86579q-2.05946-1.373-4.119-2.746v.15257a74.20681,74.20681,0,0,0-38.36748,7.39887,57.114,57.114,0,0,0-5.26311,2.746c.38137.15258.76276.22884,1.14415.38138,7.62773,2.36461,16.01823,3.4325,24.56127,4.42408C216.93249,40.511,235.62042,42.79934,249.808,58.1311A95.89768,95.89768,0,0,0,220.74636,25.86579Zm-11.823-7.09376a95.68914,95.68914,0,0,0-62.54735-8.238,9.748,9.748,0,0,0-.68647,1.67809,7.66668,7.66668,0,0,0,1.52552,7.24634,28.01919,28.01919,0,0,0,8.77188,6.94123,76.99949,76.99949,0,0,0,11.59415,5.11056,97.88444,97.88444,0,0,1,8.77188-4.80546A81.90574,81.90574,0,0,1,208.92339,18.772ZM141.418,11.67823a95.48569,95.48569,0,0,0-38.67256,20.51858c16.55215-.68651,32.79921,4.27155,46.98678,12.96715A114.55418,114.55418,0,0,1,163.157,34.48512a86.24917,86.24917,0,0,1-9.22956-4.27151c-4.27151-2.36461-7.85654-5.03429-10.14485-8.08538C141.418,18.92457,140.42642,15.49207,141.418,11.67823ZM97.78743,36.926A96.73569,96.73569,0,0,0,74.52287,75.29345,31.92376,31.92376,0,0,1,93.74474,63.31792c8.08539-1.60179,16.55216-.38137,23.95105,2.13578,2.05948.68648,4.04269,1.52556,5.94963,2.36461.45767,0,.99161.07623,1.44927.07623a19.97869,19.97869,0,0,1,4.119.91535,158.06464,158.06464,0,0,1,9.91605-12.81457q3.43245-4.00457,7.32261-7.78027C131.8071,39.44315,114.79726,34.9428,97.78743,36.926ZM71.16668,90.16751a101.21212,101.21212,0,0,0-.83905,20.366l5.26313,8.92443a36.91867,36.91867,0,0,0,13.72991,12.81461,30.90784,30.90784,0,0,0,9.077,2.97478c.53394-2.212,1.06788-4.50035,1.75438-6.78865A187.82589,187.82589,0,0,1,113.348,95.6595c-3.81386.15253-6.17846,2.82225-9.61093,5.56821-1.14417.91534-.61022.91534-1.75439-1.14415C99.46553,95.58321,97.94,92.227,99.16042,86.8876a13.94358,13.94358,0,0,1,7.85657-9.53468,18.72755,18.72755,0,0,1,9.00071-8.00908c-6.7124-2.212-14.26384-3.27993-21.35763-1.907a28.34984,28.34984,0,0,0-18.7642,13.27229,47.48551,47.48551,0,0,0-4.42408,9.45836Zm46.52912,6.331a189.42282,189.42282,0,0,0-13.4248,33.10431c-.61022,1.98322-1.06788,4.04273-1.60183,6.02591h2.59342c10.90766-.38139,20.44231-6.78865,22.12041-18.0777C128.60346,110.07588,124.94214,99.931,117.6958,96.49853Zm143.4775-.61022a99.44393,99.44393,0,0,0-3.20367-17.3912c-1.44926-5.1106-6.94121-13.34855-10.60251-17.39126-13.34853-14.64521-30.89229-16.39961-49.3514-18.68792-8.61933-1.06785-17.23867-2.13573-25.24777-4.65288-1.60183-.45768-3.12738-.99162-4.72921-1.52556a111.575,111.575,0,0,0-14.6452,11.289A104.255,104.255,0,0,1,172.234,63.92814c4.88172.53394,9.30582,2.212,14.569,1.44925a22.15259,22.15259,0,0,0,8.46679-3.05109,18.73135,18.73135,0,0,1,23.95107,2.97483c.61019.68648.91531.45764,1.90691.839a14.46905,14.46905,0,0,1,9.077,17.46753l-.15255.45764-1.60184,4.958-4.57663-2.51714c-1.52555-.839-3.66128-1.83067-5.41568-1.75437a10.40254,10.40254,0,0,0-6.55986,2.59342c-10.98392,11.51786-5.18683,31.35,10.67881,34.935a30.01951,30.01951,0,0,0,17.16239-1.60185c8.92445-3.35618,14.18758-10.22114,18.23026-18.61163A67.8026,67.8026,0,0,0,261.1733,95.88831Zm-85.43053-20.8237a96.93647,96.93647,0,0,0-25.40032-24.485q-4.119,4.00458-7.78028,8.23792A142.9884,142.9884,0,0,0,133.714,70.10662a21.66946,21.66946,0,0,0,13.04341-1.6781c2.59343-1.14419,5.26313-2.21208,7.93283-3.28-.76279,3.4325-1.60183,7.704-3.05109,10.90767-.61021,1.373-.68648.83909.839,1.83067A46.279,46.279,0,0,1,165.064,88.71827c3.12737-5.94965,6.02591-9.22958,10.67881-13.65366" fill="#ec6e01" fill-rule="evenodd"/><path d="M165.064,88.642c3.27991-6.17847,6.25473-9.45836,11.289-14.18758a65.45534,65.45534,0,0,1-6.25473-10.60257c5.797.15261,10.67879,2.51719,16.781,1.60187a22.15233,22.15233,0,0,0,8.46678-3.05113,18.7313,18.7313,0,0,1,23.95106,2.97482c.61019.68652.91532.45768,1.90692.83905a14.469,14.469,0,0,1,9.077,17.4675l-.15255.45767-1.60183,4.958L223.95,86.58245c-1.52554-.839-3.66128-1.83063-5.41568-1.75436a10.40278,10.40278,0,0,0-6.55986,2.59341c-10.98392,11.51789-5.18684,31.35,10.67882,34.935a30.01953,30.01953,0,0,0,17.16239-1.60183c8.92445-3.3562,14.18756-10.22116,18.23025-18.61165,1.90694-4.04269,3.89016-8.08538,5.79708-12.12808.76278,6.0259,1.60183,12.12808,2.212,18.154.22882,2.05947-.839,9.83975-1.22044,12.12808a99.98306,99.98306,0,0,1-16.781,41.266c-31.50246,45.23243-93.97354,56.21637-139.12966,24.56131a99.68117,99.68117,0,0,1-40.80833-62.92874c-.76278-6.71241-1.44927-13.4248-2.212-20.13719q4.80546,8.238,9.61092,16.47589a36.91864,36.91864,0,0,0,13.72992,12.81459,32.15359,32.15359,0,0,0,15.94194,3.35618c10.90764-.38137,20.4423-6.78866,22.1204-18.0777,1.22044-7.85655-2.89854-18.61165-10.83137-21.51019-5.94963-1.67808-8.61933,1.6781-12.96713,5.11058-1.14416.91534-.61022.91534-1.75438-1.14415-2.51715-4.50035-4.0427-7.85657-2.82226-13.196a13.94342,13.94342,0,0,1,7.85657-9.53465,18.84574,18.84574,0,0,1,18.23025-9.3821,18.18417,18.18417,0,0,1,4.88174,1.14419,21.34839,21.34839,0,0,0,16.62845-.68652c2.59341-1.14419,5.26311-2.21208,7.93283-3.28-.76279,3.4325-1.60185,7.704-3.05109,10.90767-.61021,1.373-.68648.83905.83905,1.83067A46.07186,46.07186,0,0,1,165.064,88.642" fill="#00407b" fill-rule="evenodd"/><path d="M165.97931,97.49015a43.8897,43.8897,0,0,0-21.739-18.91677,13.18926,13.18926,0,0,0,4.27153-6.25476,25.43236,25.43236,0,0,1-19.90836.83905,16.36331,16.36331,0,0,0-3.81387-.91528,14.67811,14.67811,0,0,0-14.79778,8.543,9.61676,9.61676,0,0,0-6.7124,7.01749,10.96286,10.96286,0,0,0,.91532,7.47518c4.27153-3.50873,8.16166-5.0343,13.72991-3.35618,8.84817,2.89854,14.18757,14.035,14.035,22.88318a25.76231,25.76231,0,0,1-3.89014,13.0434c-7.17006,11.21276-20.51857,13.8062-32.87549,10.98393-10.22116-2.3646-17.39121-8.61933-22.88318-16.55216a95.72665,95.72665,0,0,0,189.62525-14.035c-.07629-1.14416-.22884-2.28831-.38139-3.3562-6.02592,12.50947-15.94193,21.35763-32.34155,22.273-13.57734.3051-24.17991-7.7803-26.69705-21.20508a25.35516,25.35516,0,0,1,6.48359-21.66277A15.03,15.03,0,0,1,218.3055,80.404a15.84107,15.84107,0,0,1,7.704,2.28831,10.75939,10.75939,0,0,0-.61021-7.55144,9.726,9.726,0,0,0-8.0854-5.492,14.55408,14.55408,0,0,0-16.24705-5.33943,12.37977,12.37977,0,0,0-3.50875,1.6781,25.895,25.895,0,0,1-19.67953,3.28,12.61814,12.61814,0,0,0,5.492,5.26313A43.86671,43.86671,0,0,0,165.97931,97.49015ZM199.465,70.71683a11.86039,11.86039,0,0,1,1.75436-.61025,11.24085,11.24085,0,0,1,4.50037-.15253,2.74152,2.74152,0,0,0-.15257.83905,2.10265,2.10265,0,0,0,2.13577,1.9832,1.968,1.968,0,0,0,1.90692-1.44926,10.39657,10.39657,0,0,1,1.83065-1.83067,10.69446,10.69446,0,0,0-7.704-1.06789A12.045,12.045,0,0,0,199.465,70.71683Zm-71.7006,7.39891a7.52213,7.52213,0,0,0-1.83065-.22884,10.6093,10.6093,0,0,0-4.42409.76274,3.18794,3.18794,0,0,1,.30511.76278,2.02343,2.02343,0,0,1-1.67809,2.36458,1.99494,1.99494,0,0,1-2.13577-1.06785,6.01751,6.01751,0,0,0-2.212-1.373,10.76067,10.76067,0,0,1,7.32261-2.59345,13.21348,13.21348,0,0,1,4.65291,1.373" fill="#fff" fill-rule="evenodd"/><path d="M142.94356,87.49781c.30511.15253.6865.3051.9916.45767,18.154,11.21274,19.67954,29.74812,13.04341,45.00357.45768-.53394.91532-1.06788,1.373-1.67809,4.958-6.78868,5.87333-17.0861,3.35618-25.01895a29.20452,29.20452,0,0,0-14.49267-17.0861c-1.44926-.61022-2.82225-1.22043-4.27153-1.6781" fill="#009ee0" fill-rule="evenodd"/><path d="M202.74493,87.80291c-.22884.22886-.3814.534-.61022.76278-10.52626,16.39963-4.50034,32.189,6.94123,42.18132a12.4071,12.4071,0,0,1-1.75436-.839c-6.71239-3.6613-11.59415-11.7467-12.58575-19.22187a26.63591,26.63591,0,0,1,5.26313-19.7558,21.78179,21.78179,0,0,1,2.746-3.12738" fill="#009ee0" fill-rule="evenodd"/><path d="M210.14383,284.36937V255.30773a4.16836,4.16836,0,0,1,1.06787-2.97479,4.10654,4.10654,0,0,1,2.89854-1.06789,3.99436,3.99436,0,0,1,2.82225.99163,3.79569,3.79569,0,0,1,1.14417,2.97478V284.2931a4.30015,4.30015,0,0,1-1.06789,2.97483,4.10651,4.10651,0,0,1-2.89851,1.06788,4.31964,4.31964,0,0,1-2.89854-.99162A4.043,4.043,0,0,1,210.14383,284.36937Zm-23.4934-.53391V255.30777a4.16833,4.16833,0,0,1,1.06788-2.97479,4.10644,4.10644,0,0,1,2.89852-1.06789,3.99445,3.99445,0,0,1,2.82225.99159,3.79581,3.79581,0,0,1,1.14418,2.97482v25.62918h9.53464a4.10642,4.10642,0,0,1,2.89852,1.06785,4.23058,4.23058,0,0,1,.9916,2.59341,3.25081,3.25081,0,0,1-1.06787,2.36461,3.68831,3.68831,0,0,1-2.746.99162H190.76935a4.08418,4.08418,0,0,1-3.05107-1.14415A3.74147,3.74147,0,0,1,186.65043,283.83546Zm-11.74669-13.95872a13.18739,13.18739,0,0,0-2.59343-8.31422,8.75255,8.75255,0,0,0-7.39889-3.4325,8.89929,8.89929,0,0,0-7.39888,3.35619,14.52,14.52,0,0,0,0,16.781,9.04842,9.04842,0,0,0,7.47517,3.35615,8.89945,8.89945,0,0,0,7.39889-3.35615A14.20777,14.20777,0,0,0,174.90374,269.87674Zm-28.5277,0a18.5355,18.5355,0,0,1,5.11056-13.42482,17.52948,17.52948,0,0,1,13.27225-5.33944,17.27237,17.27237,0,0,1,13.11968,5.492,19.86837,19.86837,0,0,1,.15255,26.77337,19.16522,19.16522,0,0,1-26.54448,0A19.30216,19.30216,0,0,1,146.376,269.87674Zm-20.82367,15.56055L113.88194,256.9859a5.3108,5.3108,0,0,1-.38138-1.90694,3.14416,3.14416,0,0,1,1.22044-2.59341,4.38277,4.38277,0,0,1,2.89853-1.06789,3.48051,3.48051,0,0,1,2.212.68648,4.99206,4.99206,0,0,1,1.44926,1.83067l8.31422,21.28136,8.31421-21.28136a4.99226,4.99226,0,0,1,1.44926-1.83067,3.33687,3.33687,0,0,1,2.212-.68648,4.60553,4.60553,0,0,1,2.89856.99159,3.28925,3.28925,0,0,1,1.22044,2.66971,5.31123,5.31123,0,0,1-.38139,1.90694l-11.67044,28.45139a6.56711,6.56711,0,0,1-1.52553,2.212,4.41895,4.41895,0,0,1-4.958-.15258,4.3386,4.3386,0,0,1-1.6018-2.05947" fill="#cd162c"/><path d="M46.37657,220.75415l-.22883,1.907L34.5536,233.56872,0,237.68774l8.31422-58.96233-4.65291.534L6.865,156.22362q75.40007-9.03884,150.64757-18.00143l18.0777-16.01822,9.91605,12.662c22.95944-2.746,42.48643-5.03431,68.19187-8.08542l3.89014,4.04271,5.72081-5.18687,2.746-.3051c21.89156-2.59341,43.78313-5.26311,65.67471-7.85655l-3.89014,27.45982-16.85728,1.9832-4.42408,31.27368,3.585-.45767-3.27993,23.03571-31.96012,3.8139,1.60183-11.28906-21.66274,2.59345-5.56823-4.19524-5.64451,5.56822c-35.9266,4.27154-59.42,7.09376-95.42286,11.36531l-4.27153-4.19525-5.3394,5.3394-24.79011,2.97482-4.04269-4.19528-5.4157,5.33944c-19.37446,2.212-38.6726,4.57662-57.97075,6.86492" fill="#009ee0" fill-rule="evenodd"/><path d="M75.81959,207.86332l-6.17846,6.17848L48.2835,216.63521l-4.65292-4.88172-1.373,9.68718-8.84816,8.23795L4.65291,233.11109l8.31422-58.9623-4.65291.53393L10.45,159.73237,44.012,155.766l4.958,4.88174.76278-5.49195L66.28493,153.02l-6.71239,47.597,2.97481-.38137,6.71239-47.52074,43.09665-5.11058,4.42409,4.72919.76278-5.18686,16.55215-2.13576L127.383,192.5316l2.9748-.38139,6.71239-47.52074,16.55217-1.9832-.76278,5.41568,21.20507-19.98464,6.94123,7.704-3.81385,3.81387,2.746-.15255,5.33942,4.80547.76277-5.492,14.569-1.83067,5.3394,15.942,2.36461-16.85728,16.247-1.90693-.76278,5.3394,6.25475-6.0259,21.05255-2.51716,5.26311,5.492,7.704-7.0175,1.14416-.15255c19.60328-2.36462,39.13022-4.65292,58.73345-7.0175l2.82229-.30512-2.746,19.45071-16.85725,1.9832-5.56827,39.28278,3.58507-.45765-2.13577,14.95034L279.251,199.93052l2.13577-14.95034,3.73755-.45768.45768-3.20364-9.83975,8.00911-19.22188,2.28829-7.17006-5.33938-7.24634,7.0938-20.9,2.51713-4.72919-4.72919-.76276,5.3394-14.1113,1.67814-5.492-17.16239-2.59341,18.154L177.11576,201.151l.76279-5.41568-6.40729,6.10216-21.12879,2.51715-5.79706-5.72079-7.24635,7.24635-21.28135,2.51711-5.492-5.72077-7.39888,7.24633-28.07,3.35616Zm161.479-35.62147,1.14415-8.23793.68648-5.03431,1.67812-12.1281-3.81386.61023-1.67811,11.823-.3814,2.97481-1.22044,8.3905-.839,5.79708-.534,3.89016,3.81386-.61023.22881-1.6781Zm15.33171-1.29672,14.569-1.75437-.839,6.10218,5.49195-.45767,1.22042-8.54306-13.95872,1.44928L253.69814,163.47Zm-70.17507-7.55144-14.95034,1.90694,1.373-9.7635-2.51717.3051L161.784,188.48889l2.51714-.30511,2.51717-17.69631,14.95035-1.6781Zm106.78818-7.55146,1.44925-10.45-16.85728,1.98321.61019-4.34778-3.6613.45766-1.14413,7.93283,11.74668-1.29671ZM29.90068,172.16557l-1.29671,9.077,3.05109-2.6697.91532-6.78867Zm-3.585,25.70543-2.59343,18.3828,2.66971-.30506,2.89853-20.67116Zm71.92946-34.17221L93.5922,196.498l2.746-.3051,4.65291-32.79923Z" fill="#fff" fill-rule="evenodd"/><path d="M173.22563,131.8149l-10.22114,9.611,10.37371-1.22044,3.89014-3.81387Zm-160.411,30.35835-1.29672,9.45839,4.65292-.534L7.85656,230.06l24.86638-2.97483,6.94123-6.48355L44.31708,187.421l-4.19525-4.04271,5.492-5.41569,1.9832-14.035-5.18685-5.18688ZM311.7451,135.62877l-.61017,4.3478,11.289-1.373,1.98317-13.88246c-19.60327,2.36459-39.13021,4.65292-58.73348,7.01749l-7.01749,6.40729-3.05111,21.739,5.79709,4.57664,15.48427-1.67808-1.9832,14.11128-10.83139,1.14417.83905-6.1022-11.21276,1.373-1.44926,10.22116,6.63613,4.958,17.23867-2.05949,10.75506-9.15325,2.51717-18.84049-8.39049-5.79707-13.57735,1.52554,1.90691-13.50106,9.30587-1.06789-.61023,4.34781,11.289-1.373.61023-4.34781,5.56822-.68648-6.94123,49.19883-3.73757.45766-1.29672,9.45836,18.154-2.13576,1.29672-9.45836-3.585.45768,6.94123-49.19883Zm-133.48518,6.78868,5.64452,5.03429L182.07379,160.724l-11.289,1.44928,1.373-9.7635-8.16165.91532L158.5804,191.54l8.16165-.99158,2.51715-17.69633,11.28905-1.29671-2.97481,21.28134-6.78868,6.48359-18.84048,2.212-5.26311-5.18685,6.331-45.23243,6.71241-6.48355C173.07307,143.02766,163.6147,144.17181,178.25992,142.41745Zm16.93357,25.62916,8.69559,27.231,9.45838-1.14417,8.00909-56.90284L210.754,138.52729l-3.81385,27.07844-8.61933-25.55287-9.91605,1.22043-8.0091,56.82654,10.7551-1.29672ZM230.815,136.16272l-6.71239,6.48357-6.40729,45.385,5.11058,5.03429,19.45071-2.51716,6.55984-6.40727,6.40729-45.385-4.88174-5.11058Zm3.81387,8.69559,9.077-1.29673-5.41568,38.21492-9.077,1.2967Zm-95.2703,2.212-6.7124,47.52074-8.61933.99158L130.7392,148.062l-10.90764,1.373-7.17006,50.87689,4.958,5.18686,18.91676-2.28834,6.55982-6.55982,7.17007-51.02949Zm-53.089,6.331-8.00911,56.82656,24.10361-2.89852,6.63612-6.48359,6.40728-45.38494-4.72918-5.03431Zm9.53466,7.85654,8.3905-.91531L98.779,198.63376l-8.3905.99162Zm-24.17989-6.10216-6.71241,47.5207-8.61932.99162,6.7124-47.52073-10.90765,1.373L44.9273,208.47353l4.958,5.18686L68.80207,211.372l6.55985-6.55985L82.532,153.78274ZM27.45981,169.72469l8.31422-.9916-1.52554,10.7551-9.3821,8.23793Zm-3.81386,27.231,9.30582-8.23794-4.19525,29.67188-8.31422.99158Z" fill="#00407b" fill-rule="evenodd"/><path d="M54.53823,232.04324a3.16069,3.16069,0,0,0,1.83066-2.746l.30511-2.59341c.30511-2.13578-.6865-3.05113-2.82225-2.82229l-5.18686.61021-2.28832,17.23865,5.18685-.61021a3.698,3.698,0,0,0,3.66132-3.585l.45766-3.50873C55.91123,232.806,55.52984,232.19577,54.53823,232.04324ZM53.089,227.54281l-.38139,2.89856a.809.809,0,0,1-.6865.68647l-.83905.07631.53394-4.119.83905-.07626C53.01269,226.93264,53.16524,227.08517,53.089,227.54281Zm-2.28832,6.48363.83905-.07631c.45766-.0763.61022.15258.53394.534l-.38139,3.12736a.809.809,0,0,1-.6865.68651l-.83905.07627Zm14.49268-11.44162-4.80547.534-4.57664,17.54379,3.20364-.38141.61022-2.51714,2.21205-.2288-.07629,2.5171,3.50876-.38137ZM62.166,227.08517l-.22883,7.47517-1.60183.15258Zm12.4332,2.59345-2.746-1.83063a.93063.93063,0,0,1-.45765-1.06789l.22882-1.60183a.80906.80906,0,0,1,.6865-.68651H72.616c.45766-.07627.61022.15257.53394.534l-.38138,2.82225,3.43247-.38137.45767-3.1274c.3051-2.13577-.6865-3.05109-2.82226-2.82225l-1.90694.2288a3.698,3.698,0,0,0-3.6613,3.58508l-.38139,2.74594a2.17019,2.17019,0,0,0,1.06789,2.51719l2.746,1.83063a.93063.93063,0,0,1,.45767,1.06789l-.30512,2.05947a.73742.73742,0,0,1-.68649.68651h-.30511c-.45767.07627-.61022-.15257-.53394-.534l.45767-3.35616-3.43249.38137-.45766,3.6613c-.30511,2.13574.6865,3.05109,2.82226,2.82229l1.9832-.22883a3.698,3.698,0,0,0,3.66132-3.58508l.45766-3.20362A2.59455,2.59455,0,0,0,74.59916,229.67862ZM85.278,237.23006,84.21009,228.687l3.43247-8.7719-3.66131.45768L80.93017,228.687l1.06788-8.08542-3.50875.38141L76.201,238.22168l3.50876-.38141,1.06788-8.16168.68649,7.93281Zm3.43248-17.39118-2.28832,17.23865,6.55985-.76278.38138-3.05109-3.05109.38141.53393-4.119,2.89855-.30507.38138-3.05109-2.89854.30511.53395-3.89014,2.9748-.38141.38139-3.05109ZM99.84692,235.552l1.90693-14.18757,2.13577-.22884.38138-3.05109-7.78028.91532-.38138,3.05109,2.13577-.2288-1.90694,14.18756Zm11.67043-10.14486a3.1607,3.1607,0,0,0,1.83065-2.746l.30509-2.59345c.30511-2.13574-.68649-3.05109-2.82225-2.82226l-5.18686.61018-2.28831,17.23869,5.18685-.61021a3.698,3.698,0,0,0,3.66131-3.585l.45767-3.50876C112.89033,226.16986,112.509,225.55965,111.51735,225.40711Zm-1.44927-4.57665-.38139,2.89852a.80905.80905,0,0,1-.68649.68651l-.83905.07627.53394-4.119.83905-.07627C109.9918,220.29651,110.14435,220.44905,110.06808,220.83046Zm-2.28832,6.55982.83905-.07627c.45767-.0763.61022.15257.53394.534l-.38138,3.12736a.809.809,0,0,1-.68649.68648l-.83906.0763Zm14.49268-11.44154-4.80548.53394-4.57663,17.54376,3.20364-.38137.61022-2.51719,2.212-.2288-.07627,2.51715,3.50874-.38137Zm-3.12737,4.424-.22884,7.47517-1.60183.15258Zm6.63611-4.88172-2.28831,17.23865,6.0259-.68647.38138-3.05109-2.51715.3051,1.90693-14.1876Zm7.47518-.83905L130.968,231.89066l6.02589-.68651.3814-3.05105-2.51715.3051,1.90693-14.1876Zm14.7215,7.78028-.53393,4.19524a.73743.73743,0,0,1-.6865.68648l-.45765.07627c-.45768.0763-.61021-.15257-.534-.53391l1.373-10.37373a.809.809,0,0,1,.68647-.68647l.38141-.07631c.45766-.07627.61021.15257.53393.53394l-.45766,3.6613,3.43246-.38137.534-4.04267c.3051-2.13577-.6865-3.05113-2.82226-2.82229l-2.13575.22884a3.698,3.698,0,0,0-3.66132,3.585l-1.44926,11.13648c-.30511,2.13577.68648,3.05109,2.82225,2.82229l2.13578-.22884a3.698,3.698,0,0,0,3.6613-3.585l.61021-4.57665Zm6.331-10.29746-2.2883,17.23869,6.02587-.68652.38141-3.05109-2.51716.30511,1.90693-14.18753Zm16.01822-1.8306-3.50875.38134-1.83065,13.80619a.73744.73744,0,0,1-.6865.68651l-.38137.07631c-.45768.07627-.61023-.15261-.53394-.534l1.83065-13.80619-3.50877.38141-1.90692,14.18756c-.30512,2.13574.68648,3.051,2.82226,2.82225l2.13577-.22884a3.698,3.698,0,0,0,3.6613-3.585Zm7.55146,7.3226a3.16075,3.16075,0,0,0,1.83063-2.746l.30512-2.59345c.30511-2.1357-.68649-3.05105-2.82227-2.82221l-5.18686.61017L169.71688,227.314l5.18684-.61021a3.698,3.698,0,0,0,3.66132-3.585l.45766-3.50881C179.25154,218.38958,178.87015,217.77937,177.87855,217.62683Zm-1.373-4.50038-.38139,2.89852a.809.809,0,0,1-.68649.68647l-.83907.07631.534-4.119.839-.07627C176.353,212.51624,176.50555,212.66877,176.50555,213.12645ZM174.141,219.61l.83907-.07627c.45766-.0763.61021.15257.53392.534l-.38139,3.12735a.80905.80905,0,0,1-.68649.68652l-.839.0763Z" fill="#00407b" fill-rule="evenodd"/><path d="M187.48949,219.3812l1.60182-.15257a3.698,3.698,0,0,0,3.66131-3.585l.61022-4.88176c.3051-2.13573-.68648-3.05105-2.82226-2.82225l-5.11058.61018-2.2883,17.23869,3.50874-.38138Zm2.36458-7.85658-.534,4.119a.73743.73743,0,0,1-.68647.68652l-.76278.07623.68647-5.3394.76278-.0763C189.77778,210.91441,189.93035,211.14321,189.85407,211.52462Zm12.28064,9.077,1.44926-11.13647c.30511-2.13574-.68649-3.05109-2.82227-2.82229l-2.28832.22884a3.698,3.698,0,0,0-3.6613,3.58507l-1.44926,11.13643c-.30511,2.13578.68649,3.05109,2.82227,2.82229l2.28829-.22884A3.86627,3.86627,0,0,0,202.13471,220.60162Zm-2.05948-10.37369-1.373,10.37369a.73742.73742,0,0,1-.68649.68651l-.534.07627c-.45767.07627-.61021-.15257-.53394-.53394l1.373-10.37369a.80905.80905,0,0,1,.6865-.68652l.53394-.0763C199.92267,209.61768,200.15151,209.77025,200.07523,210.22793Zm3.35619,13.19594,4.958-.61017a4.45277,4.45277,0,0,0,4.27153-4.119l1.29672-9.83974c.30513-2.51715-.76276-3.585-3.27991-3.27989l-4.958.61017Zm5.41569-14.72151.68647-.07626c.6865-.07631.91536.15257.83907.839l-1.22044,9.45837a1.091,1.091,0,0,1-1.06789,1.06789l-.68649.07627Zm11.13647,6.02588-.45766,3.4325a.73744.73744,0,0,1-.6865.68652l-.61021.07626c-.45765.07627-.61021-.15257-.53394-.53394l1.373-10.37369a.809.809,0,0,1,.68648-.68652l.534-.0763c.45766-.07627.61019.15257.534.534l-.38139,2.89852,3.43246-.38137.45767-3.27993c.30511-2.13578-.68649-3.05109-2.82225-2.82229l-2.212.22884a3.698,3.698,0,0,0-3.6613,3.58507l-1.44926,11.13643c-.30512,2.13578.68648,3.05109,2.82225,2.82229l2.28833-.22884a3.698,3.698,0,0,0,3.6613-3.585l.91532-6.71235-4.50033.5339-.38141,2.89852Zm13.27225,2.21208,1.44926-11.13651c.3051-2.13574-.6865-3.05109-2.82227-2.82225l-2.28831.2288a3.698,3.698,0,0,0-3.6613,3.585L224.484,217.9319c-.30511,2.13578.68647,3.05109,2.82225,2.82225l2.28833-.2288C231.80657,220.22025,233.027,219.07609,233.25583,216.94032Zm-2.05949-10.37373-1.373,10.37373a.73742.73742,0,0,1-.68647.68651l-.534.07623c-.45765.07631-.61019-.15253-.53394-.53394l1.373-10.37373a.80914.80914,0,0,1,.6865-.68648l.534-.07626C231.12007,205.95638,231.27262,206.109,231.19634,206.56659Zm11.4416,4.27151a3.12617,3.12617,0,0,0,1.83065-2.746l.45767-3.35616c.30509-2.13578-.68651-3.05109-2.82227-2.82229l-5.26313.61025-2.28831,17.23861,3.50877-.38137.839-6.55986.83907-.07626c.45765-.07631.61019.15257.53394.53394l-.76276,5.94965,3.50875-.38141.76278-5.94961C244.01091,211.60092,243.62954,210.99067,242.63794,210.8381Zm-1.29673-5.26309-.45766,3.585a.809.809,0,0,1-.68649.68648l-.839.0763.61021-4.80545.839-.07631C241.26492,204.9648,241.4175,205.11733,241.34121,205.575Zm9.22956-4.653-3.50875.38141-2.28833,17.23869,3.50877-.38141Zm5.56823,8.8482-.53394,4.19525a.8091.8091,0,0,1-.6865.68651l-.45765.07623c-.4577.0763-.61023-.15253-.534-.53391l1.373-10.37369a.809.809,0,0,1,.68649-.68651l.38139-.07631c.45768-.07626.61021.15257.534.534l-.45768,3.66127,3.43248-.38137.534-4.04268c.30512-2.13573-.68648-3.05111-2.82226-2.82229l-2.13577.22884a3.698,3.698,0,0,0-3.66128,3.58507l-1.44928,11.13644c-.30509,2.13577.68651,3.05109,2.82229,2.82229l2.13574-.22884a3.698,3.698,0,0,0,3.6613-3.585l.61023-4.57666Zm12.89088-10.98392-4.80548.53394-4.57661,17.54378,3.20364-.38137.61021-2.51715,2.212-.22883-.07626,2.51714,3.50875-.38141Zm-3.12738,4.50037-.22884,7.47513-1.60181.15258Z" fill="#00407b" fill-rule="evenodd"/><path d="M280.39517,105.57551l-2.212,14.95035,5.33944-.61021.38137-2.6697-2.51713.3051.53394-3.585,2.3646-.30511.38137-2.6697-2.36458.30511.534-3.3562,2.44088-.3051.38139-2.6697Zm10.7551,5.72081-2.13573-1.60183a.95217.95217,0,0,1-.3814-.91532l.22882-1.373a.65622.65622,0,0,1,.61018-.61023h.22884c.38139-.07629.45767.07627.45767.45768l-.38139,2.44086,2.82227-.30511.38139-2.746c.30511-1.83065-.45767-2.6697-2.21206-2.44088l-1.5255.15255a3.29228,3.29228,0,0,0-3.05109,3.12738l-.38141,2.36461a1.94455,1.94455,0,0,0,.76276,2.212l2.13577,1.60181a.9522.9522,0,0,1,.38139.91534l-.22882,1.83065a.65623.65623,0,0,1-.61023.61021h-.22881c-.3814.07628-.45768-.07629-.45768-.45768l.45768-2.89852-2.82228.30509-.45765,3.20366c-.30511,1.83063.45765,2.6697,2.212,2.44086l1.60185-.22884a3.29227,3.29227,0,0,0,3.05109-3.12737l.38135-2.746A1.97656,1.97656,0,0,0,291.15027,111.29632Zm5.0343,7.01751,1.83065-12.28064,1.75432-.22882.38141-2.6697-6.331.76276-.38141,2.6697,1.75439-.22884-1.83067,12.28065ZM300.99,114.5l-2.66972.30513-.45768,3.2799,2.66972-.3051Zm5.5682-12.12807-2.05947.22882-.30511.38139a3.16331,3.16331,0,0,1-1.98324,1.2967l-.30507,2.05949,1.373-.15255-1.67814,11.51786,2.82229-.30508Zm2.66972,11.97552h-.30511c-.38137.07627-.45764-.07629-.45764-.45768l.2288-1.52552-2.746.30508-.30511,1.90694c-.3051,1.83065.45768,2.66972,2.212,2.44088l1.60186-.22886a3.29224,3.29224,0,0,0,3.05109-3.12736l1.44926-9.61094c.30511-1.83064-.45767-2.6697-2.212-2.44086l-1.60183.22883a3.29227,3.29227,0,0,0-3.05109,3.12736l-.61021,4.27153c-.22884,1.44928.45768,2.36461,1.90694,2.212h.0763a4.81363,4.81363,0,0,0,1.75437-.61021l-.45768,2.97481A.52136.52136,0,0,1,309.228,114.34741Zm1.373-5.87334a4.741,4.741,0,0,1-.76275.22883c-.38137.07627-.45767-.07628-.45767-.45767l.534-3.3562a.65616.65616,0,0,1,.61017-.61023h.22884c.38137-.07628.45768.07629.45768.45768Zm2.59345,5.56823,3.6613-.45765-.3051,2.2883,2.59341-.3051.3051-2.28831,1.06785-.15257.38141-2.59341-1.06785.15255,1.52553-10.06859-3.89018.45766-3.81383,9.916Zm2.59341-2.82225,2.44088-6.55986-.91535,6.40729Zm8.7719,1.29671h-.30514c-.38134.07628-.45764-.07629-.45764-.45766l.22884-1.52556-2.746.30512-.3051,1.90692c-.30515,1.83065.45764,2.6697,2.212,2.44088l1.60183-.22884a3.29226,3.29226,0,0,0,3.05109-3.12738l1.44926-9.68721c.30514-1.83065-.45768-2.6697-2.212-2.44086L325.475,99.931a3.29224,3.29224,0,0,0-3.05109,3.12735l-.61025,4.27155c-.2288,1.44926.45771,2.3646,1.907,2.212h.07627a4.81338,4.81338,0,0,0,1.75436-.61024l-.45767,2.9748C325.09365,112.28792,324.94108,112.44047,324.55971,112.51676Zm1.373-5.87336a4.73961,4.73961,0,0,1-.76275.22884c-.38141.07628-.45767-.07629-.45767-.45766l.53394-3.3562a.65627.65627,0,0,1,.61021-.61023h.2288c.38141-.07626.45768.07629.45768.45768Zm5.56827,4.19526-2.66972.30511-.45767,3.27991,2.66971-.30509Z" fill="#00407b" fill-rule="evenodd"/><path d="M173.75957,135.39993l-2.13576,2.13578-1.90693.22882-1.14416,1.06789,3.89014-.45768,2.13576-2.13576ZM13.88246,168.428l-.15256.99162,3.66131-.45766.15256-.99162Zm-3.66131,58.42839-.15255.99158,21.739-2.59341,5.94962-5.56824,4.42408-31.57877-.83905-.83906-4.42408,31.57879-5.94963,5.56823Zm27.1547-43.55431,6.40729-6.331,1.75438-12.4332-.83905-.83906L42.94409,176.132l-6.48356,6.331ZM25.78171,167.97032l11.289-1.373.15256-.9916L24.94266,167.055l-3.43248,24.63754,1.06788-.99162Zm-3.96642,28.07L34.401,184.90387l.22883-1.83065L20.9,195.2013l-3.585,25.55285.99161-.15257Zm290.69263-57.89443,7.39887-.91534,1.373-9.9923-.99158.15256-1.29673,9.0007-6.40728.76276Zm-55.75869,21.12879v.15255l4.34782,3.43249,16.17078-1.75439.15257-.91531L260.258,162.0207Zm4.27153,20.366.68648-5.11058-.99158.15256-.6865,5.03431ZM253.393,182.8444v.22882l5.11059,3.81387,15.94193-1.90695,9.76348-8.3142,2.28833-17.00984-.91537-.61021-2.28829,16.781-9.76348,8.31422-15.942,1.90692Zm11.06018-27.1547,2.28833-16.39963,12.20436-1.44926.15257-.9916-13.19594,1.52553-2.4409,17.39122Zm15.02662-14.569-.15256.99158,7.39891-.91531.61019-4.3478,8.46678-.99162.15257-.99158-9.45836,1.14415-.61023,4.3478Zm5.4157,52.70755-.15255.99162,14.18754-1.67808.76278-5.492-.99158.15257-.61021,4.57662Zm11.4416-6.78866,7.32258-52.09735,8.46679-1.06789.15257-.9916-9.45841,1.22044-7.47512,53.089ZM148.74064,195.659l3.89014,3.89013,17.23867-2.05948,5.79705-5.56822,2.51717-18.154-.99162.07629L174.75119,191.006l-5.79708,5.56822-17.23867,2.05949Zm7.704-2.89854,5.79709-41.1897L173.3782,150.274l.15257-.9916-12.1281,1.373-5.94962,42.18132Zm16.62844-33.79081-.15255.9916,7.39889-.91532,1.52554-10.75512-.83905-.76274-1.52554,10.67879Zm32.11273,34.24847,6.40729-.76277,7.47517-52.93642-.9916.15256L210.754,191.69253l-5.87336.6865Zm1.75437-21.35762-9.916-29.74814-.534.07629L206.7876,173.0809Zm-24.17988,23.112-.15254.99158,6.86495-.839,4.80547-34.32475-.68652-2.13578-5.03429,35.54522Zm36.99447-7.62773,3.73759,3.73759,17.00981-2.05953,5.6445-5.5682,6.17847-43.85943-3.585-3.73759,2.746,2.89856-6.17846,43.85941-5.64451,5.56822-17.00983,2.05951Zm13.196-44.2408,11.21276-1.373.15257-.99162-12.20436,1.44926-5.94963,42.10507.99161-.15255ZM121.96733,196.80311l6.55984-46.52912-.99161.15256-6.55984,46.52913Zm-4.42407,5.87338.83905.839,17.31493-2.05947,5.64451-5.6445,6.71239-47.90211-.99158.15255-6.63614,46.98679-5.64451,5.64453Zm-36.91821,4.424-.15255.99159,20.97624-2.51711,5.7208-5.56824,6.17846-43.78315-.839-.839-6.17847,43.78313-5.7208,5.56824Zm13.50108-47.597,11.289-1.22044.15256-.99162-12.28065,1.373-5.94962,42.33387.9916-.15253Zm-39.893,45.38494L60.793,158.3594l-.99161.15255-6.55984,46.52911Zm-4.42407,5.94961.839.83909L67.963,209.61768l5.64453-5.6445,6.7124-47.9784-.99161.15256-6.63612,46.98679-5.64452,5.6445Z" fill="#009ee0" fill-rule="evenodd"/></svg>