<?xml version="1.0" encoding="UTF-8" standalone="no"?>
<svg xmlns:rdf="http://www.w3.org/1999/02/22-rdf-syntax-ns#" xmlns="http://www.w3.org/2000/svg" height="149.69191" width="102.30162" version="1.1" xmlns:cc="http://creativecommons.org/ns#" xmlns:dc="http://purl.org/dc/elements/1.1/" viewBox="0 0 102.30162 149.69191"><path d="M98.72422,53.4237l-.34917-1.83006L96.512,51.54772c-.45171-.011-.95-.03743-1.58282-.0843-.12174-.00818-.2419-.01666-.379-.02863-.57469-.04906-1.07734-.10222-1.53628-.16262l-.051-.0066c-.05222-.00755-.10569-.01478-.15728-.02075-7.9311-1.0786-15.69235-5.00106-22.4659-11.36-.10694-.09814-.212-.19535-.31707-.29568-.20193-.19283-.40073-.38785-.60173-.58854-.06858-.06637-.324-.31455-.324-.31455-.20917-.21011-.41646-.42494-.63792-.65583,0,0-.20287-.20635-.25194-.257l-.07739-.08242c-.40861-.43627-1.9628-2.11253-2.17921-2.3456H35.35119c-.22806.245-2.02917,2.18739-2.2632,2.43369-.0431.045-.2573.26391-.2573.26391-.20856.21641-.41678.43126-.62753.64325,0,0-.25542.24818-.324.31455-.19754.19629-.396.39225-.60929.59514-.10221.09845-.20539.19314-.32713.30607-6.75625,6.34261-14.51907,10.26507-22.44923,11.343-.05253.006-.10443.01321-.15633.02075l-.04845.0066c-.46144.0604-.9641.11356-1.55577.16389-.11985.01132-.24032.01918-.37306.02831-.6313.04655-1.11571.07234-1.57118.08335l-1.86341.0453L2.5768,53.4237A151.506,151.506,0,0,0,.00251,80.68935v.0217c0,.78418.01133,1.57528.03617,2.42079.00472.17174.01322.34066.0217.51083l.01227.263.00818.20571c.01825.46837.03618.93674.06385,1.39.01227.19156.02705.3803.04183.569l.04373.60016c.02737.38847.05474.77505.08965,1.14875.017.19.03712.37588.05819.56242.01163.10537.06952.66559.06952.66559.03585.34915.07108.69925.11417,1.05689.02391.1922.051.38345.07833.57374l.039.27649.03051.23434c.05065.37841.09972.75839.15634,1.12453.028.18684.06008.36991.09122.55361l.089.53316c.06071.3674.12111.73637.18653,1.08427.03334.185.07014.36676.1082.54826l.05127.251.04.20541c.0736.37935.14689.75807.22742,1.12766.03585.167.07487.32933.11355.49164.022.09154.04341.18213.06448.27587l.06543.28529c.07832.34443.1557.68793.24126,1.0267.039.157.08085.31015.12268.464l.13966.53034c.09122.346.18118.69264.2746,1.02261.04278.15475.08871.30825.13557.46112l.10192.34192c.11607.39382.23246.78889.357,1.19058.04246.13431.08744.26674.1318.39917.02862.084.18149.54921.18149.54921.10789.3265.21421.653.33342.99555.04152.11639.08367.23026.12676.34413.02988.08178.10286.28026.10286.28026.14941.418.29946.837.45516,1.24059.04529.11921.09216.23591.13934.3523.028.06857.12582.31361.12582.31361.15476.39319.31078.78732.47246,1.17736.05064.11953.10254.23686.15507.35576l.0777.17489c.18024.42244.36079.84363.54857,1.25946.04624.10128.09342.20132.14061.3004.0324.06919.06605.13839.10757.2293l.08777.189c.16011.3416.31958.68226.4822,1.01789,0,0,.21264.41741.24976.49165.20257.408.40514.81531.61809,1.22015.04215.08052.08524.15979.12959.23905.03555.06481.07141.1296.11765.21736l.118.21893c.1752.3265.35072.65206.52844.96756.05536.1.11323.19691.17048.29474l.12111.20791c.21074.36991.42338.74171.64389,1.11068.04876.08084.31487.5124.31487.5124.21421.35072.4281.703.65206,1.05249.0497.07706.24346.37211.24346.37211.245.38.49008.75964.74391,1.13554.05128.07612.10349.151.157.22679l.09373.134c.25448.37211.50832.743.76971,1.111.051.07015.38186.52373.38186.52373.22019.302.43849.60363.66685.90685l.1233.16042c.03492.04561.07109.09153.12079.1579l.02076.02768c.26611.34758.53065.69358.7999,1.03424l.26077.32367c.27554.34192.54983.68321.81689,1.00248.05693.06952.11387.13683.17143.20352l.07926.09279c.28467.33909.57029.67692.87036,1.022l.31738.35733c.26643.3004.53191.60016.7845.87414.04718.05316.09594.106.14563.15822l.10317.11166c.2963.32116.59356.64169.91031.9748l.22554.22931c.30166.31361.60363.62533.90653.92856l.23561.23151c.3048.30323.608.60268.91282.8971l.04215.04026c.06417.05819.12645.11638.19565.18276l.083.07864c.28215.26831.56367.53442.84048.78827.07329.06888.14752.13525.22774.2076.31046.28436.62282.56682.94806.85747l.22207.1925c.31046.27366.6225.54575.93358.81029l.23025.19125c.31267.26454.62219.52593.9421.78858l.22459.18055c.31077.25259.61841.503.94081.75838l.30355.23466c.28341.22176.56494.44164.84645.65521l.26172.19754c.296.2246.59355.44887.87947.658.05034.03774.23655.1708.23655.1708.30574.22428.61054.44541.89458.64672.06921.04939.13777.09625.20635.14407l.03869.02642c.30292.21453.60426.4256.89458.625l.43063.29159c.23215.15728.46428.31455.698.46869l.22964.15067c.28529.18747.57122.37431.87444.5706,0,0,.18369.11638.2507.15664.2699.17269.54165.34412.82791.52436l.23465.14281c.27178.16765.54386.335.81312.49636l.37871.22616c.22113.13148.43975.26171.65994.39067l1.01694.5835.25669.14218c.24031.13557.47968.26863.72126.40263l.38534.20761c.19093.10348.38217.20761.57531.31046.09657.05127.36771.19376.36771.19376.18684.09751.37086.1947.55832.29159l.04625.0239c.06762.03366.13274.067.19848.10192l.23937.12236c.13589.06951.2721.1384.40388.20382.10317.05159.3671.18245.3671.18245.16419.08147.32964.16325.46741.23025.1082.05222.212.10254.32148.15476l.51618.24912c.10536.04876.20383.09531.30668.14124.09405.045.457.21484.457.21484.11293.05158.2205.10128.3306.15.12235.05693.24534.112.3652.16608l.3589.15948c.129.05756.2573.11355.36393.15947,0,0,.5687.24661.64609.27806.12015.0519.23528.0994.33782.14186.08273.03555.16672.06952.24252.101.1274.05316.24755.10192.368.14941l.17678.07329c.12425.05033.24221.09656.358.14218.04562.01887.39037.15319.50581.19785l.07674.02863c.83136.318,1.31452.47654,1.335.48346l.72.23529.71843-.23529c.02077-.00692.50233-.16545,1.33339-.4822l.05662-.02108s.48976-.19061.51681-.20162c.12235-.04781.2463-.09688.38123-.15193.05506-.023.1145-.04656.17144-.07046.1192-.04686.23591-.095.35448-.14375l.034-.01415c.06888-.02863.14155-.0582.212-.089.11293-.04655.22553-.09342.34191-.14343.0714-.02957.14313-.06039.21673-.09185l.42055-.18213c.12268-.05316.252-.10946.36959-.16262.11168-.04876.22146-.09657.33-.14564l.02832-.01289c.12015-.05442.245-.1101.368-.16735.11009-.04938.22019-.09908.34318-.15633l.06449-.02958c.123-.05787.24912-.11732.37683-.17771.10475-.04656.20508-.09374.3114-.14313l.81564-.39381c.14656-.06984.296-.14532.44633-.21987,0,0,.31488-.15508.407-.20163.19944-.09939.40546-.20382.608-.30825l.02736-.01384c.08273-.04341.162-.0843.24691-.12614l.02454-.01258c.206-.10757.90748-.47717.90748-.47717.16388-.08682.33091-.17741.49857-.26831l.44445-.23937,1.00405-.56022c.1686-.09531.33878-.19282.50863-.29127l.50863-.29222c.17615-.10317,1.03362-.61306,1.03362-.61306.26769-.16137.54071-.3287.80777-.49321l.24849-.15224c.23467-.145.46806-.29411.70334-.44384l.1192-.07549c.08526-.05284.17175-.10758.26423-.167.28372-.18245.57091-.37023.86438-.56305l.22585-.14878c.229-.15131.4605-.30858.69421-.46586l.21485-.14658c.07171-.04749.1428-.09562.2142-.145.29662-.20194.5942-.41111.9037-.63,0,0,.17617-.12267.22964-.161.29977-.21232.60015-.42968.90434-.653,0,0,.18212-.12992.228-.16389.28971-.213.58287-.43407.87665-.65458l.073-.0563c.0431-.034.0862-.067.13022-.0994l.06827-.05033c.30543-.23277.61181-.47277.90149-.69988l.262-.20257c.30795-.24441.61778-.49385.9144-.736,0,0,.17363-.13872.24-.19376.31361-.25793.62534-.52028.92069-.7694l.24818-.207c.30985-.26391.62062-.53537.9292-.80588l.23528-.2054c.31549-.27932.62974-.56462.92384-.83576l.05692-.05127c.06322-.05631.12583-.112.18024-.16326.312-.28656.62187-.58034.93768-.88106,0,0,.17742-.16577.23152-.218.30447-.29442.60927-.59324.90464-.88861l.24127-.23717c.30447-.30322.60645-.61495.89741-.91754l.24912-.25636c.29537-.30889.58727-.62344.894-.95561l.23559-.25479c.29568-.32147.5879-.65144.88295-.98517l.07109-.08053c.06134-.06826.12141-.13714.16576-.18779.24851-.28435.49227-.57217.73637-.86155l.21074-.24944c.05758-.06669.11483-.134.16075-.189.28466-.341.56492-.68918.86-1.05721.03175-.04121.18588-.22993.22992-.285.26926-.33939.53411-.68666.80085-1.03456l.26926-.352c.268-.35764.535-.72442.79581-1.08646l.084-.11513c.05725-.07675.11448-.1535.16355-.22427.26045-.36583.5165-.73826.76657-1.10723l.09563-.13462c.05253-.07582.10381-.15067.15916-.2312.24882-.37023.49291-.74768.75242-1.14779.03774-.05946.0758-.11765.11512-.17615l.11828-.1815c.19848-.30857.39129-.62438.58412-.93987l.22144-.36174c.056-.09059.11135-.18086.15854-.26044.20633-.341.40765-.692.60708-1.04117,0,0,.27994-.4822.329-.569.19471-.34569.38376-.69862.57343-1.05186l.324-.60142c.21011-.39823.41331-.8062.61714-1.21543.03335-.06637.06637-.13148.10035-.19691.04686-.09248.09405-.18464.1428-.284.15319-.31235.30165-.63005.44981-.949l.21422-.457c.05535-.11608.11072-.23182.15728-.33689.17991-.39507.352-.79739.52436-1.20127l.11072-.2507c.04844-.10914.0972-.21924.15131-.34821.13274-.32053.26139-.64514.39-.97008,0,0,.18087-.45673.21107-.53033.04308-.10726.08682-.21516.12769-.32211.15067-.38689.291-.78008.43157-1.17327l.03774-.10538.07236-.19251c.05253-.14154.10569-.28341.15225-.41867.13117-.37243.25383-.75115.37683-1.12956l.04592-.14154.07392-.21987c.05159-.14973.10254-.29945.14658-.44258.09876-.312.19124-.62753.285-.943l.10066-.34664c.02578-.0865.0522-.17174.07831-.25762.0431-.14469.08776-.28907.12708-.429.11544-.40577.2227-.82129.32872-1.23336,0,0,.06668-.25132.09058-.34035.04183-.15224.08305-.30417.12425-.46585.08524-.34727.16545-.70082.24691-1.05532,0,0,.101-.43942.122-.52719.04059-.16829.07991-.33626.11041-.48723.07991-.36551.15255-.737.22522-1.10785l.09814-.48661c.03586-.17615.07171-.35231.10475-.53191.05882-.31707.112-.63948.16482-.96189l.10569-.6288c.03241-.19281.06637-.38469.09657-.58255.05128-.33374.09657-.67315.14186-1.01254l.04592-.35041c.01478-.11009.03083-.22018.04656-.33.02517-.17363.04907-.3479.07173-.531.04151-.33028.07455-.66527.1082-1l.03932-.39005.03175-.28907c.02235-.19817.04373-.396.06167-.59513.04277-.47592.0758-.96159.10726-1.42744l.01981-.24944c.0173-.21043.0349-.42086.04844-.6464.02642-.447.04468-.90182.06134-1.357l.00912-.22805.01227-.26045c.00975-.17709.01857-.35292.02265-.51681.02421-.75933.03584-1.53689.03648-2.37612,0-.02013,0-.04277.00063-.06763A151.50876,151.50876,0,0,0,98.72422,53.4237" fill="#023f87"/><path d="M90.26756,55.63478c-.00851-.00094-.078-.296-.078-.296-8.15538-1.54822-15.97386-5.67892-22.89087-12.17314,0,0-.28214-.263-.36708-.3435-.2076-.19721-.41331-.4001-.61778-.60173l-.37148-.36456c-.0302-.02989-.0604-.06134-.09029-.09248l3.8973,14.18878c.58727,2.14021-.45105,2.89325-2.30661,1.67279l-16.79956-11.053V94.664q.45484-.00991.91125-.01038l.15664.00031q.3973.001.79456.0085c.14061.00283.28153.00818.42214.01227.195.0063.39.011.58537.01982.35387.01572.70807.03491,1.06288.05976a42.48649,42.48649,0,0,1,13.95414,3.4088l.41709.18464c.20162.08933.40294.1793.60236.27178.36489.17017.72757.34286,1.08584.5231l.1557.08052c.385.19534.77033.3957,1.15.60205.83451.45485,1.66272.94334,2.45916,1.45009l.25321.15633q.4487.2883.8883.58727c.10379.07078.20571.14313.30856.21453.18748.12959.37464.25919.55958.39162.12519.08933.24818.18087.37213.27146.15885.11607.3177.23214.47434.35041.1362.10254.27082.207.40607.31109q.20951.16231.41805.3265.2161.17128.42967.34569.18543.15146.36929.30417.22837.18968.45328.38281c.10663.09121.212.18338.31768.27554q.243.21233.48315.4278c.08273.07455.16451.15035.2463.22554q.268.24534.53253.49384c.04183.04.08273.08053.12425.12016a41.97862,41.97862,0,0,1,3.896,4.27727l.00943.01227q.301.37934.59263.76687l.01666.02234q.29348.38879.57784.7848l.00125.00189a69.69319,69.69319,0,0,0,6.649-30.35423,144.52119,144.52119,0,0,0-2.512-26.33647" fill="#003375"/><path d="M22.3009,116.50392c.033-.03177.06543-.06385.09846-.09563q.45579-.43927.9251-.86753.117-.10758.23528-.21358.43266-.3902.87539-.7716c.10914-.09405.21986-.18622.33-.27932.27932-.2356.55958-.46995.84488-.69988.13149-.10569.26581-.20918.39855-.31392.27554-.217.55077-.43472.832-.64672.12646-.09531.25669-.18685.3844-.28121.2812-.20761.56053-.41773.84709-.61967a3.96608,3.96608,0,0,0-2.28428-2.20815,2.66732,2.66732,0,0,0-.47559-.07959c-1.65423-.11544-3.70416,1.26544-5.77108,3.88723-.04907.06637-.09657.13463-.145.20132q-.25668.35056-.5058.70806c-.11293.16167-.22365.32461-.33406.48818-.0953.14092-.18872.28278-.28246.425-.30228.46082-.598.927-.88169,1.39944l.85338,1.42932c.31643.48755.69169,1.044,1.116,1.64856.92132-1.07294,1.90681-2.10907,2.93948-3.11029m4.13541-9.43341a6.1272,6.1272,0,0,1,3.73121,3.24146,53.62963,53.62963,0,0,1,8.0198-4.16718c-2.84291-3.5126-4.49872-4.13006-5.23979-4.18133a1.16339,1.16339,0,0,0-.39194.03177,39.72857,39.72857,0,0,0-7.09313,4.91581l.02517.00126a5.12589,5.12589,0,0,1,.94868.15822m35.10113-4.93594a40.79063,40.79063,0,0,1,15.34382,4.03255,40.097,40.097,0,0,0-3.77523-2.72968,46.61651,46.61651,0,0,0-10.8772-4.84818l-.09091-.02579c-.30449-.0843-.60426-.16451-.90119-.23811l-.21547-.05128a22.32174,22.32174,0,0,0-3.5969-.586c-2.81367-.19691-4.79691.38249-5.5855,1.62969a3.07878,3.07878,0,0,0-.41521,1.78508,6.09752,6.09752,0,0,0,.224,1.37491,48.77609,48.77609,0,0,1,9.88983-.34318M32.09887,121.4905c-.00945.29-.0236.58286-.03932.87791-.00724.12866-.01384.25731-.022.3869-.0192.30858-.04277.61935-.06858.93233-.01039.11859-.02045.23749-.03114.3567q-.04481.48977-.10033.98581c-.01227.10758-.02454.21578-.03744.32462q-.06134.5157-.134,1.03708c-.01352.09719-.02768.1947-.04183.29221q-.07879.53978-.16891,1.08489c-.01448.0865-.02989.17332-.04468.26045q-.0967.56289-.20539,1.1305c-.01448.07518-.02989.15035-.045.22522q-.1156.58554-.24379,1.1758c-.01384.06291-.02893.12645-.04308.18967-.09029.40451-.184.80966-.28374,1.21637l-.00912.039,1.33306,1.1673a83.13487,83.13487,0,0,0,18.72966,11.89068q2.46483-1.14276,4.72175-2.36983-.6917-2.236-1.45764-4.50784-.13069-.38454-.26454-.7697c-.0953-.27649-.18872-.55267-.28593-.8301-3.57363-10.19084-7.85122-19.43834-12.04638-26.03858-.52656-.82791-1.04965-1.60862-1.55419-2.32139a51.11537,51.11537,0,0,0-8.60866,4.449c.04437.1428.08179.295.12331.44194.04562.16325.09469.32241.13683.49038.0412.16577.07643.34.1145.51083.03586.16168.07422.3199.10694.48535.03617.18275.06606.37338.09784.56084.02768.16168.05756.32022.0824.48536.02989.19942.05379.40514.07927.6096.01981.16042.04216.31864.05913.4822.0236.21672.04089.43943.05977.66119.0129.15728.02768.31266.03838.47183.01605.23528.02674.47528.03744.7156.00691.15161.01509.30228.01981.45641.00818.25321.01133.51083.01384.76908.00157.14532.00409.2897.00346.4366-.00031.27177-.005.54732-.01163.82412-.00315.13777-.00566.27461-.01006.41364m8.547-16.30069a53.69891,53.69891,0,0,1,8.50044-2.31259,8.11128,8.11128,0,0,1-.25385-2.04269,5.38866,5.38866,0,0,1,.81625-2.86745,5.08916,5.08916,0,0,1,.63477-.80368,39.77767,39.77767,0,0,0-13.26967,2.73785c-.41552.16232-.84017.33783-1.26608.5209a20.285,20.285,0,0,1,4.83813,4.76766m-11.04423,14.041c-.00534-.19723-.01321-.39193-.022-.58539-.0066-.145-.01384-.28938-.02233-.43219-.01069-.17741-.02327-.35261-.0365-.52625-.01258-.15444-.02642-.30668-.0412-.458-.01542-.16042-.03145-.32022-.04971-.47717-.01855-.16073-.03993-.318-.06165-.47528-.01951-.14344-.03869-.28782-.06071-.4278-.02674-.16986-.05725-.33406-.08776-.4992-.02233-.12235-.04277-.24786-.067-.3677-.04341-.21264-.09154-.41773-.14123-.62156-.01511-.06322-.028-.12928-.04373-.19156-.24.17427-.47308.35293-.70836.53034-.15666.11827-.31613.23434-.47058.35419-.25164.19439-.49636.39319-.74234.59167-.14186.11418-.285.22743-.42466.34318-.25982.21484-.51491.43251-.76812.65144-.11041.09531-.22146.19093-.33091.2875q-.4119.36283-.81186.73258c-.06794.06291-.13525.12614-.20289.189a43.763,43.763,0,0,0-3.62237,3.82212l.80808,1.05186a73.66481,73.66481,0,0,0,6.75185,7.34006,47.56462,47.56462,0,0,0,1.16446-9.51707c.001-.08871.00315-.1793.00347-.26737.00094-.22522-.0019-.44666-.005-.66748-.0019-.12676-.00378-.25447-.00693-.38m51.187-7.59516-.00409-.00315q-.29913-.235-.60582-.463l-.01227-.00912q-.30529-.22694-.61874-.44667l-.01131-.00786a33.338,33.338,0,0,0-11.13828-4.95953l-.00376-.00094a41.08193,41.08193,0,0,0-7.03212-1.09558,46.03229,46.03229,0,0,0-8.704.23654,19.4178,19.4178,0,0,0,1.32206,2.08894,43.59958,43.59958,0,0,0,11.87874,10.59944q.96016.60866,1.932,1.16951l.02045.01163q.4572.26375.91566.51618c.03335.01857.06637.03649.09972.05474q.42368.23262.848.45515l.1255.06637q.42088.2194.84079.42874c.0387.01919.07739.039.11608.05851q.46947.2326.93768.45327l.005.00252q.46428.21845.92572.42307c.107.0475.21359.09279.32052.139.18465.08085.36929.161.55331.23843.16357.06858.32588.13463.48849.20068.122.04971.24442.0994.36614.14752.18936.0755.37841.14816.56652.21987.08712.03271.17394.06575.26108.09783.21293.07927.42558.157.63665.23151.04656.01636.09279.03209.139.04845,1.0437.36361,2.06252.66968,3.043.91126.20132-.24473.40231-.48944.59136-.72631l1.55734-2.02917c.7672-1.04148,1.39409-1.96186,1.89109-2.72779l1.47746-2.4749c.033-.06039.0651-.12236.09812-.18339a26.52777,26.52777,0,0,0-3.82715-3.67175m-9.29467,19.67991a75.8035,75.8035,0,0,0,5.68741-5.7393c-.96662-.27618-1.95746-.60458-2.965-.98172-.04592-.01731-.09215-.03429-.1384-.05159q-.29443-.11136-.59072-.229-.143-.05616-.28625-.11356-.25241-.10192-.50642-.207c-.13495-.05662-.27082-.1145-.407-.17206-.13777-.05914-.27585-.11764-.41425-.17866-.202-.08839-.40421-.17961-.6071-.27146-.07706-.03491-.15413-.06888-.2315-.10443q-1.37491-.63272-2.76554-1.374l-.00881-.005c-1.25129-.66653-2.50541-1.39441-3.75039-2.18362a46.16015,46.16015,0,0,1-12.57264-11.254,20.6605,20.6605,0,0,1-1.90682-3.17069,51.081,51.081,0,0,0-7.83611,2.03389c.4127.60143.83042,1.234,1.24185,1.88134,4.2927,6.75247,8.66056,16.18367,12.29741,26.55539q1.004,2.86258,1.88479,5.68363a81.85978,81.85978,0,0,0,11.75322-8.26044Z" fill="#d71921"/><path d="M92.36425,55.63386c-.00943,0-2.12919-.28655-2.17481-.295,0,0,.06952.295.078.296a144.54036,144.54036,0,0,1,2.51232,26.33646,69.69307,69.69307,0,0,1-6.64932,30.35423,42.157,42.157,0,0,0-11.47672-10.89386l-.25354-.15634c-.79613-.50674-1.62465-.99524-2.45886-1.45008-.37965-.20635-.7653-.40672-1.15031-.60205l-.1557-.08053c-.358-.18024-.72095-.35293-1.08582-.5231-.19944-.09248-.40043-.18244-.60238-.27178L68.53,98.16314A42.48622,42.48622,0,0,0,15.99773,114.0288a69.37918,69.37918,0,0,1-7.492-32.05753,144.45772,144.45772,0,0,1,2.51264-26.33646c.00818-.001.07769-.29348.07769-.29348-.04026.00818-2.15027.29253-2.15908.29348a142.7354,142.7354,0,0,0-2.5444,26.33646,68.48186,68.48186,0,0,0,8.36518,33.51956l1.49569,2.47458c.50359.76625,1.13836,1.68663,1.914,2.72811l1.57716,2.02886a74.57539,74.57539,0,0,0,8.19973,8.59323l2.14776,1.85774a84.62242,84.62242,0,0,0,20.55122,12.59936q2.60309-1.13238,4.991-2.35788l2.28616-1.21134A80.90469,80.90469,0,0,0,78.7813,125.93018l1.90271-2.17072a57.32767,57.32767,0,0,0,5.24263-7.21581l1.535-2.78347a68.72853,68.72853,0,0,0,7.44576-31.7889,142.77311,142.77311,0,0,0-2.54316-26.33741m-40.52557,43.684c.78859-1.24751,2.77216-1.82692,5.58581-1.63a22.359,22.359,0,0,1,3.59692.58633l.21514.05127c.29725.07361.597.15381.90151.23811l.09091.02579a46.61684,46.61684,0,0,1,10.87718,4.84818,40.15361,40.15361,0,0,1,3.78312,2.73566,40.76831,40.76831,0,0,0-15.352-4.0357,48.63749,48.63749,0,0,0-9.8895.34286,3.95155,3.95155,0,0,1,.19093-3.1625M37.07395,99.901a39.77478,39.77478,0,0,1,13.27187-2.73786,5.05448,5.05448,0,0,0-.637.80651,6.13535,6.13535,0,0,0-.56177,4.90984,53.72057,53.72057,0,0,0-8.5014,2.31258,20.26611,20.26611,0,0,0-4.84032-4.76891c.42684-.18339.85212-.35953,1.26859-.52216M19.366,119.62059c-.4259-.60709-.80305-1.16542-1.12044-1.65518l-.85337-1.42931c.66559-1.10754,1.384-2.18834,2.149-3.22164,2.06691-2.6221,4.11685-4.003,5.77076-3.88723a2.67131,2.67131,0,0,1,.47592.07958,3.966,3.966,0,0,1,2.28522,2.20972,47.8477,47.8477,0,0,0-8.7071,7.90406m9.07952,10.44185a73.672,73.672,0,0,1-6.75184-7.34006l-.80777-1.05186a44.95927,44.95927,0,0,1,8.08177-7.50174c1.0245,4.01965.81973,9.809-.52217,15.89366m-2.009-22.99a5.26476,5.26476,0,0,0-.94868-.15822l-.02832-.00094a39.73625,39.73625,0,0,1,7.09628-4.918,1.163,1.163,0,0,1,.39194-.03208c.74107.05127,2.3975.669,5.24169,4.18353a53.6231,53.6231,0,0,0-8.0217,4.16749,6.12974,6.12974,0,0,0-3.73121-3.24177M50.64338,145.064a83.135,83.135,0,0,1-18.72966-11.89068l-1.33337-1.1673c1.82973-7.42437,2.048-14.56971.56682-19.33014a51.09609,51.09609,0,0,1,8.60895-4.44965c.50487.71309,1.028,1.49349,1.55452,2.32138,4.19517,6.60055,8.47245,15.84805,12.04638,26.03858.72032,2.05591,1.385,4.09295,2.00778,6.10765q-2.2624,1.222-4.72142,2.37014m20.85068-13.74842-2.12226,1.85774a81.89283,81.89283,0,0,1-11.75827,8.263q-.87949-2.81634-1.87976-5.68363c-3.63683-10.372-8.00471-19.80259-12.29769-26.5557-.41145-.64767-.82979-1.28086-1.24312-1.88322a51.098,51.098,0,0,1,7.83737-2.03453,20.67388,20.67388,0,0,0,1.90712,3.17069,46.16632,46.16632,0,0,0,12.57262,11.25434,49.85636,49.85636,0,0,0,12.67236,5.87111,75.8264,75.8264,0,0,1-5.68837,5.74025m13.02371-15.82478-1.47746,2.47458c-.497.76625-1.12422,1.68663-1.89109,2.72811l-1.55734,2.02886c-.18936.23685-.39.48158-.59136.72661a46.29149,46.29149,0,0,1-13.14134-5.872A43.59491,43.59491,0,0,1,53.98046,106.9775a19.40756,19.40756,0,0,1-1.32331-2.09114,46.01876,46.01876,0,0,1,8.70521-.23685c9.78821.68477,18.07067,4.55691,23.25353,10.658-.033.06071-.06543.123-.09812.18338" fill="#fff"/><path d="M96.456,53.85555c-.56337-.01353-1.12577-.0475-1.6838-.0887-.14028-.00944-.27775-.01951-.41677-.03177-.54922-.04656-1.09684-.1016-1.641-.17269-.0651-.00786-.12708-.0195-.1906-.02548-8.68636-1.17453-16.77065-5.4021-23.74646-11.952-.11763-.1079-.23371-.21483-.3504-.32651-.2117-.20287-.42245-.40955-.63068-.6162-.1082-.10694-.21643-.21044-.32336-.31519-.22428-.22459-.44478-.453-.66527-.68321-.09154-.09279-.18308-.18433-.27335-.27994-.24818-.26045-.49448-.52595-.74234-.79237-.05977-.06447-.11986-.128-.18118-.195-.29349-.32146-.58414-.64483-.87195-.9748-.01227-.01478-.0239-.02642-.03554-.04153-.02863-.03145-.05568-.06384-.08242-.09594l-.18245-.6637L80.15723,24.03166c1.20284-.96283,1.37929-1.84358.63571-2.32767l.00094.00031a3.02573,3.02573,0,0,0-1.55043-.40419L59.165,20.37469l.00691.01793L52.0772,1.562c-.78292-2.08266-2.06818-2.08266-2.85172,0L42.12887,20.39262l.0066-.01793-20.07687.92542a3.01673,3.01673,0,0,0-1.55042.40482c-.743.48473-.56526,1.36578.63791,2.32863l15.7175,12.567-.18118.66024c-.02893.03241-.05662.0667-.08524.09939-.01163.01511-.02421.02674-.03586.04153-.2875.33-.57846.65333-.871.9748-.06134.067-.122.13055-.18275.195-.24724.26642-.49258.53192-.74076.79237-.09027.09561-.18245.18715-.27272.27994-.22207.23025-.442.45862-.66621.68321-.10726.10475-.21516.20825-.32336.31519-.20919.20665-.4193.41333-.63319.6162-.1145.11168-.23025.21862-.34821.32651-6.9755,6.54991-15.05853,10.77748-23.74581,11.952-.06291.006-.12614.01761-.19.02548-.54544.07109-1.09244.12614-1.64228.17269-.13777.01227-.27586.02234-.41458.03177-.56022.0412-1.12106.07517-1.68537.0887A147.983,147.983,0,0,0,2.31169,80.67517V80.711q0,1.18948.03491,2.35316c.00755.25227.0236.49983.034.75178.02045.51869.03838,1.038.07014,1.54854.01667.28655.04278.56557.06323.84866.03366.46962.06448.94114.106,1.40258.02611.2875.06134.5662.09.85087.04592.45043.09.90559.14312,1.351.03492.28.07738.5555.11544.83356.05819.44038.1145.88358.18149,1.31861.04089.27492.09122.54229.13557.81375.07141.43062.13966.86564.21957,1.29092.04655.25888.10286.51145.15349.76813.08368.43062.16515.86219.25825,1.2862.0541.251.11513.49227.17143.73857.09752.42559.1922.8518.296,1.2689.05914.23749.12519.46774.18716.70334.11009.41961.21862.843.33468,1.25695.0626.22616.13369.44635.19911.67157.12236.41458.24441.83167.3718,1.2409.06794.21453.14218.42276.21106.63508.13589.41143.26989.8257.40955,1.23052.06984.19629.14344.38722.21421.5813.14816.4152.29694.83073.45359,1.23932.06983.18119.14469.35734.21483.53694.16326.41333.32682.82948.49636,1.23745.072.173.15035.3416.22522.51334.17332.408.34758.81343.52782,1.21292.0777.17017.15917.33436.23654.50423.185.39445.368.79078.55613,1.17768.07864.15917.16074.313.23969.4712.19534.39256.38973.7848.59168,1.16887.07738.14627.16011.29159.23749.43912.20918.38689.41583.77568.6291,1.15408.07864.14029.16011.27461.23969.4127.21767.3806.436.76467.659,1.1371.07958.13306.16294.26266.24315.3954.22774.37243.45453.74706.68792,1.11194.08085.12487.16232.24723.24315.37117.23591.36708.474.73416.71624,1.09369.07958.118.162.23246.2422.3501.2463.35984.49259.71907.74391,1.07262.07959.11135.16011.21735.24.32744.25668.35325.51115.70648.77,1.05155.07959.10474.15979.20508.23843.31046.2636.346.5275.69043.79425,1.02795.07769.0972.1579.19408.2356.29285.27208.33721.54229.67315.81689,1.0028.07864.095.15791.18527.23623.27837.27617.329.55455.65679.83325.97858.07958.08965.15822.17677.23622.2661.28341.319.56525.63823.85087.949.07549.08368.15413.16451.22931.2485.28844.31267.5772.62407.86753.92887.07864.08084.15759.15885.2356.23937.291.30291.58286.60394.87477.89679.07643.07643.15287.14973.22993.22616.29662.29442.59168.58632.8883.87288.07644.06983.1491.1384.2227.20917.30228.28593.60268.57154.90465.84961.07234.06668.14437.13148.21861.19816.30259.27712.60708.55267.90906.82193.07612.06669.15192.13022.22741.19754.30134.26548.603.52939.9056.78732.0758.06228.14973.12393.224.18527.30322.25667.60489.51178.90812.7609.07392.06008.151.11922.22489.17993q.453.36991.9034.72882c.07676.06039.15509.1189.23121.17772.30038.23466.59858.46805.89489.69422.07582.05756.15131.11355.229.17143.29535.224.59261.44918.88859.66559.07739.05725.15225.10915.229.16514.29535.21673.58884.43.881.63665.07708.05536.15225.10632.229.15917.29128.207.58161.4108.87037.60771.07516.0519.151.10192.2252.15287.28813.195.57533.39162.86.57909.07739.051.15194.09971.22837.14973.2809.18464.56273.36929.84017.54858.08021.05065.15758.101.23843.14941.27239.17395.546.34727.81468.51524.07927.04876.15885.09656.23845.146.26548.16262.53157.32619.79392.48441.0824.0497.162.09531.24377.14532.25605.15287.51241.30512.765.45264.08336.04876.16734.09562.25039.14532.24786.14123.49258.28309.73352.42024.08745.04876.173.09562.26014.14438.23561.13211.46962.263.69956.39.08776.04813.17175.09279.26045.14029.22522.12173.45075.245.66906.36174.09027.0475.17615.09216.26485.13777.21232.11261.42464.2249.63289.33185.0953.04876.18746.09562.2812.14532.1969.1.3935.201.58539.29631.09751.04907.1906.09531.28844.14312.18118.09028.36393.1815.53945.26611.10129.0497.19817.09688.29852.14406.16545.08021.334.162.4954.23906.101.0475.19755.09216.29725.13683.15257.07329.30731.14406.4539.213.1101.051.21485.09908.32242.14658.12928.06039.25918.1189.3847.1752.11293.05064.22017.09751.32743.14564.11638.0519.23182.10223.34318.15.11135.04876.21643.09342.32494.14029.09814.04246.196.08587.29286.12519.11732.051.22929.09751.3416.14438.078.0324.15474.06448.22741.09405.11984.05.23215.09562.346.14029.05662.02422.12015.0497.17551.073.12677.05064.24567.09751.36236.1428.03147.01415.06794.028.1016.04089q.19393.07644.36677.14312c.01605.005.03083.01164.04623.01667.80464.30795,1.25508.45484,1.25508.45484s.44917-.14689,1.25442-.45484c.01605-.005.03177-.01164.04656-.01667.1145-.04467.23591-.09216.36739-.14312.03083-.0129.06827-.02674.1016-.04089.118-.04529.23591-.09216.36047-.1428.05758-.02328.12016-.04876.17772-.073.1145-.04467.22585-.09028.34538-.14029.07234-.02957.15067-.06165.22616-.09405.11323-.04687.22585-.09342.34254-.14438.09657-.03932.19535-.08273.29474-.12519.10569-.04687.21044-.09153.32367-.14029.1101-.04781.22679-.09814.3416-.15.10884-.04813.2161-.095.32839-.14564.12583-.0563.25573-.11481.38438-.1752.1082-.0475.213-.09562.32367-.14658.14658-.06889.30009-.13966.45265-.213.10066-.04467.19629-.08933.29789-.13683.16042-.07707.32933-.15885.4954-.23906.09908-.04718.19629-.09436.29821-.14406.17615-.08461.35733-.17584.53914-.26611.09751-.04781.19156-.094.28844-.14312.19187-.09531.39067-.19628.58537-.29631.09469-.0497.18653-.09657.2831-.14532.20635-.10695.419-.21924.63225-.33185.08712-.04561.17331-.09028.26233-.13777.22019-.1167.4451-.24.67126-.36174.08618-.0475.17173-.09216.26076-.14029.229-.12708.46271-.25793.69926-.39.08682-.04876.17079-.09562.25888-.14438.24094-.13715.48692-.279.73258-.42024.084-.0497.16828-.09657.25321-.14532.2507-.14752.50675-.29977.76468-.45264.08146-.05.16073-.09562.24346-.14532.262-.15822.52844-.32178.79329-.48441.07958-.04939.15854-.0972.23812-.146.27114-.168.542-.34129.81595-.51524.07958-.04844.15791-.09877.23749-.14941.27805-.17929.55989-.36394.84111-.54858.07518-.05.15067-.09877.228-.14973.28374-.18747.57122-.38407.85968-.57909.07612-.051.14971-.101.224-.15287.29-.19691.58036-.40074.8732-.60771.07424-.05285.15067-.1038.22616-.15917.29286-.20666.586-.41992.88074-.63665.07645-.056.15351-.10789.23058-.16514.295-.21641.59324-.44163.89049-.66559.07392-.05788.1494-.11387.22647-.17143.29789-.22617.59545-.45956.89458-.69422.07739-.05882.15225-.11733.23152-.17772q.45011-.35812.90434-.72882c.07518-.06071.1494-.11984.2227-.17993.30417-.24912.60645-.50423.91031-.7609.07392-.06134.14848-.123.2224-.18527.30259-.25793.60487-.52184.90716-.78732.07676-.06732.15067-.13085.22616-.19754.30418-.26926.60741-.5448.90843-.82193.07487-.06668.14785-.13148.2205-.19816.302-.27806.60238-.56368.90372-.84961.073-.07078.1494-.13934.22238-.20917q.44447-.42984.8883-.87288c.078-.07643.1538-.14973.23119-.22616.29253-.29285.58349-.59387.87444-.89679.07864-.08053.156-.15854.234-.23937.29222-.3048.5794-.61621.86911-.92887.07582-.084.15319-.16482.22931-.2485.28562-.31077.56807-.63.85087-.949.07831-.08933.15728-.17646.23465-.2661.28184-.32179.55707-.64955.83451-.97858.078-.0931.15822-.18338.23655-.27837.27523-.32965.54574-.66559.81625-1.0028.07676-.09877.15885-.19564.23624-.29285.26705-.33751.53-.68195.79486-1.02795.078-.10538.15852-.20572.23812-.31046.25888-.34507.51585-.6983.76906-1.05155.07927-.1101.16106-.21609.2397-.32744.25133-.35355.49857-.71278.74328-1.07262.08054-.11764.16357-.23214.24315-.3501.24158-.35953.4797-.72661.71719-1.09369.07864-.12394.16167-.2463.24219-.37117.234-.36488.46019-.73952.68793-1.11194.08085-.13274.16231-.26234.24127-.3954.22616-.37243.44414-.7565.66307-1.1371.078-.13809.15885-.2724.23812-.4127.21389-.37841.41961-.76719.62816-1.15408.078-.14753.15948-.29285.23812-.43912.201-.38406.39759-.77631.59261-1.16887.07864-.15823.1601-.312.23812-.4712.19-.3869.37117-.78323.55613-1.17768.07864-.16986.16041-.33406.23591-.50423.18181-.39949.35512-.80494.52906-1.21292.07424-.17174.15288-.34035.22618-.51334.168-.408.33058-.82412.4951-1.23745.06983-.1796.14407-.35575.2142-.53694.15791-.4086.30449-.82412.45422-1.23932.07077-.19408.14627-.385.21359-.5813.14249-.40482.27523-.81909.40861-1.23052.0695-.21233.14595-.42056.21232-.63508.12865-.40923.24786-.82632.37117-1.2409.06574-.22522.13714-.44541.201-.67157.11732-.414.22585-.83734.33406-1.25695.06165-.2356.12865-.46585.18778-.70334.10254-.4171.1985-.84331.296-1.2689.055-.2463.11732-.48756.16891-.73857.09309-.424.17615-.85558.26045-1.2862.05-.25668.10569-.50926.15382-.76813.07864-.42528.14656-.8603.2186-1.29092.04531-.27146.09375-.53883.13621-.81375.067-.435.12235-.87823.18181-1.31861.0368-.27805.08083-.5536.11606-.83356.05379-.4454.095-.90056.14155-1.351.02957-.28467.06385-.56337.09027-.85087.04122-.46144.0733-.933.10475-1.40258.02265-.28309.04782-.56211.06543-.84866.03083-.51052.04844-1.02985.06888-1.54854.01039-.252.02768-.49951.03366-.75178q.0368-1.16494.03523-2.35316s.00094-.01258.00094-.03586a148.04777,148.04777,0,0,0-2.534-26.81961M94.9075,81.97112a68.73012,68.73012,0,0,1-7.44576,31.78922l-1.53532,2.78315a57.30447,57.30447,0,0,1-5.24232,7.21613l-1.903,2.17072a80.90773,80.90773,0,0,1-20.86043,16.273L55.63447,143.415q-2.39076,1.22109-4.99132,2.35756A84.62825,84.62825,0,0,1,30.09194,133.1732l-2.14776-1.85774a74.54467,74.54467,0,0,1-8.19941-8.59291l-1.57716-2.02886c-.776-1.04179-1.41045-1.96218-1.914-2.72811l-1.496-2.47489A68.48007,68.48007,0,0,1,6.39268,81.97112,142.75015,142.75015,0,0,1,8.93677,55.63466c.00913-.00062,2.11913-.2853,2.1594-.29316,8.16261-1.546,15.98581-5.67891,22.9091-12.17944,0,0,.28059-.25855.36174-.33688.20854-.20036.41331-.401.61714-.60142l.37462-.36771.08557-.08964.01163-.04216L31.53226,56.00583c-.58727,2.14367.45044,2.89733,2.30849,1.67467L50.64127,46.61678,67.45972,57.6805c1.85774,1.22266,2.8967.469,2.30912-1.67467l-3.91051-14.236c.02768.02893.056.05819.084.08618l.37149.36456c.20445.20162.41018.40421.61808.60142.08463.08085.36677.34381.36677.34381,6.917,6.49391,14.73549,10.6246,22.89087,12.17282.04562.0085,2.16536.29537,2.17481.29537A142.80275,142.80275,0,0,1,94.9075,81.97112" fill="#8d734a"/><polygon points="34.285 54.657 50.653 32.133 50.653 43.884 34.285 54.657" fill="#a60e13"/><polygon points="77.132 23.526 50.653 32.133 61.83 35.764 77.132 23.526" fill="#a60e13"/><polygon points="24.17 23.526 50.651 32.133 39.473 35.764 24.17 23.526" fill="#c3161c"/><polygon points="67.017 54.657 50.651 32.133 61.83 35.764 67.017 54.657" fill="#c3161c"/><polygon points="50.65 4.289 50.651 32.133 57.559 22.623 50.65 4.289" fill="#c3161c"/><polygon points="77.132 23.529 50.651 32.133 57.559 22.623 77.132 23.529" fill="#e01b22"/><polygon points="50.651 4.289 50.651 32.133 43.743 22.623 50.651 4.289" fill="#e01b22"/><polygon points="67.017 54.657 50.651 32.133 50.651 43.884 67.017 54.657" fill="#e01b22"/><polygon points="34.285 54.657 50.651 32.133 39.473 35.764 34.285 54.657" fill="#e01b22"/><polygon points="24.171 23.529 50.653 32.133 43.745 22.623 24.171 23.529" fill="#ec1c24"/><path d="M80.81162,64.28895H75.40668L70.15176,86.7212H75.635l1.05658-4.39114h4.58648l1.52213,4.39114h5.49709ZM77.90768,77.19627l.70741-3.39936,1.12956,3.39936Zm-34.30154-3.953c-2.13707-.48095-2.92124-.69327-3.20025-.7867a1.67242,1.67242,0,0,1-1.36862-1.73349c0-1.08489.36489-1.80867,2.14588-1.80867a2.43093,2.43093,0,0,1,1.82.69925,2.45627,2.45627,0,0,1,.698,1.82535v.99807h5.141c0-.02328.02045-.02328.02045-1.42524a7.28628,7.28628,0,0,0-1.14088-4.00613c-1.30789-2.03074-3.48712-3.06091-6.47661-3.06091a7.39816,7.39816,0,0,0-5.31184,1.853,6.92257,6.92257,0,0,0-2.00275,5.26874,5.93617,5.93617,0,0,0,3.68938,5.95383,35.48852,35.48852,0,0,0,3.84,1.00719,5.6638,5.6638,0,0,1,2.09429.78324,1.68336,1.68336,0,0,1,.62784,1.50356,1.73126,1.73126,0,0,1-.71717,1.49664,3.1197,3.1197,0,0,1-1.91593.54574,2.54385,2.54385,0,0,1-2.663-2.66142l-.02705-.94365h-5.2741l.03147,1.00059a8.48012,8.48012,0,0,0,2.10026,5.3521,6.921,6.921,0,0,0,5.34989,2.2632c6.88742,0,8.33278-4.2021,8.33278-7.72791a5.94052,5.94052,0,0,0-1.66649-4.43486,8.49951,8.49951,0,0,0-4.12661-1.96154M23.69031,63.94483a7.77709,7.77709,0,0,0-7.04407,4.03539,15.88819,15.88819,0,0,0-1.99583,7.67789,15.50253,15.50253,0,0,0,1.39315,7.7062,7.11856,7.11856,0,0,0,6.78361,4.0033,7.85977,7.85977,0,0,0,6.01045-2.54095A9.1723,9.1723,0,0,0,31.249,78.80394l.0154-.98832H26.09064l-.07768.82412c-.39476,3.087-1.94236,3.48335-3.24586,3.48335-.61306,0-1.49727-.20572-2.09617-1.98388a12.00078,12.00078,0,0,1-.48126-4.19486c.15822-4.55533,1.30633-6.86478,3.41413-6.86478a2.23026,2.23026,0,0,1,2.093,1.15315,4.36609,4.36609,0,0,1,.59481,2.02382l.05725.88263h5.12183l.00818-.93485a8.25316,8.25316,0,0,0-2.08767-5.83147,7.37209,7.37209,0,0,0-5.70093-2.428m45.53669.34412H62.89917l-5.26465,7.5612v-7.5612H52.27957V86.7212h5.35494v-8.966l5.75,8.966h6.43383L61.87372,74.63707Z" fill="#8d734a"/><path d="M30.30577,78.75832a8.21638,8.21638,0,0,1-2.15657,5.42256,6.92525,6.92525,0,0,1-5.3219,2.24338,6.21141,6.21141,0,0,1-5.94722-3.495,14.52833,14.52833,0,0,1-1.28683-7.23878,14.89842,14.89842,0,0,1,1.86214-7.224,6.85887,6.85887,0,0,1,6.235-3.578,6.442,6.442,0,0,1,5.00326,2.11913,7.31,7.31,0,0,1,1.84137,5.18822H27.23227a5.33638,5.33638,0,0,0-.72629-2.44973,3.15958,3.15958,0,0,0-2.90236-1.60956q-4.0865,0-4.35748,7.77477a12.87312,12.87312,0,0,0,.53,4.52766q.88514,2.62666,2.99076,2.62745,3.63116,0,4.18164-4.3081Z" fill="#fff"/><path d="M48.45581,79.6396q0,6.78631-7.38945,6.78456a5.99167,5.99167,0,0,1-4.651-1.95336,7.53752,7.53752,0,0,1-1.85774-4.77521h3.38489a3.48389,3.48389,0,0,0,3.60634,3.60508,4.06413,4.06413,0,0,0,2.47583-.72976,2.94581,2.94581,0,0,0,.09563-4.51287,6.65885,6.65885,0,0,0-2.44816-.95058q-3.1518-.74266-3.70132-.96284-3.09709-1.29328-3.09708-5.07812a5.99146,5.99146,0,0,1,1.70738-4.58114,6.46191,6.46191,0,0,1,4.66387-1.597q3.99118,0,5.68362,2.6284a6.32577,6.32577,0,0,1,.99052,3.495,2.7079,2.7079,0,0,1-.02736.4819H44.64375v-.05442a3.33641,3.33641,0,0,0-3.4607-3.46888q-3.08905,0-3.088,2.75264a2.5987,2.5987,0,0,0,2.01126,2.62839q.66008.22082,3.29241.81217a7.6672,7.6672,0,0,1,3.67868,1.72029,5.01227,5.01227,0,0,1,1.37837,3.75574" fill="#fff"/><polygon points="56.691 85.778 53.222 85.778 53.222 65.233 56.691 65.233 56.691 73.434 57.682 73.434 63.392 65.233 67.398 65.233 60.731 74.616 68.07 85.778 63.901 85.778 58.066 76.681 56.691 76.681 56.691 85.778" fill="#fff"/><path d="M86.98838,85.77789H83.47044l-1.52056-4.3905H75.94826L74.892,85.77789H71.341l4.81421-20.54494H80.1321Zm-5.9362-7.63763-2.6457-7.9701-1.65833,7.9701Z" fill="#fff"/></svg>