<?xml version="1.0" encoding="UTF-8" standalone="no"?>
<svg xmlns:rdf="http://www.w3.org/1999/02/22-rdf-syntax-ns#" xmlns="http://www.w3.org/2000/svg" height="132.70949" width="283.46459" version="1.1" xmlns:cc="http://creativecommons.org/ns#" xmlns:dc="http://purl.org/dc/elements/1.1/" viewBox="0 0 283.46459 132.70949"><path d="M115.1775,14.7165h11.5177l-5.7588,19.83609,8.9582-2.3028,5.119-17.5333h10.7505L137.0608,44.535l14.33359-19.0682,3.1999-10.7503h10.237l-6.1426,21.1164c-.2552.7679-1.53589,5.2471-.5113,5.2471,1.1517,0,3.8382-4.8634,6.91-10.3666a125.99961,125.99961,0,0,0,7.55041-15.9969H183.132l-5.119,17.917,13.30981-17.917h92.14179L61.172,109.674l4.3513-14.9727,174.5569-71.4097h-34.0358l-3.332,11.1335-10.8784,3.455,4.3556-14.5885h-5.366l-15.114,19.5794-9.4695,3.1994a104.32226,104.32226,0,0,1,2.4304-14.0767L164.32,40.184c-3.4561,6.3987-6.3988,11.5171-11.6458,11.5171-3.8392,0-5.6313-3.5825-5.6313-8.3178a25.5032,25.5032,0,0,1,.6404-5.247l-14.2051,18.9405L121.7043,60.916l5.8865-20.604-8.9583,2.3034-6.142,21.5-12.798,4.2225,5.7588-19.8356L92.5263,65.011c-5.503,7.0385-11.134,10.8778-15.6131,10.8778-8.7023,0-9.8543-14.3329-9.0866-20.0922-4.7348,2.1758-6.3985,2.9437-7.9344,3.8392,2.0478,30.7145-29.1782,73.0737-49.0141,73.0737C4.7353,132.70949,0,127.97469,0,117.2244,0,101.3562,11.9017,78.1927,43.8957,60.02c-.8961-6.2707-3.0716-11.5177-6.9108-14.8451V44.535c10.8778-8.3184,19.0684-17.6608,19.0684-26.1073,0-3.8392-2.9435-5.3746-6.1429-5.3746-6.0147,0-13.9494,7.4228-18.3004,13.69349H29.379L32.8897,14.7165C41.08,3.8392,54.1336,0,61.3001,0c7.2947,0,13.4376,2.81559,13.4376,11.5177,0,10.3655-8.9585,21.1158-22.2678,29.178a28.44152,28.44152,0,0,1,6.2707,11.7739c3.1994-1.6639,6.5268-3.3274,10.1101-4.9914C72.69,28.6662,86.1271,14.2048,98.029,14.2048c6.0145,0,8.7021,3.5836,8.7021,8.4464,0,11.2616-10.3656,19.9642-24.9551,27.6427a31.70256,31.70256,0,0,0-.3837,5.6307c0,5.1195,1.1516,7.5505,3.071,7.5505,1.28,0,2.8157-1.1517,4.6075-3.1989l19.708-23.2916ZM14.9732,113.6414c0,2.4314.7677,6.3987,3.5832,6.3987,11.0061,0,24.9553-29.3062,25.5951-52.0859C24.8273,81.1359,14.9732,100.204,14.9732,113.6414ZM94.7015,24.827c0-1.7916-.6398-2.9438-1.7915-2.9438-2.9437,0-7.2947,9.342-9.7264,20.0923C91.2461,36.7289,94.7015,30.074,94.7015,24.827Z" fill="#00aeef"/></svg>