<?xml version="1.0" encoding="UTF-8" standalone="no"?>
<svg xmlns:rdf="http://www.w3.org/1999/02/22-rdf-syntax-ns#" xmlns="http://www.w3.org/2000/svg" height="208.6703" width="312.78612" version="1.1" xmlns:cc="http://creativecommons.org/ns#" xmlns:dc="http://purl.org/dc/elements/1.1/" viewBox="0 0 312.78612 208.6703"><path d="M29.551,29.30737l1.21967-.58225C70.89343,9.5789,110.00665.00194,149.14966,0c39.14281-.00217,78.28712,9.57124,118.47208,28.72512l1.22011.58165-.36191,1.30579c-2.25708,8.15288-4.78841,16.15158-7.5684,24.05059q-3.64746,10.36283-7.82506,20.48741a12.621,12.621,0,0,1,2.47148-.515,14.26515,14.26515,0,0,1,3.92527.17754l.15139.03171a19.65858,19.65858,0,0,1,3.00551,1.05264,15.39093,15.39093,0,0,1,1.7634.93282,16.88645,16.88645,0,0,1,4.201-2.45733,12.97118,12.97118,0,0,1,5.20392-.87514l.21484.02529a16.98277,16.98277,0,0,1,1.86992.40542,16.58655,16.58655,0,0,1,1.8103.62557l.13893.06306a18.98612,18.98612,0,0,1,2.426,1.49494,21.79549,21.79549,0,0,1,2.16575,1.81716l.06306.06305A28.8589,28.8589,0,0,1,286.826,83.815a27.19931,27.19931,0,0,1,2.64219,6.63l.01886.08189a15.65184,15.65184,0,0,1,.35438,3.8498,9.80567,9.80567,0,0,1-1.064,3.98532v.00624c-1.10134,2.16274-2.14671,4.38146-3.04307,6.62015a48.118,48.118,0,0,0-2.205,6.84679v-.01867c-.13163.5917-.25576,1.20255-.33984,1.82361a10.11216,10.11216,0,0,0-.08919,1.0589l1.89674,1.73138a17.36459,17.36459,0,0,1,4.21258-2.33214,17.03566,17.03566,0,0,1,6.10667-1.12876,17.24162,17.24162,0,0,1,12.35665,5.253,18.04382,18.04382,0,0,1,0,25.16968,17.09978,17.09978,0,0,1-16.05487,4.84268,17.06484,17.06484,0,0,1-2.3435-.69916,37.90436,37.90436,0,0,1-12.14139,10.09953,26.7123,26.7123,0,0,1-15.2095,2.85139,28.79776,28.79776,0,0,1-14.37488-6.06766,42.9524,42.9524,0,0,1-11.486-14.17122c-2.56713-.3797-5.26223-.739-8.06991-1.07687q-4.47873-.539-9.05524-.98623A241.85521,241.85521,0,0,1,188.15631,174.395c-11.56378,11.368-24.15754,21.66677-37.912,33.38254l-1.04775.89276-1.04834-.89276c-14.20854-12.10231-27.02182-22.58452-38.67374-34.10889a238.54842,238.54842,0,0,1-31.15095-37.167c-5.34906.196-10.69275.37026-15.93653.54092-22.24966.72441-42.716,1.3918-58.82645,3.61654L0,141.15117l2.00155-2.98562c4.76054-7.1,10.0858-14.13027,15.47816-21.25041,10.2558-13.54006,20.7618-27.41,27.66689-42.0834-.18695-.45257-.4335-1.051-.7315-1.77773l-.00621-.00641c-.1147-.28-.2532-.6213-.41529-1.02116q-2.09.68981-4.3011,1.329-2.93928.84932-5.84472,1.51939l-3.25017.7508-1.06316.24589-.62215-.90213L21.64338,64.43016l-1.29985-1.8843,2.20886-.59018c4.851-1.29536-.63374.17043,7.14629-1.90851q2.6058-.71394,5.08384-1.55948,1.76134-.59784,3.54945-1.28012-2.235-6.244-4.21169-12.4424-2.20382-6.91154-4.20785-14.15261L29.551,29.30737Z" fill="#fff"/><path d="M31.46526,30.18339c79.80522-38.08226,155.53294-38.097,235.46187,0a393.49963,393.49963,0,0,1-16.56965,47.33124l.519.42127,1.46517-.80287a11.48527,11.48527,0,0,1,6.87659-.72916,14.96713,14.96713,0,0,1,5.28749,2.45373l.68113-.59261a12.50406,12.50406,0,0,1,8.57734-3.15089,14.423,14.423,0,0,1,3.33335.93605,17.9081,17.9081,0,0,1,4.23186,3.0531,26.18006,26.18006,0,0,1,6.57321,11.733,9.878,9.878,0,0,1-.56471,6.79982,62.65374,62.65374,0,0,0-5.38058,13.83314,15.02169,15.02169,0,0,0-.46822,3.9433l3.44871,3.14769a15.5795,15.5795,0,0,1,10.37841-3.97459,16.22591,16.22591,0,0,1,0,32.44328,15.4393,15.4393,0,0,1-6.544-1.45141c-16.19082,20.90717-39.85055,16.56145-51.657-6.80561-5.682-.85973-12.06033-1.62058-18.97955-2.28432-18.56044,27.40276-41.4188,46.59652-68.93924,70.03754-28.37611-24.16976-51.17335-43.29747-70.03545-71.6727-28.69791,1.06572-55.56471,1.412-75.8212,4.20954,13.83228-20.6293,32.99817-41.3461,43.57-64.19605q-1.01493-2.4196-1.99169-4.85639a111.99938,111.99938,0,0,1-11.43,3.29345l-3.25017.751L22.969,63.515q3.577-.9548,7.15294-1.90874a98.2648,98.2648,0,0,0,10.259-3.46372q-4.98522-13.74679-8.91565-27.9591Z" fill="#201600" fill-rule="evenodd"/><path d="M47.31366,37.6127A284.06091,284.06091,0,0,1,96.14393,20.52919a60.86571,60.86571,0,0,1,10.93242,15.62455A173.14769,173.14769,0,0,0,70.0543,52.9193l-9.32085-4.58475-4.19606,2.24428q-2.28,1.19371-4.58581,2.3437-2.49874-7.576-4.63792-15.30983Zm59.35685-19.44138a231.45493,231.45493,0,0,1,39.81985-4.54039c-.32221,4.35061-.58252,9.71084-.78831,15.91722a138.57282,138.57282,0,0,0-28.699,3.85649c-3.09729-6.65194-6.60646-11.91347-10.33256-15.23332ZM145.46238,38.1714c-.12693,5.47981-.22276,11.44457-.29073,17.81626A115.64876,115.64876,0,0,0,125.18894,58.418,138.10587,138.10587,0,0,0,119.943,40.46513a190.72312,190.72312,0,0,1,25.51936-2.29373ZM73.95815,55.35073a137.42284,137.42284,0,0,1,36.02233-13.00386A137.1911,137.1911,0,0,1,116.26836,60.718q-2.19645.67014-4.32063,1.42526.50586-1.11817,1.01429-2.2406L99.60719,53.672,92.44911,70.23094c-4.68764-3.79087-12.3176-.3203-16.23044,2.87861,1.18579-3.13782,2.6265-6.13135,4.03161-9.17785l-7.85055-3.97586,1.55842-4.60511Zm77.934-41.72026a231.444,231.444,0,0,1,39.828,4.54085c-3.72569,3.31985-7.23569,8.58184-10.3332,15.2335a138.53244,138.53244,0,0,0-28.73114-3.8575c-.20175-6.1839-.45389-11.5396-.76369-15.91685Zm50.35436,6.89914A284.01552,284.01552,0,0,1,251.0787,37.6127q-3.53037,12.75377-8.036,25.07534a179.05241,179.05241,0,0,0-51.72861-26.53386,60.85265,60.85265,0,0,1,10.9324-15.62457Zm39.46014,45.74111c-.01844.0478-.03689.09539-.0553.14363l-13.73453-7.562-4.67243,13.9965a17.04741,17.04741,0,0,0-3.14166,1.72778c2.5969-31.6859-17.71018-24.68795-32.43048-12.147q-2.6981-.98472-5.51883-1.8335a136.51431,136.51431,0,0,1,6.39289-18.56277c20.78581,4.3892,39.59945,12.46723,53.16034,24.23729ZM153.19112,55.97245c-.07246-6.37942-.17-12.35019-.29754-17.8375a190.84619,190.84619,0,0,1,25.64238,2.0909,137.55918,137.55918,0,0,0-5.31706,18.10489,115.92462,115.92462,0,0,0-20.02778-2.35829Z" fill="#dc7d43" fill-rule="evenodd"/><path d="M126.69739,68.76812a1.10114,1.10114,0,0,0-.57135-.81038,1.68381,1.68381,0,0,0-1.13262-.07912l-1.17081.25472.50361,2.4256,1.00356-.21825A1.99492,1.99492,0,0,0,126.492,69.755a1.13313,1.13313,0,0,0,.2054-.98688Zm-1.42162-3.86759a1.295,1.295,0,0,0-.17066-.43651,1.01447,1.01447,0,0,0-.29931-.30912,1.08135,1.08135,0,0,0-.40883-.15929,1.36829,1.36829,0,0,0-.50637.02034l-.8835.19231.47229,2.27381.7851-.17107a1.62086,1.62086,0,0,0,.519-.20217,1.149,1.149,0,0,0,.34261-.32563,1.05012,1.05012,0,0,0,.164-.41465,1.29988,1.29988,0,0,0-.01436-.468Zm3.39681,3.38672A3.031,3.031,0,0,1,128.691,69.377a2.77735,2.77735,0,0,1-.42024,1.07452,3.24306,3.24306,0,0,1-.90748.9067,4.04956,4.04956,0,0,1-1.4422.58785l-3.221.7004-2.01291-9.69025,3.08658-.67127a3.54435,3.54435,0,0,1,1.31076-.065,2.68389,2.68389,0,0,1,1.00724.36725,2.29467,2.29467,0,0,1,.694.67879,2.68393,2.68393,0,0,1,.34476,2.11707,2.32843,2.32843,0,0,1-.632.98277l.00619.02918a2.18341,2.18341,0,0,1,.76172.13678,2.03208,2.03208,0,0,1,.64191.39041,2.31383,2.31383,0,0,1,.4796.59986,2.63742,2.63742,0,0,1,.28471.76514Zm6.59163-3.90489c-.10675-.223-.20046-.43951-.28319-.64468-.08468-.20475-.14728-.37966-.19189-.52846l-.01478.0017a4.13122,4.13122,0,0,1-.07829.55764c-.04286.20323-.09172.42534-.14832.66312l-.5139,2.01718,2.0888-.22446-.85843-1.842Zm2.82291,5.72615-1.182-2.30878-3.275.35226-.64336,2.50514-2.03331.21848,2.75729-10.30339,1.51916-.16337,4.94622,9.475-2.089.22469ZM148.4825,66.8a2.67561,2.67561,0,0,1-.22985,1.22653,2.735,2.735,0,0,1-.7223.95062,3.39132,3.39132,0,0,1-1.10538.62365,4.60925,4.60925,0,0,1-1.3781.25212,5.66063,5.66063,0,0,1-.97636-.04545,6.0719,6.0719,0,0,1-.84147-.18052,4.82359,4.82359,0,0,1-.71433-.26732,5.40208,5.40208,0,0,1-.5868-.32009l.72981-1.51745a4.67467,4.67467,0,0,0,1.01857.49758,3.52889,3.52889,0,0,0,.58568.14666,3.08,3.08,0,0,0,.63847.04012,2.59406,2.59406,0,0,0,.53147-.07421,1.71579,1.71579,0,0,0,.47831-.1925,1.06335,1.06335,0,0,0,.33638-.32805.824.824,0,0,0,.116-.47743.95264.95264,0,0,0-.19809-.56727,2.06561,2.06561,0,0,0-.4901-.4408,4.62985,4.62985,0,0,0-.68392-.372c-.254-.11619-.51538-.24226-.77973-.37777-.2667-.13354-.52655-.28212-.77931-.441a3.24651,3.24651,0,0,1-.68839-.57477,2.6776,2.6776,0,0,1-.47342-.73943,2.91978,2.91978,0,0,1-.02442-2.08,2.584,2.584,0,0,1,.6005-.921,3.07123,3.07123,0,0,1,1.00634-.65751,4.00714,4.00714,0,0,1,1.40149-.28062,5.07144,5.07144,0,0,1,1.40319.12519,4.5116,4.5116,0,0,1,1.054.38827l.03365,1.776a7.503,7.503,0,0,0-1.18042-.4944,3.42181,3.42181,0,0,0-1.14637-.1492,1.9073,1.9073,0,0,0-.50448.08058,1.45091,1.45091,0,0,0-.40023.18977.85786.85786,0,0,0-.25687.29242.73659.73659,0,0,0-.08468.38395.91785.91785,0,0,0,.19748.55937,2.08056,2.08056,0,0,0,.48516.4339,4.92862,4.92862,0,0,0,.677.37436c.25339.11339.51259.23946.77888.37086a8.52534,8.52534,0,0,1,.77951.44339,3.5022,3.5022,0,0,1,.68369.56685,2.7479,2.7479,0,0,1,.4959.75914A2.71093,2.71093,0,0,1,148.4825,66.8Zm7.92837,2.95284-3.135-4.38558-.05165-.002-.14578,4.2683-1.99172-.07114.33812-9.90079,1.99148.07139-.13982,4.10023.0369.00127,3.31942-3.9568,2.324.083L154.9736,64.5605l3.87424,5.27916-2.437-.0868Zm4.44819.47487,1.01213-9.85279,5.57779.60011-.69354,1.62293-3.05292-.32821-.23607,2.29673,3.06771.32974-.17385,1.69413-3.06771-.33-.25791,2.51139,3.55927.38271-.17147,1.67158-5.56343-.59835Zm16.48448-5.45841-2.54546-.55335-1.66987,8.0386-1.978-.43009,1.66992-8.03877-2.77059-.60265.343-1.65168,7.73694,1.68277-.786,1.55517Z" fill="#fff" fill-rule="evenodd"/><path d="M145.88619,192.84612c-8.62833-7.5069-33.77916-30.33929-54.22881-58.37025,17.77684-.47826,35.98631-.72184,53.60687-.65516.16018,19.34384.38591,39.3709.62194,59.02541Z" fill="#fff" fill-rule="evenodd"/><path d="M152.626,192.9072c9.01256-7.884,33.8186-30.22865,52.81361-57.30382-15.72125-1.01257-33.563-1.5582-52.26026-1.73207-.13593,19.04863-.33618,39.4211-.55335,59.03589Z" fill="#52ac62" fill-rule="evenodd"/><path d="M262.50035,83.46806a16.1168,16.1168,0,0,0-1.58068,2.77442,23.2353,23.2353,0,0,0-1.31055,3.51173,11.90454,11.90454,0,0,0-.50876,3.06083q-.01125,1.29441.86185,1.388a3.18618,3.18618,0,0,0,1.88643-.81491c1.66475-6.24264,4.82615-11.50142,9.66794-13.15694,6.31957-2.1615,13.682,11.82,11.549,15.14047q-.64413,1.25839-1.62187,3.32544-.9773,2.06749-1.90659,4.49941-.93036,2.43215-1.69088,4.98349a30.01647,30.01647,0,0,0-1.04174,4.77277,12.89247,12.89247,0,0,0,.00665,3.83075,2.93163,2.93163,0,0,0,.84,1.70355c-9.18449-1.3646-4.08411-14.62529-4.23054-15.7408l-10.21423,15.30967-.11319-.441a.29065.29065,0,0,1-.04653.17751.1454.1454,0,0,0-.0418.10571c-2.66938-5.04869-3.34236-14.2806-1.65448-22.40472q-.69264.64383-1.3665,1.15752-3.69312,2.8161-5.94934,2.3435-2.25561-.47238-2.67409-3.8822-.41907-3.40972,1.842-9.16176a80.15635,80.15635,0,0,0-16.80436,27.89439l-.7139,2.39967-4.5738-5.554c1.12638-11.3944,4.71723-23.96242,11.84314-32.89847l5.88975,4.77729a42.56952,42.56952,0,0,0-4.16991,5.914,61.38494,61.38494,0,0,0-3.304,6.69136,37.16818,37.16818,0,0,0-2.42712,8.40368,106.38519,106.38519,0,0,1,5.6612-10.0622q2.76563-4.28,5.06026-7.223c.11555.22617,4.461-9.61994,12.83662-2.825ZM252.40473,135.9123c-72.63795-13.80033-212.65841-4.25521-240.46682-2.12695l-.00493.00065.00408-.00129.00278-.00109.00344-.00088.00279-.00106c49.92151-16.23945,124.64373-18.46184,178.33807-15.34007,2.7275-5.01075,4.34316-7.33645,5.67538-10.479-4.412,3.24456-9.79723,6.06168-15.28136,3.94071C149.11963,94.03174,223.89762,22.33308,215.176,75.16919l-5.53105.27679c.37687-3.50766,2.51587-10.21592.96925-13.36234-16.98273,3.63521-31.857,23.196-27.21388,41.84352,2.49913,9.412,10.33488,1.77964,15.00966-1.645,2.13194-5.39642,3.24313-9.21732,5.43335-14.60556,1.32128.60068,3.31082.99821,7.47064,2.32161-6.66454,14.09727-13.43031,25.05585-21.00323,28.44453,20.723.88691,39.73713,2.00519,55.26563,2.5043,2.33494,4.84392,4.61092,9.84544,6.82837,14.9653Zm43.01533-15.604a10.36813,10.36813,0,0,0-3.63263.6526c1.52324,2.28734,1.51636,6.38692-.0611,9.48593.57777.35693,1.18494.6991,1.80966,1.01963,1.95031-4.476,4.82488-8.90493,6.67571-9.98847a10.351,10.351,0,0,0-4.79164-1.16969Zm-4.22071.89269a10.5134,10.5134,0,0,0-4.52921,3.8659c.33744,1.52112,1.8193,3.1359,3.83931,4.57427,1.27542-2.74636,1.6624-6.08809.6899-8.44017Zm-5.16445,4.67266c-2.893-.16764-19.23663-1.19736-20.53391-1.27775l2.32421,6.27415c.24911.67272.4931,1.31721.73663,1.94728,1.04668.13766,13.345,1.30672,16.65025,1.63752a6.89913,6.89913,0,0,0,4.56674-3.46411c-2.16215-1.64373-3.631-3.53638-3.74392-5.11709Zm-.3338,8.6629a10.51136,10.51136,0,0,0,5.87728,5.90517c-.44334-1.70378.199-4.53073,1.349-7.49832A20.8315,20.8315,0,0,1,290.8992,131.78a6.58775,6.58775,0,0,1-5.1981,2.75662Zm6.32174,6.07069a10.4026,10.4026,0,0,0,6.75587.01265,6.05885,6.05885,0,0,1-2.318-6.30095,19.3382,19.3382,0,0,1-2.23721-.78016,27.19293,27.19293,0,0,0-2.20069,7.06846Zm4.92412-7.66384c1.5494-3.29412,5.52761-5.664,8.6871-4.33007a10.47906,10.47906,0,0,0-4.729-6.74c-1.44885,1.17292-4.04123,5.73966-6.05414,10.2258.69075.31129,1.394.5945,2.09609.84426Zm1.844,7.6724a10.49707,10.49707,0,0,0,6.67744-7.0674,10.39885,10.39885,0,0,1-7.72944,1.07646,5.75227,5.75227,0,0,0,1.052,5.99094Zm6.67806-7.06954a10.40238,10.40238,0,0,0,.16937-4.91317c-2.98624-.38827-5.93564,1.88919-7.377,4.738,2.90541.85864,5.63761,1.06445,7.20759.17514ZM171.41907,89.12088q-.64413,1.2584-1.62186,3.32542-.97665,2.0675-1.90657,4.49941-.92973,2.43217-1.69069,4.98352a29.94563,29.94563,0,0,0-1.04152,4.77276,12.886,12.886,0,0,0,.00623,3.83076,2.93333,2.93333,0,0,0,.84062,1.70355c-9.18516-1.36463-4.08479-14.6253-4.231-15.74081l-10.214,15.30988-.11363-.44124a.291.291,0,0,1-.0465.17754.14719.14719,0,0,0-.04183.10569c-5.01587-9.48552-2.98453-33.73544,8.51173-37.667,6.31959-2.16148,13.682,11.82,11.549,15.14048ZM164.26076,79.605c-5.69654-.15179-9.65486,19.51664-10.83978,23.94014,8.16765-13.29972,14.103-23.99051,10.83978-23.94014Zm111.64632,6.25058c-5.69636-.15158-9.6551,19.51683-10.8396,23.94033,8.16722-13.29972,14.10286-23.99054,10.8396-23.94033Zm-58.32262,28.59561c-13.4196-.49265-5.482-37.31232,12.04833-38.1197,7.64367-.35547,1.86946,40.80643-12.04833,38.1197Zm8.98191-31.38183c-6.19851-.364-14.17212,25.3131-6.88452,27.90742,6.55238,2.33171,8.22895-27.82876,6.88452-27.90742Zm11.558,33.74529c22.28888-37.94246,22.594,49.24275,46.485,26.23861-27.58032,39.23973-28.92752-48.48144-46.485-26.23861Zm30.46832,37.37471c-10.89619.28646-20.19022-3.32239-26.021-15.3392,2.97188.44355,7.96354,1.1446,11.33546,1.639,3.97612,8.99668,9.10625,13.51624,14.44843,13.68928.07889.00425.15736.00854.23713.0109ZM148.75391,81.92382c-.59861,4.31118-9.35539,26.01329-3.84984,29.93235-13.06965,0-6.35281-19.692-3.76168-28.67046a114.22042,114.22042,0,0,0-15.64665,29.42277c-7.8495-10.119-.14728-29.489,4.863-39.01377l6.20213,4.39887c-4.53694,7.36519-9.0488,16.84231-9.02094,24.73513.06474-13.193,24.20194-42.32247,21.214-20.80489Zm86.30662-13.32613-3.63759,6.7291a4.69974,4.69974,0,0,0-3.7409-.54008l2.92023-8.74777,4.45826,2.55875Zm-127.48079,43.969c-13.42258.38912-7.81111-36.87586,9.63257-38.83321,7.60595-.85652,4.42545,40.59977-9.63257,38.83321Zm6.99514-31.908c-6.20875.04418-12.55494,26.1919-5.11965,28.3026,6.68534,1.89646,6.46645-28.312,5.11965-28.3026Zm-22.7803,7.32422c-.26906.29309-1.02136.28815-1.93808.50469-4.48463,1.05823-10.82095,2.46144-14.06038,6.1659-.81855,3.67142-1.55842,9.55432,1.19823,12.61989a4.41414,4.41414,0,0,0,2.04377,1.40615,2.87162,2.87162,0,0,0,1.90314-.14449,5.44828,5.44828,0,0,0,1.7263-1.22589,12.4125,12.4125,0,0,0,1.51551-1.91084,29.91841,29.91841,0,0,0,3.03062-6.41824c-1.45914,4.48058-4.54958,13.15609-10.25495,13.3051-14.87914.38889-8.65859-36.876,10.67795-38.83323,4.60511-.468,5.60781,12.95113,4.15789,14.531Zm-7.541-.03621c4.84866-16.36511-6.1871-2.17115-8.03471,5.04782A36.417,36.417,0,0,1,79.35521,90.687a41.917,41.917,0,0,1,4.89839-2.74035ZM73.88267,66.20039c-.84126,1.80753-1.64223,3.749-2.39775,5.789l-4.96314-2.30451c.7881-2.08792,1.62938-4.07768,2.53131-5.93047l4.82958,2.446ZM69.66024,78.69506c-3.5936,12.47647-5.57972,26.68159-5.09692,36.2363l-6.82812-3.16675c1.22975-9.30862,3.35242-23.24487,6.98335-35.57235l4.94169,2.5028Zm36.96738-16.507c-6.57321,14.11677-10.68179,36.4228-10.00966,49.72083l-6.82836-3.16678c1.71363-12.9721,5.15974-34.9296,12.008-49.00007l4.83,2.446ZM40.537,120.30832l-28.61193,12.828c17.91769-19.76768,46.60148-63.51774,47.14-74.53377q-2.95987,1.58672-7.15357,3.42575Q47.718,63.86716,42.96111,65.4897,38.20355,67.112,33.27,68.30207c-.31987.07718-.638.15286-.95512.22444l-1.40832-2.04227c.29372-.07633.58743-.15584.88329-.23755q12.19261-3.31683,29.03728-12.40336l7.33,3.60543c-8.07867,17.91018-21.074,49.375-27.62018,62.85956ZM11.93427,133.78554h-.00021l-.00108.00046.00129-.00046Zm.00621-.00192-.00621.00192.00621-.00192Z" fill="#fff" fill-rule="evenodd"/><path d="M252.40386,135.9123c-72.6407-13.80012-212.66676-4.25457-240.46895-2.12676,28.54526-6.2381,141.31476-16.72462,237.0344-5.60115q1.74043,3.81268,3.43455,7.72791ZM11.93427,133.78554l-.00129.00046.01309-.00432-.0118.00386Z" fill="#e2e2e2" fill-rule="evenodd"/><polygon points="171.74 4.69 172.965 7.548 176.068 7.875 173.782 9.916 174.435 12.937 171.74 11.304 169.046 12.937 169.781 9.916 167.413 7.875 170.516 7.548 171.74 4.69 171.74 4.69" fill="#fff" fill-rule="evenodd"/><polygon points="125.046 4.69 126.271 7.548 129.373 7.875 127.087 9.916 127.741 12.937 125.046 11.304 122.352 12.937 123.087 9.916 120.719 7.875 123.821 7.548 125.046 4.69 125.046 4.69" fill="#fff" fill-rule="evenodd"/><polygon points="149.355 3.072 150.58 5.93 153.683 6.257 151.397 8.298 152.05 11.319 149.355 9.686 146.661 11.319 147.396 8.298 145.028 6.257 148.131 5.93 149.355 3.072 149.355 3.072" fill="#fff" fill-rule="evenodd"/></svg>