<?xml version="1.0" encoding="UTF-8" standalone="no"?>
<svg xmlns:rdf="http://www.w3.org/1999/02/22-rdf-syntax-ns#" xmlns="http://www.w3.org/2000/svg" height="250.43095" width="253.44581" version="1.1" xmlns:cc="http://creativecommons.org/ns#" xmlns:dc="http://purl.org/dc/elements/1.1/" viewBox="0 0 253.44581 250.43095"><defs><clipPath id="clip-path" transform="translate(-15.759 -15.5668)"><path d="M120.761,41.066a102.45128,102.45128,0,0,0-78.69009,81.48976v37.108a102.42712,102.42712,0,0,0,81.43657,82.05046H161.769a102.41736,102.41736,0,0,0,81.43609-82.05238V122.55813A102.44,102.44,0,0,0,164.51451,41.066Z" fill="none"/></clipPath><clipPath id="clip-path-2" transform="translate(-15.759 -15.5668)"><rect width="285.276" height="285.276" fill="none"/></clipPath></defs><title>KK Olimpija logo</title><g clip-path="url(#clip-path)"><path d="M42.69483,141.7241a99.99032,99.99032,0,1,1,99.99055,99.99008A99.98937,99.98937,0,0,1,42.69483,141.7241" transform="translate(-15.759 -15.5668)" fill="#fff"/><path d="M237.69936,108.615a99.227,99.227,0,0,1,2.91661,55.10415c-13.34233,22.00159-41.503,33.82715-67.37347,38.09711-46.02364,7.59632-90.78065-11.468-103.28769-41.91277l-1.71613-4.94616c-9.32013-32.75271,17.15511-70.91836,50.239-88.10845,23.6075-12.265,49.71469-19.44249,76.44487-11.15655a99.79132,99.79132,0,0,1,40.84983,47.79919s1.74537,4.59679,1.927,5.12347" transform="translate(-15.759 -15.5668)" fill="#fff"/><path d="M143.79028,203.15312q-1.97828-.14664-3.93451-.35511c-.65367-1.08546-1.26757-2.19345-1.81916-3.32923-1.15927-2.60128-1.04472-5.31566-1.47988-8.05256,1.4655-.022,4.56949,6.83579,7.23356,11.7369m-27.02684-5.19872q-1.83738-.593-3.63019-1.24169a33.48762,33.48762,0,0,1-2.145-5.30846c-1.25943-4.94185-1.04856-11.68945,1.99649-16.0131,5.74648-3.04265-.85159,13.49617,1.94521,19.34856.56453,1.061,1.17268,2.14409,1.83354,3.2147m120.93592-89.33912a99.22666,99.22666,0,0,1,2.91661,55.10414c-8.66836,14.29264-23.58881,24.29137-40.073,30.71309-3.265-4.56278-8.77093-8.22413-14.40287-7.153-3.761.86071-6.24872,2.17-7.789,5.89026-.16677.49745-.94073-.05942-1.18514-.24488-5.47285-5.25959-9.51853-9.23818-17.40814-10.75687,2.02763-2.17476,6.208-1.2436,8.72778-.63163a18.347,18.347,0,0,1,8.69808,5.27635c.72078.91725,1.62364.54872,2.11439-.32779,2.26821-4.26374,5.9583-8.17764,10.50575-9.99441,4.25176-1.48514,8.34249-1.08594,12.68194-.29089a1.21248,1.21248,0,0,0,.923-1.1861c-.24153-5.33291,2.37843-12.17971,6.82859-15.323a22.70832,22.70832,0,0,1,14.32092-3.86981c.5444-.14808.35031-.8214.17971-1.18226-3.184-6.39442-3.91773-14.11725-.554-20.56725,3.10687-5.12877,7.44489-7.84409,13.50144-7.71614,1.00351.02109.37715-.2492.12124-.88084-1.97492-4.87523-3.3508-9.97236-1.38786-15.0944a23.6554,23.6554,0,0,1,.87317-2.86582ZM111.90067,101.6712c-.59425.57939-1.77508,1.92028-3.43323,3.31725a11.14353,11.14353,0,0,1-3.6,2.378c-.3139.16437-.88227-.00145-.85688-.35656a29.78188,29.78188,0,0,1,.61821-3.46006.8829.8829,0,0,1,1.17987-.7797c1.81533-.09729,4.143-1.74537,6.03834-2.17716.59329-.13563.47012.67332.05367,1.07827m31.71613-3.90192c-4.65048,3.15191-8.803,7.45064-14.74841,7.92124-1.14441.03067-6.13418.16437-5.60559-1.43387.01246-.276.39537-.40352.61485-.46677,2.91326-.58753,5.40575-1.04761,7.97445-2.70432.704-.4845.81325-1.09408-.13275-1.2091a29.09392,29.09392,0,0,1-5.32044-.66471c-1.176-.35654-5.06022-1.87619-2.06406-2.35734q9.64768-.20632,19.29537-.29377c1.12284.01677.62108.80319-.01341,1.20863m-50.204,89.13352c-10.85271-7.19473-19.10656-16.408-23.458-26.99951l-1.71613-4.94569c-9.32013-32.75271,17.15511-70.91835,50.239-88.10845,23.6075-12.26549,49.7142-19.44249,76.44439-11.15655a100.05851,100.05851,0,0,1,31.03418,29.44025,143.108,143.108,0,0,0-25.36772,3.89282c-13.81534,3.71741-28.01213,9.61677-38.89743,19.09456-.60864.023-.116,1.48418.00287,1.85366,4.82062,12.35463,5.48291,24.40639-.3043,36.59472A66.781,66.781,0,0,1,139.68516,170.468c-.2425-.02876-.28994-.9532-.32541-1.19521-.2075-1.69792.11789-3.40591.08051-5.1048a1.52708,1.52708,0,0,1,.751-1.65671c9.289-6.44185,16.54121-13.89152,20.41965-24.69632,3.07715-10.11037,1.46117-19.281-1.74058-29.08083-.40207-.55926.38243-1.23593.78212-1.54312,1.92843-1.44633,3.77011-3.01821,5.62476-4.55511-.30767.0992-.62253-.29186-.7893-.49984-.74952-.94169-1.8-1.72381-2.1949-2.90224a4.8035,4.8035,0,0,1-.47492-2.42588c.19889-.59376.06805-1.04856-.62491-1.05958a10.54026,10.54026,0,0,1-4.04521-.75671,3.88148,3.88148,0,0,1-2.169-3.44712c-.00671-.54777-.46006-.727-.92875-.59424-1.90879.62251-4.19952,1.46214-6.1965.77587a8.38383,8.38383,0,0,1-3.36516-2.79392c-.0048-.57029-.67955-.53242-1.07158-.43084-2.51309.74234-5.38369,1.26662-7.33274-.92587-1.66725-2.21022-1.98738-5.81023.17923-7.83547.17733-.32781.61678-1.34569-.12028-1.14058Q120.29755,88.64181,104.866,99.30427l-1.60687-.11023a.86657.86657,0,0,0-.8631.19505,2.94223,2.94223,0,0,0-.404.7869q-.72749,2.91061-1.431,5.82651a2.46611,2.46611,0,0,1-.46341,1.18562,12.32721,12.32721,0,0,1-1.03323.75671q-6.83122,4.81915-13.57284,9.76053l-2.21167.21326c-.17971-.09249-.39058.11166-.50271.231a1.42151,1.42151,0,0,0-.26837.947q-.951,6.76868-1.75256,13.55751a3.03931,3.03931,0,0,0-.04361,1.38689.3919.3919,0,0,0,.64314.0599l5.11006-3.58705a4.9885,4.9885,0,0,1,.50655-5.07221,4.55026,4.55026,0,0,1,4.2508-1.27331.539.539,0,0,0,.5214-.20272c.93594-1.38451,1.29394-2.71055,3.02109-3.39058a3.99719,3.99719,0,0,1,4.25031,1.30735.71284.71284,0,0,0,.69489.07811c2.63913-1.79616,5.54233-2.9492,7.81917.01008,1.75591,2.72636,1.72476,6.20749-1.16885,8.21453a3.61992,3.61992,0,0,0-1.15016.74712,1.284,1.284,0,0,0-.10878.8885,4.79669,4.79669,0,0,1-.36805,4.27,2.82931,2.82931,0,0,1-2.21885,1.3591.85609.85609,0,0,0-.485.33834.95211.95211,0,0,0-.10112.79936,5.1862,5.1862,0,0,1-.9206,4.20383c-.87749.91534-2.40816.9-3.56933.68435l-4.42333,4.811a.44839.44839,0,0,0-.03881.55735.67437.67437,0,0,0,.62874.127l9.45911.15049a.95307.95307,0,0,0,1.0687-.65943,43.51315,43.51315,0,0,1,10.66581-16.257c3.47108-3.12173,7.24265-6.38,11.562-8.27252.51325-.12317,1.51533-.20368,1.846-.64793a4.62284,4.62284,0,0,0,.1802-1.22539c.7107-4.0639,3.70495-7.51342,7.93753-7.84744,5.561.05942,9.28611,5.59313,8.26917,10.84265A19.23258,19.23258,0,0,1,139.539,134.041a15.981,15.981,0,0,1-10.23595,4.42476c-1.75448.01054-5.58355.35463-6.55782-1.42381-.10352-.289-.51087-.23577-.74186-.1778a1.51923,1.51923,0,0,0-1.07827,1.04138c-2.11773,4.66966-6.05463,8.31327-10.09025,11.3564-5.39137,3.93977-11.75847,7.3198-15.51805,13.00446-2.0468,3.31964-4.38067,7.69887-4.16885,11.71772.05464,1.0385.22284,1.27189,1.165.80655.83626-.37284,1.661-.05942,1.58483.93643a33.042,33.042,0,0,0-.485,11.17571M227.94074,88.17886l.97284,1.58819a91.01907,91.01907,0,0,0-14.12923,2.296,87.59873,87.59873,0,0,0-18.42172,6.73084c-2.88068,1.50958-5.70575,3.09824-8.43547,4.86756-1.23881.82237.33787,1.26853,1.166,1.38594,12.81134,1.8762,25.48275,6.276,36.14089,13.707.2377.1682.5492.32251.6532.6115.11933.3853-.70639-.14281-.87844-.23915-11.98035-6.39775-26.09425-11.34919-39.83051-11.4623-.8492-.00623-.64025.62588-.13945,1.073,8.40574,6.26358,16.269,12.82044,23.19488,20.71917a51.15955,51.15955,0,0,1,9.11166,14.42107,5.55113,5.55113,0,0,1,.22667.9556c-.28849.01821-.45863-.45384-.56932-.65943a58.19255,58.19255,0,0,0-4.99936-7.53929c-1.46885-1.82828-2.87348-3.71311-4.5187-5.38851-5.13018-5.07748-17.92427-19.997-25.72955-18.61628-.29472.28321.22.9254.39825,1.16262,9.462,13.14968,12.3757,30.83721,16.3591,46.21388.05176.207.22476,1.188-.07.87939a5.79879,5.79879,0,0,1-.39346-.90334q-2.44264-7.25536-5.19775-14.40192c-3.68244-9.34073-7.14777-20.91183-14.08275-28.39936-.46389-.44617-.9575-.52523-.77492.30623,3.94121,6.97092,3.16677,17.28594,3.58132,25.12044.4797,11.53561.29616,23.44408-2.157,34.77459a7.86666,7.86666,0,0,1-.33882,1.15016c-.31869-.00958-.23244-1.015-.21613-1.23786a199.76577,199.76577,0,0,0-2.07988-42.47251c-1.10943-7.05383-2.29168-14.32284-6.14041-20.47716-.42891-.71405-.992-1.98115-.16917-2.63913,10.62507-8.99042,22.27476-16.11949,35.71245-20.07555a103.76635,103.76635,0,0,1,21.7548-3.45145" transform="translate(-15.759 -15.5668)" fill="#231f20" fill-rule="evenodd"/><path d="M80.84189,141.11806c-.71933.51135-.00575.91534.54536,1.04234a11.5184,11.5184,0,0,0,9.67764-2.98131c3.87076-3.49025,7.66916-7.08833,11.26724-10.858a13.55481,13.55481,0,0,1,4.22636-2.61471c.635-.35894.22381-.84775-.2861-1.06916-3.07045-1.00111-7.45591-.11406-10.21054,1.43387-3.13178,1.94185-5.09185,5.0032-7.51486,7.69025a80.21512,80.21512,0,0,1-7.7051,7.3567" transform="translate(-15.759 -15.5668)" fill="#fff"/><path d="M236.7,176.57121c-15.84919,16.98786-40.5273,26.19824-62.6904,29.85671-46.97346,7.75351-94.60924-11.3794-108.33208-44.57683-3.23531,1.49521-6.07668,2.8639-8.49633,4.08163l.43083,1.27045c16.89393,48.85686,62.68083,80.781,109.8642,70.82778a54.52851,54.52851,0,0,0,7.89345-2.15895A100.1407,100.1407,0,0,0,236.7,176.57121m-172.58527-19.026-.393-1.31359c-10.20191-35.8567,18.59665-75.86452,52.58434-93.52523,19.119-9.934,40.33752-16.86325,62.46228-14.92714a100.52827,100.52827,0,0,0-68.86244-1.23212C105.81133,47.95173,98.26245,51.776,98.26245,51.776,59.1,73.25957,42.58513,116.56882,55.88338,161.79693c2.4532-1.35862,5.21022-2.78051,8.23131-4.25175m-18.242,10.84839a44.84961,44.84961,0,0,1,5.83994-4.1655c-7.46837-24.55447-6.50463-48.762,1.91645-69.57458a99.45485,99.45485,0,0,0-7.75639,73.74008m7.09792-.26166c-3.8032,2.07508-5.74553,3.45576-5.5754,3.946l-.35895.12316.5401,1.60255a100.257,100.257,0,0,0,68.28642,63.91628C87.53912,226.15363,64.258,200.77824,53.17331,168.72424Z" transform="translate(-15.759 -15.5668)" fill="#ed1c24" fill-rule="evenodd"/></g><g clip-path="url(#clip-path-2)"><path d="M256.39156,147.24569l12.53866.73467.2746-4.68835-12.43131-.72843a2.32666,2.32666,0,0,1-2.47956-2.64536,2.62163,2.62163,0,0,1,1.0888-2.06023l-2.874-3.25974a6.51253,6.51253,0,0,0-2.39424,5.07508c-.2104,3.58993,1.74921,7.30687,6.277,7.57236M253.00817,168.168l.83-3.22236,4.50957,2.93483Zm-8.3032,5.122,20.238-1.96485.90336-3.50847-16.77029-11.49729-1.22493,4.75592,2.52077,1.61933-1.466,5.69137-2.97558.14809Zm.80463,24.60719a3.9369,3.9369,0,1,0-3.93688-3.9369,3.93753,3.93753,0,0,0,3.93688,3.9369m-14.32905,14.64536,4.94281,2.0401-2.13739,2.551Zm-6.79505-3.17252,10.18322,17.59936,3.15384-3.76486-1.57716-2.54664,3.774-4.50527,2.74936,1.14777,3.1543-3.76438L226.71217,206.593ZM66.66315,235.03306l-4.26469.8353a6.51107,6.51107,0,0,0,3.173,4.62844c2.99328,1.9936,7.19136,2.17763,9.70542-1.59729L82.23871,228.446l-3.90911-2.60367L71.42721,236.2067a2.32672,2.32672,0,0,1-3.53531.80559,2.62069,2.62069,0,0,1-1.22875-1.97923m-8.90271-28.13818-13.569,13.45351,8.95639,9.03355,2.97268-2.94776-5.64968-5.69856,10.59632-10.50576Zm-21.93115-12.9345a3.9369,3.9369,0,1,0,3.9369-3.93691,3.93752,3.93752,0,0,0-3.9369,3.93691m-9.00335-28.40415-8.93626-4.73385,1.21772,5.61229,7.78131,3.96853-6.6091,1.43435.98482,4.53737,18.67332-4.05239-.98434-4.5369-5.84857,1.269-2.15128-1.18083,6.72509-5.96309-1.16118-5.35016Zm-3.03644-28.67874-7.51292-6.76917-.18691,5.73977,6.57939,5.74552-6.75911-.22-.151,4.64041,19.09793.62158.151-4.64042-5.9818-.19457L27.228,140.131l7.9754-4.14392.1778-5.47188ZM32.802,95.57285l-1.10463,2.4163-3.51469-1.6064L29.28728,93.966A1.93511,1.93511,0,1,1,32.802,95.57285m1.04282-6.93019a6.10668,6.10668,0,0,0-8.30032,3.37669L22.3983,98.90256l17.37892,7.9433,1.9524-4.27189-6.19985-2.83322,1.19377-2.61183a6.10691,6.10691,0,0,0-2.87875-8.48626M47.45932,76.00194l4.35048-5.59169L48.506,67.83915l-4.351,5.59169-2.52076-1.9615,5.0928-6.54441-3.30382-2.57108L35.44638,72.60513l15.08,11.7345,7.97683-10.25127-3.30382-2.57108L50.1066,78.06168ZM72.29366,60.12972,62.881,48.55146l3.64457-2.96262-2.64106-3.24825L52.95181,51.228l2.641,3.24872L59.237,51.51407,68.6491,63.09234ZM86.305,37.42895l-2.38466,1.17123L82.21714,35.131l2.38467-1.17076A1.935,1.935,0,1,1,86.305,37.42895M98.12817,43.912l-7.22253-5.33338a5.49623,5.49623,0,0,0,.59424-5.85288,6.10669,6.10669,0,0,0-8.56245-2.64248L76.1443,33.4187l8.42156,17.15224,4.21581-2.06981L85.647,42.11726l1.42141-.69776L93.23807,46.313Zm1.26757,207.16626,4.512-11.549-4.37492-1.70894-4.4722,11.44889a2.48747,2.48747,0,0,1-3.4155,1.66246c-1.44968-.56646-1.97875-1.86806-1.33418-3.51805l4.47269-11.4484-4.37445-1.70894-4.512,11.54856c-1.523,3.89952.52476,7.581,4.22444,9.02636s7.75111.14665,9.27412-3.75287M114.9919,33.08516a2.48377,2.48377,0,0,1-3.66087.84585c-.54488-.45241-.94552-.99345-1.731-4.39266s-.669-4.08738-.37715-4.7329a2.53645,2.53645,0,0,1,3.66038-.84585c.54537.45241.95175,1.0198,1.73722,4.419s.66278,4.061.3714,4.70654m4.02556,2.0449c1.50815-2.41439.82571-5.01086.17923-7.80913-.64649-2.79774-1.1722-5.43066-3.58659-6.93879a7.71582,7.71582,0,0,0-10.407,2.40477c-1.50815,2.41439-.82525,5.01089-.17876,7.80863s1.17221,5.43115,3.5861,6.93882a7.71511,7.71511,0,0,0,10.407-2.4043m2.68849,215.29212a1.48624,1.48624,0,0,1-1.90925,1.27908l-2.89074-.4476.47683-3.07668,2.89074.44808a1.48613,1.48613,0,0,1,1.43242,1.79712m-5.445,4.995,3.12939.485a1.55839,1.55839,0,0,1,1.4425,1.90735,1.57709,1.57709,0,0,1-1.95623,1.40751l-3.12939-.485Zm10.12285-4.51485c.50559-3.26166-1.24841-5.7877-5.17333-6.39585l-7.82347-1.21246-2.92621,18.88275,8.22124,1.2738c3.36806.52189,6.1917-1.05,6.75048-4.6567a4.44516,4.44516,0,0,0-1.69647-4.47269,4.5992,4.5992,0,0,0,2.64776-3.41885m6.14376-216.19931,12.72029-.07813-.02587-4.18659-8.02381.04937-.092-14.92093-4.69649.02875Zm5.98372,231.29467,12.70111-.70447-.232-4.18035-8.0123.44473-.82668-14.89841-4.6893.26022Zm34.568-10.82156-3.12459-12.16486-4.54888,1.16837L168.504,256.241a2.32682,2.32682,0,0,1-1.76311,3.16822,2.6224,2.6224,0,0,1-2.29408-.40832l-2.22795,3.73083a6.512,6.512,0,0,0,5.56341.73228c3.48307-.89473,6.42557-3.89473,5.297-8.28786M181.8756,31.6513c-1.1909,3.2794-1.65384,3.76823-2.25,4.15111A2.48351,2.48351,0,0,1,176.09413,34.52c-.21135-.6762-.253-1.34808.93785-4.62748,1.1909-3.2789,1.66294-3.79312,2.25911-4.176a2.53665,2.53665,0,0,1,3.53146,1.28241c.21135.6762.24345,1.373-.947,4.6524m4.41422,1.60305c.98-2.69905,1.972-5.19394.76678-7.77318a7.71585,7.71585,0,0,0-10.03946-3.64552c-2.57924,1.20481-3.41933,3.7548-4.39937,6.45385-.98,2.69952-1.972,5.1944-.76676,7.77315a7.71539,7.71539,0,0,0,10.03944,3.646c2.57876-1.20525,3.41933-3.75527,4.39937-6.45429m6.75286,214.6859-2.98753,1.46693-.70544-5.33435Zm9.29186,2.97172-14.66069-14.08849-3.25208,1.59681,2.18244,20.21549,4.408-2.1647-.41022-2.96741,5.2754-2.59025,2.04872,2.16325ZM199.762,45.58452l8.123-12.51662-3.93978-2.55669L193.543,46.53963l10.67108,6.92493,2.27876-3.51182ZM209.444,223.60526l6.06038,7.455L204.69571,227.465l-3.18593,2.59025,12.05318,14.827,3.64409-2.96262-6.06038-7.45543,10.80815,3.59569,3.18642-2.59025-12.05319-14.827Zm6.88849-160.51818L229.41169,49.1572,225.988,45.94252,212.90833,59.87238Zm18.90431,22.83881L251.12909,75.3171,248.56614,71.478l-9.39248,1.10751,4.62411-8.25-2.56245-3.83914L225.343,71.10512l2.6075,3.90623,7.61119-5.08083L233.1382,74.8072l1.66917,2.50016,5.43307-.36854-7.61119,5.08131Zm21.33641,15.07525a1.93379,1.93379,0,0,1-2.48672-1.30783l-.85641-2.515,3.658-1.246.85688,2.515a1.93406,1.93406,0,0,1-1.17173,2.55384m5.22892-3.70927-2.44025-7.16406-18.08722,6.162,1.51438,4.44537,6.45238-2.19825.92638,2.71822a6.15627,6.15627,0,1,0,11.63433-3.96327M249.1168,124.74809l18.96276-2.35207-.57842-4.661-18.96232,2.35255Z" transform="translate(-15.759 -15.5668)" fill="#231f20"/></g></svg>