<?xml version="1.0" encoding="UTF-8" standalone="no"?>
<!-- Created with Inkscape (http://www.inkscape.org/) -->

<svg
   xmlns:dc="http://purl.org/dc/elements/1.1/"
   xmlns:cc="http://creativecommons.org/ns#"
   xmlns:rdf="http://www.w3.org/1999/02/22-rdf-syntax-ns#"
   xmlns:svg="http://www.w3.org/2000/svg"
   xmlns="http://www.w3.org/2000/svg"
   xmlns:xlink="http://www.w3.org/1999/xlink"
   xmlns:sodipodi="http://sodipodi.sourceforge.net/DTD/sodipodi-0.dtd"
   xmlns:inkscape="http://www.inkscape.org/namespaces/inkscape"
   id="svg2"
   version="1.1"
   inkscape:version="0.48.2 r9819"
   width="604"
   height="604"
   sodipodi:docname="Logo-CSP-1929-vect-filet-blanc2.svg">
  <metadata
     id="metadata8">
    <rdf:RDF>
      <cc:Work
         rdf:about="">
        <dc:format>image/svg+xml</dc:format>
        <dc:type
           rdf:resource="http://purl.org/dc/dcmitype/StillImage" />
      </cc:Work>
    </rdf:RDF>
  </metadata>
  <defs
     id="defs6">
    <radialGradient
       gradientTransform="matrix(0,2.342476,-2.291353,0,562.9128,1323.77)"
       gradientUnits="userSpaceOnUse"
       xlink:href="#linearGradient2955"
       id="radialGradient14758"
       fy="153.9283"
       fx="-483.50824"
       r="300.00003"
       cy="153.9283"
       cx="-483.50824" />
    <radialGradient
       gradientTransform="matrix(0,2.342476,-2.291353,0,562.9128,1323.77)"
       gradientUnits="userSpaceOnUse"
       xlink:href="#linearGradient2955"
       id="radialGradient13767"
       fy="153.9283"
       fx="-483.50824"
       r="300.00003"
       cy="153.9283"
       cx="-483.50824" />
    <radialGradient
       gradientTransform="matrix(0,2.342476,-2.291353,0,562.9128,1323.77)"
       gradientUnits="userSpaceOnUse"
       xlink:href="#linearGradient2955"
       id="radialGradient1357"
       fy="153.9283"
       fx="-483.50824"
       r="300.00003"
       cy="153.9283"
       cx="-483.50824" />
    <radialGradient
       gradientTransform="matrix(-4.167939e-4,2.182867,-1.884232,-3.599562e-4,1395.597,-309.1214)"
       gradientUnits="userSpaceOnUse"
       xlink:href="#linearGradient2955"
       id="radialGradient1911"
       fy="218.90099"
       fx="225.52438"
       r="300"
       cy="218.90099"
       cx="225.52438" />
    <clipPath
       id="clip">
      <path
         id="path10"
         d="m 0,-200 0,800 300,0 0,-800 -300,0 z"
         inkscape:connector-curvature="0" />
    </clipPath>
    <polygon
       id="star"
       transform="scale(53,53)"
       points="-0.58778525,0.80901699 0,-1 0,-1 0.58778525,0.80901699 -0.95105652,-0.30901699 0.95105652,-0.30901699 " />
    <radialGradient
       gradientTransform="matrix(-4.167939e-4,2.182867,-1.884232,-3.599562e-4,615.5972,-289.1214)"
       gradientUnits="userSpaceOnUse"
       xlink:href="#linearGradient2955"
       id="radialGradient2961"
       fy="218.90099"
       fx="225.52438"
       r="300"
       cy="218.90099"
       cx="225.52438" />
    <linearGradient
       id="linearGradient2955">
      <stop
         id="stop2965"
         offset="0"
         style="stop-color:#ffffff;stop-opacity:0" />
      <stop
         id="stop2959"
         offset="1"
         style="stop-color:#000000;stop-opacity:0.64583331" />
    </linearGradient>
  </defs>
  <sodipodi:namedview
     pagecolor="#ffffff"
     bordercolor="#666666"
     borderopacity="1"
     objecttolerance="10"
     gridtolerance="10"
     guidetolerance="10"
     inkscape:pageopacity="0"
     inkscape:pageshadow="2"
     inkscape:window-width="1366"
     inkscape:window-height="706"
     id="namedview4"
     showgrid="false"
     inkscape:zoom="0.25"
     inkscape:cx="1253.5349"
     inkscape:cy="697.85165"
     inkscape:window-x="-8"
     inkscape:window-y="-8"
     inkscape:window-maximized="1"
     inkscape:current-layer="svg2"
     showguides="true"
     inkscape:guide-bbox="true" />
  <g
     id="g3908"
     transform="translate(0,-1168)">
    <path
       transform="matrix(0.43292251,0,0,0.43292251,15.469402,1148.5756)"
       d="m 1354.8166,742.45251 c 0,382.71379 -310.2509,692.96469 -692.96467,692.96469 -382.71382,0 -692.964662,-310.2509 -692.964662,-692.96469 0,-382.71381 310.250842,-692.964656 692.964662,-692.964656 382.71377,0 692.96467,310.250846 692.96467,692.964656 z"
       sodipodi:ry="692.96466"
       sodipodi:rx="692.96466"
       sodipodi:cy="742.45251"
       sodipodi:cx="661.85193"
       id="path3904"
       style="color:#000000;fill:#007944;fill-opacity:1;fill-rule:nonzero;stroke:none;stroke-width:1.34345567;marker:none;visibility:visible;display:inline;overflow:visible;enable-background:accumulate"
       sodipodi:type="arc" />
    <path
       sodipodi:nodetypes="ccccccccccccccccc"
       inkscape:connector-curvature="0"
       id="path2987"
       d="m 85.320322,1383.0595 24.688158,-22.0295 69.86771,-0.2498 26.02299,22.2793 -0.37474,34.0454 -39.11544,0.01 0,-17.0441 -41.97216,0.1249 0.0392,132.9015 41.55716,-0.082 0.0795,-17.1654 39.95431,0.097 -0.41759,34.67 -25.55885,21.858 -69.91426,-0.1249 -24.937978,-22.1508 z"
       style="fill:#ffffff;stroke:none" />
    <path
       sodipodi:nodetypes="ccccccccccccccccccccccc"
       inkscape:connector-curvature="0"
       id="path2989"
       d="m 263.32981,1287.6599 67.10705,-0.032 25.47266,22.3893 -0.15335,33.9714 -39.38951,0.063 0.24591,-17.2488 -39.69893,0 -0.003,46.9336 53.7773,0.063 25.12598,22.0799 -0.0316,81.2172 -24.17139,22.1143 -68.49538,-0.061 -25.28481,-21.7386 -0.12432,-34.4687 39.66989,0.029 -0.0635,17.0003 39.23342,0.1851 -0.0263,-47.0607 -53.43884,-0.061 -25.15777,-21.892 -0.0635,-81.1247 z"
       style="fill:#ffffff;stroke:none" />
    <path
       inkscape:connector-curvature="0"
       id="path2991"
       d="m 395.57682,1360.9081 0.0118,39.1838 11.21052,-0.059 0.0823,133.3027 -11.36343,-0.059 0.0353,39.1838 61.29896,-0.024 0.0823,-39.1132 -11.32812,0 0.0235,-32.6669 53.93509,-0.153 25.04426,-22.0916 0.0706,-95.1069 -24.93837,-22.3622 -104.16477,-0.035 z m 50.38258,38.7603 39.27795,0 0,61.7813 -39.27795,0 0,-61.7813 z"
       style="fill:#ffffff;stroke:none" />
    <path
       inkscape:connector-curvature="0"
       d="m 302.61579,1533.6682 12.54626,38.2211 39.99673,-0.047 -32.47351,23.7433 12.40383,38.0247 -32.61598,-23.547 -32.33073,23.547 12.31578,-38.296 -32.38542,-23.472 40.22759,-0.1211 12.31545,-38.0535 z"
       style="fill:#ffffff;fill-opacity:1;stroke:none"
       id="path8347" />
    <path
       sodipodi:nodetypes="cccccccccccccccc"
       inkscape:connector-curvature="0"
       id="path3030"
       d="m 142.28769,1613.809 -6.60739,7.0132 2.22777,1.8975 -22.44389,23.296 -2.23205,-1.9645 -6.94039,7.3301 19.31034,18.1964 8.70276,0 27.56075,-28.8578 0.0552,-8.5806 z m 2.23205,15.8423 7.65282,6.8765 -22.38571,23.4269 -7.52493,-7.1295 z"
       style="fill:#ffffff;stroke:none" />
    <path
       sodipodi:nodetypes="ccccccccccccccccccccc"
       inkscape:connector-curvature="0"
       id="path3034"
       d="m 171.87392,1640.9004 -5.45123,8.3389 2.21724,1.6249 -17.70889,26.6942 -2.13262,-1.4014 -5.51339,7.9382 25.41706,16.6392 7.88398,-11.3956 -8.24626,-5.6442 -2.35607,3.5499 -6.93733,-4.4503 6.02108,-9.1625 11.04129,7.0986 5.71301,-8.1458 -11.30307,-7.3525 6.20619,-9.2709 7.16077,4.6196 -2.37195,3.2723 8.13124,5.4367 7.56004,-11.7579 z"
       style="fill:#ffffff;stroke:none" />
    <path
       inkscape:connector-curvature="0"
       style="fill:#ffffff;stroke:none"
       d="m 203.8489,1661.3577 -3.80238,8.7962 2.53712,1.0691 -12.92675,29.9282 -2.56026,-1.11 -3.79725,8.7984 13.84412,5.9118 3.81697,-8.7712 -2.55798,-1.0934 3.17765,-7.33 12.19391,5.1719 7.80055,-2.5411 9.25198,-21.3403 -3.45965,-7.4267 -23.51786,-10.0628 z m 7.61268,13.5634 8.86928,3.7915 -5.99971,13.8671 -8.86928,-3.7915 5.99971,-13.8671 z"
       id="path3036" />
    <path
       style="fill:#ffffff;stroke:none"
       d="m 312.34194,1684.6463 16.37182,-1.2031 6.61347,5.0088 0.56762,8.2908 -9.60891,0.717 -0.24722,-4.2127 -9.68551,0.7071 0.83517,11.4507 13.12139,-0.9424 6.52335,4.9394 1.43879,19.8154 -5.50334,5.8259 -16.71218,1.205 -6.55603,-4.8534 -0.6442,-8.4072 9.67895,-0.6994 0.28728,4.1487 9.57524,-0.6536 -0.8446,-11.4811 -13.0388,0.9367 -6.52776,-4.893 -1.46039,-19.7912 z"
       id="path3039"
       inkscape:connector-curvature="0"
       sodipodi:nodetypes="ccccccccccccccccccccccc" />
    <path
       sodipodi:nodetypes="ccccccccccccccccccccccc"
       inkscape:connector-curvature="0"
       id="path3043"
       d="m 480.01867,1253.7445 14.3616,12.9759 1.1175,9.7176 -6.60507,7.2374 -8.43828,-7.607 3.38962,-3.6423 -8.49229,-7.6803 -9.08073,10.0394 11.49175,10.4175 1.10327,9.5842 -15.71941,17.3677 -9.44911,0.054 -14.64042,-13.2646 -1.20325,-9.542 6.64185,-7.3974 8.48051,7.6809 -3.30252,3.6244 8.35694,7.6298 9.09887,-10.0722 -11.41963,-10.3516 -1.14637,-9.5503 15.68113,-17.3663 z"
       style="fill:#ffffff;stroke:none" />
    <path
       style="fill:#ffffff;stroke:none"
       d="m 416.15332,1214.5688 -5.36376,10.3832 2.78177,1.631 -17.47226,33.2694 -2.65626,-1.3804 -5.4843,9.9231 31.65103,16.3768 7.83705,-14.2413 -10.29822,-5.6002 -2.32478,4.4245 -8.62788,-4.3634 5.93021,-11.4126 13.73395,6.963 5.69234,-10.1892 -14.06972,-7.2279 6.1333,-11.5611 8.90893,4.5342 -2.37647,4.1024 10.13913,5.3717 7.41564,-14.6253 z"
       id="path3045"
       inkscape:connector-curvature="0"
       sodipodi:nodetypes="ccccccccccccccccccccc" />
    <path
       sodipodi:nodetypes="ccccccccccccccccccc"
       inkscape:connector-curvature="0"
       id="path3054"
       d="m 239.74305,1676.2561 14.924,3.0039 -2.09648,9.5509 -2.82188,-0.5214 -6.40718,31.6117 9.68609,2.2252 7.2013,-31.6761 -2.75533,-0.4526 1.63287,-9.6218 14.99493,2.9419 -1.76376,9.4776 -2.87745,-0.4526 -7.66712,35.9955 -7.33001,3.8581 -17.02268,-3.4698 -4.8189,-6.8488 7.83164,-35.747 -2.73998,-0.5169 z"
       style="fill:#ffffff;stroke:none" />
    <path
       style="fill:#ffffff;stroke:none"
       d="m 161.00688,1229.9655 15.7723,-8.9245 5.88927,10.1558 -3.14149,1.7897 18.0571,32.7469 2.86943,-1.6059 5.53285,10.1107 -15.49157,8.726 -5.88455,-10.1426 3.02312,-1.8316 -17.79545,-32.7816 -2.91992,1.6603 z"
       id="path3067"
       inkscape:connector-curvature="0"
       sodipodi:nodetypes="ccccccccccccc" />
    <path
       sodipodi:nodetypes="ccccccccccccc"
       inkscape:connector-curvature="0"
       id="path3069"
       d="m 282.1848,1684.0945 15.08465,0.7079 -0.34273,9.988 -3.00994,-0.1323 -1.76335,31.7837 2.73647,0.1416 -0.57435,9.7941 -14.79856,-0.7238 0.34025,-9.9765 2.94491,0.049 1.96338,-31.6902 -2.79616,-0.1253 z"
       style="fill:#ffffff;stroke:none" />
    <path
       sodipodi:nodetypes="ccccccccccccccc"
       inkscape:connector-curvature="0"
       id="path3071"
       d="m 109.77487,1268.1878 13.58299,-11.5477 7.40585,8.5647 -2.39558,2.0353 23.99334,28.7146 6.53744,-5.2684 -3.16988,-3.5772 8.68967,-7.3037 10.54481,12.4699 -26.12274,22.0535 -7.33596,-8.8227 2.3566,-2.0192 -24.48948,-28.8087 -2.1038,2.0339 z"
       style="fill:#ffffff;stroke:none" />
    <path
       sodipodi:nodetypes="cccccccccccccc"
       inkscape:connector-curvature="0"
       id="path3073"
       d="m 292.93325,1191.3154 -7.25097,6.2662 -0.0114,47.8615 6.9848,6.5761 20.87089,-0.2319 7.01905,-6.2225 0.16538,-47.9604 -7.11317,-6.289 z m 16.4963,11.1826 -0.0114,37.8633 -12.47727,0.1768 -0.0114,-38.0629 z"
       style="fill:#ffffff;stroke:none" />
    <path
       sodipodi:nodetypes="ccccccccccccccccccc"
       inkscape:connector-curvature="0"
       id="path3078"
       d="m 359.70554,1197.0835 19.36324,4.6616 5.12549,7.9164 -1.92589,9.3765 -10.99434,-2.6464 1.06274,-4.7719 -11.66928,-2.557 -8.95632,36.7454 11.85749,2.635 3.06654,-13.1084 -7.63879,-1.4943 2.5019,-11.0932 18.48868,4.3175 -7.01903,28.9507 -8.83466,4.5628 -19.95069,-5.27 -4.62739,-7.7168 11.32514,-46.0002 z"
       style="fill:#ffffff;stroke:none" />
    <path
       sodipodi:nodetypes="ccccccccccccccccccccccccc"
       inkscape:connector-curvature="0"
       id="path3886"
       d="m 205.83647,1207.7889 14.04072,-3.7264 14.50654,16.9687 3.59336,-22.1591 14.37345,-3.8596 2.79483,10.7801 -3.1941,0.9316 10.11465,36.1998 3.26065,-0.865 2.86138,11.2459 -16.96866,4.8577 -3.12755,-11.379 3.06101,-0.7985 -5.78931,-21.4271 -3.85953,22.2256 -14.70617,-17.1683 5.52313,21.6267 3.72645,-0.8651 2.59521,11.0463 -17.23483,4.7246 -2.86138,-11.1128 3.06101,-0.7985 -9.71538,-36.5325 -3.26065,0.7985 z"
       style="fill:#ffffff;stroke:none" />
    <path
       style="fill:#ffffff;stroke:none"
       d="m 472.25894,1676.4866 -3.02893,-3.9995 -4.92199,-6.7639 -7.87755,5.6587 2.53268,3.4102 -7.93014,5.716 -6.75771,-9.3753 10.73321,-7.7559 1.83991,-8.0284 -11.70037,-16.2191 -8.01254,-0.9373 -13.67376,9.8744 -1.9208,7.9831 4.93806,6.9032 7.92017,-5.7178 -2.46056,-3.3866 7.81051,-5.686 6.77081,9.4045 -10.66613,7.7064 -1.8733,7.9954 14.96163,20.4493 c 6.24781,-4.2113 17.2033,-12.8293 23.3168,-17.2314 z"
       id="path3888"
       inkscape:connector-curvature="0"
       sodipodi:nodetypes="cccccccccccccccccccccc" />
    <g
       transform="matrix(0.37642824,0,0,0.37642824,-32.057402,1135.7922)"
       style="fill:#ffffff"
       id="g3897">
      <path
         style="fill:#ffffff;stroke:none"
         d="m 1164.0312,1388.8438 -39.375,19.7187 -8.375,20.875 23.3126,46 21,6.125 31.375,-16.125 13.6874,27.5313 -23.375,11.75 -4.6562,-9.6876 -22.9375,11.1563 10.7813,19.2187 21.375,5.5626 38.9374,-19.625 7.2813,-20.375 L 1186,1394.6562 z m 2.8858,27.6436 13.583,26.3564 -22.4365,11.4813 -13.8009,-26.8689 z"
         id="path3890"
         inkscape:connector-curvature="0"
         sodipodi:nodetypes="ccccccccccccccccccccc" />
    </g>
    <path
       sodipodi:nodetypes="cccccccccccc"
       inkscape:connector-curvature="0"
       id="path3895"
       d="m 364.22196,1678.4333 c 1.59538,-1.3447 3.28799,-2.8462 4.91759,-4.1499 l 6.38012,-1.7839 12.73603,39.7689 2.72493,-0.8845 3.1941,9.175 -14.46756,4.9323 -3.18602,-9.3081 2.78678,-0.9074 -9.37796,-28.638 -2.73302,0.9787 z"
       style="fill:#ffffff;stroke:none" />
    <g
       style="fill:#ffffff"
       transform="matrix(0.35330615,-0.12989604,0.12989604,0.35330615,-128.38811,1273.9559)"
       id="g3900">
      <path
         sodipodi:nodetypes="ccccccccccccccccccccc"
         inkscape:connector-curvature="0"
         id="path3902"
         d="m 1164.0312,1388.8438 -39.375,19.7187 -8.375,20.875 23.3126,46 21,6.125 31.375,-16.125 13.6874,27.5313 -23.375,11.75 -4.6562,-9.6876 -22.9375,11.1563 10.7813,19.2187 21.375,5.5626 38.9374,-19.625 7.2813,-20.375 L 1186,1394.6562 z m 2.8858,27.6436 13.583,26.3564 -22.4365,11.4813 -13.8009,-26.8689 z"
         style="fill:#ffffff;stroke:none" />
    </g>
  </g>
</svg>
