<?xml version="1.0" encoding="UTF-8" standalone="no"?>
<svg
   version="1.1"
   width="143.33693"
   height="158.99602"
   viewBox="0 0 76.310789 94.485633"
   xml:space="preserve"
   id="svg23"
   sodipodi:docname="logo.svg"
   inkscape:version="1.2 (dc2aedaf03, 2022-05-15)"
   xmlns:inkscape="http://www.inkscape.org/namespaces/inkscape"
   xmlns:sodipodi="http://sodipodi.sourceforge.net/DTD/sodipodi-0.dtd"
   xmlns="http://www.w3.org/2000/svg"
   xmlns:svg="http://www.w3.org/2000/svg"><sodipodi:namedview
     id="namedview25"
     pagecolor="#ffffff"
     bordercolor="#000000"
     borderopacity="0.25"
     inkscape:showpageshadow="2"
     inkscape:pageopacity="0.0"
     inkscape:pagecheckerboard="0"
     inkscape:deskcolor="#d1d1d1"
     showgrid="false"
     inkscape:zoom="2.0990843"
     inkscape:cx="151.73283"
     inkscape:cy="73.603524"
     inkscape:window-width="1680"
     inkscape:window-height="961"
     inkscape:window-x="-9"
     inkscape:window-y="-9"
     inkscape:window-maximized="1"
     inkscape:current-layer="svg23" /><defs
     id="defs5"><clipPath
       id="clipPath20"><path
         d="M 0,283.465 H 283.465 V 0 H 0 Z"
         id="path2" /></clipPath></defs><g
     transform="matrix(1.3333,0,0,-1.3333,-151.32781,236.21543)"
     id="g21"><g
       clip-path="url(#clipPath20)"
       id="g19"><g
         transform="translate(168.67,148.18)"
         id="g9"><path
           d="m 0,0 c -4.132,5.733 -10.24,9.513 -17.198,10.642 -0.394,0.064 -0.789,0.119 -1.187,0.165 V 28.986 L -58.884,18.855 V 0.146 l 1.115,0.277 v -6.252 l -1.115,-0.279 v -18.724 l 11.819,2.956 c 0.267,-1.058 0.6,-2.099 0.994,-3.109 l 0.049,-0.13 c 3.415,-8.644 11.214,-14.937 20.354,-16.421 1.405,-0.228 2.835,-0.344 4.249,-0.344 6.201,0 12.246,2.216 17.021,6.238 4.828,4.068 8.044,9.736 9.054,15.96 C 5.786,-12.723 4.132,-5.733 0,0"
           id="path7" /></g><g
         transform="translate(145.2,137.14)"
         id="g13"><path
           d="m 0,0 -7.781,-1.977 v -2.398 l 5.441,1.38 -5.471,-6.587 c -0.419,-0.505 -0.281,-1.292 0.296,-1.691 0.498,-0.344 1.15,-0.275 1.511,0.16 l 5.521,6.649 V -9.72 l 2.484,0.63 v 7.504 C 2.001,-0.552 0.988,0.251 0,0"
           fill="#00bead"
           id="path11" /></g><g
         transform="translate(123.91,159.5)"
         id="g17"><path
           d="m 0,0 1.115,0.279 v -9.077 l -3.344,-0.837 v 9.076 l 1.114,0.284 V 3.127 L -6.688,1.732 V -1.67 l 3.344,0.832 -2.229,-1.709 v -20.405 l -1.115,-0.279 v -3.402 l 5.573,1.396 v 3.401 l -1.114,-0.279 v 9.077 l 3.344,0.837 v -9.075 L 0,-21.555 v -3.407 l 5.573,1.395 v 3.407 L 4.458,-20.444 V 1.116 L 5.573,1.395 V 4.797 L 0,3.402 Z m 13.375,6.747 5.573,1.396 V 4.741 L 17.834,4.462 v -21.561 l 1.114,0.284 v -3.406 l -5.573,-1.396 v 3.407 l 1.115,0.279 v 9.076 l -3.344,-0.837 v -9.077 l 1.115,0.279 v -3.402 l -5.573,-1.395 v 3.402 l 1.114,0.279 V 0.799 L 10.031,2.508 6.688,1.675 v 3.402 l 5.573,1.395 V 3.071 L 11.146,2.786 v -9.075 l 3.344,0.837 V 3.625 L 13.375,3.346 Z M 44.96,-25.739 c -0.941,-6.083 -3.631,-10.631 -8.062,-13.553 -0.169,-0.112 -0.342,-0.218 -0.516,-0.324 0.213,-0.297 0.973,-0.776 3.589,-1.002 2.404,2.878 4.091,6.416 4.735,10.379 0.246,1.517 0.325,3.023 0.254,4.5 m -6.799,-16.793 c -1.94,0.33 -3.065,0.92 -3.63,1.868 -0.009,0.016 -0.016,0.031 -0.024,0.047 -1.514,-0.703 -3.172,-1.239 -4.954,-1.602 -0.412,-2.259 -1.015,-4.206 -1.79,-5.742 3.925,0.825 7.519,2.726 10.398,5.429 m -10.829,-0.046 c -1.202,-0.143 -2.45,-0.215 -3.741,-0.215 -0.591,0 -1.192,0.017 -1.8,0.047 -0.077,-0.145 -0.16,-0.286 -0.253,-0.422 -1.215,-1.787 -3.578,-2.662 -7.296,-2.662 -0.395,0 -0.805,0.01 -1.231,0.03 2.082,-1.132 4.383,-1.942 6.852,-2.343 1.169,-0.19 2.333,-0.282 3.481,-0.282 0.568,0 1.13,0.027 1.689,0.071 1.002,1.273 1.78,3.27 2.299,5.776 m 19.469,11.999 c -1.892,-11.657 -12.008,-19.969 -23.456,-19.969 -1.261,0 -2.538,0.101 -3.822,0.309 -7.093,1.152 -12.943,5.351 -16.439,11.04 l 2.209,0.478 c 1.129,-1.704 2.495,-3.248 4.062,-4.578 5.057,-0.732 8.381,-0.477 9.901,0.762 -4.644,0.529 -9.485,1.86 -13.941,3.821 l 1.924,0.416 v 0.029 l 1.632,0.415 c 3.597,-1.319 7.527,-2.279 11.4,-2.643 0.133,1.367 -0.34,3.161 -1.194,5.232 l 2.059,0.523 c 0.881,-2.226 1.366,-4.217 1.238,-5.894 1.819,-0.067 3.608,0.012 5.327,0.255 0.298,2.216 0.421,4.72 0.357,7.395 l 2.112,0.536 c 0.087,-2.695 -0.01,-5.229 -0.28,-7.516 1.533,0.365 2.989,0.882 4.336,1.575 0.196,1.052 0.731,2.237 1.337,3.58 0.54,1.196 1.161,2.578 1.688,4.158 l 2.431,0.617 c -0.628,-2.199 -1.472,-4.072 -2.184,-5.649 -0.114,-0.252 -0.226,-0.501 -0.335,-0.746 3.67,3.094 5.685,7.804 6.01,14.06 0.162,3.121 -0.724,6.209 -2.613,8.698 -1.156,1.524 -2.512,2.896 -4.039,4.073 1.089,-1.943 1.919,-3.784 2.539,-5.527 -0.432,0.038 -0.871,0.005 -1.303,-0.104 h -10e-4 c -0.074,-0.019 -0.376,-0.097 -0.862,-0.222 -0.933,2.54 -2.348,5.302 -4.404,8.302 -1.767,0.825 -3.671,1.429 -5.689,1.757 -1.351,0.219 -2.692,0.301 -4.013,0.269 2.18,-3.514 3.961,-7.841 5.233,-12.624 -0.674,-0.175 -1.368,-0.355 -2.079,-0.539 -1.322,4.941 -3.195,9.388 -5.454,12.8 v 7.88 l 1.114,0.279 v 8.874 L -9.342,3.803 v -8.869 l 1.115,0.278 V -20.88 l -1.115,-0.279 v -8.874 l 8.865,2.215 v -2.189 l -10.988,-2.747 v 13.252 l 1.115,0.279 v 11.718 l -1.115,-0.277 V 5.46 l 35.19,8.803 V 1.012 L 22.633,0.739 v -3.745 c 1.483,0.043 2.991,-0.048 4.509,-0.295 12.94,-2.1 21.76,-14.337 19.659,-27.278 m -13.36,11.301 -7.833,-1.985 v -9.598 l 2.483,0.63 v 7.197 l 5.074,1.287 -3.507,-4.222 3.853,-2.665 c 0.498,-0.344 1.15,-0.275 1.511,0.16 0.419,0.504 0.281,1.291 -0.296,1.69 l -1.694,1.172 2.577,3.103 c 1.201,1.445 -0.314,3.702 -2.168,3.231 M 2.187,-27.206 v -9.598 l 2.484,0.63 v 7.197 l 5.073,1.287 -2.697,-3.248 c -0.391,-0.47 -0.336,-1.208 0.159,-1.636 0.508,-0.438 1.233,-0.393 1.622,0.075 l 3.361,4.047 c 1.2,1.445 -0.314,3.702 -2.169,3.231 z m 37.85,8.102 v -8.095 l -2.484,-0.631 v 8.899 c 0,0.535 0.347,0.985 0.858,1.115 0.803,0.204 1.626,-0.449 1.626,-1.288"
           fill="#ffffff"
           id="path15" /></g></g></g></svg>
