<?xml version="1.0" encoding="UTF-8" standalone="no"?>
<svg xmlns:rdf="http://www.w3.org/1999/02/22-rdf-syntax-ns#" xmlns="http://www.w3.org/2000/svg" height="302.60697" width="297.93694" version="1.1" xmlns:cc="http://creativecommons.org/ns#" xmlns:dc="http://purl.org/dc/elements/1.1/" viewBox="0 0 297.93694 302.60697"><defs><clipPath id="clip-path" transform="translate(0.00019 -0.00074)"><rect width="297.93694" height="302.60641" fill="none"/></clipPath></defs><g clip-path="url(#clip-path)"><path d="M148.96829,7.90841A145.70273,145.70273,0,1,1,64.73216,34.70656c4.01339.27075,8.2229.43823,12.49836.43823a120.64842,120.64842,0,0,0,22.03677-1.83356c16.62109-3.13091,24.857-14.80225,28.827-23.91723a146.92881,146.92881,0,0,1,20.874-1.48559m0-3.23853a150.84929,150.84929,0,0,0-21.33391,1.51858l-1.78759.25688-.7211,1.6557c-3.68973,8.47105-11.27483,19.168-26.458,22.02812a117.072,117.072,0,0,1-21.43715,1.77715c-3.90841,0-8.04068-.14491-12.28056-.43039l-1.15065-.07812-.94152.66819a150.23313,150.23313,0,0,0-45.6902,52.083A148.99764,148.99764,0,1,0,286.22893,211.62474,148.92543,148.92543,0,0,0,148.96829,4.66988" transform="translate(0.00019 -0.00074)" fill="#fff"/><path d="M148.96829,7.908a146.93579,146.93579,0,0,0-20.874,1.48649c-3.97,9.11408-12.20591,20.78637-28.827,23.91723-11.17415,2.10431-23.59181,2.13211-34.53513,1.39448A145.74536,145.74536,0,1,0,148.96829,7.908" transform="translate(0.00019 -0.00074)" fill="#3d444a"/><path d="M265.27635,153.6384A116.30814,116.30814,0,1,1,148.96864,37.33071,116.30753,116.30753,0,0,1,265.27635,153.6384" transform="translate(0.00019 -0.00074)" fill="#e0dfdd"/><path d="M148.88082,271.565a117.73743,117.73743,0,0,1-83.253-200.99067A117.73776,117.73776,0,1,1,232.13379,237.08111a116.96776,116.96776,0,0,1-83.253,34.48392m0-232.237a114.49883,114.49883,0,1,0,80.96381,33.53638A113.75009,113.75009,0,0,0,148.88082,39.328" transform="translate(0.00019 -0.00074)" fill="#3d444a"/><rect x="15.45065" y="104.55229" width="112.90695" height="47.49083" fill="#3d444a"/><path d="M96.03361,153.16109l.97882-1.29036c12.82117-16.90571,18.23771-33.47473,15.66482-47.91687a34.45159,34.45159,0,0,0-7.592-16.64275L103.97708,86.157l1.1359-1.12638,3.4615-3.406,1.13589,1.15239c.28463.28812,6.99329,7.21368,9.30326,19.82053a52.20444,52.20444,0,0,1-1.20183,23.03209c-2.62325,9.78487-7.88535,19.93075-15.63879,30.15469l-.97884,1.28951Z" transform="translate(0.00019 -0.00074)" fill="#36475d"/><path d="M108.557,83.91305c.26987.2742,6.64271,6.85009,8.86417,18.97618a50.59207,50.59207,0,0,1-1.17323,22.32058c-2.56856,9.5818-7.73867,19.53934-15.36542,29.59671l-2.57985-1.95681c13.10145-17.27539,18.623-34.28179,15.96853-49.17948-1.99845-11.21669-7.96257-17.42465-8.02332-17.4854l2.30912-2.27178m.03558-4.57746-2.30651,2.26924L103.977,83.87577l-2.30217,2.26569,2.244,2.29265a33.03761,33.03761,0,0,1,7.16423,15.80363c2.4922,13.9857-2.82022,30.11909-15.3611,46.65517l-1.9568,2.57982,2.58072,1.9568,2.57984,1.95681,2.58074,1.9568,1.95679-2.57982c7.881-10.39231,13.23421-20.72647,15.913-30.7144a53.79822,53.79822,0,0,0,1.22961-23.74283c-2.35769-12.868-8.99346-19.90553-9.74234-20.66572Z" transform="translate(0.00019 -0.00074)" fill="#fff"/><path d="M61.50323,175.71535l3.55-5.29073c1.67739-2.5,10.33417,1.33723,13.47459-1.73033,5.18226-5.0625,26.28187-7.815,40.44632-26.25405,7.64325-9.95065,5.92073-28.51376,3.84158-38.84532a41.309,41.309,0,0,0-4.94278-12.05755c-9.49068-.44257-20.25786-3.11089-23.79137-3.80514-17.07581-3.35389-21.92224-2.55382-26.60816-1.77975a47.55294,47.55294,0,0,1-7.11216.76189c-5.53631.13447-9.09066-1.7234-11.26874-3.68889a9.50621,9.50621,0,0,0-1.39623,2.61632,13.3129,13.3129,0,0,1-12.4272,9.121L31.6566,94.801l-1.07516-3.44932a100.19152,100.19152,0,0,1-3.957-27.259C26.68433,54.32,28.64807,46.11446,32.46187,39.706A30.36465,30.36465,0,0,1,49.627,26.09c8.01638-2.782,27.61909-3.67236,38.59973-3.95609a8.08141,8.08141,0,0,1,5.17447,1.68346A16.90491,16.90491,0,0,0,106.54,14.95748c3.12568-5.80357,8.74356-10.23347,16.24622-12.81075a40.98008,40.98008,0,0,1,10.20747-2.139l.17875-.00524L232.97273.00074l-9.659,12.40293H258.222L247.71166,25.89824a31.5134,31.5134,0,0,1-22.09755,12.10612,53.48237,53.48237,0,0,1,10.49557,31.90493v98.92562Zm13.157-96.93148c4.39087,0,10.56324.60834,20.67005,2.59375,3.957.77751,7.6901,1.38585,11.09519,1.80845l1.44482.17875,15.29948,4.49325a40.2968,40.2968,0,0,1,5.99535,14.45952c2.46447,12.24668,3.77824,32.56788-5.05556,44.06835-14.44474,18.80436-42.33284,15.89474-47.63312,21.0718q-.66514.64954-1.26259,1.23655l154.41888-6.08561V69.90929a47.108,47.108,0,0,0-13.203-32.76665l-5.26122-5.48076h11.49695a25.109,25.109,0,0,0,19.93681-9.74234l2.36725-3.03976H207.25579l6.60624-5.69166a25.63477,25.63477,0,0,0,3.49189-3.67236l2.36637-3.03891-86.44285.0026a35.62678,35.62678,0,0,0-8.38691,1.79192c-5.93548,2.03927-10.30813,5.41313-12.64847,9.75712a23.51394,23.51394,0,0,1-19.9073,12.363l-1.59755.05725-1.01615-1.23305a1.6431,1.6431,0,0,0-1.32333-.60745c-17.80472.45989-31.511,1.8084-36.66809,3.60727l-.06249.02081a24.06878,24.06878,0,0,0-13.63946,10.782c-3.21679,5.40439-4.8742,12.50876-4.92714,21.11433A93.4736,93.4736,0,0,0,36.3989,88.16441a6.88022,6.88022,0,0,0,5.15885-4.587,18.14737,18.14737,0,0,1,5.60313-7.8975l3.07187-2.67272,1.91341,3.59514c.75148,1.41361,2.80027,3.7661,8.06063,3.63767a40.92824,40.92824,0,0,0,6.20622-.67688,45.66176,45.66176,0,0,1,8.24721-.77926" transform="translate(0.00019 -0.00074)" fill="#fff"/><path d="M69.25763,193.60152l14.0074-16.129s52.73121-54.275,25.09563-91.501l-32.42388-5.3029L58.126,82.49087s-7.48791-4.04809-9.91678-5.86957-6.67915,10.119-6.67915,10.119l-6.31123,3.1656S27.5652,56.18036,35.054,44.64349c7.48876-11.536,14.36924-13.96489,25.70307-15.17887s27.59479-2.47485,27.59479-2.47485l3.22459,2.32729S106.902,27.441,113.58024,13.88052c6.67915-13.55966,36.83471-8.905,36.83471-8.905l72.61855-.118-8.86592,11.45181,34.81024,1.01182s-10.119,18.21519-32.17918,16.19154c0,0,13.76183,12.95222,14.57143,41.89377s-.20219,80.55074-.20219,80.55074Z" transform="translate(0.00019 -0.00074)" fill="#f8dc00"/><path d="M132.17974,39.38153a11.536,11.536,0,1,1-11.536-11.536,11.53609,11.53609,0,0,1,11.536,11.536" transform="translate(0.00019 -0.00074)" fill="#fff"/><path d="M91.6908,30.40319c-.23864,0-.38963-.006-.43995-.00863l.14837-3.23419A20.31235,20.31235,0,0,0,109.39138,16.493c2.73171-5.07378,7.72828-8.97611,14.44646-11.28438a38.01873,38.01873,0,0,1,9.33452-1.96719l.08851-.00259h93.08642L219.90852,11.506A28.32727,28.32727,0,0,1,197.417,22.49706H184.1264V19.25858H197.417A25.1087,25.1087,0,0,0,217.353,9.51624l2.36813-3.03891h-86.409c-.83651.05815-15.51641,1.23914-21.06921,11.55074a23.51855,23.51855,0,0,1-20.552,12.37512" transform="translate(0.00019 -0.00074)" fill="#3d444a"/><path d="M222.66538,34.90041H214.367l-.4495-.37144a54.34717,54.34717,0,0,0-18.14488-10.26991,31.35235,31.35235,0,0,0-6.28086-1.339c-.413-.01907-.83392-.04253-1.26-.07028l.07291-3.23414a14.57922,14.57922,0,0,1,1.52205.07807c14.12886.617,19.98018-3.67236,20.03918-3.71748l.433-.32711.55363-.00784h40.7431l-6.4388,8.26714a28.32544,28.32544,0,0,1-22.49149,10.992m-7.13732-3.23853h7.13732a25.109,25.109,0,0,0,19.9368-9.74234l2.36725-3.03976H211.35152c-1.21746.77751-4.69025,2.6545-10.99973,3.57951a60.16477,60.16477,0,0,1,15.17627,9.20259" transform="translate(0.00019 -0.00074)" fill="#3d444a"/><path d="M57.21883,82.06737s2.36291-10.92683,20.22836-11.22184c0,0-16.24187-3.24806-27.75879,5.75845,0,0,1.47692,4.725,7.53043,5.46339" transform="translate(0.00019 -0.00074)" fill="#3d444a"/><path d="M34.03148,91.53758l-.35839-1.14974A96.45506,96.45506,0,0,1,29.86189,64.112c.11367-18.46507,7.30654-30.55123,20.8011-34.95428,7.86191-2.743,28.94762-3.56214,37.64779-3.786a4.89376,4.89376,0,0,1,4.81693,3.48232c1.29644,4.34659,5.08075,11.88309,15.867,13.53185l-.48941,3.2003A22.02823,22.02823,0,0,1,90.02461,29.78a1.66053,1.66053,0,0,0-1.63053-1.1715c-6.66874.17181-29.024.94154-36.69586,3.6177C39.45238,36.22133,33.20537,46.95293,33.10036,64.132a94.926,94.926,0,0,0,3.30358,24.03179,6.88222,6.88222,0,0,0,5.1545-4.58615c1.15412-3.432,3.69057-6.60973,7.5391-9.44468l.04338-.03125c12.63547-8.68714,31.39645-5.62222,53.12-2.074,3.68711.60225,7.5,1.22527,11.38068,1.8067,7.743,1.16277,13.301-.00174,16.517-3.45716,4.88462-5.24825,2.94519-14.20874,2.92435-14.29814l3.16038-.70892c.09719.43473,2.3204,10.72985-3.714,17.21375-3.98821,4.28414-10.5051,5.78276-19.3684,4.45336-3.90059-.58573-7.72481-1.20964-11.42234-1.81364C80.717,71.79,62.56171,68.824,50.99619,76.7553c-3.33566,2.46271-5.41916,5.03215-6.36848,7.85412a10.075,10.075,0,0,1-9.39179,6.916Z" transform="translate(0.00019 -0.00074)" fill="#3d444a"/><path d="M117.47457,87.18093a120.57954,120.57954,0,0,1-22.76831-2.6258C77.05514,81.08753,71.9154,81.93708,66.94573,82.758a44.42761,44.42761,0,0,1-6.66092.71941C51.786,83.683,48.826,78.44607,48.45288,75.65015l3.20985-.42779-1.60449.21345,1.60188-.23c.08332.53366,1.02309,5.217,8.54745,5.03475a41.21159,41.21159,0,0,0,6.21056-.67773c5.25343-.86776,10.68734-1.765,28.912,1.81449,22.77178,4.47333,36.00685,3.18732,42.91424-4.17043,2.63451-2.80634,3.88149-7.69269,3.03282-11.88314a11.6225,11.6225,0,0,0-7.04883-8.5622l1.31207-2.96079a14.95366,14.95366,0,0,1,8.91015,10.88c1.06129,5.23781-.4842,11.162-3.845,14.7424-4.88549,5.20391-12.31,7.75773-23.131,7.75773" transform="translate(0.00019 -0.00074)" fill="#3d444a"/><path d="M120.37766,52.59862A13.37482,13.37482,0,1,1,133.75245,39.2238a13.38968,13.38968,0,0,1-13.37479,13.37482m0-23.51116A10.13677,10.13677,0,1,0,130.51482,39.2238a10.14773,10.14773,0,0,0-10.13716-10.13634" transform="translate(0.00019 -0.00074)" fill="#3d444a"/><path d="M126.56506,59.41c-8.58129,0-16.3139-5.97539-19.24259-14.869l3.07621-1.01267c2.48959,7.5625,8.98651,12.64322,16.16638,12.64322a15.54238,15.54238,0,0,0,7.82026-2.10431l1.61142,2.8081A18.995,18.995,0,0,1,126.56506,59.41" transform="translate(0.00019 -0.00074)" fill="#3d444a"/><path d="M126.56506,59.41V56.17156c6.81452,0,12.4966-4.84731,15.19969-12.966l3.07188,1.023C141.71963,53.59349,134.71854,59.41,126.56506,59.41" transform="translate(0.00019 -0.00074)" fill="#3d444a"/><path d="M136.65659,20.80433a38.97617,38.97617,0,0,1-15.6145,10.22484c-10.77845,3.91276-9.08024,14.78927-9.08024,14.78927l-7.93653-3.16125s-2.76469-13.18389,11.36939-18.7523c4.87247-1.91952,11.221-.14756,21.26188-3.10056" transform="translate(0.00019 -0.00074)" fill="#3d444a"/><path d="M88.39834,56.60009c-2.69006-2.58416-6.66875-7.60847-6.66875-14.71808,0,0,9.856,4.87252,14.94979,12.18164L93.06,56.86306a3.5699,3.5699,0,0,1-4.66161-.263" transform="translate(0.00019 -0.00074)" fill="#3d444a"/><path d="M81.13909,35.55653s14.4352,5.06515,34.516,20.421l-2.77075-7.27963-5.315-5.61094a46.78773,46.78773,0,0,1-13.28975-7.38291Z" transform="translate(0.00019 -0.00074)" fill="#3d444a"/><path d="M121.44867,40.42365l.01125-5.04863c-.13622-.01038-.2716-.02082-.41044-.02082a5.21256,5.21256,0,1,0,4.475,2.56425Z" transform="translate(0.00019 -0.00074)" fill="#3d444a"/><rect x="182.80439" y="107.89236" width="3.23848" height="88.14537" fill="#3d444a"/><path d="M232.8707,153.80714h-3.2385V69.90945a47.40528,47.40528,0,0,0-47.35109-47.352V19.31986A50.64655,50.64655,0,0,1,232.8707,69.90945Z" transform="translate(0.00019 -0.00074)" fill="#3d444a"/><path d="M105.6778,84.23216l7.23624.61528a46.4902,46.4902,0,0,0,13.64554-1.24613c8.88239-2.29175,13.98223-7.18244,15.16065-14.535.75236-5.7272-3.55348-10.13544-6.85443-11.43793l-.3124-.12325-.768-.76707.05381-.76713a2.13031,2.13031,0,0,1,1.155-1.58537,16.921,16.921,0,0,0,6.35895-8.51448c-.08157.00175-.16313.00349-.24557.00349a10.74635,10.74635,0,1,1,0-21.4927c1.39621.0321,33.56585.971,57.16546,17.00115l3.19423,2.17025-14.568,2.91307a40.19229,40.19229,0,0,1,8.71927,6.94383c5.94676,6.234,13.0355,17.67284,13.0355,36.76962,0,.059-.00175.118-.00347.177l-.00175.08157v102.3411h-3.2376V90.422l.00434-.24215c0-14.19137-4.15658-26.09008-12.02024-34.40843a33.63939,33.63939,0,0,0-12.0523-8.4138L175.63318,45.419l17.46544-3.49445c-22.49237-13.45029-51.72114-14.29814-52.02921-14.30508a7.50832,7.50832,0,1,0,2.10431,14.72068l2.65622-.75929-.63519,2.68835a20.99772,20.99772,0,0,1-6.80846,11.59157c3.596,2.402,7.40028,7.20934,6.54033,13.6533l-.00522.04084c-1.37714,8.65589-7.37162,13.859-17.5305,16.457a55.5659,55.5659,0,0,1-10.87826,1.11245s-6.64269.13538-10.83484-2.89225" transform="translate(0.00019 -0.00074)" fill="#3d444a"/><path d="M101.04761,203.93587,98.138,202.51535c.16749-.34363,16.88576-34.74078,26.55869-66.99633,4.4438-14.81787,4.141-26.96133-.89988-36.09188a27.64248,27.64248,0,0,0-15.12158-12.81685l.86515-3.12047a30.60456,30.60456,0,0,1,17.0914,14.37276c5.47732,9.9211,5.87041,22.90366,1.16629,38.5867-9.75018,32.51412-26.58125,67.14036-26.75045,67.48659" transform="translate(0.00019 -0.00074)" fill="#3d444a"/><path d="M100.88282,154.80615l-2.58073-1.95675c13.10146-17.2754,18.62388-34.2809,15.96939-49.17948-1.99844-11.2167-7.96342-17.42381-8.02329-17.4854l2.3091-2.27094c.26988.27335,6.64182,6.84924,8.86331,18.97533a50.58271,50.58271,0,0,1-1.17235,22.32143c-2.56944,9.5818-7.73869,19.53934-15.36543,29.59581" transform="translate(0.00019 -0.00074)" fill="#3d444a"/><rect x="153.54959" y="144.41463" width="17.80991" height="7.66059" fill="#3d444a"/><rect x="42.25753" y="146.847" width="18.80784" height="13.40517" fill="#3d444a"/><path d="M70.26962,175.59263a9.87078,9.87078,0,1,1-9.87078-9.87078,9.871,9.871,0,0,1,9.87078,9.87078" transform="translate(0.00019 -0.00074)" fill="#3d444a"/><path d="M110.55332,181.59545a7.87016,7.87016,0,1,1-7.86972-7.86969,7.86992,7.86992,0,0,1,7.86972,7.86969" transform="translate(0.00019 -0.00074)" fill="#3d444a"/><rect x="170.57849" y="155.5836" width="20.80891" height="37.88297" fill="#3d444a"/><polygon points="242.477 211.368 195.389 211.368 195.389 156.885 243.691 156.885 247.549 186.829 242.477 187.031 242.477 211.368" fill="#3d444a"/><path d="M41.57051,150.09093q10.65914,0,10.66043,11.34858v5.07118q0,6.87915-4.90025,8.76961,5.58666,1.97844,5.58839,9.11233v9.97231q0,11.349-10.66043,11.34855H26.52614a6.36187,6.36187,0,0,1-6.36155-6.36154V156.45248a6.36189,6.36189,0,0,1,6.36155-6.36155H41.57051m-9.37008,23.03994H38.562a1.51324,1.51324,0,0,0,1.1602-.5155,1.73074,1.73074,0,0,0,.47293-1.2044V159.97733a1.73187,1.73187,0,0,0-.47293-1.2036,1.5164,1.5164,0,0,0-1.1602-.51545H32.20043v14.87259m0,24.32936h7.04882a1.51638,1.51638,0,0,0,1.16106-.51544,1.73028,1.73028,0,0,0,.47293-1.20358V183.275a1.72977,1.72977,0,0,0-.47293-1.20276,1.51435,1.51435,0,0,0-1.16106-.51629H32.20043v15.90429m9.37008-53.0358H26.52614a12.04239,12.04239,0,0,0-12.0289,12.02805v42.89947a12.04236,12.04236,0,0,0,12.0289,12.028H42.25865c5.16317,0,9.24252-1.555,12.12435-4.6234,2.789-2.96863,4.20255-7.13734,4.20255-12.39163v-9.97231a16.0608,16.0608,0,0,0-2.64666-9.45856,16.90845,16.90845,0,0,0,1.95853-8.42338v-5.07118c0-5.25429-1.41358-9.42387-4.20169-12.39165-2.88184-3.06751-6.962-4.62343-12.12522-4.62343" transform="translate(0.00019 -0.00074)" fill="#3d444a"/><path d="M176.884,150.09093l-9.45686,25.533,11.26267,30.08956H166.39535L158.143,183.70537h-3.86936v22.00812H142.23777V150.09093h12.03584v23.29766h2.9235l8.68192-23.29766Zm8.14135-5.6665H161.94374l-1.37452,3.68713-.62826,1.6878v-5.37493H136.57129V211.38H159.941v-6.74074l1.148,3.064,1.37887,3.6767h24.39276l-2.86447-7.65363-10.5216-28.11284,8.72358-23.55449Z" transform="translate(0.00019 -0.00074)" fill="#3d444a"/><path d="M208.17567,150.09093v9.80049H194.85035v13.06763h12.46452v9.45681H194.85035v13.32535h13.32532v9.97228H182.81451V150.09093Zm5.6665-5.6665h-36.695V211.38h36.695V190.07386H200.51682v-1.99149H212.9822V167.29255H200.51682v-1.73378h13.32535V144.42443Z" transform="translate(0.00019 -0.00074)" fill="#3d444a"/><path d="M242.04654,150.09093v10.23088h-9.0273v45.39168h-12.035V159.85673H211.957v-9.7658Zm5.6665-5.6665H206.29047v21.09875h9.02645V211.38h23.36879V165.98831H247.713V144.42443Z" transform="translate(0.00019 -0.00074)" fill="#3d444a"/><path d="M83.26537,149.23122q10.65913,0,10.66043,11.34858v45.13309H81.89V187.05778H73.20628v18.65511H61.1713V149.23122H83.26537M73.20628,177.77363H81.89v-18.656a1.72661,1.72661,0,0,0-.47292-1.2027,1.51424,1.51424,0,0,0-1.16107-.51635H74.84028a1.50727,1.50727,0,0,0-1.1602.51635,1.71974,1.71974,0,0,0-.4738,1.2027v18.656m10.05909-34.20891H55.50483v67.81552H99.59228V160.5798c0-5.25519-1.41358-9.42387-4.20256-12.39165-2.88184-3.06751-6.96118-4.62343-12.12435-4.62343" transform="translate(0.00019 -0.00074)" fill="#3d444a"/><path d="M123.06825,149.23122q10.65913,0,10.65957,11.34858v4.1262H122.29418v-4.38393a1.72844,1.72844,0,0,0-.47291-1.20445,1.51513,1.51513,0,0,0-1.16108-.51544h-4.72755a1.49524,1.49524,0,0,0-1.03177.39913v12.52613a1.492,1.492,0,0,0,1.03177.40009h7.737q10.65913.1731,10.65957,11.34767v11.94993q0,11.349-10.65957,11.3477H113.52548q-10.66044,0-10.66044-11.3477v-5.76019h11.43361v6.18973a1.727,1.727,0,0,0,.47294,1.20445,1.51413,1.51413,0,0,0,1.16105.51545h5.32978a1.51626,1.51626,0,0,0,1.1602-.51545,1.73085,1.73085,0,0,0,.47294-1.20445V184.73738a1.73087,1.73087,0,0,0-.47294-1.20446,1.5133,1.5133,0,0,0-1.1602-.51544h-7.73694q-10.66044,0-10.66044-11.34858V149.23122h20.20321m0-5.6665H97.19856V171.6689c0,5.10244,1.332,9.18,3.96133,12.12959H97.19856v11.42664c0,5.25429,1.41358,9.423,4.20083,12.39075,2.88271,3.06841,6.962,4.6243,12.12609,4.6243H123.6696c5.16316,0,9.24252-1.55589,12.12522-4.6243,2.78812-2.96775,4.2017-7.13646,4.2017-12.39075V183.2752c0-5.197-1.41358-9.33621-4.2017-12.304q-.29026-.30976-.597-.59786h4.19649V160.5798c0-5.25519-1.41358-9.42387-4.20171-12.39165-2.88184-3.06751-6.96118-4.62343-12.12434-4.62343" transform="translate(0.00019 -0.00074)" fill="#3d444a"/><path d="M267.75112,150.07965q10.65912,0,10.65957,11.34773v3.27926H266.97705v-4.24856a1.72784,1.72784,0,0,0-.47292-1.2036,1.51331,1.51331,0,0,0-1.1602-.51545H260.6155a1.49657,1.49657,0,0,0-1.03176.39919v12.38985a1.49269,1.49269,0,0,0,1.03176.39919h7.737q10.65913.17311,10.66044,11.34773v11.9499q0,11.349-10.66044,11.34858H258.20834q-10.66044,0-10.66044-11.34858v-5.75932h11.43448v6.18973a1.724,1.724,0,0,0,.47207,1.20358,1.51672,1.51672,0,0,0,1.161.51545h5.32978a1.51628,1.51628,0,0,0,1.16021-.51545,1.72569,1.72569,0,0,0,.47378-1.20358V184.73716a1.72723,1.72723,0,0,0-.47378-1.2036,1.51419,1.51419,0,0,0-1.16021-.51635h-7.73694q-10.66044,0-10.66044-11.34767V150.07965h20.20322m0-5.66651h-25.8697v27.2564c0,5.10153,1.33289,9.17917,3.96133,12.12868h-3.96133v11.42667c0,5.25429,1.41358,9.42387,4.20171,12.39162,2.88182,3.06754,6.96115,4.62344,12.12521,4.62344h10.14413c5.16316,0,9.24252-1.5559,12.12521-4.62344,2.78813-2.96775,4.20171-7.13733,4.20171-12.39162V183.275c0-5.19618-1.41358-9.33542-4.20171-12.304q-.29025-.30849-.597-.59791H284.078v-8.94571c0-5.25344-1.41358-9.423-4.20256-12.3899-2.88184-3.06841-6.96117-4.62434-12.12433-4.62434" transform="translate(0.00019 -0.00074)" fill="#3d444a"/><polygon points="130.201 167.751 140.783 167.751 139.324 180.522 130.201 167.751" fill="#3d444a"/><path d="M47.33069,175.28025q5.58666,1.97851,5.58839,9.11238v9.97226q0,11.349-10.66045,11.34858h-22.094V150.09088H41.5705q10.65913,0,10.66044,11.34857v5.07119q0,6.87922-4.90025,8.76961m-8.76871-17.022H32.20042v14.87253H38.562a1.51328,1.51328,0,0,0,1.16018-.51544,1.73094,1.73094,0,0,0,.47293-1.20445V159.97728a1.72974,1.72974,0,0,0-.47293-1.20271,1.51408,1.51408,0,0,0-1.16018-.51629m2.32126,37.48288V183.27494a1.72975,1.72975,0,0,0-.47294-1.20271,1.51372,1.51372,0,0,0-1.16019-.51634H32.20042v15.90519h7.04969a1.51675,1.51675,0,0,0,1.16019-.51632,1.7303,1.7303,0,0,0,.47294-1.2036" transform="translate(0.00019 -0.00074)" fill="#fff"/><polygon points="194.85 195.74 208.176 195.74 208.176 205.713 182.814 205.713 182.814 150.09 208.176 150.09 208.176 159.891 194.85 159.891 194.85 172.958 207.316 172.958 207.316 182.415 194.85 182.415 194.85 195.74" fill="#fff"/><polygon points="211.957 160.321 211.957 150.091 242.046 150.091 242.046 160.321 233.02 160.321 233.02 205.713 220.985 205.713 220.985 160.321 211.957 160.321" fill="#fff"/><path d="M83.26528,149.23164H61.17122v56.4817h12.035V187.0582h8.68368v18.65514H93.92572v-45.134q0-11.34773-10.66044-11.34773m-1.3754,28.54151H73.2062V159.118a1.72341,1.72341,0,0,1,.47379-1.20355,1.50945,1.50945,0,0,1,1.1602-.51544h5.41569a1.51638,1.51638,0,0,1,1.16106.51544,1.73029,1.73029,0,0,1,.47294,1.20355Z" transform="translate(0.00019 -0.00074)" fill="#fff"/><path d="M268.35223,171.92737h-7.737a1.49829,1.49829,0,0,1-1.03176-.39914V159.82215a1.49811,1.49811,0,0,1,1.03176-.39919h4.72843a1.51115,1.51115,0,0,1,1.1602.51634,1.72637,1.72637,0,0,1,.47292,1.20355v4.38393h11.43448v-4.0993q0-11.34773-10.66044-11.34767H247.54851v21.589q0,11.349,10.65959,11.34857h7.73695a1.51436,1.51436,0,0,1,1.16107.5163,1.7288,1.7288,0,0,1,.47292,1.2036v10.91729a1.73083,1.73083,0,0,1-.47292,1.20445,1.51938,1.51938,0,0,1-1.16107.51545h-5.32979a1.51368,1.51368,0,0,1-1.1602-.51545,1.72317,1.72317,0,0,1-.47291-1.20445v-6.18973H247.54851v5.7602q0,11.349,10.65959,11.3477h10.14413q10.66041,0,10.66042-11.3477V183.2751q0-11.17463-10.66042-11.34773" transform="translate(0.00019 -0.00074)" fill="#fff"/><path d="M93.28357,149.23154c1.20011-.29417,5.98408-3.51787,5.98408-3.51787L97.99116,153.638Z" transform="translate(0.00019 -0.00074)" fill="#3d444a"/><rect x="83.26529" y="143.56424" width="18.65599" height="5.41482" fill="#3d444a"/><polyline points="98.397 148.801 86.19 148.801 86.19 126.125 98.397 126.125" fill="#3d444a"/><polygon points="27.275 136.918 34.994 136.918 34.994 142.694 20.302 142.694 20.302 110.473 34.994 110.473 34.994 116.149 27.275 116.149 27.275 123.72 34.496 123.72 34.496 129.198 27.275 129.198 27.275 136.918" fill="#f8dc00"/><polygon points="53.421 110.472 59.596 110.472 63.331 134.726 66.12 110.472 72.893 110.472 67.664 142.695 59.746 142.695 56.509 122.923 53.271 142.695 45.352 142.695 40.124 110.472 46.897 110.472 49.686 134.726 53.421 110.472" fill="#f8dc00"/><polygon points="86.19 136.918 93.909 136.918 93.909 142.694 79.218 142.694 79.218 110.473 93.909 110.473 93.909 116.149 86.19 116.149 86.19 123.72 93.411 123.72 93.411 129.198 86.19 129.198 86.19 136.918" fill="#f8dc00"/><path d="M70.93283,264.24614a5.35774,5.35774,0,0,1-1.42747-7.76735,5.64241,5.64241,0,0,1,9.213,6.51083,5.3534,5.3534,0,0,1-7.78555,1.25652m5.34975-7.5695a3.76039,3.76039,0,1,0,.67512,5.06859,3.53371,3.53371,0,0,0-.67512-5.06859" transform="translate(0.00019 -0.00074)" fill="#fff"/><path d="M70.93283,264.24614a5.35774,5.35774,0,0,1-1.42747-7.76735,5.64241,5.64241,0,0,1,9.213,6.51083A5.3534,5.3534,0,0,1,70.93283,264.24614Zm5.34975-7.5695a3.76039,3.76039,0,1,0,.67512,5.06859A3.53371,3.53371,0,0,0,76.28258,256.67664Z" transform="translate(0.00019 -0.00074)" fill="none" stroke="#fff" stroke-miterlimit="10" stroke-width="0.933"/><polygon points="86.642 273.599 91.356 264.084 93.172 264.984 89.223 272.956 93.116 274.884 92.35 276.427 86.642 273.599" fill="#fff"/><polygon points="86.642 273.599 91.356 264.084 93.172 264.984 89.223 272.956 93.116 274.884 92.35 276.427 86.642 273.599" fill="none" stroke="#fff" stroke-miterlimit="10" stroke-width="0.933"/><path d="M111.937,282.03679a5.56294,5.56294,0,0,1-4.56789.18395l-3.74092-1.19143,3.222-10.11981,3.75654,1.19664a5.33463,5.33463,0,0,1,3.63589,2.795,5.47885,5.47885,0,0,1,.23691,3.97695,5.56136,5.56136,0,0,1-2.54253,3.15866m.16055-6.923a4.19184,4.19184,0,0,0-2.23276-1.3693l-1.53246-.48856-2.13817,6.71648,1.53333.48767c2.29958.73238,3.97349-.06856,4.66162-2.231a3.60708,3.60708,0,0,0-.29156-3.11529" transform="translate(0.00019 -0.00074)" fill="#fff"/><path d="M111.937,282.03679a5.56294,5.56294,0,0,1-4.56789.18395l-3.74092-1.19143,3.222-10.11981,3.75654,1.19664a5.33463,5.33463,0,0,1,3.63589,2.795,5.47885,5.47885,0,0,1,.23691,3.97695A5.56136,5.56136,0,0,1,111.937,282.03679Zm.16055-6.923a4.19184,4.19184,0,0,0-2.23276-1.3693l-1.53246-.48856-2.13817,6.71648,1.53333.48767c2.29958.73238,3.97349-.06856,4.66162-2.231A3.60708,3.60708,0,0,0,112.09759,275.11377Z" transform="translate(0.00019 -0.00074)" fill="none" stroke="#fff" stroke-miterlimit="10" stroke-width="0.933"/><polygon points="125.112 286.705 126.642 276.196 133.043 277.128 132.795 278.831 128.4 278.192 128.022 280.787 131.622 281.311 131.373 283.015 127.774 282.492 127.367 285.294 131.968 285.964 131.721 287.668 125.112 286.705" fill="#fff"/><polygon points="125.112 286.705 126.642 276.196 133.043 277.128 132.795 278.831 128.4 278.192 128.022 280.787 131.622 281.311 131.373 283.015 127.774 282.492 127.367 285.294 131.968 285.964 131.721 287.668 125.112 286.705" fill="none" stroke="#fff" stroke-miterlimit="10" stroke-width="0.933"/><path d="M151.41954,288.88349l-4.54621-6.87524c-.03209-.04775-.09631-.19353-.22475-.41829a1.37612,1.37612,0,0,0-.12844-.2256,1.58076,1.58076,0,0,1-.144-.37053l-.00956,7.78728-1.9299-.00175.01128-10.61878,2.33343.00174,4.449,6.98809c.01563.033.06422.11279.11194.2256.0486.11281.08072.177.09632.20913l.09634.27422.09632.19265.00868-7.8845,1.91515.00263-.01216,10.716Z" transform="translate(0.00019 -0.00074)" fill="#fff"/><path d="M151.41954,288.88349l-4.54621-6.87524c-.03209-.04775-.09631-.19353-.22475-.41829a1.37612,1.37612,0,0,0-.12844-.2256,1.58076,1.58076,0,0,1-.144-.37053l-.00956,7.78728-1.9299-.00175.01128-10.61878,2.33343.00174,4.449,6.98809c.01563.033.06422.11279.11194.2256.0486.11281.08072.177.09632.20913l.09634.27422.09632.19265.00868-7.8845,1.91515.00263-.01216,10.716Z" transform="translate(0.00019 -0.00074)" fill="none" stroke="#fff" stroke-miterlimit="10" stroke-width="0.933"/><path d="M171.42526,286.925l-4.27287.68986-1.69127-10.48254,3.79561-.61351a3.53128,3.53128,0,0,1,2.73344.27682,2.58254,2.58254,0,0,1,.79139,3.48926,2.14094,2.14094,0,0,1-1.59234,1.03958,2.52119,2.52119,0,0,1,3.02416,2.28221c.29329,1.811-.69248,2.97989-2.78812,3.31832m-2.31-8.7531-1.30164.21.43647,2.6996,1.19058-.19179c1.1272-.18222,1.65393-.75582,1.51077-1.64527-.13625-.84173-.81917-1.23655-1.83618-1.07254m.71069,4.39952-1.30251.21.46685,2.89053,1.30164-.21a2.59473,2.59473,0,0,0,1.17667-.38529,1.34774,1.34774,0,0,0,.51807-1.339c-.15447-.95282-.92157-1.36674-2.16072-1.1663" transform="translate(0.00019 -0.00074)" fill="#fff"/><path d="M171.42526,286.925l-4.27287.68986-1.69127-10.48254,3.79561-.61351a3.53128,3.53128,0,0,1,2.73344.27682,2.58254,2.58254,0,0,1,.79139,3.48926,2.14094,2.14094,0,0,1-1.59234,1.03958,2.52119,2.52119,0,0,1,3.02416,2.28221C174.50667,285.41766,173.5209,286.58653,171.42526,286.925Zm-2.31-8.7531-1.30164.21.43647,2.6996,1.19058-.19179c1.1272-.18222,1.65393-.75582,1.51077-1.64527C170.81522,278.40267,170.1323,278.00785,169.11529,278.17186Zm.71069,4.39952-1.30251.21.46685,2.89053,1.30164-.21a2.59473,2.59473,0,0,0,1.17667-.38529,1.34774,1.34774,0,0,0,.51807-1.339C171.83223,282.78486,171.06513,282.37094,169.826,282.57138Z" transform="translate(0.00019 -0.00074)" fill="none" stroke="#fff" stroke-miterlimit="10" stroke-width="0.933"/><path d="M193.66692,280.622a6.21634,6.21634,0,0,1-5.70382,1.8709c-1.27645-.3766-1.88737-1.10727-2.49481-2.95732l-2.01753-6.14808,1.91168-.62741,2.05225,6.25482c.49116,1.49862,1.51686,1.99153,3.12307,1.46565a2.12559,2.12559,0,0,0,1.51077-2.986l-2.05312-6.25482,1.9273-.63173,2.01668,6.1472c.60742,1.85093.54235,2.78638-.27247,3.86674" transform="translate(0.00019 -0.00074)" fill="#fff"/><path d="M193.66692,280.622a6.21634,6.21634,0,0,1-5.70382,1.8709c-1.27645-.3766-1.88737-1.10727-2.49481-2.95732l-2.01753-6.14808,1.91168-.62741,2.05225,6.25482c.49116,1.49862,1.51686,1.99153,3.12307,1.46565a2.12559,2.12559,0,0,0,1.51077-2.986l-2.05312-6.25482,1.9273-.63173,2.01668,6.1472C194.54681,278.60616,194.48174,279.54161,193.66692,280.622Z" transform="translate(0.00019 -0.00074)" fill="none" stroke="#fff" stroke-miterlimit="10" stroke-width="0.933"/><path d="M212.36837,272.99585l-4.09758-2.67618-.90333.46166,1.93422,3.7817-1.80493.92329-4.836-9.456,3.15257-1.61143c1.3754-.70288,2.0939-.85388,2.92348-.60916a2.97326,2.97326,0,0,1,1.82143,1.65308,3.23052,3.23052,0,0,1,.39309,2.04009,2.62732,2.62732,0,0,1-1.02914,1.62793l4.423,2.85319Zm-5.94329-6.956-1.17411.60051,1.33289,2.60762,1.175-.6005c1.14629-.58573,1.4422-1.24349.95888-2.18934-.46166-.90248-1.1177-1.01964-2.29262-.41829" transform="translate(0.00019 -0.00074)" fill="#fff"/><path d="M212.36837,272.99585l-4.09758-2.67618-.90333.46166,1.93422,3.7817-1.80493.92329-4.836-9.456,3.15257-1.61143c1.3754-.70288,2.0939-.85388,2.92348-.60916a2.97326,2.97326,0,0,1,1.82143,1.65308,3.23052,3.23052,0,0,1,.39309,2.04009,2.62732,2.62732,0,0,1-1.02914,1.62793l4.423,2.85319Zm-5.94329-6.956-1.17411.60051,1.33289,2.60762,1.175-.6005c1.14629-.58573,1.4422-1.24349.95888-2.18934C208.256,265.55567,207.6,265.43851,206.42508,266.03986Z" transform="translate(0.00019 -0.00074)" fill="none" stroke="#fff" stroke-miterlimit="10" stroke-width="0.933"/><path d="M231.04763,260.84943a10.77284,10.77284,0,0,1-1.95334,1.85614c-2.85147,2.0705-6.15416,1.68434-8.08232-.97188a5.34814,5.34814,0,0,1-.96235-4.3119,5.62152,5.62152,0,0,1,2.52691-3.58473,9.82167,9.82167,0,0,1,1.93946-1.109,8.68056,8.68056,0,0,1,1.60621-.47031l.60222,1.65046c-.39829.11021-.68985.20131-.88336.26294a6.89825,6.89825,0,0,0-1.99758.97363c-1.92643,1.39883-2.40806,3.55695-1.16889,5.263a3.947,3.947,0,0,0,5.63438.64039,4.32966,4.32966,0,0,0,.98751-.99445l-1.72077-2.36985,1.64093-1.19144,2.55209,3.51532c-.32369.37485-.564.64819-.7211.8417" transform="translate(0.00019 -0.00074)" fill="#fff"/><path d="M231.04763,260.84943a10.77284,10.77284,0,0,1-1.95334,1.85614c-2.85147,2.0705-6.15416,1.68434-8.08232-.97188a5.34814,5.34814,0,0,1-.96235-4.3119,5.62152,5.62152,0,0,1,2.52691-3.58473,9.82167,9.82167,0,0,1,1.93946-1.109,8.68056,8.68056,0,0,1,1.60621-.47031l.60222,1.65046c-.39829.11021-.68985.20131-.88336.26294a6.89825,6.89825,0,0,0-1.99758.97363c-1.92643,1.39883-2.40806,3.55695-1.16889,5.263a3.947,3.947,0,0,0,5.63438.64039,4.32966,4.32966,0,0,0,.98751-.99445l-1.72077-2.36985,1.64093-1.19144,2.55209,3.51532C231.445,260.38258,231.20469,260.65592,231.04763,260.84943Z" transform="translate(0.00019 -0.00074)" fill="none" stroke="#fff" stroke-miterlimit="10" stroke-width="0.933"/><rect x="146.95633" y="201.77883" width="3.23848" height="67.86409" fill="#3d444a"/><path d="M93.06135,259.708l-1.48214-3.32786.74107,1.66437-.74368-1.66262a46.32191,46.32191,0,0,0,13.6386-10.75676c6.31816-7.04971,14.07593-19.56542,15.15716-39.1577l3.63767.20132c-1.14458,20.74469-9.44818,34.03617-16.21151,41.53188C100.4269,256.37146,93.359,259.5761,93.06135,259.708" transform="translate(0.00019 -0.00074)" fill="#3d444a"/><path d="M204.31937,259.708c-.29679-.13188-7.36556-3.33652-14.73634-11.50737-6.76418-7.49571-15.06691-20.78719-16.21148-41.53188l3.63676-.20132c2.074,37.58706,28.52676,49.79471,28.79317,49.91271Z" transform="translate(0.00019 -0.00074)" fill="#3d444a"/><polygon points="176.884 150.091 167.427 175.624 178.69 205.713 166.396 205.713 158.143 183.704 154.273 183.704 154.273 205.713 142.238 205.713 142.238 150.091 154.273 150.091 154.273 173.388 157.197 173.388 165.88 150.091 176.884 150.091" fill="#fff"/><path d="M123.66934,171.92737h-7.737a1.49829,1.49829,0,0,1-1.03176-.39914v-12.527a1.49829,1.49829,0,0,1,1.03176-.39914h4.72843a1.51334,1.51334,0,0,1,1.1602.51545,1.73,1.73,0,0,1,.47292,1.20445v4.38393h11.43361v-4.12621q0-11.34772-10.65957-11.34773H102.86477V171.6688q0,11.349,10.66044,11.34857h7.73695a1.51436,1.51436,0,0,1,1.16107.5163,1.7288,1.7288,0,0,1,.47292,1.2036v10.91729a1.73083,1.73083,0,0,1-.47292,1.20445,1.51938,1.51938,0,0,1-1.16107.51545h-5.32979a1.51368,1.51368,0,0,1-1.1602-.51545,1.724,1.724,0,0,1-.47379-1.20445v-6.18973H102.86477v5.7602q0,11.349,10.66044,11.3477h10.14413q10.66041,0,10.66042-11.3477V183.2751q0-11.17463-10.66042-11.34773" transform="translate(0.00019 -0.00074)" fill="#fff"/></g></svg>