<?xml version="1.0" encoding="UTF-8" standalone="no"?>
<svg xmlns:rdf="http://www.w3.org/1999/02/22-rdf-syntax-ns#" xmlns="http://www.w3.org/2000/svg" height="136.5518" width="239.16749" version="1.1" xmlns:cc="http://creativecommons.org/ns#" xmlns:dc="http://purl.org/dc/elements/1.1/" viewBox="0 0 239.16749 136.5518"><polygon points="122.56 11.005 119.534 11.005 112.749 31.227 112.658 31.227 106.194 11.005 103.031 11.005 110.961 34.386 114.354 34.386 122.56 11.005" fill="#231f20" fill-rule="evenodd"/><path d="M137.812,34.3858h2.8379a22.05846,22.05846,0,0,1-.2012-2.3462q-.03509-1.16535-.0278-2.5567V19.1665q.0285-4.5498-1.936-6.6445-1.96365-2.0955-6.2691-2.0674a16.31335,16.31335,0,0,0-3.5444.4751,16.75753,16.75753,0,0,0-3.3365,1.1265v2.7964a11.93565,11.93565,0,0,1,3.3365-1.4795,13.50921,13.50921,0,0,1,3.5444-.4478q2.89095.0015,4.1226,1.5083a6.87241,6.87241,0,0,1,1.1987,4.5034v1.1934h-.5508a40.98037,40.98037,0,0,0-6.4233.3853,11.55066,11.55066,0,0,0-5.5869,2.2089q-2.29035,1.7571-2.3882,5.6114a7.10225,7.10225,0,0,0,.5195,2.6494,5.82381,5.82381,0,0,0,2.23,2.7085,8.88626,8.88626,0,0,0,4.9507,1.2417,9.19279,9.19279,0,0,0,4.3188-1.104,7.069,7.069,0,0,0,3.1133-3.2017h.0918Zm-.2749-10.3623a15.51541,15.51541,0,0,1-.2871,3.3095,6.65789,6.65789,0,0,1-1.8267,3.5044q-1.47871,1.54185-4.8144,1.628a5.63967,5.63967,0,0,1-3.4287-.958,3.851,3.851,0,0,1-1.4341-3.2632,4.48251,4.48251,0,0,1,1.7319-3.7471,9.16738,9.16738,0,0,1,4.1685-1.5747,32.174,32.174,0,0,1,5.0649-.3218h.8257Z" fill="#231f20" fill-rule="evenodd"/><rect x="145.0073" width="2.8833" height="34.3858" fill="#231f20"/><path d="M168.6328,30.7217a11.81306,11.81306,0,0,1-3.002,1.1987,14.361,14.361,0,0,1-3.5551.545,7.06186,7.06186,0,0,1-5.7456-2.6153,10.06614,10.06614,0,0,1-1.9615-6.332h16.0039V22.0537a16.62254,16.62254,0,0,0-.9448-5.7998,9.02641,9.02641,0,0,0-3.0132-4.1884,8.75675,8.75675,0,0,0-5.3486-1.6109,8.89556,8.89556,0,0,0-7.1465,3.4375,14.026,14.026,0,0,0-2.7095,8.8023,14.17278,14.17278,0,0,0,2.4112,8.7524q2.4726,3.38235,8.2251,3.4888a19.31794,19.31794,0,0,0,3.4458-.3311,17.2887,17.2887,0,0,0,3.3408-.9497Zm-14.2642-9.6743a9.34761,9.34761,0,0,1,.8365-3.8189,7.915,7.915,0,0,1,2.3647-3.0537,5.98738,5.98738,0,0,1,3.6797-1.2495,5.17992,5.17992,0,0,1,3.4629,1.1983,6.62686,6.62686,0,0,1,1.9136,3.0034,12.46794,12.46794,0,0,1,.5879,3.9204Z" fill="#231f20" fill-rule="evenodd"/><path d="M173.58349,34.3858h2.8833V21.4541a12.1817,12.1817,0,0,1,.62351-3.9433,7.0886,7.0886,0,0,1,2.16259-3.2403,6.37561,6.37561,0,0,1,4.1416-1.3452,4.86709,4.86709,0,0,1,4.2725,1.9722,9.16815,9.16815,0,0,1,1.2788,5.2729V34.3858h2.8828V19.437a10.216,10.216,0,0,0-1.82129-6.4169q-1.86331-2.48595-6.15431-2.5655-3.57345.0975-5.2475,1.5679a8.1765,8.1765,0,0,0-2.3218,3.1494h-.0913v-4.167h-2.792q.1326,1.40625.1601,2.7808.02865,1.3755.023,2.7163Z" fill="#231f20" fill-rule="evenodd"/><path d="M212.26169,11.3662a17.63369,17.63369,0,0,0-2.081-.5571,17.92968,17.92968,0,0,0-3.5591-.3545,11.17523,11.17523,0,0,0-8.3716,3.4199,12.67248,12.67248,0,0,0-3.1782,8.8208,14.73965,14.73965,0,0,0,1.228,6.0689,10.32879,10.32879,0,0,0,3.7129,4.4458,11.14888,11.14888,0,0,0,6.2422,1.7256,25.21382,25.21382,0,0,0,3.0888-.1543,13.814,13.814,0,0,0,2.918-.669l-.27539-2.7021a18.5673,18.5673,0,0,1-2.602.7685,12.86483,12.86483,0,0,1-2.67191.2867,7.82608,7.82608,0,0,1-6.2188-2.8897,10.80823,10.80823,0,0,1-2.2636-6.8804,10.57558,10.57558,0,0,1,2.2871-7.018,8.27893,8.27893,0,0,1,6.5176-2.752,10.646,10.646,0,0,1,2.499.3384,15.45088,15.45088,0,0,1,2.499.8545Z" fill="#231f20" fill-rule="evenodd"/><path d="M214.94919,34.3858h2.8838V11.0049h-2.8838ZM217.833.917h-2.8838V4.7627h2.8838Z" fill="#231f20" fill-rule="evenodd"/><path d="M236.33009,34.3858h2.8374a21.6676,21.6676,0,0,1-.20019-2.3462q-.03661-1.16535-.02981-2.5567V19.1665q.0315-4.5498-1.9351-6.6445-1.96214-2.0955-6.269-2.0674a16.299,16.299,0,0,0-3.544.4751,16.80949,16.80949,0,0,0-3.3364,1.1265v2.7964a11.92366,11.92366,0,0,1,3.3364-1.4795,13.51155,13.51155,0,0,1,3.544-.4478q2.8923.0015,4.123,1.5083a6.8862,6.8862,0,0,1,1.1993,4.5034v1.1934h-.5513a41.00985,41.00985,0,0,0-6.4248.3853,11.5529,11.5529,0,0,0-5.586,2.2089q-2.2881,1.7571-2.3867,5.6114a7.10084,7.10084,0,0,0,.5191,2.6494,5.82367,5.82367,0,0,0,2.2309,2.7085,8.88015,8.88015,0,0,0,4.9497,1.2417,9.19121,9.19121,0,0,0,4.3184-1.104,7.0608,7.0608,0,0,0,3.1118-3.2017h.0933Zm-.2744-10.3623a15.67471,15.67471,0,0,1-.2872,3.3095,6.671,6.671,0,0,1-1.8261,3.5044q-1.4802,1.54185-4.814,1.628a5.641,5.641,0,0,1-3.4297-.958,3.84893,3.84893,0,0,1-1.4341-3.2632,4.48251,4.48251,0,0,1,1.7315-3.7471,9.17412,9.17412,0,0,1,4.167-1.5747,32.21517,32.21517,0,0,1,5.0664-.3218h.8262Z" fill="#231f20" fill-rule="evenodd"/><path d="M111.3354,124.1114h-.9091v4.7133h-.0289a1.85425,1.85425,0,0,0-.333-.5273,2.54442,2.54442,0,0,0-.7568-.6011,2.58626,2.58626,0,0,0-1.2104-.2866,2.67939,2.67939,0,0,0-2.3321,1.0889,4.78137,4.78137,0,0,0-.7041,2.7715,5.40893,5.40893,0,0,0,.3364,1.9711,3.03843,3.03843,0,0,0,1.0123,1.3736,2.79111,2.79111,0,0,0,1.6875.5156,2.69166,2.69166,0,0,0,1.3613-.3193,2.4368,2.4368,0,0,0,.9389-1.024h.0289v1.17h.9091Zm-5.2788,7.1587a5.30342,5.30342,0,0,1,.1812-1.4351,2.48036,2.48036,0,0,1,.6655-1.166,1.90066,1.90066,0,0,1,1.3379-.4805,1.80682,1.80682,0,0,1,1.2871.5,2.76347,2.76347,0,0,1,.6919,1.1846,4.83555,4.83555,0,0,1,0,2.7934,2.757,2.757,0,0,1-.6919,1.1846,1.80894,1.80894,0,0,1-1.2871.5,1.90066,1.90066,0,0,1-1.3379-.4805,2.47948,2.47948,0,0,1-.6655-1.165A5.31684,5.31684,0,0,1,106.0566,131.2701Z" fill="#231f20" fill-rule="evenodd"/><path d="M118.4648,133.8013a3.746,3.746,0,0,1-.9472.3779,4.51476,4.51476,0,0,1-1.1211.1719,2.22534,2.22534,0,0,1-1.812-.8247,3.16935,3.16935,0,0,1-.6187-1.9971h5.0469v-.4614a5.23951,5.23951,0,0,0-.2974-1.8296,2.84727,2.84727,0,0,0-.9502-1.3208,2.759,2.759,0,0,0-1.6865-.5078,2.80372,2.80372,0,0,0-2.2549,1.0835,5.15061,5.15061,0,0,0-.0937,5.5366,3.076,3.076,0,0,0,2.5937,1.1006,6.11458,6.11458,0,0,0,1.0874-.1045,5.485,5.485,0,0,0,1.0537-.2998Zm-4.499-3.0513a2.94606,2.94606,0,0,1,.2637-1.2041,2.49133,2.49133,0,0,1,.7461-.9633,1.8894,1.8894,0,0,1,1.1606-.3941,1.636,1.636,0,0,1,1.0918.3775,2.0989,2.0989,0,0,1,.604.9477,3.94163,3.94163,0,0,1,.1851,1.2363Z" fill="#231f20" fill-rule="evenodd"/><path d="M120.0727,134.7842a4.6826,4.6826,0,0,0,1.0118.2705,6.83559,6.83559,0,0,0,1.0551.0757,3.50419,3.50419,0,0,0,1.1631-.1963,2.27151,2.27151,0,0,0,.9922-.6626,2.00914,2.00914,0,0,0-.1489-2.6279,4.33352,4.33352,0,0,0-1.2471-.8076,12.932,12.932,0,0,1-1.248-.6128.97756.97756,0,0,1-.5669-.8052,1.07687,1.07687,0,0,1,.4428-.9673,2.0566,2.0566,0,0,1,1.1485-.2622,4.17311,4.17311,0,0,1,.8291.0923,3.93083,3.93083,0,0,1,.8052.2549l.0864-.7954a5.29712,5.29712,0,0,0-1.0078-.2569,5.39193,5.39193,0,0,0-.814-.0737,2.86558,2.86558,0,0,0-1.6562.4565,1.79943,1.79943,0,0,0-.7437,1.5518,1.57714,1.57714,0,0,0,.5542,1.2227,4.92788,4.92788,0,0,0,1.2178.7324,6.98054,6.98054,0,0,1,1.2178.6592,1.22364,1.22364,0,0,1,.5537,1.0029,1.179,1.179,0,0,1-.4922.9722,1.91856,1.91856,0,0,1-1.1441.3437,4.195,4.195,0,0,1-1.0205-.1279,4.46169,4.46169,0,0,1-.9013-.335Z" fill="#231f20" fill-rule="evenodd"/><path d="M136.2187,124.1114h-.9091v4.7133h-.0289a1.85,1.85,0,0,0-.3325-.5273,2.54967,2.54967,0,0,0-.7578-.6011,2.5826,2.5826,0,0,0-1.2099-.2866,2.67939,2.67939,0,0,0-2.3321,1.0889,4.77458,4.77458,0,0,0-.7046,2.7715,5.4298,5.4298,0,0,0,.3374,1.9711,3.044,3.044,0,0,0,1.0118,1.3736,2.79325,2.79325,0,0,0,1.6875.5156,2.69551,2.69551,0,0,0,1.3623-.3193,2.44124,2.44124,0,0,0,.9379-1.024h.0289v1.17h.9091Zm-5.2783,7.1587a5.26413,5.26413,0,0,1,.1812-1.4351,2.4754,2.4754,0,0,1,.665-1.166,1.90151,1.90151,0,0,1,1.3389-.4805,1.80486,1.80486,0,0,1,1.2856.5,2.74939,2.74939,0,0,1,.6924,1.1846,4.83563,4.83563,0,0,1,0,2.7934,2.743,2.743,0,0,1-.6924,1.1846,1.807,1.807,0,0,1-1.2856.5,1.90151,1.90151,0,0,1-1.3389-.4805,2.47453,2.47453,0,0,1-.665-1.165A5.27737,5.27737,0,0,1,130.9404,131.2701Z" fill="#231f20" fill-rule="evenodd"/><path d="M143.3476,133.8013a3.72766,3.72766,0,0,1-.9467.3779,4.51161,4.51161,0,0,1-1.1216.1719,2.225,2.225,0,0,1-1.8115-.8247,3.18165,3.18165,0,0,1-.6192-1.9971h5.0479v-.4614a5.26256,5.26256,0,0,0-.2979-1.8296,2.84726,2.84726,0,0,0-.9502-1.3208,2.75947,2.75947,0,0,0-1.687-.5078,2.80319,2.80319,0,0,0-2.2539,1.0835,4.41836,4.41836,0,0,0-.854,2.7764,4.46835,4.46835,0,0,0,.7603,2.7602,3.07334,3.07334,0,0,0,2.5937,1.1006,6.11791,6.11791,0,0,0,1.0869-.1045,5.46963,5.46963,0,0,0,1.0532-.2998Zm-4.499-3.0513a2.95406,2.95406,0,0,1,.2637-1.2041,2.496,2.496,0,0,1,.7461-.9633,1.892,1.892,0,0,1,1.1611-.3941,1.63273,1.63273,0,0,1,1.0913.3775,2.08567,2.08567,0,0,1,.6035.9477,3.92745,3.92745,0,0,1,.1861,1.2363Z" fill="#231f20" fill-rule="evenodd"/><polygon points="150.267 126.773 150.816 127.424 152.451 125.99 152.451 134.957 153.447 134.957 153.447 124.864 152.552 124.864 150.267 126.773" fill="#231f20" fill-rule="evenodd"/><path d="M160.5176,124.7627a3.26282,3.26282,0,0,0-2.4239.9253,3.78637,3.78637,0,0,0-.3545,4.3296,2.63462,2.63462,0,0,0,1.2149.9609,3.7676,3.7676,0,0,0,1.4043.2618,3.02764,3.02764,0,0,0,1.3442-.3018,2.49353,2.49353,0,0,0,1.0288-.9404h.0288a6.20088,6.20088,0,0,1-.3071,2.0093,3.31165,3.31165,0,0,1-1.0688,1.5727,3.16543,3.16543,0,0,1-2.0523.6123,4.84835,4.84835,0,0,1-.8921-.0889,3.68064,3.68064,0,0,1-.7715-.2294l-.0859.9521c.2661.0674.5347.1221.8032.165a5.33386,5.33386,0,0,0,.8155.0669,4.55955,4.55955,0,0,0,2.6987-.75,4.01149,4.01149,0,0,0,1.4341-1.9741,8.24975,8.24975,0,0,0,.4223-2.7842,9.38956,9.38956,0,0,0-.2441-2.2959,3.59818,3.59818,0,0,0-.9653-1.7773A2.85327,2.85327,0,0,0,160.5176,124.7627Zm-.1592,5.6114a2.04307,2.04307,0,0,1-1.5972-.6255,2.54431,2.54431,0,0,1-.5434-1.7325,2.50573,2.50573,0,0,1,.5825-1.7036,2.18165,2.18165,0,0,1,1.6885-.684,2.04418,2.04418,0,0,1,1.2251.3725,2.16609,2.16609,0,0,1,.7138.9287,3.144,3.144,0,0,1,.232,1.2017,2.23464,2.23464,0,0,1-.6084,1.6206A2.319,2.319,0,0,1,160.3584,130.3741Z" fill="#231f20" fill-rule="evenodd"/><path d="M165.521,127.1187a2.34741,2.34741,0,0,0,.6133,1.6084,4.31142,4.31142,0,0,0,1.3945.9805,4.50775,4.50775,0,0,0-1.6563.9301,2.30149,2.30149,0,0,0-.6704,1.7325,2.3762,2.3762,0,0,0,.5132,1.5195,2.958,2.958,0,0,0,1.25779.8828,4.44885,4.44885,0,0,0,1.5835.2856,4.76469,4.76469,0,0,0,1.5904-.2568,2.76581,2.76581,0,0,0,1.2548-.8545,2.45191,2.45191,0,0,0,.5093-1.5766,2.24729,2.24729,0,0,0-.6841-1.7432,4.8515,4.8515,0,0,0-1.7153-.9185,6.57127,6.57127,0,0,0,.96-.6269,3.3959,3.3959,0,0,0,.7832-.855,2.08148,2.08148,0,0,0,.3242-1.1079,2.12776,2.12776,0,0,0-.4331-1.3438,2.46271,2.46271,0,0,0-1.1035-.768,4.32293,4.32293,0,0,0-1.4844-.2442,4.0577,4.0577,0,0,0-1.335.2349,2.90022,2.90022,0,0,0-1.1889.7583A1.98329,1.98329,0,0,0,165.521,127.1187Zm5.3945,5.1645a1.77252,1.77252,0,0,1-.3481,1.1119,1.909,1.909,0,0,1-.87209.6108,3.33876,3.33876,0,0,1-1.13871.1865,2.97711,2.97711,0,0,1-1.1259-.2222,2.2254,2.2254,0,0,1-.878-.6269,1.51517,1.51517,0,0,1-.354-.9731,1.75679,1.75679,0,0,1,.35061-1.1104,2.586,2.586,0,0,1,.875-.6821q.53609-.26445,1.13229-.4927.4812.2307,1.024.499a3.34525,3.34525,0,0,1,.92871.6699A1.48076,1.48076,0,0,1,170.91549,132.2832Zm-4.3989-5.0781a1.38762,1.38762,0,0,1,.6235-1.1836,2.51351,2.51351,0,0,1,1.4165-.393,2.6879,2.6879,0,0,1,.9429.1713,1.84237,1.84237,0,0,1,.7666.521,1.33906,1.33906,0,0,1,.3164.8843,1.51475,1.51475,0,0,1-.3227.918,3.09988,3.09988,0,0,1-.773.6997,7.91115,7.91115,0,0,1-.9302.5224q-.4263-.19845-.895-.477a3.03865,3.03865,0,0,1-.7998-.6841A1.567,1.567,0,0,1,166.5166,127.2051Z" fill="#231f20" fill-rule="evenodd"/><path d="M176.59619,135.0581a3.26524,3.26524,0,0,0,2.4238-.9248,3.78638,3.78638,0,0,0,.355-4.3305,2.635,2.635,0,0,0-1.2149-.9605,3.76324,3.76324,0,0,0-1.4047-.2617,3.02171,3.02171,0,0,0-1.3438.3018,2.48777,2.48777,0,0,0-1.0298.9404h-.0278a6.20257,6.20257,0,0,1,.3061-2.0093,3.31271,3.31271,0,0,1,1.0694-1.5727,3.1662,3.1662,0,0,1,2.0527-.6123,4.8138,4.8138,0,0,1,.89211.0893,3.62323,3.62323,0,0,1,.771.229l.08589-.9546c-.2671-.0654-.5341-.1196-.8032-.1626a5.30134,5.30134,0,0,0-.8159-.0669,4.56279,4.56279,0,0,0-2.6982.7495,4.01833,4.01833,0,0,0-1.43459,1.9742,8.244,8.244,0,0,0-.42191,2.7846,9.37366,9.37366,0,0,0,.2451,2.2959,3.58362,3.58362,0,0,0,.9649,1.7774A2.85353,2.85353,0,0,0,176.59619,135.0581Zm.1592-5.6118a2.0405,2.0405,0,0,1,1.5962.626,2.54481,2.54481,0,0,1,.5444,1.7324,2.50267,2.50267,0,0,1-.582,1.7031,2.18284,2.18284,0,0,1-1.6895.6846,2.04344,2.04344,0,0,1-1.2241-.373,2.16326,2.16326,0,0,1-.7144-.9283,3.12608,3.12608,0,0,1-.2314-1.2016,2.2298,2.2298,0,0,1,.6079-1.6206A2.32273,2.32273,0,0,1,176.75539,129.4463Z" fill="#231f20" fill-rule="evenodd"/><path d="M32.0967,3.4405a32.20066,32.20066,0,0,0-13.0435,11.563c-4.8091,6.9155-6.4575,12.1586-6.5723,20.5903a43.386,43.386,0,0,1,6.3702-6.6944,46.04149,46.04149,0,0,1,7.0781-5.1733,21.98814,21.98814,0,0,1,.2021-8.2158A21.94528,21.94528,0,0,1,32.0967,3.4405Z" fill="#5c6670" stroke="#5c6670" stroke-miterlimit="3.86371" stroke-width="0.76227" fill-rule="evenodd"/><path d="M47.7949,1.7217l.3032,1.4204-.809,1.2168a20.45309,20.45309,0,0,0-.7081,6.897,20.172,20.172,0,0,0,1.358,7.1001,2.44382,2.44382,0,0,0,4.7529-.1011,16.22359,16.22359,0,0,0,1.4731-7.5058,15.86108,15.86108,0,0,0-1.4155-6.7955L52.1426,2.939l.4048-1.2173-1.4161.6089H48.8061Z" fill="#5c6670" stroke="#5c6670" stroke-miterlimit="3.86371" stroke-width="0.76227" fill-rule="evenodd"/><path d="M60.1069,1.7168,55.8603,4.5567a26.134,26.134,0,0,1,.7076,6.2881,29.07679,29.07679,0,0,1-.5054,6.0859c1.2637.23,1.9844.3203,3.2353.6084,1.3897.3193,2.1788.4883,3.5401.9126a26.163,26.163,0,0,0-.3032-9.3315A26.18554,26.18554,0,0,0,60.1069,1.7168Z" fill="#5c6670" stroke="#5c6670" stroke-miterlimit="3.86371" stroke-width="0.76227" fill-rule="evenodd"/><path d="M63.6455,2.6289a22.28362,22.28362,0,0,1,7.1538,10.1065,22.61033,22.61033,0,0,1,1.7451,9.9765,24.55769,24.55769,0,0,0-3.2358-1.7246,24.9125,24.9125,0,0,0-3.6406-1.4199,37.53383,37.53383,0,0,0-.042-6.876A40.26287,40.26287,0,0,0,63.6455,2.6289Z" fill="#5c6670" stroke="#5c6670" stroke-miterlimit="3.86371" stroke-width="0.76227" fill-rule="evenodd"/><path d="M39.9849,1.4121l4.0449,3.2456a22.10219,22.10219,0,0,0-.7085,6.1871,22.43722,22.43722,0,0,0,.8095,6.4917,12.82284,12.82284,0,0,0-2.8315.4052,12.94614,12.94614,0,0,0-2.3257.71,23.21752,23.21752,0,0,1-.8086-9.3315A22.91051,22.91051,0,0,1,39.9849,1.4121Z" fill="#5c6670" stroke="#5c6670" stroke-miterlimit="3.86371" stroke-width="0.76227" fill-rule="evenodd"/><path d="M36.9512,1.919a20.98547,20.98547,0,0,0-6.7749,10.4472,21.25156,21.25156,0,0,0-1.1123,9.4327,19.29717,19.29717,0,0,1,3.539-1.7242,22.35156,22.35156,0,0,1,3.5396-1.1157,26.39161,26.39161,0,0,1-.8091-6.9985A27.89842,27.89842,0,0,1,36.9512,1.919Z" fill="#5c6670" stroke="#5c6670" stroke-miterlimit="3.86371" stroke-width="0.76227" fill-rule="evenodd"/><path d="M68.2969,3.4405a32.3635,32.3635,0,0,1,12.8427,11.563c4.7818,6.9345,6.438,12.1591,6.5728,20.5903a54.19676,54.19676,0,0,0-6.3706-6.6944,52.12642,52.12642,0,0,0-5.5625-4.4628,36.724,36.724,0,0,0-1.7178-8.9263A38.06692,38.06692,0,0,0,68.2969,3.4405Z" fill="#5c6670" stroke="#5c6670" stroke-miterlimit="3.86371" stroke-width="0.76227" fill-rule="evenodd"/><polyline points="49.677 82.917 49.769 102.927 46.999 105.883 37.876 82.826 49.635 82.833" fill="#fff200" stroke="#fff200" stroke-miterlimit="3.8636" stroke-width="0.27756" fill-rule="evenodd"/><polygon points="26.127 82.793 36.378 103.173 34.192 107.607 18.03 82.793 26.127 82.793" fill="#fff200" stroke="#fff200" stroke-miterlimit="3.8636" stroke-width="0.27756" fill-rule="evenodd"/><polygon points="58.612 111.078 55.38 107.152 62.075 82.908 72.35 82.908 58.612 111.078" fill="#fff200" stroke="#fff200" stroke-miterlimit="3.8636" stroke-width="0.27756" fill-rule="evenodd"/><polygon points="6.599 82.386 17.475 81.828 34.355 107.764 31.988 112.815 6.599 82.386" fill="#ed1c24" stroke="#ed1c24" stroke-miterlimit="3.86369" stroke-width="0.87735" fill-rule="evenodd"/><polygon points="27.518 82.043 37.346 81.828 47.175 106.478 42.261 111.407 27.518 82.043" fill="#ed1c24" stroke="#ed1c24" stroke-miterlimit="3.86369" stroke-width="0.87735" fill-rule="evenodd"/><polygon points="92.835 82.821 84.31 82.821 66.24 107.945 68.424 112.071 92.835 82.821" fill="none" stroke="#231f20" stroke-miterlimit="3.8636" stroke-width="0" fill-rule="evenodd"/><polygon points="50.807 81.828 61.919 82.686 54.867 108.192 50.38 103.477 50.807 81.828" fill="#ed1c24" stroke="#ed1c24" stroke-miterlimit="3.86369" stroke-width="0.87735" fill-rule="evenodd"/><polygon points="74.098 81.828 84.141 82.686 66.192 107.764 62.773 103.691 74.098 81.828" fill="#ed1c24" stroke="#ed1c24" stroke-miterlimit="3.86369" stroke-width="0.87735" fill-rule="evenodd"/><polygon points="92.835 82.821 84.31 82.821 66.24 107.945 68.424 112.071 92.835 82.821" fill="#fff200" stroke="#fff200" stroke-miterlimit="3.8636" stroke-width="0.27756"/><path d="M26.1616,83.0352l10.0586,20.0005-4.1665,8.8691L7.8877,83.0352Zm2.2022,0,13.9277,27.7983,7.3218-8.0952V83.0352Zm23.2138,0v19.7031l6.9043,8.1548L72.2305,83.0342Zm22.8526-.001H92.3491L68.3032,111.9644l-4.3447-7.917ZM63.1064,106.2964l-3.185,6.3692,3.9331,6.6567,3.2807-5.5415Zm-11.4008-.4619-.0479,7.1182,3.1055,5.5893,2.8183-5.7329Zm-2.022-.0952v6.7993l-3.376,6.1304-3.0093-5.9072Zm-12.2451-.3662-3.8692,8.312,3.312,5.7803,4.1079-7.022Zm-3.917,12.1494v7.5322l2.2134-3.7895Zm8.5346-3.0098,3.1846,6.2427-3.6943,6.561-3.5982-5.9721Zm25.0791,3.1372v7.1182l-2.1342-3.5508Zm-8.2641-2.8979-2.9141,5.812,3.4238,6.2427,3.3116-5.6372Zm-8.2637.1269-3.2808,5.9244,3.2808,6.3212,3.1841-6.4648Zm.3623-45.5449,8.6123.002c-.1538-1.4121-.2461-2.7705-.3144-4.0908H50.9599Zm38.5386-4.0888H61.1592c.082,1.6943.2138,3.0922.3315,4.0913l27.6533.0068A36.59919,36.59919,0,0,0,89.5083,65.2452Zm.0439-1.9917a39.2544,39.2544,0,0,0-15.812-31.1783C62.5669,39.4766,60.9233,54.1714,61.0869,63.2408ZM72.1186,30.8955s-13.4648,7.981-12.9238,32.3497l-8.2373-.0044.001-39.0284A39.38761,39.38761,0,0,1,72.1186,30.8955ZM39.2593,69.3433l-27.9507-.0186a38.43243,38.43243,0,0,1-.395-4.0996l28.8408.0201q-.15525,1.97895-.4888,4.0888Zm1.9506.0054c.1626-1.0039.3462-2.4053.4615-4.1035h7.4419l-.0049,4.104Zm7.9092-6.1094-7.3442.0015c.2192-8.4473-2.0576-22.0865-14.1587-31.9566a38.96326,38.96326,0,0,1,21.5073-7.0683ZM26.1352,32.3662c.2779.1841,14.4991,9.6954,13.733,30.8746l-28.9883-.0103A39.30186,39.30186,0,0,1,26.1333,32.378ZM2.0122,76.1128c0-2.7182,2.564-4.9223,5.7266-4.9223H92.624c3.1626,0,5.7266,2.2041,5.7266,4.9223,0,2.7188-2.564,4.9219-5.7266,4.9219H7.7388c-3.1626,0-5.7266-2.2031-5.7266-4.9219Zm2.8799,6.3145,26.5918,31.8149v22.3096h1.9424v-7.6279l3.4072-5.7642,3.7895,6.4175v6.8789h1.9903v-7.1182l3.6469-6.561,3.4234,6.8481v6.9268h1.9741v-7.3091l3.2324-6.5444,3.5196,6.1782v7.5796H60.352v-7.5796l3.4551-5.8599,3.376,5.3975v8.0898h1.8945V114.2422L95.4658,82.4366a6.81012,6.81012,0,0,0,4.9053-6.355c0-3.7212-3.2964-6.7383-7.3633-6.7383H90.9907a41.19665,41.19665,0,1,0-81.5766.0264l-2.0518-.0264C3.2959,69.3433,0,72.3604,0,76.0821a6.79986,6.79986,0,0,0,4.8237,6.3276Z" fill="#5c6670" stroke="#5c6670" stroke-miterlimit="3.8636" stroke-width="0" fill-rule="evenodd"/><path d="M50.9697,69.334l8.6123.002c-.1538-1.4121-.2461-2.7705-.3144-4.0908H50.9599Z" fill="#f47920" fill-rule="evenodd"/><path d="M89.5083,65.2452H61.1592c.082,1.6943.2138,3.0922.3315,4.0913l27.6533.0068A36.59919,36.59919,0,0,0,89.5083,65.2452Z" fill="#f47920" fill-rule="evenodd"/><path d="M89.5522,63.2535a39.2544,39.2544,0,0,0-15.812-31.1783C62.5669,39.4766,60.9233,54.1714,61.0869,63.2408Z" fill="#f47920" fill-rule="evenodd"/><path d="M72.1186,30.8955s-13.4648,7.981-12.9238,32.3497l-8.2373-.0044.001-39.0284A39.38761,39.38761,0,0,1,72.1186,30.8955Z" fill="#f47920" fill-rule="evenodd"/><path d="M39.2593,69.3433l-27.9507-.0186a38.43243,38.43243,0,0,1-.395-4.0996l28.8408.0201q-.15525,1.97895-.4888,4.0888Z" fill="#f47920" fill-rule="evenodd"/><path d="M41.2099,69.3487c.1626-1.0039.3462-2.4053.4615-4.1035h7.4419l-.0049,4.104Z" fill="#f47920" fill-rule="evenodd"/><path d="M49.1191,63.2393l-7.3442.0015c.2192-8.4473-2.0576-22.0865-14.1587-31.9566a38.96326,38.96326,0,0,1,21.5073-7.0683Z" fill="#f47920" fill-rule="evenodd"/><path d="M26.1352,32.3662c.2779.1841,14.4991,9.6954,13.733,30.8746l-28.9883-.0103A39.30186,39.30186,0,0,1,26.1333,32.378Z" fill="#f47920" fill-rule="evenodd"/><path d="M2.0122,76.1128c0-2.7182,2.564-4.9223,5.7266-4.9223H92.624c3.1626,0,5.7266,2.2041,5.7266,4.9223,0,2.7188-2.564,4.9219-5.7266,4.9219H7.7388c-3.1626,0-5.7266-2.2031-5.7266-4.9219Z" fill="#0082ca" stroke="#0082ca" stroke-miterlimit="3.8636" stroke-width="0" fill-rule="evenodd"/><line x1="49.1201" y1="63.2408" x2="49.0537" y2="63.2408" fill="none" stroke="#ed1c24" stroke-miterlimit="3.86369" stroke-width="0.1245"/><path d="M92.3042,74.3565h1.4263V72.8941H89.1514v1.4624h1.4272v5.1777h1.7256Zm-3.9966,0V72.8941H84.5298v6.6401h3.7778V78.0723H86.2558V76.9278h1.9463V75.4659H86.2558V74.3565Zm-8.9995,1.2763L79.29,72.8941H77.5644v6.6401H79.29V76.6543l2.2461,2.8799h2.2363l-2.8789-3.4961,2.6412-3.144H81.395Zm-3.126-2.3686a4.54394,4.54394,0,0,0-2.0776-.5459,2.15221,2.15221,0,0,0-2.2901,2.228c0,1.2852.7129,1.5669,1.7964,1.876.3701.1055,1.0479.2725,1.0479.7568,0,.4663-.4312.669-.8364.669a2.36664,2.36664,0,0,1-1.5323-.6865l-.7397,1.3911a4.097,4.097,0,0,0,2.3335.7578,2.91375,2.91375,0,0,0,1.8843-.6255,2.25526,2.25526,0,0,0,.687-1.7876c0-1.0742-.7134-1.541-1.6382-1.8145l-.44-.1318c-.2993-.0967-.7661-.2466-.7661-.6338,0-.3701.4224-.5547.7398-.5547a1.81425,1.81425,0,0,1,1.1445.44ZM68.751,78.3804l.4316,1.1538h1.8403L68.522,72.8941H66.6372L64.084,79.5342h1.8315l.458-1.1538Zm-.4663-1.3208H66.8491l.7134-2.1133Zm-7.1929,2.4746c1.2153,0,2.4038-.4585,2.4038-1.8491a1.492,1.492,0,0,0-1.356-1.6909,1.42058,1.42058,0,0,0,.731-1.374c0-1.2681-.7925-1.7261-1.9727-1.7261H58.4321v6.6401Zm-.9336-2.7475h.1763c.5634,0,1.4174-.0796,1.4174.7221,0,.731-.8628.7046-1.3735.7046h-.2202Zm0-2.5713h.1235c.4663,0,1.0034.0346,1.0034.6425,0,.564-.4751.6431-.9331.6431h-.1938Zm-8.1338,4.165.4316,1.1538h1.8399l-2.5005-6.6401H49.9106l-2.5537,6.6401H49.189l.4575-1.1538Zm-.4668-1.3208H50.1221l.7138-2.1133Zm-5.0205-4.1655H44.8115v6.6401h1.7256Zm-3.0825.1587a4.04893,4.04893,0,0,0-1.5762-.3345,3.59841,3.59841,0,0,0-2.5273,1.0742,3.47446,3.47446,0,0,0-.9776,2.4307,3.24443,3.24443,0,0,0,1.0659,2.5093,3.69447,3.69447,0,0,0,2.4917.978,4.88345,4.88345,0,0,0,1.5235-.3086V77.333a1.98768,1.98768,0,0,1-1.4883.7041,1.72217,1.72217,0,0,1-1.7964-1.8056,1.74868,1.74868,0,0,1,1.77-1.8399,1.87166,1.87166,0,0,1,1.5147.731ZM30.6592,79.5342h1.726V75.4659l3.1788,4.0683H37.29V72.8941H35.564v4.0595l-3.1788-4.0595h-1.726Zm-1.3545-5.1777V72.8941H25.5268v6.6401h3.7779V78.0723H27.2524V76.9278h1.9468V75.4659H27.2524V74.3565ZM22.604,72.8941H20.8784v6.6401h3.7954V78.0723H22.604Zm-4.8242,5.4863.4316,1.1538h1.8399l-2.5005-6.6401H15.6665l-2.5537,6.6401h1.831l.458-1.1538Zm-.4668-1.3208H15.8779l.7134-2.1133ZM8.6914,72.8941H6.8159l2.7915,6.6401h1.3384l2.8359-6.6401h-1.876l-1.6118,4.0337Z" fill="#022169" fill-rule="evenodd"/><path d="M105.5244,77.1548h2.8833V73.4453h.0918a7.706,7.706,0,0,0,2.9761,3.2471,8.53322,8.53322,0,0,0,4.3183,1.0122,8.84529,8.84529,0,0,0,5.3501-1.6338,9.64943,9.64943,0,0,0,3.208-4.3545,17.17143,17.17143,0,0,0,1.0684-6.2519,15.13781,15.13781,0,0,0-2.2334-8.7866q-2.27715-3.3552-7.3931-3.4541a8.22186,8.22186,0,0,0-3.8379.9091,8.09884,8.09884,0,0,0-2.4013,1.9068,5.889,5.889,0,0,0-1.0552,1.6733h-.0918V42.7691h-2.8833Zm16.7378-11.6904a16.793,16.793,0,0,1-.5728,4.5513,7.86694,7.86694,0,0,1-2.1118,3.6948,6.02306,6.02306,0,0,1-4.2422,1.5239,5.72863,5.72863,0,0,1-4.0796-1.5845,8.7477,8.7477,0,0,1-2.1938-3.7568,15.02327,15.02327,0,0,1-.6543-4.4287,15.54407,15.54407,0,0,1,.6235-4.4287,8.5593,8.5593,0,0,1,2.1631-3.7564,5.80135,5.80135,0,0,1,4.1411-1.5849,6.02306,6.02306,0,0,1,4.2422,1.5239,7.86694,7.86694,0,0,1,2.1118,3.6948A16.7955,16.7955,0,0,1,122.2622,65.4644Z" fill="#f68b1f" fill-rule="evenodd"/><path d="M142.2236,77.1548h2.8374a21.72062,21.72062,0,0,1-.2002-2.3457q-.0351-1.16595-.0293-2.5566V61.9356q.03015-4.5498-1.9345-6.6446-1.9644-2.0946-6.2701-2.0673a16.31414,16.31414,0,0,0-3.5444.4751,16.7886,16.7886,0,0,0-3.3359,1.1264v2.7964a11.9292,11.9292,0,0,1,3.3359-1.48,13.531,13.531,0,0,1,3.5444-.4472q2.8917.0021,4.1241,1.5088a6.87573,6.87573,0,0,1,1.1987,4.5029v1.1933h-.5518a41.00353,41.00353,0,0,0-6.4243.3853,11.55716,11.55716,0,0,0-5.5869,2.2085q-2.28885,1.7586-2.3872,5.6123a7.112,7.112,0,0,0,.519,2.6489,5.81978,5.81978,0,0,0,2.2305,2.7085,8.88486,8.88486,0,0,0,4.9512,1.2417,9.18376,9.18376,0,0,0,4.3183-1.104,7.072,7.072,0,0,0,3.1138-3.2016h.0913Zm-.2739-10.3628a15.50351,15.50351,0,0,1-.2881,3.3106,6.66282,6.66282,0,0,1-1.8271,3.5039q-1.47885,1.5417-4.8135,1.6279a5.64153,5.64153,0,0,1-3.4287-.958,3.84929,3.84929,0,0,1-1.4341-3.2632,4.47946,4.47946,0,0,1,1.7319-3.7471,9.174,9.174,0,0,1,4.168-1.5751,32.2213,32.2213,0,0,1,5.0654-.3213h.8262Z" fill="#f68b1f" fill-rule="evenodd"/><path d="M147.1133,76.607a14.69655,14.69655,0,0,0,3.2065.8579,21.64814,21.64814,0,0,0,3.3477.2397,11.075,11.075,0,0,0,3.686-.622,7.17338,7.17338,0,0,0,3.1436-2.0987,6.3718,6.3718,0,0,0-.4683-8.334,13.79852,13.79852,0,0,0-3.9565-2.5615,41.04865,41.04865,0,0,1-3.9561-1.9424,3.10494,3.10494,0,0,1-1.7983-2.5532,3.4164,3.4164,0,0,1,1.4052-3.0674,6.53369,6.53369,0,0,1,3.6416-.831,13.16346,13.16346,0,0,1,2.6265.2925,12.44013,12.44013,0,0,1,2.5547.8085l.2744-2.5229a16.88479,16.88479,0,0,0-3.1958-.8145,17.37213,17.37213,0,0,0-2.5806-.2343,9.09858,9.09858,0,0,0-5.2505,1.4487,5.6988,5.6988,0,0,0-2.3584,4.9204,5.0032,5.0032,0,0,0,1.7544,3.8755,15.61512,15.61512,0,0,0,3.8628,2.3232,21.97435,21.97435,0,0,1,3.8614,2.0904,3.87708,3.87708,0,0,1,1.7558,3.1787,3.73535,3.73535,0,0,1-1.5605,3.0845,6.08593,6.08593,0,0,1-3.625,1.0893,13.27193,13.27193,0,0,1-3.2388-.4072,14.00918,14.00918,0,0,1-2.8564-1.0606Z" fill="#f68b1f" fill-rule="evenodd"/><polygon points="164.575 77.155 167.458 77.155 167.458 65.141 179.014 77.155 183.003 77.155 170.21 64.132 181.628 53.774 177.913 53.774 167.458 63.353 167.458 42.769 164.575 42.769 164.575 77.155" fill="#f68b1f" fill-rule="evenodd"/><path d="M200.64349,73.4912a11.82772,11.82772,0,0,1-3.0024,1.1983,14.35854,14.35854,0,0,1-3.5542.5449,7.06248,7.06248,0,0,1-5.7461-2.6152,10.07227,10.07227,0,0,1-1.9619-6.3321H202.3833V64.8228a16.63774,16.63774,0,0,0-.94481-5.7998,9.02886,9.02886,0,0,0-3.01219-4.1885,8.75936,8.75936,0,0,0-5.34871-1.6108,8.89673,8.89673,0,0,0-7.1479,3.4375,14.03058,14.03058,0,0,0-2.709,8.8022,14.17523,14.17523,0,0,0,2.41161,8.7525q2.47259,3.3822,8.22509,3.4887a19.31752,19.31752,0,0,0,3.4458-.331,17.31412,17.31412,0,0,0,3.3403-.9497Zm-14.2646-9.6748a9.36616,9.36616,0,0,1,.8369-3.8193,7.91863,7.91863,0,0,1,2.3643-3.0537,5.994,5.994,0,0,1,3.6811-1.249,5.18257,5.18257,0,0,1,3.4624,1.1982,6.6428,6.6428,0,0,1,1.9136,3.0029,12.45946,12.45946,0,0,1,.5884,3.9209Z" fill="#f68b1f" fill-rule="evenodd"/><path d="M215.43459,53.774h-5.3184V47.1255l-2.8833,1.0088V53.774H202.647v2.4707h4.5859V69.9141a22.00853,22.00853,0,0,0,.2368,3.916,4.67964,4.67964,0,0,0,1.4185,2.8027,5.38528,5.38528,0,0,0,3.6582,1.0718,10.37181,10.37181,0,0,0,2.0405-.2173,9.08948,9.08948,0,0,0,1.4897-.4228l-.1826-2.3804a8.69108,8.69108,0,0,1-1.2275.3955,6.24331,6.24331,0,0,1-1.4326.1548,2.76658,2.76658,0,0,1-2.4361-1.1352,4.768,4.768,0,0,1-.6816-2.7178V56.2447h5.3184Z" fill="#f68b1f" fill-rule="evenodd"/><path d="M120.5137,94.6153a16.976,16.976,0,0,0-2-.5357,17.16684,17.16684,0,0,0-3.4229-.3403,10.74255,10.74255,0,0,0-8.0498,3.2876,12.18754,12.18754,0,0,0-3.0561,8.4814,14.17858,14.17858,0,0,0,1.1811,5.835,9.93055,9.93055,0,0,0,3.5703,4.2754,10.72017,10.72017,0,0,0,6.0015,1.6597,24.32316,24.32316,0,0,0,2.9712-.1485,13.31338,13.31338,0,0,0,2.8047-.643l-.2642-2.5987a17.89028,17.89028,0,0,1-2.5024.7388,12.383,12.383,0,0,1-2.5679.2759,7.52841,7.52841,0,0,1-5.9805-2.7784,10.389,10.389,0,0,1-2.1767-6.6162,10.165,10.165,0,0,1,2.1987-6.7475,7.95966,7.95966,0,0,1,6.2666-2.6465,10.22883,10.22883,0,0,1,2.4033.3252,14.86723,14.86723,0,0,1,2.4028.8218Z" fill="#231f20" fill-rule="evenodd"/><rect x="125.3081" y="83.6861" width="2.7725" height="33.063" fill="#231f20"/><path d="M152.7007,94.2681h-2.772v12.4336a11.69352,11.69352,0,0,1-.6001,3.792,6.80444,6.80444,0,0,1-2.0801,3.1157,6.12512,6.12512,0,0,1-3.9819,1.2935,4.67889,4.67889,0,0,1-4.1074-1.896,8.80743,8.80743,0,0,1-1.2295-5.0708V94.2681h-2.7725v14.374a9.82706,9.82706,0,0,0,1.75,6.1695q1.79295,2.39055,5.9194,2.4668a7.13241,7.13241,0,0,0,7.2779-4.5357h.0879v4.0064h2.6845q-.12585-1.3521-.1543-2.6734-.027-1.3227-.0219-2.6118Z" fill="#231f20" fill-rule="evenodd"/><path d="M159.439,116.7491h2.7724v-3.5664h.0884a7.40169,7.40169,0,0,0,2.8613,3.122,8.202,8.202,0,0,0,4.1519.9737,8.5096,8.5096,0,0,0,5.1445-1.5713,9.27323,9.27323,0,0,0,3.085-4.187,16.53387,16.53387,0,0,0,1.0273-6.0118,14.56607,14.56607,0,0,0-2.1479-8.4482q-2.18925-3.2271-7.1089-3.3208a7.90251,7.90251,0,0,0-3.6909.8735,7.80614,7.80614,0,0,0-2.3081,1.833,5.69241,5.69241,0,0,0-1.0142,1.6094h-.0884V83.6861H159.439Zm16.0937-11.2408a16.11045,16.11045,0,0,1-.5503,4.376,7.57151,7.57151,0,0,1-2.0308,3.5532,5.79311,5.79311,0,0,1-4.08,1.4654,5.50969,5.50969,0,0,1-3.9224-1.524,8.40469,8.40469,0,0,1-2.1084-3.6113,14.42385,14.42385,0,0,1-.6294-4.2593,14.91921,14.91921,0,0,1,.5996-4.2583,8.21391,8.21391,0,0,1,2.0801-3.6118,5.57231,5.57231,0,0,1,3.9805-1.5239,5.79061,5.79061,0,0,1,4.08,1.4658,7.57049,7.57049,0,0,1,2.0308,3.5523A16.11911,16.11911,0,0,1,175.53269,105.5083Z" fill="#231f20" fill-rule="evenodd"/></svg>