<svg height="302.979991" viewBox="0 0 223.1 205" width="330.054799" xmlns="http://www.w3.org/2000/svg"><g><g><path d="m85 204.7-1.1-2.9h-6.5l-1.2 2.9h-4l6.6-15.1h4.3l5.9 15.1zm-4.1-11.3-2.3 5.7h4.5l-2.1-5.7z"/><path d="m100.3 204.7-5.8-7.1v7.1h-3.8v-15.1h3.8v6.7l5.1-6.7h4.2l-5.3 7 6.7 8.1z"/><path d="m114.5 192.4v12.3h-4v-12.3h-5v-2.8h14v2.8z"/><path d="m136.3 197.2c0 2.3-.8 4.1-2.3 5.6-1.6 1.5-3.5 2.2-5.9 2.2s-4.3-.7-5.8-2.2c-1.6-1.5-2.4-3.4-2.4-5.6s.8-4.2 2.4-5.7c1.5-1.4 3.4-2.1 5.8-2.1s4.4.7 5.9 2.1c1.6 1.5 2.4 3.4 2.4 5.7zm-4 0c0-1.4-.4-2.5-1.2-3.3-.8-.9-1.9-1.3-3.1-1.3s-2.3.4-3.1 1.3-1.2 2-1.2 3.3.4 2.5 1.2 3.3c.8.9 1.9 1.3 3.1 1.3s2.3-.4 3.1-1.3 1.2-2 1.2-3.3z"/><path d="m146.7 204.7-1.9-4.3c-.3-.7-.7-1.2-1-1.4-.4-.3-1-.4-1.7-.4h-.2s-.1 0-.2 0v6.1h-3.8v-15.1h5.6c4 0 6 1.5 6 4.4s-.9 2.8-2.6 3.6c.7.3 1.3.9 1.8 1.9l2.4 5.2h-4.3zm-1.2-10.7c0-1.2-.7-1.7-2.1-1.7h-1.8v3.5h1.8c1.4 0 2.1-.6 2.1-1.8z"/></g><g><path d="m11.6 170.1c0 3.1-2.1 4.7-6.3 4.7h-1.5v5.9h-3.8v-15.1h5.6c4 0 6 1.5 6 4.5zm-3.9 0c0-1.1-.7-1.7-2.1-1.7h-1.8v3.4h1.8c1.4 0 2.1-.6 2.1-1.7z"/><path d="m24.6 180.7-1.1-2.9h-6.5l-1.2 2.9h-4l6.6-15.1h4.4l5.9 15.1h-4zm-4.2-11.3-2.3 5.7h4.5l-2.1-5.7z"/><path d="m41.8 180.7-8.4-9.5v9.5h-3.7v-15.1h3.3l8.1 9v-9h3.7v15.1z"/><path d="m58.6 180.7-1.1-2.9h-6.5l-1.2 2.9h-4l6.6-15.1h4.4l5.9 15.1h-4zm-4.1-11.3-2.3 5.7h4.5l-2.1-5.7z"/><path d="m71.3 168.4v12.3h-4v-12.3h-5v-2.8h14v2.8z"/><path d="m88.4 180.7v-6.1h-6.7v6.1h-3.8v-15.1h3.8v6.1h6.7v-6.1h3.8v15.1z"/><path d="m95.3 180.7v-15.1h3.9v15.1z"/><path d="m114.4 180.7-8.4-9.5v9.5h-3.7v-15.1h3.3l8.1 9v-9h3.7v15.1z"/><path d="m131.2 180.7-1.1-2.9h-6.5l-1.2 2.9h-4l6.6-15.1h4.4l5.9 15.1h-4zm-4.2-11.3-2.3 5.7h4.5l-2.1-5.7z"/><path d="m136.3 180.7v-15.1h3.9v15.1z"/><path d="m152.9 180.7-5.8-7.1v7.1h-3.8v-15.1h3.8v6.7l5.1-6.7h4.2l-5.3 7 6.7 8.1z"/><path d="m174.3 173.2c0 2.3-.8 4.1-2.3 5.6-1.6 1.5-3.5 2.2-5.9 2.2s-4.3-.7-5.8-2.2c-1.6-1.5-2.4-3.4-2.4-5.6s.8-4.2 2.4-5.7c1.5-1.4 3.4-2.1 5.8-2.1s4.4.7 5.9 2.1c1.6 1.5 2.4 3.4 2.4 5.7zm-3.9 0c0-1.4-.4-2.5-1.2-3.3-.8-.9-1.9-1.3-3.1-1.3s-2.3.4-3.1 1.3-1.2 2-1.2 3.3.4 2.5 1.2 3.3c.8.9 1.9 1.3 3.1 1.3s2.3-.4 3.1-1.3 1.2-2 1.2-3.3z"/><path d="m187.5 176.5c0 1.4-.5 2.5-1.6 3.3-1 .8-2.5 1.2-4.4 1.2s-3.6-.5-5.2-1.5v-3.4c2.1 1.3 3.8 1.9 5.1 1.9s2.3-.4 2.3-1.3-.2-.8-.5-1c-.2-.2-.7-.4-1.5-.7-2-.7-3.4-1.4-4.2-2.1-.9-.8-1.4-1.9-1.4-3.2s.5-2.3 1.6-3.1c1-.8 2.4-1.2 4.1-1.2s3.4.4 5.1 1.2v3.1c-2-1-3.6-1.5-4.9-1.5s-2.2.4-2.2 1.2.7 1.2 2 1.7c1.2.5 1.9.7 2 .7.7.3 1.3.6 1.8.9 1.3.8 2 2.1 2 3.8z"/><path d="m207.7 176.4c0 2.9-2 4.3-6 4.3h-6.7v-15.1h5.6c4 0 6 1.3 6 3.9s-.7 2.4-2 3c2.1.7 3.1 2 3.1 3.9zm-4.9-6.4c0-1.1-.7-1.7-2-1.7h-1.9v3.3h1.9c1.3 0 2-.5 2-1.6zm.9 6.2c0-1.3-.9-1.9-2.7-1.9h-2.2v3.7h2.2c1 0 1.7-.1 2.1-.4s.6-.7.6-1.4z"/><path d="m223.1 179.4c-1.8 1-3.7 1.5-5.8 1.5s-4.4-.7-5.9-2.1c-1.6-1.5-2.3-3.4-2.3-5.7s.8-4.2 2.3-5.7c1.6-1.4 3.6-2.2 6.2-2.2s3.6.4 5.3 1.2v3.5c-1.7-1.1-3.3-1.6-5-1.6s-2.7.4-3.6 1.2-1.3 2-1.3 3.4.4 2.5 1.2 3.4 2 1.3 3.4 1.3 3.6-.6 5.5-1.9v3.5z"/></g></g><g fill="#fff200"><path d="m186.5 43.6-6.8 1-4.5-5.1-1.4 6.8-6.3 2.9 6.1 3.2.6 6.8 5-4.8 6.8 1.4-3-6.2z"/><path d="m165.5 28 1.2-6.8-6 3.2-6.1-3.2 1.1 6.8-4.9 4.9 6.7 1 3 6.1 3.1-6.2 6.8-1z"/><path d="m140.8 5.6-4.6 5.1-6.8-.9 3.4 6-3 6.2 6.7-1.4 4.8 4.8.8-6.8 6-3.3-6.2-2.9z"/><path d="m36.6 43.6 6.8 1 4.6-5.1 1.3 6.8 6.3 2.9-6 3.2-.7 6.8-5-4.8-6.7 1.4 2.9-6.2z"/><path d="m57.6 28-1.2-6.8 6.1 3.2 6-3.2-1.1 6.8 4.9 4.9-6.7 1-3 6.1-3.1-6.2-6.7-1z"/><path d="m82.4 5.6 4.6 5.1 6.7-.9-3.3 6 3 6.2-6.7-1.4-4.9 4.8-.8-6.8-6-3.3 6.2-2.9z"/><path d="m112 0 3.1 6.2 6.8.8-4.9 4.9 1.3 6.9-6.1-3.1-6 3.3 1.1-6.9-5-4.7 6.8-1.1z"/></g><path d="m172.2 87.7c0 33.8-26.9 61.2-60.1 61.2s-60.1-27.4-60.1-61.2 26.9-61.2 60.1-61.2 60.1 27.4 60.1 61.2z" fill="#f7921e"/><path d="m110.5 23.6h2.4v42.2h-2.6z" fill="#030303"/><path d="m135.1 34.9s20.7 4.6 29.6 29.6c0 0-9.1-20.6-29.6-29.6z" fill="#030303"/><path d="m89.5 34.7s-20.7 4.6-29.6 29.6c0 0 9.1-20.6 29.6-29.6z" fill="#030303"/><path d="m83.5 28.3s20.6-6.2 15.3 11.1c0 0-.4 3.6-9.6 16.9 0 0-9.3 13.3-15.8 27.9 0 0-17.3 32.3 13.3 51.3 0 0-33.6-13.5-15.6-52.7 0 0 7.4-16.9 18.5-32.1 0 0 10-13.7 6.5-18.6 0 0-3.1-4-12.7-3.6z" fill="#030303"/><path d="m140 28.3s-20.2-6.2-14.9 11.1c0 0 .4 3.6 9.6 16.9 0 0 9.3 13.3 15.8 27.9 0 0 17.3 32.3-13.3 51.3 0 0 33.6-13.5 15.6-52.7 0 0-7.4-16.9-18.5-32.1 0 0-10-13.7-6.5-18.6 0 0 2.7-4 12.2-3.6z" fill="#030303"/><path d="m112 65s10.1-6.3 13.8 5.7c0 0 2.1 6-5.5 13.1 0 0-4.4 4.3-2.7 5.6 0 0 1.1.7 4-3.8 0 0 9.5-15 17.2-6.9 0 0 2.8 3.2 1.2 10.1 0 0-1 4.3.2 5.9 0 0 3.5 5.1 1.4 9.5-.2.3-3 8.2-11.3 5.1 0 0-4.8-1.8-7.9-4.8 0 0-4.3-4.9-6.3-4.5s-2.2 6.5-2.4 9.9c0 0 .4 11.6 1.5 13.5 0 0 0 1.2-2.8-.2 0 0-4.4-1.8-4.7-4.6 0 0 2.2-11 2.1-13.7 0 0 1-7.4-2.5-5.5 0 0-2.9 2.7-6.4 6.8 0 0-6.1 6.9-13 4.1 0 0-8.1-2.5-4.4-13.4 0 0 1-2.5.4-5.9 0 0-3.2-8.2 2.1-11.3 0 0 6-3.5 10 .9 0 0 3.6 4.1 5.5 6.5 0 0 3.9 4.6 4.8 2.1 0 0 .9-1.6-5.4-6.6 0 0-8.3-6.9-4.5-13.6 0 0 3.7-7.5 12.2-4.4 0 0 2.2.9 3.4.3z" fill="#006940"/><path d="m97.3 99.5h-2.3v-8.5h-3.5v8.5h-2.3v-10.5h8.2v10.5z" fill="#fff"/><path d="m109.9 79.1-.7 2.7h-2.4l3.2-10.5h3.1l3.2 10.5h-2.5l-.8-2.7h-3zm2.6-1.8-.6-2.2c-.2-.6-.4-1.4-.5-2-.1.6-.3 1.4-.5 2l-.6 2.2h2.3z" fill="#fff"/><path d="m130.5 99.7c-3 0-4.9-2.4-4.9-5.4s2-5.5 5-5.5 4.9 2.4 4.9 5.3-2 5.5-5.1 5.5zm.2-1.9c1.6 0 2.5-1.5 2.5-3.6s-.9-3.5-2.5-3.5-2.5 1.6-2.5 3.6.9 3.5 2.5 3.5z" fill="#fff"/><path d="m101.8 135.6s-1.8.4-1.8.4v-1.6s2.5-.6 2.5-.6l1.6.3-1.7 8.7-1.9-.4 1.4-6.9z" fill="#006940"/><path d="m105.9 142h.9c.6 0 1.3-.1 1.8-.4.6-.3 1-.9 1.2-1.5-.4.4-1 .5-1.8.5-1.5-.1-2.6-1.3-2.5-3s1.6-3.1 3.6-2.9c2.2.2 3.1 2 3 4.1-.2 1.9-.9 3.1-1.9 3.9-.9.7-2.1 1-3.4.9-.3 0-.7 0-.9 0zm3-5.8c-.7 0-1.2.5-1.3 1.4 0 .8.3 1.5 1.1 1.5.6 0 1-.2 1.2-.5 0-.1.1-.3.1-.5 0-.9-.2-1.9-1.1-2z" fill="#006940"/><path d="m115.8 144.1c-2.3 0-3.3-1.9-3.4-4.5 0-2.6.9-4.6 3.1-4.7 2.3 0 3.3 2 3.4 4.4 0 2.7-.9 4.7-3.1 4.8zm-.1-1.6c.8 0 1.2-1.1 1.1-3.1 0-2-.5-3-1.3-3s-1.2 1-1.1 3.1c0 2 .6 3 1.4 3z" fill="#006940"/><path d="m121.7 134.2c2-.4 3 .7 3.2 1.7.1.8-.1 1.6-.9 2.2.9.2 1.8.8 2 1.9.3 1.6-.8 2.9-2.8 3.3-2.2.4-3.4-.7-3.6-1.9-.2-1 .3-1.9 1.1-2.5-.9-.3-1.4-1-1.6-1.7-.3-1.5.9-2.7 2.6-3zm.1 1.4c-.7.1-.9.7-.9 1.2.1.6.7.9 1.4 1 .4-.2.8-.7.7-1.3 0-.6-.5-1-1.2-.9zm1.2 6.2c.7-.1 1.1-.7 1-1.3-.1-.8-.8-1.1-1.6-1.2-.6.3-.9.9-.8 1.5 0 .6.7 1.1 1.4 1z" fill="#006940"/><path d="m48.1 88.5s15.7-43.9 63.8-43.9c0 0 48-2.3 64.4 44.6 0 0-17.9-43.5-64.3-42 0 0-39.9-4.2-63.9 41.3z" fill="#030303"/></svg>