<svg enable-background="new 0 0 1024 1024" height="316.227766" viewBox="0 0 1024 1024" width="316.227766" xmlns="http://www.w3.org/2000/svg"><circle cx="512" cy="512" r="487.2"/><g fill="#fff"><path d="m512 24.8c269.1 0 487.2 218.1 487.2 487.2s-218.1 487.2-487.2 487.2-487.2-218.1-487.2-487.2 218.1-487.2 487.2-487.2m0-12.8c-133.6 0-259.1 52-353.6 146.4-94.4 94.5-146.4 220-146.4 353.6s52 259.1 146.4 353.6c94.5 94.4 220 146.4 353.6 146.4s259.1-52 353.6-146.4c94.4-94.5 146.4-220 146.4-353.6s-52-259.1-146.4-353.6c-94.5-94.4-220-146.4-353.6-146.4z"/><path d="m721.8 302.1c-115.9-115.9-303.7-115.9-419.6 0s-115.9 303.7 0 419.6 303.7 115.9 419.6 0c115.8-115.9 115.8-303.8 0-419.6zm46.3 86.3c-5.4-2.2-11-4.1-16.7-5.7-14.2-3.8-29.7-5.6-45.3-2.6-9.3 1.6-18.4 5.4-26.5 10.7-7-8.4-14.2-16.6-21.9-24.4l59.5-51.6c21.4 22.2 38.3 47.1 50.9 73.6zm-59-81.8-51.6 59.5c-7.7-7.5-15.7-14.7-24-21.5 4.3-6.8 7.4-14.2 8.9-22 3.2-15.7 1.1-31.2-3.1-45.3-2.7-8.6-6.2-16.7-10.2-24.5 28.8 12.8 56 30.8 80 53.8zm-92.4-58.8c4.3 10.7 7.9 21.7 9.8 32.7 2.4 13 2.6 26.3-1.1 37.8-1.7 5.2-4.1 10-7.2 14.3-13-9.7-26.7-18.5-41-26.1-29.6-15.6-61.3-27.5-94.2-33.4-32.8-6.1-66.9-6.6-99.6.3-10.8 2.4-21.4 5.7-31.7 9.8 77.6-57.2 178-68.9 265-35.4zm-296.9 62.8c4.3-4.3 8.7-8.3 13.1-12.2 2.1-.9 4.1-1.9 6.2-2.8 14.8-6 30.4-9.8 46.1-11.7 31.5-4.2 63.5-1.4 94.3 5.8 30.7 7.5 60.4 19.1 87.8 34.8 12.2 6.8 23.9 14.5 35.1 22.8-9.6 6.2-20.9 10.4-32.7 13.5-6.1 1.5-13.4 2.9-19.4 4-6.3 1-13 1.6-19.8 2.1-27.2 1.8-55.4 2.5-83.6 4.6s-56.6 5.5-84.7 11.6c-28 6.1-55.9 14.8-81.9 28.4-11 5.7-21.6 12.4-31.4 20 12.6-44.4 36.2-86.1 70.9-120.9zm15.8 407.9 300.7-331-331 300.6c-55.9-65.2-76.7-150-62.5-229.9 14.2-11.3 30.2-20.4 46.9-27.6 24.6-10.6 50.9-17.6 77.7-22.4 26.8-4.9 54.1-7.7 81.7-9.8 27.6-2.2 55.3-3.2 83.9-6.2 7.2-.8 14.4-1.7 21.9-3.2 7.7-1.7 14.1-3.4 21.4-5.5 14.3-4.4 28.5-10.7 41-20.7.8-.7 1.6-1.4 2.4-2.1 7.8 6.6 15.4 13.5 22.7 20.8 7.5 7.4 14.5 15.2 21.3 23.3-10.1 11.7-16.8 25.4-21.5 39.2-1.3 3.6-2.3 7.2-3.3 10.8l-2.7 10.6c-1.7 7.7-2.8 15-3.6 22.2-3.2 28.9-4.1 56.8-6.4 84.7-2.1 27.8-4.8 55.4-9.7 82.5-4.7 27-11.7 53.6-22.2 78.5-7.2 16.9-16.3 33.1-27.6 47.5-80.3 14.7-165.6-6.1-231.1-62.3zm392.7-33.8c-.8 2.1-1.8 4.1-2.8 6.1-3.9 4.5-8 8.9-12.2 13.1-34.5 34.5-75.9 58-119.7 70.6 7.7-10.1 14.4-20.8 20.1-32 13.5-26.2 22.1-54.4 28.1-82.7 5.9-28.4 9.2-57 11.3-85.4s2.7-56.9 4.7-84.2c.5-6.8 1.3-13.5 2.4-19.6l2-10c.8-3.2 1.5-6.4 2.4-9.5 3-10.4 7-20.3 12.6-28.9 26.7 36.4 46.5 78 57.1 122.1 7.2 30.7 10 62.8 5.8 94.3-2.1 15.7-5.9 31.3-11.8 46.1zm22.1-44.3c6.9-32.7 6.4-66.7.3-99.6-5.9-32.9-17.8-64.6-33.4-94.2-7.6-14.1-16.2-27.6-25.7-40.5 5.4-4.1 11.6-7.2 18.4-9.3 11.9-3.6 25.4-3.5 38.6-1.6 8.4 1.2 16.8 3.3 25 5.8 36.5 88.4 25.4 191.8-33.1 271.1 4.3-10.2 7.5-20.8 9.9-31.7z"/><path d="m117.4 424.9c1.5-7 1-13.2-1.7-18.7-2.9-5.8-7.5-9.5-14-10.9l-22-4.8c-3.2-.7-6.3-.1-9.1 1.9s-4.6 4.6-5.3 8l-8.3 37.4 85.2 18.8 3.7-16.9-30.4-6.7zm-15.8-3.4-1.8 8-23.3-5.1 3.5-16 17.8 3.9c3.8.7 5 3.8 3.8 9.2z"/><path d="m85.7 337.9 72.9 50.8 7.1-16-14.7-10.5 6-13.5 17.6 4 7.1-16.1-86.7-19.8zm55.2 7.2-3.4 7.7-32.3-18.9z"/><path d="m186 259.2c-.2-5.6-2.6-10-7.3-13.3l-18.3-13c-2.7-1.9-5.7-2.5-9.1-1.8-3.3.7-6 2.5-8 5.3l-22.2 31.2 71.1 50.6 10-14.1-25.3-18 5.9-8.3c1-1.3 2.2-2.2 3.8-2.6s3.1-.1 4.4.9l20.7 14.7 10-14.1-20.7-14.7c-4.6-3.6-9.7-4.5-15-2.8zm-16.3 9-5.9 8.3-19.5-13.8 9.5-13.4 14.9 10.6c1.3.9 2 2.2 2.2 3.8.1 1.7-.3 3.2-1.2 4.5z"/><path d="m206.7 175.7h17.3v87.3h-17.3z" transform="matrix(.7061 -.7081 .7081 .7061 -92.0301 216.9961)"/><path d="m282.4 217.6 20.7-14.9c2.8-2 4.6-4.7 5.3-8.1s.1-6.4-1.9-9.1l-10.5-14.6c-3.9-5.4-9.1-8.3-15.6-8.6-6.1-.3-12.1 1.6-17.9 5.8-4.4 3.2-7.7 3.3-9.9.2l-8.1-11.2 13.3-9.6 7.8 10.8 14.1-10.1-10.3-14.2c-1.9-2.7-4.6-4.2-8-4.6s-6.5.4-9.3 2.4l-20.7 14.9c-2.8 2-4.6 4.7-5.3 8.1s-.1 6.4 1.9 9.1l10.5 14.6c3.9 5.4 9.1 8.3 15.6 8.6 6.1.3 12.1-1.6 17.9-5.8 4.4-3.2 7.7-3.3 9.9-.2l8.1 11.2-13.3 9.6-7.8-10.8-14.1 10.1 10.3 14.3c1.9 2.7 4.6 4.2 8 4.6 3.3.3 6.4-.5 9.3-2.5z"/><path d="m413 120.3c-1.9-6-5.8-9.8-11.8-11.5 2.6-4.3 3.1-9 1.5-14l-5.5-17.1c-1-3.1-3.1-5.4-6.2-6.9-3.1-1.4-6.4-1.6-9.7-.5l-34.3 10.8 26.5 83.1 24.3-7.7c6.8-2.2 11.9-5.8 15.3-10.9 3.6-5.4 4.4-11.3 2.4-17.6zm-44.6-29.1 13.6-4.3 4.2 13.1c.5 1.5.3 2.9-.6 4.4-.9 1.4-2.1 2.3-3.7 2.9l-7.6 2.4zm24.4 49.9-7.8 2.5-5.9-18.5 9.7-3.1c1.6-.5 3.1-.4 4.6.2 1.5.7 2.5 1.8 3 3.3l2.5 7.7c1.2 3.6-.8 6.3-6.1 7.9z"/><path d="m473.1 52.8-22.9 2.4-7.6 88.6 17.4-1.8 1.6-18 14.7-1.6 5.3 17.2 17.5-1.9zm-10.1 54.8.3-37.4 8.2 36.5z"/><path d="m566.5 138.4c2.7-2.1 4.3-4.8 4.6-8.1l1.6-17.9c.6-6.6-1.5-12.2-6.2-16.7-4.4-4.2-10.2-6.7-17.3-7.3-5.4-.5-8-2.6-7.7-6.3l1.2-13.7 16.3 1.5-1.1 13.1 17.3 1.6 1.6-17.5c.3-3.3-.7-6.2-3-8.8-2.3-2.5-5.2-3.9-8.6-4.2l-25.4-2.3c-3.5-.3-6.5.6-9.2 2.6-2.7 2.1-4.3 4.8-4.6 8.1l-1.6 17.9c-.6 6.6 1.5 12.2 6.2 16.7 4.4 4.2 10.2 6.7 17.3 7.3 5.4.5 8 2.6 7.7 6.3l-1.2 13.7-16.3-1.5 1.2-13.3-17.3-1.6-1.6 17.5c-.3 3.3.7 6.2 3 8.8 2.3 2.5 5.2 3.9 8.6 4.2l25.4 2.3c3.3.5 6.4-.4 9.1-2.4z"/><path d="m670.1 78-16.9-5-20.4 31-6.4-1.9 10.2-34.1-16.6-4.9-25 83.6 16.7 5 10.1-34.1 6.4 1.9.1 37.1 16.9 5.1-.1-45.6z"/><path d="m706.1 191.6 7.5-14.3-25.5-13.4 9-17.2 21.2 11.2 7.6-14.4-21.3-11.1 9-17.2 25.5 13.4 7.5-14.3-40.9-21.4-40.5 77.3z"/><path d="m734.8 211.5 13.6 10.7 43.8-56.1 13.3 10.4 9.9-12.7-40.2-31.4-9.9 12.7 13.3 10.4z"/><path d="m832.5 264.9c4.7-4.1 6.7-9.3 5.8-15.4 5 .7 9.5-.7 13.4-4.2l13.6-11.8c2.5-2.2 3.8-5 3.9-8.4s-1.1-6.5-3.4-9.1l-23.7-27.2-65.7 57.4 16.8 19.2c4.7 5.4 10.1 8.6 16.1 9.7 6.4 1.2 12.1-.4 17.1-4.8zm8.9-52.5 9.4 10.8-10.4 9.1c-1.2 1-2.6 1.4-4.3 1.2-1.6-.2-3-1-4.1-2.3l-5.3-6zm-20.2 39.5-6.1 5.3c-2.9 2.5-6.1 1.7-9.7-2.4l-5.4-6.2 14.6-12.7 6.7 7.7c1.1 1.2 1.6 2.7 1.6 4.3s-.6 2.9-1.7 4z"/><path d="m907 273-84.2 28.4 8.7 15.2 17.1-5.7 7.3 12.9-13.7 11.7 8.7 15.3 67.5-57.8zm-38.7 40.1-4.2-7.4 34.4-14.7z"/><path d="m880.2 382 67.2-23.3-5.7-16.4-82.5 28.6 13.6 39.1 15.2-5.3z"/><path d="m967 434.1-2.9-17.1-86.1 14.2 6.8 40.8 15.9-2.6-3.9-23.7z"/></g><path d="m512 189.8c177.9 0 322.2 144.3 322.2 322.2s-144.3 322.2-322.2 322.2-322.2-144.3-322.2-322.2 144.3-322.2 322.2-322.2m0-25.7c-92.9 0-180.3 36.2-246 101.9s-101.9 153.1-101.9 246 36.2 180.3 101.9 246 153.1 101.9 246 101.9 180.3-36.2 246-101.9 101.9-153.1 101.9-246-36.2-180.3-101.9-246-153.1-101.9-246-101.9z" fill="#3b73b9"/><path d="m512 215.5c163.5 0 296.5 133 296.5 296.5s-133 296.5-296.5 296.5-296.5-133-296.5-296.5 133-296.5 296.5-296.5m0-25.7c-177.9 0-322.2 144.3-322.2 322.2s144.3 322.2 322.2 322.2 322.2-144.3 322.2-322.2-144.3-322.2-322.2-322.2z" fill="#e63927"/><path d="m316.6 903.8 19.2 9.4-5.2 10.7-30.7-15 28.3-58 30.7 15-5.2 10.7-19.2-9.4-6.3 12.9 16 7.8-5.2 10.8-16-7.8z" fill="#fff"/><path d="m385.8 888.6-11.5-4-3.3 9.6c-.9 2.6.5 4.6 4.4 5.9 5 1.7 8.7 4.5 11.1 8.3 2.6 4.1 3 8.4 1.4 13.1l-4.4 12.6c-.8 2.3-2.4 4-4.7 5s-4.7 1.1-7.1.2l-17.8-6.2c-2.4-.8-4.2-2.4-5.4-4.6-1.2-2.3-1.4-4.5-.6-6.8l4.3-12.3 12.1 4.2-3.3 9.4 11.5 4 3.3-9.6c.9-2.6-.5-4.6-4.4-5.9-5-1.7-8.7-4.5-11.1-8.3-2.6-4.1-3-8.4-1.4-13.1l4.4-12.6c.8-2.3 2.4-4 4.7-5s4.7-1.1 7.1-.2l17.8 6.2c2.4.8 4.2 2.4 5.4 4.6s1.4 4.5.6 6.8l-4.3 12.2-12.1-4.2z" fill="#fff"/><path d="m418 897.9-12.2-2.7 2.6-11.6 36.8 8.2-2.6 11.6-12.2-2.7-11.3 51.3-12.5-2.8z" fill="#fff"/><path d="m461 946.7-1.5 11.8-13.4-1.7 1.5-11.8z" fill="#fff"/><path d="m523.1 949.6 22.3-.8.4 11.9-35.1 1.2-.8-22.1c-.2-5 1.3-8.9 4.5-12 3.1-3 7.3-4.6 12.5-4.8 1.7-.1 2.9-.4 3.6-1s1.1-1.8 1-3.4l-.4-10.2-9.5.3.3 9.8-12.8.5-.5-13c-.1-2.4.8-4.6 2.6-6.3 1.8-1.8 4-2.7 6.5-2.8l16.2-.6c2.6-.1 4.8.7 6.8 2.3 1.9 1.7 3 3.7 3 6.1l.5 13.3c.2 5-1.3 9-4.5 12-3.1 3-7.3 4.6-12.5 4.8-1.7.1-2.9.4-3.6 1s-1.1 1.8-1 3.4z" fill="#fff"/><path d="m585.7 890.2c2.6-.4 4.9 0 7 1.4s3.4 3.3 3.8 5.7l7.9 46.2c.4 2.4-.2 4.6-1.7 6.6s-3.6 3.2-6.1 3.6l-15.9 2.7c-2.5.4-4.9 0-7-1.4s-3.4-3.3-3.8-5.7l-7.9-46.2c-.4-2.4.2-4.6 1.7-6.6s3.6-3.2 6.1-3.6zm-10.6 13.9 6.8 40.1 9.4-1.6-6.8-40.1z" fill="#fff"/><path d="m650.1 927.5 10.7-3.3 3.6 11.4-33.5 10.5-3.6-11.4 10.7-3.3-12.2-38.8-10.7 3.3-3.6-11.4 13.8-4.3c2.5-.8 4.8-.6 7.1.5s3.8 2.8 4.6 5.1z" fill="#fff"/><path d="m669 888.3-5.7-12c-1-2.2-1.1-4.5-.1-6.9 1-2.3 2.6-4 4.9-5.1l14.6-6.9c2.3-1.1 4.7-1.3 7.1-.5s4.2 2.3 5.2 4.5l5.7 12c1.8 3.8 2.1 7.4 1 10.8 3.3 1.3 5.9 3.8 7.7 7.6l5.7 12c1 2.2 1.1 4.5.1 6.9-1 2.3-2.6 4-5 5.1l-14.6 6.9c-2.3 1.1-4.7 1.3-7.1.5s-4.2-2.3-5.2-4.5l-5.7-12c-1.8-3.8-2.1-7.4-1-10.7-3.3-1.4-5.8-3.9-7.6-7.7zm15.9-18.7-8.6 4 4.3 9.2c.7 1.4 1.5 2.3 2.4 2.5s2.1-.1 3.7-.8c1.5-.7 2.5-1.5 2.9-2.3.4-.9.3-2-.4-3.5zm8.7 40.8 8.6-4-4.3-9.2c-.7-1.5-1.5-2.3-2.4-2.5s-2.1 0-3.6.8c-1.6.7-2.6 1.5-3 2.3-.4.9-.3 2 .4 3.5z" fill="#fff"/></svg>