<svg xmlns="http://www.w3.org/2000/svg" id="Logo" viewBox="0 0 164 84"><defs><style>.cls-1{fill:none}.cls-4{fill:#fff}.cls-5{fill:#faaa29}</style><clipPath id="clip-path"><path id="Clip_14" d="M0 83h163.746V0H0z" class="cls-1" data-name="Clip 14"/></clipPath></defs><path id="Logo_background" d="M0 0h164v84H0z" data-name="Logo background" fill="transparent"/><g id="Logo-2" data-name="Logo" transform="translate(0 .641)"><path id="Fill_1" d="M81.683 0L0 37.308l82.048 36.77 81.7-36.77z" data-name="Fill 1" fill="#003976"/><path id="Fill_2" d="M0 33.591L73.511 0l73.854 33.591-73.524 33.082z" class="cls-4" data-name="Fill 2" transform="translate(8.196 3.693)"/><path id="Fill_3" d="M70.156 63.344L0 31.906 69.853 0" class="cls-5" data-name="Fill 3" transform="translate(11.868 5.359)"/><path id="Fill_4" d="M.3 63.344l69.86-31.438L0 0z" data-name="Fill 4" transform="translate(81.721 5.359)" fill="#a90533"/><g id="Group_38" data-name="Group 38"><path id="Fill_5" d="M23 11.605a11.5 11.5 0 1 1-23 0 11.5 11.5 0 1 1 23 0" class="cls-5" data-name="Fill 5" transform="translate(70.327 59.048)"/><path id="Fill_7" d="M12.174 24.554a12.277 12.277 0 0 1 0-24.554 12.277 12.277 0 0 1 0 24.554zm0-23.746a11.468 11.468 0 0 0 0 22.936 11.468 11.468 0 0 0 0-22.936z" class="cls-4" data-name="Fill 7" transform="translate(69.699 58.442)"/><path id="Fill_9" d="M0 .626a11.444 11.444 0 0 1 4.143 8.846 11.524 11.524 0 0 1-4.12 8.852l.515.623a12.339 12.339 0 0 0 4.407-9.475A12.262 12.262 0 0 0 .509 0z" class="cls-4" data-name="Fill 9" transform="translate(73.717 61.24)"/><path id="Fill_11" d="M4.755 18.039A11.525 11.525 0 0 1 4.81.617L4.292 0a12.336 12.336 0 0 0-.06 18.653z" class="cls-4" data-name="Fill 11" transform="translate(85.157 61.361)"/><path id="Clip_14-2" d="M0 83h163.746V0H0z" class="cls-1" data-name="Clip 14"/><g id="Group_38-2" data-name="Group 38" clip-path="url(#clip-path)"><path id="Fill_13" d="M0 24.114h.8V0H0z" class="cls-4" data-name="Fill 13" transform="translate(81.426 58.792)"/><path id="Fill_15" d="M0 0h2.509l1.1 11.857c.134 1.518.3 3.007.4 6.081h.071c.1-3.074.27-4.563.4-6.081L5.589 0H8.1L5.221 24.121H2.879z" class="cls-4" data-name="Fill 15" transform="translate(53.592 23.969)"/><path id="Fill_16" d="M0 24.121h2.483V0H0z" class="cls-4" data-name="Fill 16" transform="translate(64.805 23.969)"/><path id="Fill_17" d="M2.477 24.122H0V0h4.959a2.452 2.452 0 0 1 1.752.728A2.494 2.494 0 0 1 7.435 2.5v7.638a1.924 1.924 0 0 1-1.105 1.921c.765.3 1.106.985 1.106 2.229v8.04a3.628 3.628 0 0 0 .6 1.792H5.493a4.212 4.212 0 0 1-.534-1.792v-9.02H2.477v10.813zm0-21.623v8.307h2.481V2.5z" class="cls-4" data-name="Fill 17" transform="translate(71.035 23.969)"/><path id="Fill_18" d="M2.484 2.5H0V0h7.438v2.5H4.961v21.621H2.484z" class="cls-4" data-name="Fill 18" transform="translate(81.282 23.969)"/><path id="Fill_19" d="M7.435 20.571a3.749 3.749 0 0 1-3.715 3.756A3.75 3.75 0 0 1 0 20.571V0h2.482v21.618h2.477V0h2.476z" class="cls-4" data-name="Fill 19" transform="translate(91.53 23.969)"/><path id="Fill_20" d="M0 18.045h2.48v3.781h2.477v-8.31H2.48A2.484 2.484 0 0 1 0 11.014V3.755A3.749 3.749 0 0 1 3.717 0a3.749 3.749 0 0 1 3.716 3.755v2.731H4.957V2.707H2.48v8.308h2.477a2.485 2.485 0 0 1 2.476 2.5v7.263a3.75 3.75 0 0 1-3.715 3.756A3.75 3.75 0 0 1 0 20.779z" class="cls-4" data-name="Fill 20" transform="translate(102.719 23.761)"/><path id="Fill_21" d="M1.224 5.456H0V0h1.761a1.542 1.542 0 0 1 1.748 1.523A1.271 1.271 0 0 1 2.592 2.8c.328.182.525.807.753 1.531.115.364.233.741.383 1.119H2.454l-.291-1.02c-.337-1.168-.416-1.275-.939-1.275v2.3zm0-4.514v1.269h.39a.6.6 0 0 0 .665-.654c0-.419-.216-.614-.68-.614z" class="cls-4" data-name="Fill 21" transform="translate(66.691 50.555)"/><path id="Fill_22" d="M2.126 5.6a1.912 1.912 0 0 1-1.454-.659A3.273 3.273 0 0 1 0 2.751C0 .861 1.1 0 2.126 0c.984 0 2.132.735 2.132 2.805S3.11 5.6 2.126 5.6zm0-4.526c-.608 0-.879.531-.879 1.721 0 1.218.263 1.737.879 1.737s.881-.519.881-1.737c0-1.528-.47-1.723-.881-1.723z" class="cls-4" data-name="Fill 22" transform="translate(74.642 50.48)"/><path id="Fill_23" d="M0 0h1.112l1.24 2.247L3.593 0H4.7v5.456H3.545V1.965h-.014L2.472 4.033h-.241L1.173 1.965H1.16v3.491H0z" class="cls-4" data-name="Fill 23" transform="translate(83.702 50.555)"/><path id="Fill_24" d="M1.185 5.485H0L1.418 0h1.27l1.423 5.484H2.919l-.254-1.137h-1.22l-.26 1.138zm.865-4l-.429 1.979h.864l-.421-1.983z" class="cls-4" data-name="Fill 24" transform="translate(92.943 50.525)"/><path id="Fill_25" d="M.8 3.571H0V0h1.145a1.058 1.058 0 0 1 1.162 1.072c0 .244-.084 1.042-1.166 1.042H.8V3.57zM.8.618V1.5h.234c.325 0 .47-.135.47-.437a.4.4 0 0 0-.442-.445z" class="cls-4" data-name="Fill 25" transform="translate(63.89 17.007)"/><path id="Fill_26" d="M.777 3.589H0L.926 0h.835l.925 3.588h-.777l-.165-.744H.951l-.173.744zM1.338.971l-.279 1.3h.565L1.35.971z" class="cls-4" data-name="Fill 26" transform="translate(66.189 16.988)"/><path id="Fill_27" d="M0 0h.8v2.925h1.3v.645H0z" class="cls-4" data-name="Fill 27" transform="translate(69.36 17.007)"/><path id="Fill_28" d="M0 0h.8v2.925h1.3v.645H0z" class="cls-4" data-name="Fill 28" transform="translate(71.956 17.007)"/><path id="Fill_29" d="M.777 3.589H0L.926 0h.832l.928 3.588h-.777l-.164-.744h-.8l-.17.744zM1.338.971l-.279 1.3h.565l-.273-1.3z" class="cls-4" data-name="Fill 29" transform="translate(74.238 16.988)"/><path id="Fill_30" d="M2.258 3.392a1.232 1.232 0 0 1-.824.264C.6 3.656 0 2.957 0 1.861 0 .734.564 0 1.433 0a1.723 1.723 0 0 1 .8.2v.681a1.163 1.163 0 0 0-.607-.208c-.461 0-.807.358-.807 1.142 0 .757.266 1.167.764 1.167a1.2 1.2 0 0 0 .675-.282z" class="cls-4" data-name="Fill 30" transform="translate(77.259 16.964)"/><path id="Fill_31" d="M.777 3.589H0L.923 0h.832l.928 3.588h-.776l-.163-.744H.94l-.162.744zM1.338.971l-.281 1.3h.565l-.273-1.3z" class="cls-4" data-name="Fill 31" transform="translate(79.99 16.988)"/><path id="Fill_32" d="M0 0h.751L1.7 2.017h.013V0h.757v3.57h-.7l-1-2.106H.756V3.57H0z" class="cls-4" data-name="Fill 32" transform="translate(83.174 17.007)"/><path id="Fill_33" d="M0 0h2.061v.618H.8v.832h1.173v.616H.8v.886h1.31v.618H0z" class="cls-4" data-name="Fill 33" transform="translate(86.456 17.007)"/><path id="Fill_34" d="M.032 2.608a1.193 1.193 0 0 0 .746.374.3.3 0 0 0 .322-.294C1.1 2.162 0 1.769 0 .906A.951.951 0 0 1 1.015 0a1.541 1.541 0 0 1 .772.219v.665A1.4 1.4 0 0 0 1.1.631c-.191 0-.325.1-.325.244 0 .423 1.143.939 1.143 1.785a.989.989 0 0 1-1.028 1 1.594 1.594 0 0 1-.861-.281z" class="cls-4" data-name="Fill 34" transform="translate(89.067 16.964)"/><path id="Fill_35" d="M.808.618H0V0h2.416v.618H1.61V3.57h-.8z" class="cls-4" data-name="Fill 35" transform="translate(91.386 17.007)"/><path id="Fill_36" d="M.8 3.571H0V0h1.156a1 1 0 0 1 1.136 1 .831.831 0 0 1-.592.836c.21.121.337.526.484 1 .072.23.154.49.253.74h-.831L1.412 2.9c-.22-.763-.272-.833-.612-.833v1.5zM.8.618v.832h.253a.393.393 0 0 0 .438-.433c0-.272-.142-.4-.448-.4z" class="cls-4" data-name="Fill 36" transform="translate(94.346 17.007)"/><path id="Fill_37" d="M1.4 3.655c-.647 0-1.4-.487-1.4-1.861C0 .561.724 0 1.4 0c.641 0 1.389.479 1.389 1.831S2.038 3.655 1.4 3.655zM1.4.7C1 .7.819 1.045.819 1.824c0 .794.173 1.133.578 1.133s.572-.339.572-1.133C1.969.826 1.663.7 1.4.7z" class="cls-4" data-name="Fill 37" transform="translate(97.069 16.964)"/></g></g></g></svg>