<?xml version="1.0" encoding="utf-8"?>
<!-- Generator: Adobe Illustrator 28.0.0, SVG Export Plug-In . SVG Version: 6.00 Build 0)  -->
<svg version="1.1" id="Livello_1" xmlns="http://www.w3.org/2000/svg" xmlns:xlink="http://www.w3.org/1999/xlink" x="0px" y="0px"
	 viewBox="0 0 908.37 1200" style="enable-background:new 0 0 908.37 1200;" xml:space="preserve">
<style type="text/css">
	.st0{fill:#1D1D1B;}
	.st1{fill:#FFFFFF;}
	.st2{fill:#00A86A;}
	.st3{fill:none;}
</style>
<g>
	<path class="st0" d="M644.72,559.76c0.76-8.9-2.86-13.16-8.95-15.38L620,538.38c-0.99-0.17-1.74-1.03-1.74-2.06
		c0-0.94,0.62-1.74,1.48-2c0.04-0.01,0.07-0.02,0.11-0.03c0.16-0.04,0.33-0.06,0.51-0.06c0.1,0,0.2,0.01,0.29,0.02h21.1
		c0.77,0,1.39-0.62,1.39-1.39v-9.38c0-0.77-0.62-1.39-1.39-1.39H620.2c-5.66,0-10.82,3.31-13.14,8.44c-1.63,3.61-1.7,8.1-0.16,11.75
		c1.54,3.64,4.63,5.97,8.37,7.34l15.61,5.93c0.3,0.06,0.57,0.17,0.81,0.34c0.01,0.01,0.02,0.01,0.02,0.02c0.53,0.38,0.87,1,0.87,1.7
		c0,1.12-0.88,2.03-1.98,2.09c-0.05,0.02-0.1,0.03-0.15,0.03h-22.77c-0.77,0-1.39,0.62-1.39,1.39v9.42c0,0.77,0.62,1.39,1.39,1.39
		h22.77C642.03,571.92,644.61,561.02,644.72,559.76z"/>
	<path class="st1" d="M454.5,1180.47c239.67,0,434.66-194.99,434.66-434.66V19.53H19.84v726.29
		C19.84,985.49,214.83,1180.47,454.5,1180.47z"/>
	<path class="st2" d="M0.31,0v745.81c0,61.31,12.01,120.79,35.7,176.79c22.88,54.09,55.62,102.66,97.33,144.37
		c41.71,41.71,90.28,74.46,144.37,97.33c56,23.69,115.48,35.7,176.79,35.7s120.79-12.01,176.79-35.7
		c54.09-22.88,102.66-55.62,144.37-97.33c41.71-41.71,74.46-90.28,97.33-144.37c23.69-56,35.7-115.48,35.7-176.79V0H0.31z
		 M889.16,745.81c0,239.67-194.99,434.66-434.66,434.66S19.84,985.49,19.84,745.81V19.53h869.32V745.81z"/>
	<path class="st3" d="M772.77,970.74c0-0.01,0.01-0.01,0.01-0.02C772.78,970.73,772.78,970.74,772.77,970.74L772.77,970.74z"/>
	<path class="st3" d="M89.66,879.2c-0.1-0.28-0.19-0.56-0.29-0.84C89.46,878.64,89.56,878.92,89.66,879.2z"/>
	<polygon class="st3" points="111.79,930.39 111.79,930.39 111.79,930.39 	"/>
	<path d="M636.11,643.45v16.29c0.05-0.05,0.09-0.11,0.15-0.16l56.64-56.64h-20.52c-0.41,3.15-1.82,6.07-4.1,8.35L636.11,643.45z"/>
	<path d="M755.39,953.36l17.39,17.39l0,0c0.16-0.23,0.36-0.53,0.59-0.87c1.82-2.68,0.87-6.35-2.02-7.82
		C765.92,959.3,760.6,956.4,755.39,953.36z"/>
	<path d="M771.96,919.84c3.5,2.09,7.05,4.11,10.66,6.05l8.15-8.15c2.82-2.82,6.52-4.23,10.23-4.23c1.38,0,2.75,0.2,4.08,0.59
		c0,0,0-0.01,0.01-0.01c0.81-1.74,1.6-3.5,2.38-5.26c0.05-0.11,0.1-0.22,0.15-0.33c2.4-5.41,4.68-10.88,6.83-16.42
		c0.01-0.03,0.02-0.05,0.03-0.08c2.9-7.45,5.57-15.01,8.01-22.68c0,0,0,0,0,0L771.96,919.84z"/>
	<path d="M773.64,725.97c-2.73-2.73-4.24-6.36-4.24-10.23c0-3.86,1.5-7.49,4.24-10.23l17.13-17.13c2.82-2.82,6.52-4.23,10.23-4.23
		c3.7,0,7.41,1.41,10.23,4.23l29.32,29.32l-0.03-17.63c-1.53-0.7-2.98-1.66-4.24-2.92l-17.13-17.13c-2.73-2.73-4.24-6.36-4.24-10.23
		s1.5-7.5,4.24-10.23l21.25-21.25l-0.01-5.46l-0.02-10.78l-75.08,75.08c-5.64,5.64-14.81,5.64-20.45,0l-17.13-17.13
		c-2.73-2.73-4.24-6.36-4.24-10.23s1.5-7.5,4.24-10.23l56.64-56.64h-20.52c-0.41,3.15-1.82,6.07-4.1,8.35l-85.87,85.88
		c-5.64,5.64-14.81,5.64-20.45,0l-17.13-17.13c-0.05-0.05-0.1-0.11-0.15-0.16v0.71c0,5.38,0.16,10.73,0.47,16.05l77.63,77.63
		c2.73,2.73,4.24,6.36,4.24,10.23s-1.5,7.5-4.24,10.23l-17.13,17.13c-5.64,5.64-14.81,5.64-20.45,0l-15.13-15.13
		c6.85,14.93,15,29.2,24.33,42.67l36.31-36.31c2.82-2.82,6.52-4.23,10.23-4.23c3.7,0,7.41,1.41,10.23,4.23l17.13,17.13
		c2.73,2.73,4.24,6.36,4.24,10.23c0,3.86-1.5,7.5-4.24,10.23l-39.45,39.45c2.75,2.68,5.55,5.3,8.41,7.87l84.91-84.91
		c2.82-2.82,6.52-4.23,10.23-4.23c3.7,0,7.41,1.41,10.23,4.23l2.85,2.85c0.32-2.26,0.61-4.54,0.88-6.81
		c0.05-0.38,0.09-0.75,0.14-1.13c0.27-2.32,0.53-4.65,0.77-6.98c0,0,0,0,0,0L773.64,725.97z M805.65,794.71l-17.13,17.13
		c-5.64,5.64-14.81,5.64-20.45,0l-85.87-85.88c-2.73-2.73-4.24-6.36-4.24-10.23c0-3.86,1.5-7.49,4.24-10.23l17.13-17.13
		c2.82-2.82,6.52-4.23,10.23-4.23c3.7,0,7.41,1.41,10.23,4.23l85.87,85.88c2.73,2.73,4.24,6.36,4.24,10.23
		S808.38,791.98,805.65,794.71z"/>
	<path d="M362.42,1117.81l73.37-73.37v-16.28l-13.03,13.03c-5.64,5.64-14.81,5.64-20.45,0l-85.87-85.88
		c-2.94-2.94-4.46-6.93-4.21-11.12c0.22-3.62,1.88-7,4.44-9.57l16.9-16.9c2.82-2.82,6.52-4.23,10.23-4.23
		c3.7,0,7.41,1.41,10.23,4.23l81.78,81.78v-16.28l-27.69-27.69c-2.56-2.56-4.23-5.95-4.44-9.57c-0.25-4.19,1.27-8.18,4.21-11.12
		l17.13-17.13c2.82-2.82,6.52-4.23,10.23-4.23c0.19,0,0.38,0.02,0.56,0.03v-23.29l-36.27,36.27c-5.64,5.64-14.81,5.64-20.45,0
		l-16.9-16.9c-2.56-2.56-4.23-5.95-4.44-9.56c-0.25-4.19,1.27-8.18,4.21-11.12l73.85-73.85v-16.28l-13.03,13.03
		c-5.64,5.64-14.81,5.64-20.45,0l-85.87-85.88c-2.94-2.94-4.46-6.93-4.21-11.12c0.22-3.62,1.88-7,4.44-9.57l16.9-16.9
		c2.82-2.82,6.52-4.23,10.23-4.23c3.7,0,7.41,1.41,10.23,4.23l81.78,81.78v-16.28L408.1,726.2c-2.56-2.56-4.23-5.95-4.44-9.57
		c-0.25-4.19,1.27-8.18,4.21-11.12l17.13-17.13c2.82-2.82,6.52-4.23,10.23-4.23c0.19,0,0.38,0.02,0.56,0.03v-23.29l-36.27,36.27
		c-5.64,5.64-14.81,5.64-20.45,0l-16.9-16.9c-2.56-2.56-4.23-5.95-4.44-9.56c-0.25-4.19,1.27-8.18,4.21-11.12l56.64-56.64h-20.52
		c-0.41,3.15-1.82,6.07-4.1,8.35l-84.3,84.3c-0.58,12.18-1.85,24.22-3.79,36.09l42.58,42.59c2.94,2.94,4.46,6.93,4.21,11.12
		c-0.22,3.62-1.88,7-4.44,9.56l-16.9,16.9c-5.64,5.64-14.81,5.64-20.45,0l-20.8-20.8c-1.5,4.02-3.08,8.02-4.74,11.97
		c0.02,0.02,0.04,0.04,0.06,0.06l17.13,17.13c2.94,2.94,4.46,6.93,4.21,11.12c-0.22,3.62-1.88,7-4.44,9.57l-85.64,85.64
		c-5.64,5.64-14.81,5.64-20.45,0l-1.7-1.7c-2.98,2.45-6.01,4.84-9.09,7.19l71.62,71.62c2.73,2.73,4.24,6.36,4.24,10.23
		c0,3.86-1.5,7.5-4.24,10.23l-17.13,17.13c-5.64,5.64-14.81,5.64-20.45,0l-80.08-80.08c-0.64,0.33-1.27,0.66-1.91,0.98
		c-2.84,1.45-3.78,5.08-1.98,7.71c0.01,0.02,0.02,0.03,0.03,0.05c0.13,0.19,0.26,0.38,0.39,0.58c1.37,1.99,2.75,3.97,4.15,5.93
		c0.09,0.12,0.17,0.24,0.26,0.36c1.44,2.01,2.89,4,4.37,5.98c0,0,0,0.01,0.01,0.01l20.9,20.9c2.54,2.54,4,5.85,4.2,9.41
		c0,0,0,0,0,0.01c1.13,1.23,2.26,2.45,3.4,3.66c0.14,0.15,0.29,0.3,0.43,0.46c0.87,0.93,1.73,1.86,2.62,2.76
		c0.22,0.22,0.43,0.45,0.65,0.67c1.1,1.13,2.2,2.26,3.31,3.38c0.08,0.08,0.16,0.16,0.24,0.24c1.17,1.18,2.35,2.36,3.54,3.52
		c0.08,0,0.16-0.01,0.25-0.01c3.7,0,7.41,1.41,10.23,4.23l17.13,17.13c1.76,1.76,3,3.89,3.66,6.21c2.49,1.97,5.01,3.91,7.56,5.82
		c0.02,0.01,0.03,0.03,0.05,0.04c1.23,0.92,2.46,1.83,3.7,2.74c0.06,0.04,0.11,0.08,0.17,0.13c1.28,0.94,2.57,1.87,3.87,2.79
		l34.85-34.85c2.82-2.82,6.52-4.23,10.23-4.23c3.7,0,7.41,1.41,10.23,4.23l17.13,17.13c2.94,2.94,4.46,6.93,4.21,11.12
		c-0.22,3.62-1.88,7-4.44,9.57l-25.54,25.54c0,0,0,0,0,0c3.59,1.86,7.21,3.66,10.87,5.41c0,0,0,0,0,0l68.76-68.76
		c2.82-2.82,6.52-4.23,10.23-4.23s7.41,1.41,10.23,4.23l16.9,16.9c2.56,2.56,4.23,5.95,4.44,9.57c0.25,4.19-1.27,8.18-4.21,11.12
		l-52.19,52.19c1.28,0.39,2.56,0.77,3.85,1.14c0.11,0.03,0.22,0.06,0.33,0.1c1.2,0.35,2.39,0.69,3.59,1.03
		c0.27,0.08,0.54,0.15,0.81,0.22c1.08,0.3,2.17,0.6,3.25,0.89c0.42,0.11,0.84,0.22,1.25,0.33c0.99,0.26,1.98,0.53,2.98,0.78
		c0,0,0,0,0,0C358.71,1123.04,360.12,1120.1,362.42,1117.81z M270.49,888.94l85.87-85.88c2.82-2.82,6.52-4.23,10.23-4.23
		c3.7,0,7.41,1.41,10.23,4.23l17.13,17.13c2.73,2.73,4.24,6.36,4.24,10.23c0,3.86-1.5,7.5-4.24,10.23l-85.87,85.88
		c-5.64,5.64-14.81,5.64-20.45,0l-17.13-17.13c-2.73-2.73-4.24-6.36-4.24-10.23S267.76,891.67,270.49,888.94z M348.44,1024.07
		l-17.13,17.13c-5.64,5.64-14.81,5.64-20.45,0l-85.87-85.88c-2.73-2.73-4.24-6.36-4.24-10.23c0-3.86,1.5-7.49,4.24-10.23
		l17.13-17.13c2.82-2.82,6.52-4.23,10.23-4.23c3.7,0,7.41,1.41,10.23,4.23l85.87,85.88c2.73,2.73,4.24,6.36,4.24,10.23
		C352.67,1017.71,351.17,1021.34,348.44,1024.07z"/>
	<path d="M430.01,1137.5c2.41,0.14,5.77-2.67,5.77-5.08v-12.81l-17.02,17.02c0,0,0,0,0,0c1.28,0.12,2.56,0.23,3.85,0.33
		c0.24,0.02,0.48,0.04,0.72,0.06c1.19,0.09,2.38,0.18,3.58,0.27c0.33,0.02,0.66,0.05,0.99,0.07"/>
	<path d="M473.06,623.61v16.28l36.95-36.95h-20.52c-0.41,3.15-1.82,6.07-4.1,8.35L473.06,623.61z"/>
	<path d="M327.13,602.94H315.4c-2.98,0-5.39,2.41-5.39,5.39v11.73L327.13,602.94z"/>
	<path d="M173.48,803.06c2.82-2.82,6.52-4.23,10.23-4.23c3.7,0,7.41,1.41,10.23,4.23l17.13,17.13c2.73,2.73,4.24,6.36,4.24,10.23
		c0,3.86-1.5,7.5-4.24,10.23l-85.72,85.73c19.44-10.37,37.35-22.88,53.48-37.18c0.08-0.08,0.15-0.17,0.23-0.25l23.63-23.63
		c14.44-16.32,26.91-34.26,37.17-53.45c-5.64,5.61-14.8,5.61-20.43-0.02l-85.87-85.88c-2.73-2.73-4.24-6.36-4.24-10.23
		c0-3.86,1.5-7.49,4.24-10.23l17.13-17.13c2.82-2.82,6.52-4.23,10.23-4.23c3.7,0,7.41,1.41,10.23,4.23l85.51,85.51
		c1.44-4.04,2.78-8.12,4.04-12.24l-35.69-35.69c-2.73-2.73-4.24-6.36-4.24-10.23c0-3.86,1.5-7.49,4.24-10.23l17.13-17.13
		c2.82-2.82,6.52-4.23,10.23-4.23c3.7,0,7.41,1.41,10.23,4.23l9.62,9.62c0.33-5.22,0.51-10.47,0.54-15.74l-2.23-2.23
		c-2.73-2.73-4.24-6.36-4.24-10.23s1.5-7.5,4.24-10.23l2.25-2.25v-16.28l-56.11,56.11c-5.64,5.64-14.81,5.64-20.45,0l-17.13-17.13
		c-2.73-2.73-4.24-6.36-4.24-10.23s1.5-7.5,4.24-10.23l56.64-56.64h-20.52c-0.41,3.15-1.82,6.07-4.1,8.35l-85.87,85.88
		c-5.64,5.64-14.81,5.64-20.45,0L87.6,680.03c-2.73-2.73-4.24-6.36-4.24-10.23s1.5-7.5,4.24-10.23l56.64-56.64h-20.52
		c-0.41,3.15-1.82,6.07-4.1,8.35l-51.02,51.02l-0.05,12.96l-0.04,8.93c0.31-0.02,0.63-0.04,0.94-0.04c3.7,0,7.41,1.41,10.23,4.23
		l85.87,85.88c2.73,2.73,4.24,6.36,4.24,10.23s-1.5,7.5-4.24,10.23l-17.13,17.13c-5.64,5.64-14.81,5.64-20.45,0l-59.73-59.73
		c0,1.49,0.01,2.98,0.03,4.47c0.01,0.85,0.03,1.7,0.04,2.55c0.01,0.57,0.02,1.15,0.03,1.72c0.03,1.12,0.06,2.24,0.09,3.35
		c0.01,0.24,0.01,0.48,0.02,0.72c0.04,1.28,0.09,2.55,0.14,3.83l5.51,5.51c2.73,2.73,4.24,6.36,4.24,10.23s-1.5,7.5-4.24,10.23
		l-3.17,3.17c0.57,4.8,1.22,9.57,1.96,14.31l9.13-9.14c2.82-2.82,6.52-4.23,10.23-4.23c3.7,0,7.41,1.41,10.23,4.23l17.13,17.13
		c2.73,2.73,4.24,6.36,4.24,10.23c0,3.86-1.5,7.5-4.24,10.23l-32.13,32.13c0.61,1.87,1.24,3.72,1.88,5.58
		c0.1,0.28,0.19,0.56,0.29,0.84c0.66,1.9,1.33,3.79,2.02,5.67L173.48,803.06z"/>
	<path d="M682.19,955.33c-2.73-2.73-4.24-6.36-4.24-10.23c0-3.86,1.5-7.49,4.24-10.23l17.13-17.13c1.12-1.12,2.39-2.01,3.73-2.68
		c-3.11-2.81-6.16-5.68-9.15-8.6l-20.06,20.06c-5.64,5.64-14.81,5.64-20.45,0l-16.9-16.9c-2.56-2.56-4.23-5.95-4.44-9.56
		c-0.25-4.19,1.27-8.18,4.21-11.12l22.83-22.83c-2.29-3.16-4.52-6.35-6.69-9.59l-70,70c-5.64,5.64-14.81,5.64-20.45,0l-17.13-17.13
		c-2.73-2.73-4.24-6.36-4.24-10.23s1.5-7.5,4.24-10.23l80.9-80.9c-1.67-3.79-3.27-7.62-4.79-11.48l-15.28,15.28
		c-5.64,5.64-14.81,5.64-20.45,0l-85.87-85.88c-2.94-2.94-4.46-6.93-4.21-11.12c0.22-3.62,1.88-7,4.44-9.57l16.9-16.9
		c2.82-2.82,6.52-4.23,10.23-4.23c3.7,0,7.41,1.41,10.23,4.23l72.26,72.26c-1.82-6.93-3.4-13.94-4.74-21.02l-13.43-13.43
		c-2.56-2.56-4.23-5.95-4.44-9.57c-0.25-4.19,1.27-8.18,4.21-11.12l8.52-8.52c-0.28-5.4-0.43-10.82-0.43-16.27l-16.44,16.44
		c-5.64,5.64-14.81,5.64-20.45,0l-17.13-17.13c-2.73-2.73-4.24-6.36-4.24-10.23s1.5-7.5,4.24-10.23l48.44-48.44l5.07-5.07
		c-0.86-1.84-2.72-3.12-4.88-3.12h-2.81h-9.71c-0.41,3.15-1.82,6.07-4.1,8.35l-85.87,85.88c-4.85,4.85-12.31,5.52-17.89,2.02V716
		l58.26,58.26c2.73,2.73,4.24,6.36,4.24,10.23s-1.5,7.5-4.24,10.23l-17.13,17.13c-5.64,5.64-14.81,5.64-20.45,0l-20.68-20.68v16.7
		l12.09,12.09c2.56,2.56,4.23,5.95,4.44,9.57c0.25,4.19-1.27,8.18-4.21,11.12l-12.32,12.32v16.28l66.18-66.19
		c2.82-2.82,6.52-4.23,10.23-4.23c3.7,0,7.41,1.41,10.23,4.23l17.13,17.13c2.94,2.94,4.46,6.93,4.21,11.12
		c-0.22,3.62-1.88,7-4.44,9.57l-85.64,85.64c-4.85,4.85-12.31,5.52-17.89,2.02v16.81l58.26,58.26c2.73,2.73,4.24,6.36,4.24,10.23
		c0,3.86-1.5,7.5-4.24,10.23l-17.13,17.13c-5.64,5.64-14.81,5.64-20.45,0l-20.68-20.68v15.72l12.81,12.81
		c2.94,2.94,4.46,6.93,4.21,11.12c-0.22,3.62-1.88,7-4.44,9.57l-12.58,12.58v16.28l66.67-66.67c2.82-2.82,6.52-4.23,10.23-4.23
		c3.7,0,7.41,1.41,10.23,4.23l17.13,17.13c2.94,2.94,4.46,6.93,4.21,11.12c-0.22,3.62-1.88,7-4.44,9.57l-64.1,64.1
		c2.19-0.33,4.37-0.69,6.54-1.06c1.44-0.24,2.87-0.51,4.32-0.71c1.11-0.16,2.2-0.38,3.28-0.65l0,0c2.21-0.42,4.4-0.86,6.6-1.32
		c0.31-0.06,0.62-0.13,0.93-0.2c2.15-0.45,4.29-0.92,6.43-1.41c0-0.15-0.02-0.31-0.02-0.46c0-3.86,1.5-7.5,4.24-10.23l85.87-85.88
		c2.82-2.82,6.52-4.23,10.23-4.23c3.7,0,7.41,1.41,10.23,4.23l17.13,17.13c2.94,2.94,4.46,6.93,4.21,11.12
		c-0.22,3.62-1.88,7-4.44,9.56l-10.6,10.6c1.86-1.16,3.71-2.33,5.56-3.52c0.44-0.28,5.14-3.37,5.78-3.8
		c3.55-2.38,7.07-4.83,10.53-7.32c0.16-0.12,0.32-0.23,0.48-0.35c3.46-2.5,17.42-13.31,20.73-16.06c0.5-0.42,4.82-4.07,5.19-4.39
		c3.28-2.82,6.51-5.7,9.69-8.63c0.1-0.09,0.2-0.18,0.3-0.27c3.16-2.92,6.28-5.89,9.34-8.91c0.09-0.09,0.19-0.18,0.28-0.28
		c3.08-3.05,6.12-6.14,9.1-9.29c0.04-0.04,0.07-0.08,0.11-0.12c1.5-1.58,2.98-3.18,4.45-4.79L682.19,955.33z M622.76,1024.07
		l-17.13,17.13c-5.64,5.64-14.81,5.64-20.45,0l-85.87-85.88c-2.73-2.73-4.24-6.36-4.24-10.23c0-3.86,1.5-7.49,4.24-10.23
		l17.13-17.13c2.82-2.82,6.52-4.23,10.23-4.23c3.7,0,7.41,1.41,10.23,4.23l85.87,85.88c2.73,2.73,4.24,6.36,4.24,10.23
		C627,1017.71,625.5,1021.34,622.76,1024.07z M714.21,1024.07l-17.13,17.13c-5.64,5.64-14.81,5.64-20.45,0l-85.87-85.88
		c-2.73-2.73-4.24-6.36-4.24-10.23c0-3.86,1.5-7.49,4.24-10.23l17.13-17.13c2.82-2.82,6.52-4.23,10.23-4.23
		c3.7,0,7.41,1.41,10.23,4.23l85.87,85.88c2.73,2.73,4.24,6.36,4.24,10.23C718.44,1017.71,716.94,1021.34,714.21,1024.07z"/>
	<g>
		<path class="st2" d="M78.34,784.49c0-3.86-1.5-7.5-4.24-10.23l-5.51-5.51c0.21,4.91,0.51,9.79,0.9,14.64c0,0,0,0,0,0
			c0.39,4.86,0.87,9.69,1.44,14.49l3.17-3.17C76.84,791.98,78.34,788.35,78.34,784.49z"/>
		<path class="st2" d="M123.72,602.94H74.19c-0.37,0-0.73,0.04-1.08,0.11c-0.35,0.07-0.69,0.18-1.01,0.31
			c-0.16,0.07-0.32,0.14-0.47,0.23c-0.46,0.25-0.87,0.56-1.24,0.92c-0.24,0.24-0.46,0.51-0.66,0.79c-0.58,0.86-0.92,1.89-0.93,3
			l-0.21,54.01l51.02-51.02C121.9,609,123.31,606.09,123.72,602.94z M89.21,623.06c0-0.19,0.15-0.34,0.34-0.34l0,0
			C89.36,622.73,89.21,622.88,89.21,623.06s0.15,0.34,0.34,0.34l0,0C89.36,623.4,89.21,623.25,89.21,623.06z"/>
		<path class="st2" d="M148.42,811.84l17.13-17.13c2.73-2.73,4.24-6.36,4.24-10.23s-1.5-7.5-4.24-10.23l-85.87-85.88
			c-2.82-2.82-6.52-4.23-10.23-4.23c-0.31,0-0.63,0.02-0.94,0.04l-0.27,67.88c0,0,0,0,0,0c0,0.01,0,0.02,0,0.03l0,0l59.73,59.73
			C133.61,817.48,142.78,817.48,148.42,811.84z"/>
		<path class="st2" d="M123.85,830.42c0-3.86-1.5-7.49-4.24-10.23l-17.13-17.13c-2.82-2.82-6.52-4.23-10.23-4.23
			c-3.7,0-7.41,1.41-10.23,4.23l-9.13,9.14c0.61,3.88,1.27,7.75,1.99,11.59c0,0.02,0.01,0.04,0.01,0.06
			c0.22,1.18,0.45,2.36,0.68,3.54c0.04,0.19,0.07,0.37,0.11,0.56c0.23,1.16,0.47,2.32,0.71,3.48c0.02,0.11,0.05,0.22,0.07,0.33
			c1.04,4.94,2.17,9.84,3.39,14.71c0.04,0.15,0.07,0.29,0.11,0.44c0.29,1.15,0.58,2.29,0.88,3.43c0.04,0.14,0.08,0.29,0.11,0.43
			c1.29,4.88,2.67,9.73,4.14,14.53c0.02,0.06,0.03,0.11,0.05,0.17c0.35,1.14,0.71,2.29,1.07,3.42c0.05,0.15,0.1,0.3,0.14,0.45
			c0.37,1.15,0.74,2.3,1.11,3.44l32.13-32.13C122.35,837.91,123.85,834.28,123.85,830.42z"/>
		<path class="st2" d="M144.65,982.72L144.65,982.72C144.65,982.72,144.65,982.72,144.65,982.72c7.85,10.53,16.23,20.64,25.09,30.31
			c0,0,0,0,0,0c-0.2-3.55-1.66-6.87-4.2-9.41L144.65,982.72z"/>
		<path class="st2" d="M83.37,669.8c0,3.86,1.5,7.5,4.24,10.23l17.13,17.13c5.64,5.64,14.81,5.64,20.45,0l85.87-85.88
			c2.28-2.28,3.69-5.2,4.1-8.35h-70.92L87.6,659.58C84.87,662.31,83.37,665.94,83.37,669.8z"/>
		<path class="st2" d="M160.89,684.15c-3.7,0-7.41,1.41-10.23,4.23l-17.13,17.13c-2.73,2.73-4.24,6.36-4.24,10.23
			c0,3.86,1.5,7.5,4.24,10.23l85.87,85.88c5.63,5.63,14.79,5.64,20.43,0.02c6.51-12.19,12.13-24.88,16.79-37.97l-85.51-85.51
			C168.3,685.56,164.59,684.15,160.89,684.15z"/>
		<path class="st2" d="M215.27,829.53c-0.22-3.62-1.88-7-4.44-9.57l-16.9-16.9c-2.82-2.82-6.52-4.23-10.23-4.23
			c-3.7,0-7.41,1.41-10.23,4.23l-81.8,81.8c0.07,0.18,0.14,0.37,0.21,0.55c0.46,1.24,0.92,2.48,1.38,3.71
			c0.54,1.41,1.08,2.82,1.64,4.23c0.79,2.01,1.6,4.01,2.42,6c0,0,0,0,0,0c0,0,0,0,0,0c3.86,10.54,8.7,20.1,13.38,28.98
			c0.75,1.42,2.2,2.35,3.81,2.4c0.87,0.03,1.73-0.02,2.59-0.15c2.77-1.36,5.52-2.76,8.23-4.21l85.72-85.73
			C214,837.7,215.52,833.72,215.27,829.53z M101.44,892.86c-0.15-0.18-0.31-0.34-0.49-0.49
			C101.13,892.53,101.29,892.69,101.44,892.86z M102.29,894.58c0,0.02,0,0.04,0.01,0.05c-0.02-0.08-0.04-0.15-0.06-0.23
			C102.25,894.47,102.27,894.52,102.29,894.58z M102.17,894.19c-0.03-0.1-0.07-0.2-0.11-0.29
			C102.1,893.99,102.14,894.09,102.17,894.19z M102.04,893.84c-0.09-0.21-0.2-0.41-0.33-0.6
			C101.84,893.43,101.95,893.63,102.04,893.84z M101.68,893.18c-0.07-0.1-0.14-0.2-0.21-0.29
			C101.54,892.99,101.61,893.08,101.68,893.18z M99.35,891.55c-0.06-0.02-0.13-0.04-0.19-0.05c0.01,0,0.02,0,0.03,0
			C99.25,891.52,99.3,891.54,99.35,891.55z M100.89,892.33c-0.09-0.07-0.18-0.14-0.28-0.21
			C100.71,892.19,100.8,892.25,100.89,892.33z M100.54,892.07c-0.17-0.11-0.36-0.21-0.55-0.3
			C100.19,891.86,100.37,891.96,100.54,892.07z M99.88,891.73c-0.09-0.04-0.18-0.07-0.28-0.1C99.7,891.65,99.79,891.69,99.88,891.73
			z M98.59,891.43c-0.04,0-0.09-0.01-0.13-0.01C98.51,891.43,98.55,891.43,98.59,891.43z M95.77,892.35
			c-0.05,0.04-0.11,0.09-0.16,0.14C95.67,892.44,95.72,892.4,95.77,892.35z M98.02,891.44c-0.06,0-0.11,0-0.17,0.01
			C97.9,891.44,97.96,891.44,98.02,891.44z M97.27,891.56c-0.03,0.01-0.06,0.02-0.09,0.03C97.21,891.58,97.24,891.57,97.27,891.56z
			 M96.74,891.76c-0.06,0.03-0.12,0.06-0.17,0.09C96.62,891.81,96.68,891.78,96.74,891.76z M96.23,892.02
			c-0.06,0.04-0.12,0.08-0.18,0.12C96.12,892.1,96.17,892.06,96.23,892.02z M95.35,892.76c-0.04,0.04-0.08,0.09-0.12,0.13
			C95.27,892.85,95.31,892.81,95.35,892.76z M101.08,898.41c0.03-0.03,0.06-0.06,0.09-0.09
			C101.15,898.35,101.12,898.38,101.08,898.41z M98.78,899.47c0.05-0.01,0.09-0.01,0.14-0.02
			C98.88,899.45,98.83,899.46,98.78,899.47z M99.21,899.39c0.05-0.01,0.11-0.03,0.16-0.04C99.32,899.37,99.26,899.38,99.21,899.39z
			 M99.62,899.28c0.05-0.02,0.11-0.04,0.16-0.06C99.73,899.24,99.67,899.26,99.62,899.28z M100.01,899.12
			c0.05-0.02,0.1-0.05,0.16-0.08C100.12,899.08,100.07,899.1,100.01,899.12z M100.39,898.93c0.05-0.03,0.1-0.06,0.15-0.09
			C100.48,898.87,100.44,898.9,100.39,898.93z M100.74,898.69c0.04-0.03,0.09-0.06,0.13-0.09
			C100.83,898.63,100.78,898.66,100.74,898.69z M102.37,895.67c0-0.06,0.01-0.11,0.01-0.17
			C102.37,895.56,102.37,895.61,102.37,895.67z M101.46,898.02c0.01-0.01,0.02-0.03,0.03-0.04
			C101.48,897.99,101.47,898.01,101.46,898.02z M101.7,897.68c0.03-0.04,0.05-0.08,0.07-0.12
			C101.75,897.6,101.73,897.65,101.7,897.68z M101.91,897.33c0.03-0.05,0.05-0.1,0.07-0.15
			C101.96,897.23,101.94,897.28,101.91,897.33z M102.09,896.94c0.02-0.05,0.04-0.11,0.06-0.16
			C102.13,896.84,102.11,896.89,102.09,896.94z M102.22,896.54c0.02-0.06,0.03-0.11,0.04-0.17
			C102.26,896.43,102.24,896.48,102.22,896.54z M102.32,896.12c0.01-0.06,0.02-0.12,0.03-0.17
			C102.34,896,102.33,896.06,102.32,896.12z M102.36,895.05c0,0.04,0,0.08,0.01,0.12C102.36,895.13,102.36,895.09,102.36,895.05z"/>
		<path class="st2" d="M256.99,1024.07c2.73-2.73,4.24-6.36,4.24-10.23c0-3.86-1.5-7.5-4.24-10.23L185.38,932
			c-5.64,4.29-11.43,8.41-17.38,12.33c-2.55,1.68-5.13,3.31-7.73,4.92c-6.8,4.2-13.78,8.16-20.94,11.87l80.08,80.08
			c5.64,5.64,14.81,5.64,20.45,0L256.99,1024.07z"/>
		<path class="st2" d="M194.42,1031.94c-2.82-2.82-6.52-4.23-10.23-4.23c-0.08,0-0.16,0.01-0.25,0.01c4.93,4.84,10,9.55,15.18,14.12
			c0.08,0.07,0.17,0.15,0.25,0.22c1.18,1.04,2.37,2.07,3.56,3.1c0.16,0.13,0.31,0.27,0.47,0.4c1.14,0.98,2.29,1.95,3.44,2.91
			c0.17,0.14,0.34,0.28,0.51,0.42c1.17,0.98,2.36,1.95,3.54,2.92c0.13,0.1,0.25,0.21,0.38,0.31c1.3,1.06,2.61,2.11,3.93,3.15
			c-0.67-2.32-1.91-4.45-3.66-6.21L194.42,1031.94z"/>
		<path class="st2" d="M174.81,669.8c0,3.86,1.5,7.5,4.24,10.23l17.13,17.13c5.64,5.64,14.81,5.64,20.45,0l56.11-56.11v-17.84v-0.29
			v-14.59c0-2.98-2.41-5.39-5.39-5.39h-31.66l-56.64,56.64C176.31,662.31,174.81,665.94,174.81,669.8z"/>
		<path class="st2" d="M252.33,684.15c-3.7,0-7.41,1.41-10.23,4.23l-17.13,17.13c-2.73,2.73-4.24,6.36-4.24,10.23
			c0,3.86,1.5,7.5,4.24,10.23l35.69,35.69c6.23-20.47,10.15-41.81,11.51-63.65l-9.62-9.62
			C259.74,685.56,256.04,684.15,252.33,684.15z"/>
		<path class="st2" d="M331.31,811.84l17.13-17.13c2.73-2.73,4.24-6.36,4.24-10.23s-1.5-7.5-4.24-10.23l-42.58-42.59
			c-3.34,20.4-8.67,40.27-15.8,59.36l20.8,20.8C316.49,817.48,325.67,817.48,331.31,811.84z"/>
		<path class="st2" d="M228.38,892.49c-0.17,0.19-0.34,0.38-0.51,0.57c-6.34,6.98-13.01,13.7-19.98,20.11
			c-0.96,0.88-1.93,1.76-2.9,2.63c-3.43,3.08-6.94,6.09-10.52,9.03l1.7,1.7c5.64,5.64,14.81,5.64,20.45,0l85.87-85.88
			c2.73-2.73,4.24-6.36,4.24-10.23c0-3.86-1.5-7.49-4.24-10.23l-17.13-17.13c-0.02-0.02-0.04-0.04-0.06-0.06
			c-3.63,8.62-7.63,17.06-11.99,25.3c-0.92,1.73-1.85,3.46-2.8,5.18C258.79,854.67,244.65,874.48,228.38,892.49z"/>
		<path class="st2" d="M178.81,889.19c8.45-7.49,16.41-15.47,23.86-23.88l-23.63,23.63C178.96,889.02,178.89,889.11,178.81,889.19z"
			/>
		<path class="st2" d="M252.33,913.52c-3.7,0-7.41,1.41-10.23,4.23l-17.13,17.13c-2.73,2.73-4.24,6.36-4.24,10.23
			c0,3.86,1.5,7.5,4.24,10.23l85.87,85.88c5.64,5.64,14.81,5.64,20.45,0l17.13-17.13c2.73-2.73,4.24-6.36,4.24-10.23
			c0-3.86-1.5-7.5-4.24-10.23l-85.87-85.88C259.74,914.93,256.04,913.52,252.33,913.52z"/>
		<path class="st2" d="M307.23,1059.29c0-3.86-1.5-7.49-4.24-10.23l-17.13-17.13c-2.82-2.82-6.52-4.23-10.23-4.23
			c-3.7,0-7.41,1.41-10.23,4.23l-34.85,34.85c5.26,3.75,10.61,7.37,16.06,10.85c1.7,1.09,3.42,2.16,5.14,3.22
			c0.36,0.22,0.72,0.45,1.08,0.67c1.73,1.06,3.48,2.12,5.23,3.16c1.52,0.9,3.05,1.79,4.58,2.66c0.22,0.13,0.45,0.25,0.67,0.38
			c1.32,0.76,2.65,1.5,3.99,2.24c0.23,0.13,0.46,0.26,0.7,0.38c1.38,0.76,2.77,1.52,4.16,2.26c0.14,0.07,0.28,0.15,0.42,0.22
			c1.54,0.82,3.09,1.64,4.64,2.44c0,0,0,0,0.01,0l0,0l25.77-25.77C305.72,1066.79,307.23,1063.15,307.23,1059.29z"/>
		<path class="st2" d="M398.05,602.94h-70.92l-17.11,17.11v60.53c0,5.02-0.13,10.02-0.37,15.01l84.3-84.3
			C396.23,609,397.64,606.09,398.05,602.94z"/>
		<path class="st2" d="M272.73,680.58v-23.25l-2.25,2.25c-2.73,2.73-4.24,6.36-4.24,10.23s1.5,7.5,4.24,10.23l2.23,2.23
			C272.72,681.7,272.73,681.14,272.73,680.58z"/>
		<path class="st2" d="M343.78,684.15c-3.7,0-7.41,1.41-10.23,4.23l-17.13,17.13c-2.73,2.73-4.24,6.36-4.24,10.23
			c0,3.86,1.5,7.5,4.24,10.23l85.87,85.88c5.64,5.64,14.81,5.64,20.45,0l13.03-13.03v-28.64L354,688.38
			C351.18,685.56,347.48,684.15,343.78,684.15z"/>
		<path class="st2" d="M398.18,830.42c0-3.86-1.5-7.49-4.24-10.23l-17.13-17.13c-2.82-2.82-6.52-4.23-10.23-4.23
			c-3.7,0-7.41,1.41-10.23,4.23l-85.87,85.88c-2.73,2.73-4.24,6.36-4.24,10.23s1.5,7.5,4.24,10.23l17.13,17.13
			c5.64,5.64,14.81,5.64,20.45,0l85.87-85.88C396.68,837.91,398.18,834.28,398.18,830.42z"/>
		<path class="st2" d="M343.78,913.52c-3.7,0-7.41,1.41-10.23,4.23l-17.13,17.13c-2.73,2.73-4.24,6.36-4.24,10.23
			c0,3.86,1.5,7.5,4.24,10.23l85.87,85.88c5.64,5.64,14.81,5.64,20.45,0l13.03-13.03v-28.64L354,917.74
			C351.18,914.93,347.48,913.52,343.78,913.52z"/>
		<path class="st2" d="M398.67,1059.29c0-3.86-1.5-7.49-4.24-10.23l-17.13-17.13c-2.82-2.82-6.52-4.23-10.23-4.23
			s-7.41,1.41-10.23,4.23l-68.76,68.76c0,0,0,0,0,0c2.42,1.16,4.85,2.29,7.29,3.4c1.79,0.81,3.58,1.6,5.38,2.38
			c0.13,0.06,0.27,0.12,0.4,0.17c1.76,0.76,3.53,1.51,5.3,2.25c12.2,4.79,23.63,9.02,35.77,12.81l52.19-52.19
			C397.17,1066.79,398.67,1063.15,398.67,1059.29z"/>
		<path class="st2" d="M430.4,602.94h-11.83l-56.64,56.64c-2.94,2.94-4.46,6.93-4.21,11.12c0.22,3.62,1.88,7,4.44,9.56l16.9,16.9
			c5.64,5.64,14.81,5.64,20.45,0l36.27-36.27v-52.56C435.78,605.35,433.37,602.94,430.4,602.94z"/>
		<path class="st2" d="M489.49,602.94h-11.04c-2.98,0-5.39,2.41-5.39,5.39v15.29l12.32-12.32
			C487.67,609,489.08,606.09,489.49,602.94z"/>
		<path class="st2" d="M514.19,811.84l17.13-17.13c2.73-2.73,4.24-6.36,4.24-10.23s-1.5-7.5-4.24-10.23L473.06,716v75.17
			l20.68,20.68C499.38,817.48,508.55,817.48,514.19,811.84z"/>
		<path class="st2" d="M424.99,688.38l-17.13,17.13c-2.73,2.73-4.24,6.36-4.24,10.23c0,3.86,1.5,7.5,4.24,10.23l27.92,27.92v-69.7
			c-0.19-0.01-0.38-0.03-0.56-0.03C431.52,684.15,427.81,685.56,424.99,688.38z"/>
		<path class="st2" d="M489.62,830.42c0-3.86-1.5-7.49-4.24-10.23l-12.32-12.32v22.77v1.12v21.21l12.32-12.32
			C488.12,837.91,489.62,834.28,489.62,830.42z"/>
		<path class="st2" d="M357.69,899.17c0,3.86,1.5,7.5,4.24,10.23l17.13,17.13c5.64,5.64,14.81,5.64,20.45,0l36.27-36.27v-12.44
			v-7.05v-15.18v-6.31v-15.25v-5.64v-13.3l-73.85,73.85C359.2,891.67,357.69,895.3,357.69,899.17z"/>
		<path class="st2" d="M514.19,1041.2l17.13-17.13c2.73-2.73,4.24-6.36,4.24-10.23c0-3.86-1.5-7.5-4.24-10.23l-58.26-58.26v75.17
			l20.68,20.68C499.38,1046.84,508.55,1046.84,514.19,1041.2z"/>
		<path class="st2" d="M424.99,917.74l-17.13,17.13c-2.73,2.73-4.24,6.36-4.24,10.23c0,3.86,1.5,7.5,4.24,10.23l27.92,27.92v-11.58
			v-9.12v-12.45v-8.42v-12.84v-7.67v-7.61c-0.19-0.01-0.38-0.03-0.56-0.03C431.52,913.52,427.81,914.93,424.99,917.74z"/>
		<path class="st2" d="M490.11,1059.29c0-3.86-1.5-7.49-4.24-10.23l-12.81-12.81v18.45v10.74v16.89l12.81-12.81
			C488.61,1066.79,490.11,1063.15,490.11,1059.29z"/>
		<path class="st2" d="M358.31,1126.21C358.31,1126.21,358.32,1126.21,358.31,1126.21c2.87,0.73,5.74,1.43,8.62,2.1
			c3.4,0.79,6.81,1.53,10.25,2.22c0,0,0,0,0,0c0.01,0,0.01,0,0.02,0c1.65,0.33,3.3,0.66,4.95,0.97c0.22,0.04,0.44,0.08,0.66,0.12
			c1.45,0.27,2.9,0.54,4.35,0.79c0.3,0.05,0.61,0.1,0.91,0.16c1.38,0.24,2.77,0.47,4.16,0.7c0.33,0.05,0.66,0.1,0.98,0.16
			c1.38,0.22,2.76,0.43,4.14,0.64c0.32,0.05,0.64,0.09,0.96,0.14c1.4,0.2,2.81,0.4,4.22,0.59c0.29,0.04,0.58,0.08,0.87,0.12
			c1.46,0.19,2.93,0.38,4.39,0.55c0.24,0.03,0.47,0.06,0.71,0.09c1.56,0.18,3.12,0.36,4.68,0.53c0.15,0.02,0.29,0.03,0.44,0.05
			c1.71,0.18,3.42,0.35,5.13,0.51c0,0,0,0,0.01,0l17.02-17.02v-9.42v-14.06v-8.14v-13.39v-8.17v-12.72v-9.27l-73.37,73.37
			C360.12,1120.1,358.71,1123.04,358.31,1126.21z"/>
		<path class="st2" d="M490.96,697.16l85.87-85.88c2.28-2.28,3.69-5.2,4.1-8.35h-70.92l-36.95,36.95v59.3
			C478.64,702.68,486.11,702.01,490.96,697.16z"/>
		<path class="st2" d="M526.66,684.15c-3.7,0-7.41,1.41-10.23,4.23l-17.13,17.13c-2.73,2.73-4.24,6.36-4.24,10.23
			c0,3.86,1.5,7.5,4.24,10.23l85.87,85.88c5.64,5.64,14.81,5.64,20.45,0l15.28-15.28c-4.62-11.69-8.56-23.67-11.77-35.91
			l-72.26-72.26C534.07,685.56,530.37,684.15,526.66,684.15z"/>
		<path class="st2" d="M490.96,926.52l85.87-85.88c2.73-2.73,4.24-6.36,4.24-10.23c0-3.86-1.5-7.49-4.24-10.23l-17.13-17.13
			c-2.82-2.82-6.52-4.23-10.23-4.23c-3.7,0-7.41,1.41-10.23,4.23l-66.18,66.19v59.3C478.64,932.04,486.11,931.37,490.96,926.52z"/>
		<path class="st2" d="M526.66,913.52c-3.7,0-7.41,1.41-10.23,4.23l-17.13,17.13c-2.73,2.73-4.24,6.36-4.24,10.23
			c0,3.86,1.5,7.5,4.24,10.23l85.87,85.88c5.64,5.64,14.81,5.64,20.45,0l17.13-17.13c2.73-2.73,4.24-6.36,4.24-10.23
			c0-3.86-1.5-7.5-4.24-10.23l-85.87-85.88C534.07,914.93,530.37,913.52,526.66,913.52z"/>
		<path class="st2" d="M581.53,1060.19c0.25-4.19-1.27-8.18-4.21-11.12l-17.13-17.13c-2.82-2.82-6.52-4.23-10.23-4.23
			c-3.7,0-7.41,1.41-10.23,4.23l-66.67,66.67v33.49c0,3.1,2.61,5.56,5.7,5.38c2.12-0.13,4.25-0.26,5.23-0.33
			c0.01,0,4.44-0.36,6.64-0.57c0.47-0.04,0.94-0.09,1.41-0.13c4.4-0.43,8.79-0.93,13.15-1.5c0.43-0.06,0.87-0.12,1.3-0.17
			c2.17-0.29,4.34-0.6,6.5-0.93l64.1-64.1C579.65,1067.19,581.31,1063.8,581.53,1060.19z"/>
		<path class="st2" d="M697.08,811.84l17.13-17.13c2.73-2.73,4.24-6.36,4.24-10.23s-1.5-7.5-4.24-10.23l-77.63-77.63
			c0.77,13.36,2.49,26.54,5.12,39.45c0.21,1.03,0.44,2.06,0.66,3.09c4.29,19.94,10.74,39.22,19.14,57.53l15.13,15.13
			C682.26,817.48,691.44,817.48,697.08,811.84z"/>
		<path class="st2" d="M586.51,715.74c0,3.86,1.5,7.5,4.24,10.23l13.66,13.66c-1.39-7.3-2.52-14.68-3.4-22.12
			c-0.08-0.72-0.18-1.44-0.26-2.16c-0.67-6.08-1.16-12.2-1.48-18.35l-8.52,8.52C588.02,708.24,586.51,711.88,586.51,715.74z"/>
		<path class="st2" d="M540.58,899.17c0,3.86,1.5,7.5,4.24,10.23l17.13,17.13c5.64,5.64,14.81,5.64,20.45,0l70-70
			c-4.86-7.25-9.43-14.71-13.68-22.34c-0.92-1.65-1.83-3.32-2.72-4.99c-3.69-6.91-7.12-13.97-10.29-21.15l-80.9,80.9
			C542.08,891.67,540.58,895.3,540.58,899.17z"/>
		<path class="st2" d="M628.33,917.74c-2.82-2.82-6.52-4.23-10.23-4.23c-3.7,0-7.41,1.41-10.23,4.23l-17.13,17.13
			c-2.73,2.73-4.24,6.36-4.24,10.23c0,3.86,1.5,7.5,4.24,10.23l85.87,85.88c5.64,5.64,14.81,5.64,20.45,0l17.13-17.13
			c2.73-2.73,4.24-6.36,4.24-10.23c0-3.86-1.5-7.5-4.24-10.23L628.33,917.74z"/>
		<path class="st2" d="M651.63,1031.94c-2.82-2.82-6.52-4.23-10.23-4.23c-3.7,0-7.41,1.41-10.23,4.23l-85.87,85.88
			c-2.73,2.73-4.24,6.36-4.24,10.23c0,0.15,0.02,0.31,0.02,0.46c1.21-0.28,2.41-0.56,3.61-0.85c0.14-0.03,0.28-0.07,0.42-0.1
			c1.29-0.31,2.58-0.63,3.87-0.96c4.79-1.21,9.54-2.5,14.26-3.88c2.37-0.7,4.73-1.41,7.09-2.15c1.55-0.49,3.1-0.98,4.64-1.49
			c0,0,0.01,0,0.01,0c1.54-0.51,3.08-1.02,4.61-1.55c10.77-3.69,21.32-7.84,31.64-12.43c0,0,0,0,0,0c0,0,0,0,0,0
			c4.25-1.89,8.46-3.86,12.63-5.9c0,0,0,0,0,0c0,0,0,0,0,0c1.45-0.71,2.9-1.43,4.35-2.16c0.01-0.01,0.02-0.01,0.03-0.02
			c1.43-0.72,2.85-1.45,4.27-2.19c0.03-0.02,0.06-0.03,0.09-0.05c1.39-0.73,2.78-1.46,4.17-2.2c0.06-0.03,0.11-0.06,0.17-0.09
			c1.36-0.73,2.71-1.47,4.06-2.21c0.08-0.04,0.15-0.09,0.23-0.13c1.33-0.74,2.65-1.48,3.97-2.23c0.09-0.05,0.19-0.11,0.28-0.16
			c1.31-0.75,2.62-1.5,3.92-2.27c0.09-0.05,0.19-0.11,0.28-0.16c1.32-0.78,2.64-1.56,3.95-2.35c0.07-0.04,0.13-0.08,0.2-0.12
			c1.37-0.83,2.73-1.66,4.09-2.51l10.83-10.83c2.73-2.73,4.24-6.36,4.24-10.23c0-3.86-1.5-7.49-4.24-10.23L651.63,1031.94z"/>
		<path class="st2" d="M653.39,697.16c5.64,5.64,14.81,5.64,20.45,0l85.87-85.88c2.28-2.28,3.69-5.2,4.1-8.35H692.9l-56.64,56.64
			c-0.05,0.05-0.1,0.11-0.15,0.16v20.13c0.05,0.05,0.09,0.11,0.15,0.16L653.39,697.16z"/>
		<path class="st2" d="M788.52,811.84l17.13-17.13c2.73-2.73,4.24-6.36,4.24-10.23s-1.5-7.5-4.24-10.23l-85.87-85.88
			c-2.82-2.82-6.52-4.23-10.23-4.23c-3.7,0-7.41,1.41-10.23,4.23l-17.13,17.13c-2.73,2.73-4.24,6.36-4.24,10.23
			c0,3.86,1.5,7.5,4.24,10.23l85.87,85.88C773.71,817.48,782.88,817.48,788.52,811.84z"/>
		<path class="st2" d="M632.02,899.17c0,3.86,1.5,7.5,4.24,10.23l17.13,17.13c5.64,5.64,14.81,5.64,20.45,0l20.06-20.06
			c-2.46-2.41-4.88-4.85-7.25-7.33c-0.69-0.72-1.39-1.44-2.07-2.17c-5.75-6.12-11.23-12.46-16.46-19c-1.32-1.65-2.62-3.31-3.91-4.99
			c-1.74-2.26-3.45-4.54-5.12-6.85l-22.83,22.83C633.53,891.67,632.02,895.3,632.02,899.17z"/>
		<path class="st2" d="M720.26,880.1l39.45-39.45c2.73-2.73,4.24-6.36,4.24-10.23c0-3.86-1.5-7.49-4.24-10.23l-17.13-17.13
			c-2.82-2.82-6.52-4.23-10.23-4.23c-3.7,0-7.41,1.41-10.23,4.23l-36.31,36.31C695.95,853.98,707.48,867.63,720.26,880.1z"/>
		<path class="st2" d="M716.34,926.41c-2.12-1.71-4.22-3.45-6.3-5.22c-2.36-2.01-4.69-4.06-6.99-6.14
			c-1.35,0.68-2.61,1.56-3.73,2.68l-17.13,17.13c-2.73,2.73-4.24,6.36-4.24,10.23c0,3.86,1.5,7.5,4.24,10.23l57.29,57.29
			c2.68-2.93,5.31-5.9,7.89-8.9c0.2-0.23,0.39-0.46,0.59-0.69c1.06-1.23,2.1-2.47,3.14-3.72c0.24-0.28,0.48-0.57,0.71-0.85
			c1.22-1.47,2.43-2.95,3.63-4.44c0,0,0,0,0,0c0,0,0.01-0.01,0.01-0.01c1.16-1.45,2.31-2.9,3.46-4.37v0
			c1.15-1.47,2.29-2.96,3.42-4.45c0.1-0.13,0.19-0.25,0.29-0.38c3.48-4.6,6.86-9.28,10.14-14.05c0,0,0,0,0-0.01v0l-17.39-17.39
			C741.61,945.32,728.58,936.29,716.34,926.41z"/>
		<path class="st2" d="M723.49,670.7c0.22,3.62,1.88,7,4.44,9.56l16.9,16.9c5.64,5.64,14.81,5.64,20.45,0l75.08-75.08l-0.02-8.59
			l-0.01-5.84c0-2.6-2.11-4.7-4.71-4.7h-51.28l-56.64,56.64C724.76,662.52,723.24,666.51,723.49,670.7z"/>
		<path class="st2" d="M840.54,717.71L840.54,717.71l-29.32-29.32c-2.82-2.82-6.52-4.23-10.23-4.23c-3.7,0-7.41,1.41-10.23,4.23
			l-17.13,17.13c-2.73,2.73-4.24,6.36-4.24,10.23c0,3.86,1.5,7.5,4.24,10.23L838.67,791l0,0c0-0.01,0-0.02,0-0.03
			c0.64-6.39,1.12-12.82,1.45-19.29c0-0.09,0.01-0.17,0.01-0.26c0.08-1.53,0.14-3.06,0.2-4.6c0.01-0.3,0.02-0.59,0.03-0.89
			c0.05-1.33,0.09-2.66,0.13-3.99c0.02-0.66,0.02-1.33,0.04-2c0.02-0.97,0.04-1.94,0.05-2.92c0.02-1.64,0.03-3.29,0.03-4.94
			c0,0,0,0,0,0L840.54,717.71z"/>
		<path class="st2" d="M823.8,798.83c-3.7,0-7.41,1.41-10.23,4.23l-84.91,84.91c2.06,1.85,4.16,3.67,6.28,5.47
			c2.02,1.71,4.07,3.4,6.14,5.06c9.73,7.76,20.04,14.89,30.87,21.35l50.52-50.52l0,0c0,0,0,0,0-0.01
			c2.02-6.36,3.89-12.79,5.59-19.28c0.01-0.04,0.02-0.09,0.03-0.13c0.3-1.15,0.6-2.31,0.89-3.47c0.06-0.25,0.13-0.51,0.19-0.76
			c0.27-1.08,0.53-2.16,0.79-3.24c0.08-0.32,0.15-0.64,0.23-0.96c0.25-1.06,0.5-2.13,0.74-3.19c0.07-0.29,0.13-0.58,0.19-0.86
			c0.74-3.29,1.44-6.6,2.1-9.92c0.11-0.54,0.22-1.07,0.32-1.61c0.16-0.81,0.31-1.62,0.46-2.44c0.12-0.67,0.25-1.33,0.37-2
			c0.14-0.77,0.27-1.53,0.41-2.3c0.13-0.73,0.25-1.45,0.38-2.18c0.12-0.73,0.25-1.46,0.37-2.19c0.13-0.79,0.25-1.58,0.38-2.37
			c0.11-0.68,0.22-1.36,0.32-2.05c0.14-0.95,0.28-1.9,0.42-2.85c0.08-0.53,0.16-1.06,0.23-1.59l-2.85-2.85
			C831.21,800.24,827.51,798.83,823.8,798.83z"/>
		<path class="st2" d="M800.99,913.52c-3.7,0-7.41,1.41-10.23,4.23l-8.15,8.15c2.81,1.51,5.65,2.98,8.52,4.39
			c2.64,1.3,5.84,0.25,7.18-2.37c0.6-1.16,1.05-2.03,1.05-2.03c0,0,0,0,0,0.01c0,0,0,0,0-0.01c0,0,0,0,0-0.01
			c0.81-1.6,1.61-3.21,2.39-4.83c1.12-2.3,2.22-4.62,3.3-6.95c0,0,0,0,0,0c0,0,0,0,0,0c0,0,0,0,0,0
			C803.74,913.71,802.37,913.52,800.99,913.52z"/>
		<path class="st2" d="M814.91,669.8c0,3.86,1.5,7.5,4.24,10.23l17.13,17.13c1.26,1.26,2.7,2.22,4.24,2.92l-0.11-61.75v0
			l-21.25,21.25C816.41,662.31,814.91,665.94,814.91,669.8z"/>
		<path class="st2" d="M672.37,602.94h-28.06h-2.81c-2.98,0-5.39,2.41-5.39,5.39v2.81v32.31l32.16-32.16
			C670.56,609,671.97,606.09,672.37,602.94z"/>
		<path class="st2" d="M540.58,669.8c0,3.86,1.5,7.5,4.24,10.23l17.13,17.13c5.64,5.64,14.81,5.64,20.45,0l16.44-16.44
			c0-0.05,0-0.1,0-0.14v-69.44h0v-2.81c0-0.01,0-0.02,0-0.03c0-0.8-0.19-1.56-0.5-2.24l-5.07,5.07l-48.44,48.44
			C542.08,662.31,540.58,665.94,540.58,669.8z"/>
	</g>
	<path class="st3" d="M122.39,345.12c0.14-0.04,0.28-0.07,0.42-0.11C122.67,345.04,122.53,345.07,122.39,345.12z"/>
	<path class="st3" d="M168.72,428.84c0.03,0.02,0.06,0.05,0.09,0.07C168.78,428.88,168.75,428.86,168.72,428.84z"/>
	<path class="st2" d="M122.8,345.01c0.46-0.1,0.91-0.16,1.32-0.16h1.78c-0.37-0.05-0.75-0.09-1.13-0.09
		C124.09,344.76,123.44,344.85,122.8,345.01z"/>
	<path class="st2" d="M168.72,428.84c-0.93-0.65-2-1.11-3.15-1.32l2.19,0.83C168.16,428.5,168.47,428.66,168.72,428.84z"/>
	<g>
		<g>
			<path class="st2" d="M363.65,456.91h-64.99c-2.33,0-4.39,1.47-5.14,3.66l-9.17,26.85c-0.75,2.19-2.81,3.66-5.14,3.66h-38.09
				c-3.76,0-6.38-3.71-5.1-7.22l66.62-182.64c0.78-2.13,2.82-3.55,5.1-3.55h47.38c2.28,0,4.32,1.42,5.1,3.55l66.62,182.64
				c1.28,3.51-1.34,7.22-5.1,7.22H383.1c-2.33,0-4.39-1.47-5.14-3.66l-9.17-26.85C368.04,458.38,365.98,456.91,363.65,456.91z
				 M352.89,413.42l-16.57-48.55c-1.67-4.89-8.63-4.87-10.28,0.02l-16.38,48.55c-1.18,3.49,1.44,7.1,5.15,7.1h32.95
				C351.47,420.54,354.08,416.92,352.89,413.42z"/>
			<path class="st2" d="M619.88,491.07h-39.15c-1.82,0-3.52-0.91-4.53-2.42l-67.88-101.93c-2.97-4.46-9.95-2.37-9.95,2.97v95.99
				c0,2.98-2.43,5.39-5.43,5.39h-36.64c-3,0-5.43-2.41-5.43-5.39V303.05c0-2.98,2.43-5.39,5.43-5.39h39.15
				c1.83,0,3.53,0.91,4.53,2.43l67.87,102.4c2.96,4.47,9.96,2.39,9.96-2.96v-96.47c0-2.98,2.43-5.39,5.43-5.39h36.65
				c3,0,5.43,2.41,5.43,5.39v182.64C625.3,488.66,622.87,491.07,619.88,491.07z"/>
			<path class="st2" d="M777.23,456.91h-64.99c-2.33,0-4.39,1.47-5.14,3.66l-9.17,26.85c-0.75,2.19-2.81,3.66-5.14,3.66H654.7
				c-3.76,0-6.38-3.71-5.1-7.22l66.62-182.64c0.78-2.13,2.82-3.55,5.1-3.55h47.38c2.28,0,4.32,1.42,5.1,3.55l66.62,182.64
				c1.28,3.51-1.34,7.22-5.1,7.22h-38.65c-2.33,0-4.39-1.47-5.14-3.66l-9.17-26.85C781.63,458.38,779.56,456.91,777.23,456.91z
				 M766.48,413.42l-16.57-48.55c-1.67-4.89-8.63-4.87-10.28,0.02l-16.38,48.55c-1.18,3.49,1.44,7.1,5.15,7.1h32.95
				C765.05,420.54,767.67,416.92,766.48,413.42z"/>
		</g>
		<path class="st2" d="M288.09,72.54v188.8c0,2.98-2.35,5.39-5.26,5.39h-36.77c-2.9,0-5.26-2.41-5.26-5.39V177
			c0-6.01-8.14-7.51-10.19-1.88l-31.96,88.1c-0.77,2.11-2.73,3.51-4.93,3.51h-30.86c-2.19,0-4.16-1.4-4.93-3.5l-32.23-88.5
			c-2.05-5.62-10.18-4.12-10.18,1.88v84.74c0,2.98-2.35,5.39-5.26,5.39H73.5c-2.9,0-5.26-2.41-5.26-5.39V72.54
			c0-2.98,2.35-5.39,5.26-5.39h47.06c2.14,0,4.07,1.33,4.87,3.37l48.25,122.37c1.77,4.5,8,4.49,9.76-0.02l47.75-122.33
			c0.8-2.05,2.73-3.39,4.88-3.39h46.77C285.73,67.16,288.09,69.57,288.09,72.54z"/>
		<path class="st2" d="M371.72,111.49v29.6c0,2.98,2.65,5.39,5.93,5.39h59.52c3.27,0,5.93,2.41,5.93,5.39v26.75
			c0,2.98-2.65,5.39-5.93,5.39h-59.52c-3.27,0-5.93,2.41-5.93,5.39v33.01c0,2.98,2.65,5.39,5.93,5.39h68.87
			c3.27,0,5.93,2.41,5.93,5.39v28.17c0,2.98-2.65,5.39-5.93,5.39H324.35c-3.27,0-5.93-2.41-5.93-5.39V72.54
			c0-2.98,2.65-5.39,5.93-5.39h122.17c3.27,0,5.93,2.41,5.93,5.39v28.17c0,2.98-2.65,5.39-5.93,5.39h-68.87
			C374.37,106.11,371.72,108.52,371.72,111.49z"/>
		<path class="st2" d="M652.93,266.73h-40.4c-1.82,0-3.52-0.91-4.53-2.42l-69.96-105.65c-2.96-4.47-9.94-2.38-9.94,2.96v99.73
			c0,2.98-2.43,5.39-5.42,5.39h-37.9c-2.99,0-5.42-2.41-5.42-5.39V72.54c0-2.98,2.43-5.39,5.42-5.39h40.39
			c1.83,0,3.53,0.92,4.53,2.43l69.96,106.13c2.95,4.48,9.95,2.4,9.95-2.95V72.54c0-2.98,2.43-5.39,5.42-5.39h37.9
			c2.99,0,5.42,2.41,5.42,5.39v188.8C658.35,264.32,655.92,266.73,652.93,266.73z"/>
		<path class="st2" d="M216.9,412.91c-5.94-14.34-17.68-23.4-32.33-28.75l-61.18-23.26c-3.83-0.66-6.74-3.99-6.74-8.01
			c0-3.66,2.42-6.76,5.75-7.78c0.14-0.04,0.28-0.08,0.42-0.11c0.63-0.16,1.29-0.25,1.97-0.25c0.39,0,0.76,0.04,1.13,0.09h81.88
			c2.98,0,5.39-2.41,5.39-5.39v-36.41c0-2.98-2.41-5.39-5.39-5.39h-83.67c-21.97,0-41.98,12.86-50.99,32.76
			c-6.33,13.99-6.61,31.45-0.63,45.6c5.99,14.14,17.99,23.17,32.48,28.47l60.57,23.02c1.16,0.22,2.22,0.67,3.15,1.32
			c0.03,0.02,0.06,0.05,0.09,0.07c2.05,1.48,3.39,3.88,3.39,6.6c0,4.34-3.4,7.87-7.68,8.11c-0.19,0.08-0.38,0.13-0.58,0.13H75.56
			c-2.98,0-5.39,2.41-5.39,5.39v36.55c0,2.98,2.41,5.39,5.39,5.39h88.39c21.6,0,41.47-12.56,50.63-31.98l1.34-2.84
			C222.53,442.2,222.84,427.25,216.9,412.91z"/>
		<path class="st2" d="M836.28,186.08c-5.94-14.8-17.68-24.15-32.33-29.67l-61.18-24c-3.83-0.68-6.74-4.12-6.74-8.26
			c0-3.78,2.42-6.97,5.75-8.02c0.14-0.04,0.28-0.08,0.42-0.11c0.63-0.16,1.29-0.26,1.97-0.26c0.39,0,0.76,0.04,1.13,0.09h81.88
			c2.98,0,5.39-2.49,5.39-5.56V72.72c0-3.07-2.41-5.56-5.39-5.56h-83.67c-21.97,0-41.98,13.27-50.99,33.81
			c-6.33,14.44-6.61,32.46-0.63,47.05c5.99,14.59,17.99,23.91,32.48,29.38l60.57,23.76c1.16,0.22,2.22,0.69,3.15,1.36
			c0.03,0.02,0.06,0.05,0.09,0.07c2.05,1.52,3.39,4,3.39,6.81c0,4.48-3.4,8.12-7.68,8.37c-0.19,0.08-0.38,0.14-0.58,0.14h-88.39
			c-2.98,0-5.39,2.49-5.39,5.56v37.71c0,3.07,2.41,5.56,5.39,5.56h88.39c21.6,0,41.47-12.96,50.63-33l1.34-2.93
			C841.91,216.3,842.22,200.87,836.28,186.08z"/>
	</g>
	<g>
		<path class="st0" d="M104.12,550.39c1.71,2.2,2.56,4.7,2.56,7.52c0,4.07-1.42,7.29-4.26,9.67c-2.84,2.38-6.81,3.57-11.89,3.57
			H69.25c-0.77,0-1.39-0.62-1.39-1.39v-45.88c0-0.77,0.62-1.39,1.39-1.39h20.52c4.94,0,8.81,1.13,11.61,3.4
			c2.8,2.26,4.19,5.34,4.19,9.22c0,2.87-0.75,5.25-2.25,7.14c-0.85,1.07-1.86,1.96-3.02,2.66c-0.89,0.54-0.84,1.89,0.09,2.37
			C101.84,548.02,103.08,549.06,104.12,550.39z M79.72,540.79c0,0.77,0.62,1.39,1.39,1.39h6.37c1.94,0,3.43-0.43,4.47-1.28
			c1.04-0.85,1.56-2.11,1.56-3.78s-0.52-2.93-1.56-3.81c-1.04-0.88-2.53-1.32-4.47-1.32h-6.37c-0.77,0-1.39,0.62-1.39,1.39V540.79z
			 M93.06,560.23c1.09-0.9,1.63-2.21,1.63-3.92c0-1.71-0.57-3.05-1.7-4.02c-1.13-0.97-2.69-1.46-4.68-1.46h-7.21
			c-0.77,0-1.39,0.62-1.39,1.39v7.97c0,0.77,0.62,1.39,1.39,1.39h7.35C90.44,561.58,91.98,561.13,93.06,560.23z"/>
		<path class="st0" d="M151.58,562.56h-16.17c-0.6,0-1.12,0.38-1.32,0.94l-2.27,6.71c-0.19,0.56-0.72,0.94-1.32,0.94h-9.43
			c-0.96,0-1.63-0.96-1.31-1.86l16.6-45.88c0.2-0.55,0.72-0.92,1.31-0.92h11.78c0.58,0,1.11,0.37,1.31,0.92l16.6,45.88
			c0.33,0.91-0.34,1.86-1.31,1.86h-9.57c-0.6,0-1.12-0.38-1.32-0.94l-2.27-6.71C152.7,562.93,152.17,562.56,151.58,562.56z
			 M148.9,551.57l-4.09-12.07c-0.43-1.26-2.21-1.26-2.63,0l-4.04,12.07c-0.3,0.9,0.37,1.83,1.32,1.83h8.13
			C148.54,553.41,149.21,552.47,148.9,551.57z"/>
		<path class="st0" d="M261.27,570.6l-13.45-17.67c-0.81-1.06-2.49-0.49-2.49,0.84v15.98c0,0.77-0.62,1.39-1.39,1.39h-9.07
			c-0.77,0-1.39-0.62-1.39-1.39v-45.88c0-0.77,0.62-1.39,1.39-1.39h9.07c0.77,0,1.39,0.62,1.39,1.39v15.84
			c0,1.33,1.69,1.9,2.49,0.84l13.31-17.52c0.26-0.35,0.67-0.55,1.11-0.55h10.38c1.16,0,1.81,1.34,1.09,2.25l-16.4,20.74
			c-0.4,0.5-0.4,1.22,0,1.72l17.1,21.71c0.72,0.91,0.07,2.25-1.09,2.25h-10.94C261.94,571.15,261.53,570.95,261.27,570.6z"/>
		<path class="st0" d="M302.37,533.37v7.07c0,0.77,0.62,1.39,1.39,1.39h13.1c0.77,0,1.39,0.62,1.39,1.39v6.37
			c0,0.77-0.62,1.39-1.39,1.39h-13.1c-0.77,0-1.39,0.62-1.39,1.39v7.9c0,0.77,0.62,1.39,1.39,1.39h15.18c0.77,0,1.39,0.62,1.39,1.39
			v6.72c0,0.77-0.62,1.39-1.39,1.39h-27.03c-0.77,0-1.39-0.62-1.39-1.39v-45.88c0-0.77,0.62-1.39,1.39-1.39h27.03
			c0.77,0,1.39,0.62,1.39,1.39v6.72c0,0.77-0.62,1.39-1.39,1.39h-15.18C302.99,531.98,302.37,532.61,302.37,533.37z"/>
		<path class="st0" d="M371.76,523.88v6.72c0,0.77-0.62,1.39-1.39,1.39h-10.12c-0.77,0-1.39,0.62-1.39,1.39v36.39
			c0,0.77-0.62,1.39-1.39,1.39h-9.07c-0.77,0-1.39-0.62-1.39-1.39v-36.39c0-0.77-0.62-1.39-1.39-1.39h-10.12
			c-0.77,0-1.39-0.62-1.39-1.39v-6.72c0-0.77,0.62-1.39,1.39-1.39h34.86C371.14,522.49,371.76,523.11,371.76,523.88z"/>
		<path class="st0" d="M422.71,550.39c1.71,2.2,2.56,4.7,2.56,7.52c0,4.07-1.42,7.29-4.26,9.67c-2.84,2.38-6.81,3.57-11.89,3.57
			h-21.28c-0.77,0-1.39-0.62-1.39-1.39v-45.88c0-0.77,0.62-1.39,1.39-1.39h20.52c4.94,0,8.81,1.13,11.61,3.4
			c2.8,2.26,4.19,5.34,4.19,9.22c0,2.87-0.75,5.25-2.25,7.14c-0.85,1.07-1.86,1.96-3.02,2.66c-0.89,0.54-0.84,1.89,0.09,2.37
			C420.43,548.02,421.67,549.06,422.71,550.39z M398.31,540.79c0,0.77,0.62,1.39,1.39,1.39h6.37c1.94,0,3.43-0.43,4.47-1.28
			c1.04-0.85,1.56-2.11,1.56-3.78s-0.52-2.93-1.56-3.81c-1.04-0.88-2.53-1.32-4.47-1.32h-6.37c-0.77,0-1.39,0.62-1.39,1.39V540.79z
			 M411.65,560.23c1.09-0.9,1.63-2.21,1.63-3.92c0-1.71-0.57-3.05-1.7-4.02c-1.13-0.97-2.69-1.46-4.68-1.46h-7.21
			c-0.77,0-1.39,0.62-1.39,1.39v7.97c0,0.77,0.62,1.39,1.39,1.39h7.35C409.03,561.58,410.57,561.13,411.65,560.23z"/>
		<path class="st0" d="M470.17,562.56H454c-0.6,0-1.12,0.38-1.32,0.94l-2.27,6.71c-0.19,0.56-0.72,0.94-1.32,0.94h-9.43
			c-0.96,0-1.63-0.96-1.31-1.86l16.6-45.88c0.2-0.55,0.72-0.92,1.31-0.92h11.78c0.58,0,1.11,0.37,1.31,0.92l16.6,45.88
			c0.33,0.91-0.34,1.86-1.31,1.86h-9.57c-0.6,0-1.12-0.38-1.32-0.94l-2.27-6.71C471.29,562.93,470.76,562.56,470.17,562.56z
			 M467.49,551.57l-4.09-12.07c-0.43-1.26-2.21-1.26-2.63,0l-4.04,12.07c-0.3,0.9,0.37,1.83,1.32,1.83h8.13
			C467.13,553.41,467.8,552.47,467.49,551.57z"/>
		<path class="st0" d="M513.93,562h12.75c0.77,0,1.39,0.62,1.39,1.39v6.37c0,0.77-0.62,1.39-1.39,1.39h-24.6
			c-0.77,0-1.39-0.62-1.39-1.39v-45.88c0-0.77,0.62-1.39,1.39-1.39h9.07c0.77,0,1.39,0.62,1.39,1.39v36.73
			C512.55,561.38,513.17,562,513.93,562z"/>
		<path class="st0" d="M555.73,562h12.75c0.77,0,1.39,0.62,1.39,1.39v6.37c0,0.77-0.62,1.39-1.39,1.39h-24.6
			c-0.77,0-1.39-0.62-1.39-1.39v-45.88c0-0.77,0.62-1.39,1.39-1.39h9.07c0.77,0,1.39,0.62,1.39,1.39v36.73
			C554.35,561.38,554.97,562,555.73,562z"/>
		<path class="st0" d="M670.94,523.88v45.88c0,0.77-0.62,1.39-1.39,1.39h-9.07c-0.77,0-1.39-0.62-1.39-1.39v-45.88
			c0-0.77,0.62-1.39,1.39-1.39h9.07C670.32,522.49,670.94,523.11,670.94,523.88z"/>
		<path class="st0" d="M700.12,533.37v7.07c0,0.77,0.62,1.39,1.39,1.39h13.1c0.77,0,1.39,0.62,1.39,1.39v6.37
			c0,0.77-0.62,1.39-1.39,1.39h-13.1c-0.77,0-1.39,0.62-1.39,1.39v7.9c0,0.77,0.62,1.39,1.39,1.39h15.18c0.77,0,1.39,0.62,1.39,1.39
			v6.72c0,0.77-0.62,1.39-1.39,1.39h-27.03c-0.77,0-1.39-0.62-1.39-1.39v-45.88c0-0.77,0.62-1.39,1.39-1.39h27.03
			c0.77,0,1.39,0.62,1.39,1.39v6.72c0,0.77-0.62,1.39-1.39,1.39h-15.18C700.74,531.98,700.12,532.61,700.12,533.37z"/>
		<path class="st0" d="M776.65,571.15h-9.72c-0.47,0-0.9-0.23-1.16-0.62l-16.87-25.53c-0.76-1.15-2.55-0.61-2.55,0.77v24
			c0,0.77-0.62,1.39-1.39,1.39h-9.07c-0.77,0-1.39-0.62-1.39-1.39v-45.88c0-0.77,0.62-1.39,1.39-1.39h9.71
			c0.47,0,0.9,0.24,1.16,0.63l16.86,25.65c0.76,1.15,2.55,0.62,2.55-0.76v-24.12c0-0.77,0.62-1.39,1.39-1.39h9.08
			c0.77,0,1.39,0.62,1.39,1.39v45.88C778.04,570.53,777.42,571.15,776.65,571.15z"/>
		<path class="st0" d="M824.66,562.56h-16.17c-0.6,0-1.12,0.38-1.32,0.94l-2.27,6.71c-0.19,0.56-0.72,0.94-1.32,0.94h-9.43
			c-0.96,0-1.63-0.96-1.31-1.86l16.6-45.88c0.2-0.55,0.72-0.92,1.31-0.92h11.78c0.58,0,1.11,0.37,1.31,0.92l16.6,45.88
			c0.33,0.91-0.34,1.86-1.31,1.86h-9.57c-0.6,0-1.12-0.38-1.32-0.94l-2.27-6.71C825.79,562.93,825.26,562.56,824.66,562.56z
			 M821.99,551.57l-4.09-12.07c-0.43-1.26-2.21-1.26-2.63,0l-4.04,12.07c-0.3,0.9,0.37,1.83,1.32,1.83h8.13
			C821.62,553.41,822.29,552.47,821.99,551.57z"/>
	</g>
	<path class="st0" d="M218.04,559.27c0.74-8.69-2.79-12.85-8.72-15.02l-15.36-5.85c-0.96-0.17-1.69-1-1.69-2.01
		c0-0.92,0.61-1.7,1.44-1.96c0.04-0.01,0.07-0.02,0.1-0.03c0.16-0.04,0.32-0.06,0.49-0.06c0.1,0,0.19,0.01,0.28,0.02h20.56
		c0.75,0,1.35-0.61,1.35-1.36v-9.16c0-0.75-0.61-1.36-1.35-1.36h-21.01c-5.52,0-10.54,3.24-12.8,8.24
		c-1.59,3.52-1.66,7.91-0.16,11.47c1.5,3.56,4.52,5.83,8.16,7.16l15.21,5.79c0.29,0.05,0.56,0.17,0.79,0.33
		c0.01,0.01,0.02,0.01,0.02,0.02c0.52,0.37,0.85,0.98,0.85,1.66c0,1.09-0.85,1.98-1.93,2.04c-0.05,0.02-0.1,0.03-0.15,0.03h-22.19
		c-0.75,0-1.35,0.61-1.35,1.36v9.19c0,0.75,0.61,1.36,1.35,1.36h22.19C215.43,571.15,217.94,560.51,218.04,559.27z"/>
	<path class="st0" d="M644.22,559.46c0.74-8.69-2.79-12.85-8.72-15.02l-15.36-5.85c-0.96-0.17-1.69-1-1.69-2.01
		c0-0.92,0.61-1.7,1.44-1.96c0.04-0.01,0.07-0.02,0.1-0.03c0.16-0.04,0.32-0.06,0.49-0.06c0.1,0,0.19,0.01,0.28,0.02h20.56
		c0.75,0,1.35-0.61,1.35-1.36v-9.16c0-0.75-0.61-1.36-1.35-1.36h-21.01c-5.52,0-10.54,3.24-12.8,8.24
		c-1.59,3.52-1.66,7.91-0.16,11.47c1.5,3.56,4.52,5.83,8.16,7.16l15.21,5.79c0.29,0.05,0.56,0.17,0.79,0.33
		c0.01,0.01,0.02,0.01,0.02,0.02c0.52,0.37,0.85,0.98,0.85,1.66c0,1.09-0.85,1.98-1.93,2.04c-0.05,0.02-0.1,0.03-0.15,0.03h-22.19
		c-0.75,0-1.35,0.61-1.35,1.36v9.19c0,0.75,0.61,1.36,1.35,1.36h22.19C641.61,571.33,644.12,560.69,644.22,559.46z"/>
</g>
</svg>
