<?xml version="1.0" encoding="UTF-8" standalone="no"?>
<svg xmlns:rdf="http://www.w3.org/1999/02/22-rdf-syntax-ns#" xmlns="http://www.w3.org/2000/svg" height="134.84376" width="153.51949" version="1.1" xmlns:cc="http://creativecommons.org/ns#" xmlns:dc="http://purl.org/dc/elements/1.1/" viewBox="0 0 153.51949 134.84376"><polygon points="153.519 123.106 144.403 102.625 135.285 82.143 126.994 82.143 90.418 0 49.84 0 56.472 14.895 26.53 82.143 18.241 82.143 9.121 102.625 0 123.106 26.82 123.106 32.047 134.844 121.471 134.844 126.699 123.106 153.519 123.106" fill="#fff"/><polygon points="89.016 122.738 89.872 124.311 88.109 130.462 90.401 130.462 92.166 124.303 93.051 127.387 91.497 127.387 92.354 128.959 93.501 128.959 93.932 130.462 96.221 130.462 94.009 122.738 89.016 122.738" fill="#d72331"/><path d="M63.59307,122.73844v6.151H61.167v-6.151H58.10755l.85852,1.57291v5.52288c.24469.24414.3817.38207.62813.62758H65.166c.2446-.24551.38161-.38344.628-.62758v-7.09579Z" fill="#d72331"/><path d="M80.901,123.36921c-.24642-.24688-.38252-.38435-.629-.62941H73.2154l.85852,1.57155v6.15046H80.272c.24643-.24643.38253-.38344.629-.629v-2.60443l-.629-.628.629-.62859Zm-4.627.94214h2.427v1.53056l-.01329-.0267H76.7473l.85761,1.57155h1.096v1.50268H76.274Z" fill="#d72331"/><polygon points="108.911 122.738 108.911 127.179 106.492 122.738 103.433 122.738 104.289 124.311 104.289 130.462 106.492 130.462 106.492 126.023 108.911 130.462 111.115 130.462 111.115 122.738 108.911 122.738" fill="#d72331"/><path d="M45.46493,122.73844v7.72337H43.26307v-6.15046l-.85761-1.57291Zm5.65278,0H48.61158l-1.67695,3.0755h-1.4697l.8576,1.57282h.77489l1.67787,3.07505h2.50785l-2.18938-4.01045Z" fill="#d72331"/><polygon points="55.084 104.633 50.793 104.633 47.926 109.892 45.412 109.892 46.879 112.581 48.204 112.581 51.073 117.839 55.36 117.839 51.621 110.981 55.084 104.633" fill="#1b3e30"/><polygon points="18.762 115.151 18.762 104.633 13.53 104.633 14.998 107.321 14.998 117.841 25.441 117.841 23.976 115.151 18.762 115.151" fill="#1b3e30"/><path d="M37.35585,104.63252H27.8279l-1.0747,1.07424v11.05777l1.0747,1.07561h9.52795l1.0756-1.07561V105.70676Zm-2.68843,10.5182H30.51724v-7.82923h4.15018Z" fill="#1b3e30"/><polygon points="40.157 104.633 41.626 107.321 41.647 107.321 41.647 117.839 45.412 117.839 45.412 104.633 40.157 104.633" fill="#1b3e30"/><path d="M64.46134,104.63252H58.02128c-.41815.42124-.653.65482-1.0747,1.07424v11.05777l1.0747,1.07561h9.52977l1.07652-1.07561V106.21874a29.73868,29.73868,0,0,1-4.16623-1.58622m.39946,10.5182H60.71334v-7.82923H64.8608Z" fill="#1b3e30"/><polygon points="134.005 104.633 130.986 115.166 127.965 104.633 123.354 104.633 124.819 107.321 127.837 117.839 134.134 117.839 137.921 104.633 134.005 104.633" fill="#1b3e30"/><polygon points="116.477 104.633 117.945 107.321 117.945 117.841 121.709 117.841 121.709 104.633 116.477 104.633" fill="#1b3e30"/><path d="M82.42313,106.975,80.039,111.34351l-2.13426-3.90815c-.25708.00483-.51781.01913-.78109.01913a29.93938,29.93938,0,0,1-4.63593-.363l.12545.23v10.51865H76.3799l-.00273-7.59219L80.039,116.962l3.66081-6.71409v7.59219h3.76494V105.60263a29.50392,29.50392,0,0,1-5.0416,1.37232" fill="#1b3e30"/><polygon points="113.699 104.633 103.314 104.633 104.782 107.321 107.357 107.321 107.357 117.841 111.121 117.841 111.121 107.321 115.165 107.321 113.699 104.633" fill="#1b3e30"/><path d="M101.11984,104.63252h-9.528c-.41989.42124-.65656.65482-1.07471,1.07424v11.05777l1.07471,1.07561h9.528l1.07468-1.07561V105.70676Zm-2.68853,10.5182H94.28294v-7.82923h4.14837Z" fill="#1b3e30"/><path d="M47.77884,78.66531A28.65459,28.65459,0,0,1,61.27643,54.456l9.46135-21.25075L77.822,49.11245c.54623-.03025,1.0951-.05384,1.6467-.05384a27.56369,27.56369,0,0,1,10.29664,1.84512c3.2312,1.29706,6.13233,4.40727,8.15618,7.472a28.3324,28.3324,0,0,1,1.77753,38.66331h36.10242l-4.14482-9.31013h-8.29146L86.79488,5.58555H58.44115L62.586,14.89513,30.15958,87.72893H21.86729l-4.14482,9.31013h36.8283a28.33677,28.33677,0,0,1-6.77193-18.37375" fill="#d72331"/><path d="M94.45284,71.36273a33.8075,33.8075,0,0,1,.75794,5.70789q4.07679-.016,8.41072-.02a25.44852,25.44852,0,0,0-3.61818-11.57558c.03115,2.64178-2.58439,5.02466-5.55048,5.88764" fill="#d72331"/><path d="M67.34826,96.89931c9.75224-.749,11.40778-10.82465,23.96859-11.25345a38.762,38.762,0,0,0,.59788-5.401c-17.8195-.10094-31.7877-.40476-41.321-.77708,0,.0307,0,.06049.00174.08846C51.01,90.6461,59.13159,97.5319,67.34826,96.89931" fill="#d72331"/><path d="M94.44838,85.9955a7.54647,7.54647,0,0,1,5.151,6.50683A25.465,25.465,0,0,0,103.6215,80.281q-4.32766-.00342-8.41072-.02a33.83955,33.83955,0,0,1-.7624,5.73459" fill="#d72331"/><path d="M93.48583,89.44778c-2.28723,6.74206-6.65005,12.237-12.19068,14.89159A26.65034,26.65034,0,0,0,97.68849,95.108c.55871-3.06748-1.80239-4.99349-4.20266-5.66025" fill="#1b3e30"/><path d="M90.46817,89.22268C80.297,89.85254,78.47317,98.514,68.1605,99.36409a16.0002,16.0002,0,0,1-10.528-3.051,26.73113,26.73113,0,0,0,18.66462,8.32881c7.57087-1.87053,12.0564-8.21,14.17108-15.41922" fill="#1b3e30"/><path d="M91.31685,71.68613C78.756,71.25687,77.09776,61.18124,67.34826,60.43131c-8.21667-.63168-16.33823,6.25549-16.75455,17.343,0,.02979,0,.06049-.00264.08937,9.53151-.371,23.50416-.67568,41.32366-.77571a38.73828,38.73828,0,0,0-.59788-5.40189" fill="#d72331"/><path d="M97.789,64.17138c-1.20278-3.50968-5.1225-9.094-9.06535-10.67571-10.762-4.321-26.60463.46707-31.09736,7.52633,6.9-4.61672,13.64881-3.087,18.339-.1085,4.91342,3.1195,9.23088,7.85637,16.53127,7.19809,3.04071-.2723,6.02993-1.78554,5.2924-3.94021M69.15777,56.17881a26.7743,26.7743,0,0,0-4.248.39683,17.12657,17.12657,0,0,1,4.33968-1.54222c-.04892.39054-.07653.78336-.09164,1.14539m4.73468.40521a23.42524,23.42524,0,0,0-3.41977-.387,10.27216,10.27216,0,0,1,.13966-1.40292,21.7681,21.7681,0,0,1,3.32192-.21928,11.78254,11.78254,0,0,0-.04181,2.00919m1.33715.29543a11.07091,11.07091,0,0,1,.01867-2.25752,24.99144,24.99144,0,0,1,5.07449.88521,8.49025,8.49025,0,0,0,.05065,3.28275,25.96193,25.96193,0,0,0-5.14381-1.91044m13.43263,7.68374-.54186-2.0888a17.5704,17.5704,0,0,0,1.81314.09556l1.314,1.97858a19.11236,19.11236,0,0,1-2.58529.01466M90.679,59.94912c-1.86024.26064-3.56744.28068-5.00326-.76022-2.69206-1.95316-2.67521-4.94284-.42351-5.23946,3.00343-.39683,6.25056,2.63595,7.0557,4.05937.52582.931-.03025,1.71521-1.62893,1.94031m2.80684,4.3508L93.283,62.21321a6.569,6.569,0,0,0,1.17436-.391l1.02841,2.0756c-.56226.1463-1.2517.2855-1.99989.40211" fill="#1b3e30"/></svg>